G75*
G70*
%OFA0B0*%
%FSLAX24Y24*%
%IPPOS*%
%LPD*%
%AMOC8*
5,1,8,0,0,1.08239X$1,22.5*
%
%ADD10C,0.0000*%
%ADD11C,0.0060*%
%ADD12C,0.0030*%
%ADD13C,0.0040*%
%ADD14C,0.0050*%
%ADD15C,0.0080*%
%ADD16C,0.0160*%
%ADD17R,0.0340X0.0240*%
%ADD18R,0.4000X0.0400*%
%ADD19C,0.0200*%
%ADD20R,0.4200X0.0300*%
%ADD21R,0.0750X0.0200*%
%ADD22R,0.0300X0.0200*%
D10*
X000101Y000262D02*
X000101Y019632D01*
X039093Y019632D01*
X039093Y000262D01*
X000101Y000262D01*
X023356Y007117D02*
X023358Y007096D01*
X023363Y007076D01*
X023372Y007057D01*
X023384Y007040D01*
X023399Y007025D01*
X023416Y007013D01*
X023435Y007004D01*
X023455Y006999D01*
X023476Y006997D01*
X023497Y006999D01*
X023517Y007004D01*
X023536Y007013D01*
X023553Y007025D01*
X023568Y007040D01*
X023580Y007057D01*
X023589Y007076D01*
X023594Y007096D01*
X023596Y007117D01*
X027106Y013617D02*
X027108Y013596D01*
X027113Y013576D01*
X027122Y013557D01*
X027134Y013540D01*
X027149Y013525D01*
X027166Y013513D01*
X027185Y013504D01*
X027205Y013499D01*
X027226Y013497D01*
X027247Y013499D01*
X027267Y013504D01*
X027286Y013513D01*
X027303Y013525D01*
X027318Y013540D01*
X027330Y013557D01*
X027339Y013576D01*
X027344Y013596D01*
X027346Y013617D01*
D11*
X027106Y013617D01*
X026486Y013617D01*
X027346Y013617D02*
X027966Y013617D01*
X027966Y011657D02*
X026486Y011657D01*
X020851Y013152D02*
X020721Y013152D01*
X020481Y013152D01*
X020351Y013152D01*
X020481Y013152D02*
X020483Y013173D01*
X020488Y013193D01*
X020497Y013212D01*
X020509Y013229D01*
X020524Y013244D01*
X020541Y013256D01*
X020560Y013265D01*
X020580Y013270D01*
X020601Y013272D01*
X020622Y013270D01*
X020642Y013265D01*
X020661Y013256D01*
X020678Y013244D01*
X020693Y013229D01*
X020705Y013212D01*
X020714Y013193D01*
X020719Y013173D01*
X020721Y013152D01*
X020851Y014372D02*
X020351Y014372D01*
X018351Y017262D02*
X017851Y017262D01*
X017601Y017512D01*
X017351Y017262D01*
X016851Y017262D01*
X016601Y017512D01*
X016601Y018012D01*
X016851Y018262D01*
X017351Y018262D01*
X017601Y018012D01*
X017851Y018262D01*
X018351Y018262D01*
X018601Y018012D01*
X018601Y017512D01*
X018351Y017262D01*
X017601Y017512D02*
X017601Y018012D01*
X016601Y018012D02*
X016351Y018262D01*
X015851Y018262D01*
X015601Y018012D01*
X015351Y018262D01*
X014851Y018262D01*
X014601Y018012D01*
X014601Y017512D01*
X014851Y017262D01*
X015351Y017262D01*
X015601Y017512D01*
X015601Y018012D01*
X015601Y017512D02*
X015851Y017262D01*
X016351Y017262D01*
X016601Y017512D01*
X020851Y018137D02*
X021101Y017887D01*
X021601Y017887D01*
X021851Y018137D01*
X022101Y017887D01*
X022601Y017887D01*
X022851Y018137D01*
X022851Y018637D01*
X022601Y018887D01*
X022101Y018887D01*
X021851Y018637D01*
X021851Y018137D01*
X021851Y018637D02*
X021601Y018887D01*
X021101Y018887D01*
X020851Y018637D01*
X020851Y018137D01*
X023526Y017787D02*
X023626Y017687D01*
X027326Y017687D01*
X027426Y017787D01*
X027476Y018937D01*
X023476Y018937D02*
X023526Y017787D01*
X033401Y015762D02*
X033401Y014762D01*
X033403Y014745D01*
X033407Y014728D01*
X033414Y014712D01*
X033424Y014698D01*
X033437Y014685D01*
X033451Y014675D01*
X033467Y014668D01*
X033484Y014664D01*
X033501Y014662D01*
X033751Y014662D01*
X033801Y014712D01*
X036401Y014712D01*
X036451Y014662D01*
X036701Y014662D01*
X036718Y014664D01*
X036735Y014668D01*
X036751Y014675D01*
X036765Y014685D01*
X036778Y014698D01*
X036788Y014712D01*
X036795Y014728D01*
X036799Y014745D01*
X036801Y014762D01*
X036801Y015762D01*
X036799Y015779D01*
X036795Y015796D01*
X036788Y015812D01*
X036778Y015826D01*
X036765Y015839D01*
X036751Y015849D01*
X036735Y015856D01*
X036718Y015860D01*
X036701Y015862D01*
X036451Y015862D01*
X036401Y015812D01*
X033801Y015812D01*
X033751Y015862D01*
X033501Y015862D01*
X033484Y015860D01*
X033467Y015856D01*
X033451Y015849D01*
X033437Y015839D01*
X033424Y015826D01*
X033414Y015812D01*
X033407Y015796D01*
X033403Y015779D01*
X033401Y015762D01*
X033501Y014362D02*
X033751Y014362D01*
X033801Y014312D01*
X036401Y014312D01*
X036451Y014362D01*
X036701Y014362D01*
X036718Y014360D01*
X036735Y014356D01*
X036751Y014349D01*
X036765Y014339D01*
X036778Y014326D01*
X036788Y014312D01*
X036795Y014296D01*
X036799Y014279D01*
X036801Y014262D01*
X036801Y013262D01*
X036799Y013245D01*
X036795Y013228D01*
X036788Y013212D01*
X036778Y013198D01*
X036765Y013185D01*
X036751Y013175D01*
X036735Y013168D01*
X036718Y013164D01*
X036701Y013162D01*
X036451Y013162D01*
X036401Y013212D01*
X033801Y013212D01*
X033751Y013162D01*
X033501Y013162D01*
X033484Y013164D01*
X033467Y013168D01*
X033451Y013175D01*
X033437Y013185D01*
X033424Y013198D01*
X033414Y013212D01*
X033407Y013228D01*
X033403Y013245D01*
X033401Y013262D01*
X033401Y014262D01*
X033403Y014279D01*
X033407Y014296D01*
X033414Y014312D01*
X033424Y014326D01*
X033437Y014339D01*
X033451Y014349D01*
X033467Y014356D01*
X033484Y014360D01*
X033501Y014362D01*
X033501Y012862D02*
X033751Y012862D01*
X033801Y012812D01*
X036401Y012812D01*
X036451Y012862D01*
X036701Y012862D01*
X036718Y012860D01*
X036735Y012856D01*
X036751Y012849D01*
X036765Y012839D01*
X036778Y012826D01*
X036788Y012812D01*
X036795Y012796D01*
X036799Y012779D01*
X036801Y012762D01*
X036801Y011762D01*
X036799Y011745D01*
X036795Y011728D01*
X036788Y011712D01*
X036778Y011698D01*
X036765Y011685D01*
X036751Y011675D01*
X036735Y011668D01*
X036718Y011664D01*
X036701Y011662D01*
X036451Y011662D01*
X036401Y011712D01*
X033801Y011712D01*
X033751Y011662D01*
X033501Y011662D01*
X033484Y011664D01*
X033467Y011668D01*
X033451Y011675D01*
X033437Y011685D01*
X033424Y011698D01*
X033414Y011712D01*
X033407Y011728D01*
X033403Y011745D01*
X033401Y011762D01*
X033401Y012762D01*
X033403Y012779D01*
X033407Y012796D01*
X033414Y012812D01*
X033424Y012826D01*
X033437Y012839D01*
X033451Y012849D01*
X033467Y012856D01*
X033484Y012860D01*
X033501Y012862D01*
X033501Y011362D02*
X033751Y011362D01*
X033801Y011312D01*
X036401Y011312D01*
X036451Y011362D01*
X036701Y011362D01*
X036718Y011360D01*
X036735Y011356D01*
X036751Y011349D01*
X036765Y011339D01*
X036778Y011326D01*
X036788Y011312D01*
X036795Y011296D01*
X036799Y011279D01*
X036801Y011262D01*
X036801Y010262D01*
X036799Y010245D01*
X036795Y010228D01*
X036788Y010212D01*
X036778Y010198D01*
X036765Y010185D01*
X036751Y010175D01*
X036735Y010168D01*
X036718Y010164D01*
X036701Y010162D01*
X036451Y010162D01*
X036401Y010212D01*
X033801Y010212D01*
X033751Y010162D01*
X033501Y010162D01*
X033484Y010164D01*
X033467Y010168D01*
X033451Y010175D01*
X033437Y010185D01*
X033424Y010198D01*
X033414Y010212D01*
X033407Y010228D01*
X033403Y010245D01*
X033401Y010262D01*
X033401Y011262D01*
X033403Y011279D01*
X033407Y011296D01*
X033414Y011312D01*
X033424Y011326D01*
X033437Y011339D01*
X033451Y011349D01*
X033467Y011356D01*
X033484Y011360D01*
X033501Y011362D01*
X033501Y009862D02*
X033751Y009862D01*
X033801Y009812D01*
X036401Y009812D01*
X036451Y009862D01*
X036701Y009862D01*
X036718Y009860D01*
X036735Y009856D01*
X036751Y009849D01*
X036765Y009839D01*
X036778Y009826D01*
X036788Y009812D01*
X036795Y009796D01*
X036799Y009779D01*
X036801Y009762D01*
X036801Y008762D01*
X036799Y008745D01*
X036795Y008728D01*
X036788Y008712D01*
X036778Y008698D01*
X036765Y008685D01*
X036751Y008675D01*
X036735Y008668D01*
X036718Y008664D01*
X036701Y008662D01*
X036451Y008662D01*
X036401Y008712D01*
X033801Y008712D01*
X033751Y008662D01*
X033501Y008662D01*
X033484Y008664D01*
X033467Y008668D01*
X033451Y008675D01*
X033437Y008685D01*
X033424Y008698D01*
X033414Y008712D01*
X033407Y008728D01*
X033403Y008745D01*
X033401Y008762D01*
X033401Y009762D01*
X033403Y009779D01*
X033407Y009796D01*
X033414Y009812D01*
X033424Y009826D01*
X033437Y009839D01*
X033451Y009849D01*
X033467Y009856D01*
X033484Y009860D01*
X033501Y009862D01*
X033501Y008362D02*
X033751Y008362D01*
X033801Y008312D01*
X036401Y008312D01*
X036451Y008362D01*
X036701Y008362D01*
X036718Y008360D01*
X036735Y008356D01*
X036751Y008349D01*
X036765Y008339D01*
X036778Y008326D01*
X036788Y008312D01*
X036795Y008296D01*
X036799Y008279D01*
X036801Y008262D01*
X036801Y007262D01*
X036799Y007245D01*
X036795Y007228D01*
X036788Y007212D01*
X036778Y007198D01*
X036765Y007185D01*
X036751Y007175D01*
X036735Y007168D01*
X036718Y007164D01*
X036701Y007162D01*
X036451Y007162D01*
X036401Y007212D01*
X033801Y007212D01*
X033751Y007162D01*
X033501Y007162D01*
X033484Y007164D01*
X033467Y007168D01*
X033451Y007175D01*
X033437Y007185D01*
X033424Y007198D01*
X033414Y007212D01*
X033407Y007228D01*
X033403Y007245D01*
X033401Y007262D01*
X033401Y008262D01*
X033403Y008279D01*
X033407Y008296D01*
X033414Y008312D01*
X033424Y008326D01*
X033437Y008339D01*
X033451Y008349D01*
X033467Y008356D01*
X033484Y008360D01*
X033501Y008362D01*
X033501Y006862D02*
X033751Y006862D01*
X033801Y006812D01*
X036401Y006812D01*
X036451Y006862D01*
X036701Y006862D01*
X036718Y006860D01*
X036735Y006856D01*
X036751Y006849D01*
X036765Y006839D01*
X036778Y006826D01*
X036788Y006812D01*
X036795Y006796D01*
X036799Y006779D01*
X036801Y006762D01*
X036801Y005762D01*
X036799Y005745D01*
X036795Y005728D01*
X036788Y005712D01*
X036778Y005698D01*
X036765Y005685D01*
X036751Y005675D01*
X036735Y005668D01*
X036718Y005664D01*
X036701Y005662D01*
X036451Y005662D01*
X036401Y005712D01*
X033801Y005712D01*
X033751Y005662D01*
X033501Y005662D01*
X033484Y005664D01*
X033467Y005668D01*
X033451Y005675D01*
X033437Y005685D01*
X033424Y005698D01*
X033414Y005712D01*
X033407Y005728D01*
X033403Y005745D01*
X033401Y005762D01*
X033401Y006762D01*
X033403Y006779D01*
X033407Y006796D01*
X033414Y006812D01*
X033424Y006826D01*
X033437Y006839D01*
X033451Y006849D01*
X033467Y006856D01*
X033484Y006860D01*
X033501Y006862D01*
X033501Y005362D02*
X033751Y005362D01*
X033801Y005312D01*
X036401Y005312D01*
X036451Y005362D01*
X036701Y005362D01*
X036718Y005360D01*
X036735Y005356D01*
X036751Y005349D01*
X036765Y005339D01*
X036778Y005326D01*
X036788Y005312D01*
X036795Y005296D01*
X036799Y005279D01*
X036801Y005262D01*
X036801Y004262D01*
X036799Y004245D01*
X036795Y004228D01*
X036788Y004212D01*
X036778Y004198D01*
X036765Y004185D01*
X036751Y004175D01*
X036735Y004168D01*
X036718Y004164D01*
X036701Y004162D01*
X036451Y004162D01*
X036401Y004212D01*
X033801Y004212D01*
X033751Y004162D01*
X033501Y004162D01*
X033484Y004164D01*
X033467Y004168D01*
X033451Y004175D01*
X033437Y004185D01*
X033424Y004198D01*
X033414Y004212D01*
X033407Y004228D01*
X033403Y004245D01*
X033401Y004262D01*
X033401Y005262D01*
X033403Y005279D01*
X033407Y005296D01*
X033414Y005312D01*
X033424Y005326D01*
X033437Y005339D01*
X033451Y005349D01*
X033467Y005356D01*
X033484Y005360D01*
X033501Y005362D01*
X033501Y003862D02*
X033751Y003862D01*
X033801Y003812D01*
X036401Y003812D01*
X036451Y003862D01*
X036701Y003862D01*
X036718Y003860D01*
X036735Y003856D01*
X036751Y003849D01*
X036765Y003839D01*
X036778Y003826D01*
X036788Y003812D01*
X036795Y003796D01*
X036799Y003779D01*
X036801Y003762D01*
X036801Y002762D01*
X036799Y002745D01*
X036795Y002728D01*
X036788Y002712D01*
X036778Y002698D01*
X036765Y002685D01*
X036751Y002675D01*
X036735Y002668D01*
X036718Y002664D01*
X036701Y002662D01*
X036451Y002662D01*
X036401Y002712D01*
X033801Y002712D01*
X033751Y002662D01*
X033501Y002662D01*
X033484Y002664D01*
X033467Y002668D01*
X033451Y002675D01*
X033437Y002685D01*
X033424Y002698D01*
X033414Y002712D01*
X033407Y002728D01*
X033403Y002745D01*
X033401Y002762D01*
X033401Y003762D01*
X033403Y003779D01*
X033407Y003796D01*
X033414Y003812D01*
X033424Y003826D01*
X033437Y003839D01*
X033451Y003849D01*
X033467Y003856D01*
X033484Y003860D01*
X033501Y003862D01*
X033501Y002362D02*
X033751Y002362D01*
X033801Y002312D01*
X036401Y002312D01*
X036451Y002362D01*
X036701Y002362D01*
X036718Y002360D01*
X036735Y002356D01*
X036751Y002349D01*
X036765Y002339D01*
X036778Y002326D01*
X036788Y002312D01*
X036795Y002296D01*
X036799Y002279D01*
X036801Y002262D01*
X036801Y001262D01*
X036799Y001245D01*
X036795Y001228D01*
X036788Y001212D01*
X036778Y001198D01*
X036765Y001185D01*
X036751Y001175D01*
X036735Y001168D01*
X036718Y001164D01*
X036701Y001162D01*
X036451Y001162D01*
X036401Y001212D01*
X033801Y001212D01*
X033751Y001162D01*
X033501Y001162D01*
X033484Y001164D01*
X033467Y001168D01*
X033451Y001175D01*
X033437Y001185D01*
X033424Y001198D01*
X033414Y001212D01*
X033407Y001228D01*
X033403Y001245D01*
X033401Y001262D01*
X033401Y002262D01*
X033403Y002279D01*
X033407Y002296D01*
X033414Y002312D01*
X033424Y002326D01*
X033437Y002339D01*
X033451Y002349D01*
X033467Y002356D01*
X033484Y002360D01*
X033501Y002362D01*
X024216Y005157D02*
X022736Y005157D01*
X022736Y007117D02*
X023356Y007117D01*
X023596Y007117D01*
X024216Y007117D01*
X020601Y002262D02*
X020101Y002262D01*
X019851Y002012D01*
X019851Y001512D01*
X020101Y001262D01*
X020601Y001262D01*
X020851Y001512D01*
X020851Y002012D01*
X020601Y002262D01*
X019851Y002012D02*
X019601Y002262D01*
X019101Y002262D01*
X018851Y002012D01*
X018851Y001512D01*
X019101Y001262D01*
X019601Y001262D01*
X019851Y001512D01*
X017351Y001512D02*
X017101Y001262D01*
X016601Y001262D01*
X016351Y001512D01*
X016101Y001262D01*
X015601Y001262D01*
X015351Y001512D01*
X015351Y002012D01*
X015601Y002262D01*
X016101Y002262D01*
X016351Y002012D01*
X016601Y002262D01*
X017101Y002262D01*
X017351Y002012D01*
X017351Y001512D01*
X016351Y001512D02*
X016351Y002012D01*
X012601Y002012D02*
X012601Y001512D01*
X012351Y001262D01*
X011851Y001262D01*
X011601Y001512D01*
X011601Y002012D01*
X011851Y002262D01*
X011601Y002512D01*
X011601Y003012D01*
X011851Y003262D01*
X012351Y003262D01*
X012601Y003012D01*
X012601Y002512D01*
X012351Y002262D01*
X012601Y002012D01*
X012351Y002262D02*
X011851Y002262D01*
X009101Y002012D02*
X009101Y001512D01*
X008851Y001262D01*
X008351Y001262D01*
X008101Y001512D01*
X007851Y001262D01*
X007351Y001262D01*
X007101Y001512D01*
X006851Y001262D01*
X006351Y001262D01*
X006101Y001512D01*
X006101Y002012D01*
X006351Y002262D01*
X006851Y002262D01*
X007101Y002012D01*
X007351Y002262D01*
X007851Y002262D01*
X008101Y002012D01*
X008351Y002262D01*
X008851Y002262D01*
X009101Y002012D01*
X008101Y002012D02*
X008101Y001512D01*
X007101Y001512D02*
X007101Y002012D01*
X003601Y002012D02*
X003601Y001512D01*
X003351Y001262D01*
X002851Y001262D01*
X002601Y001512D01*
X002351Y001262D01*
X001851Y001262D01*
X001601Y001512D01*
X001601Y002012D01*
X001851Y002262D01*
X002351Y002262D01*
X002601Y002012D01*
X002851Y002262D01*
X003351Y002262D01*
X003601Y002012D01*
X002601Y002012D02*
X002601Y001512D01*
X001851Y006637D02*
X001351Y006637D01*
X001101Y006887D01*
X001101Y007387D01*
X001351Y007637D01*
X001101Y007887D01*
X001101Y008387D01*
X001351Y008637D01*
X001101Y008887D01*
X001101Y009387D01*
X001351Y009637D01*
X001851Y009637D01*
X002101Y009387D01*
X002101Y008887D01*
X001851Y008637D01*
X002101Y008387D01*
X002101Y007887D01*
X001851Y007637D01*
X002101Y007387D01*
X002101Y006887D01*
X001851Y006637D01*
X002631Y006792D02*
X002631Y007433D01*
X002951Y007433D01*
X003058Y007326D01*
X003058Y007112D01*
X002951Y007006D01*
X002631Y007006D01*
X002844Y007006D02*
X003058Y006792D01*
X003275Y006792D02*
X003702Y007433D01*
X003275Y007433D02*
X003702Y006792D01*
X003577Y007792D02*
X003150Y008433D01*
X002933Y008433D02*
X002506Y008433D01*
X002719Y008433D02*
X002719Y007792D01*
X003150Y007792D02*
X003577Y008433D01*
X001851Y008637D02*
X001351Y008637D01*
X001351Y007637D02*
X001851Y007637D01*
X005951Y009062D02*
X005951Y011462D01*
X005953Y011512D01*
X005959Y011561D01*
X005968Y011610D01*
X005981Y011658D01*
X005998Y011705D01*
X006018Y011750D01*
X006042Y011794D01*
X006069Y011836D01*
X006100Y011876D01*
X006133Y011913D01*
X006169Y011947D01*
X006207Y011979D01*
X006248Y012008D01*
X006290Y012033D01*
X006335Y012055D01*
X006381Y012074D01*
X006429Y012089D01*
X006477Y012100D01*
X006526Y012108D01*
X006576Y012112D01*
X006626Y012112D01*
X006676Y012108D01*
X006725Y012100D01*
X006773Y012089D01*
X006821Y012074D01*
X006867Y012055D01*
X006912Y012033D01*
X006954Y012008D01*
X006995Y011979D01*
X007033Y011947D01*
X007069Y011913D01*
X007102Y011876D01*
X007133Y011836D01*
X007160Y011794D01*
X007184Y011750D01*
X007204Y011705D01*
X007221Y011658D01*
X007234Y011610D01*
X007243Y011561D01*
X007249Y011512D01*
X007251Y011462D01*
X007251Y009062D01*
X007249Y009012D01*
X007243Y008963D01*
X007234Y008914D01*
X007221Y008866D01*
X007204Y008819D01*
X007184Y008774D01*
X007160Y008730D01*
X007133Y008688D01*
X007102Y008648D01*
X007069Y008611D01*
X007033Y008577D01*
X006995Y008545D01*
X006954Y008516D01*
X006912Y008491D01*
X006867Y008469D01*
X006821Y008450D01*
X006773Y008435D01*
X006725Y008424D01*
X006676Y008416D01*
X006626Y008412D01*
X006576Y008412D01*
X006526Y008416D01*
X006477Y008424D01*
X006429Y008435D01*
X006381Y008450D01*
X006335Y008469D01*
X006290Y008491D01*
X006248Y008516D01*
X006207Y008545D01*
X006169Y008577D01*
X006133Y008611D01*
X006100Y008648D01*
X006069Y008688D01*
X006042Y008730D01*
X006018Y008774D01*
X005998Y008819D01*
X005981Y008866D01*
X005968Y008914D01*
X005959Y008963D01*
X005953Y009012D01*
X005951Y009062D01*
X006601Y009762D02*
X006601Y010012D01*
X006901Y010012D01*
X006901Y010162D02*
X006301Y010162D01*
X006301Y010362D01*
X006901Y010362D01*
X006901Y010162D01*
X006601Y010012D02*
X006301Y010012D01*
X006301Y010512D02*
X006601Y010512D01*
X006601Y010762D01*
X006601Y010512D02*
X006901Y010512D01*
X010721Y010882D02*
X010721Y013502D01*
X010861Y013642D01*
X013481Y013642D01*
X013481Y010882D01*
X010721Y010882D01*
X010880Y013342D02*
X010882Y013365D01*
X010888Y013388D01*
X010897Y013409D01*
X010910Y013429D01*
X010926Y013446D01*
X010944Y013460D01*
X010964Y013471D01*
X010986Y013479D01*
X011009Y013483D01*
X011033Y013483D01*
X011056Y013479D01*
X011078Y013471D01*
X011098Y013460D01*
X011116Y013446D01*
X011132Y013429D01*
X011145Y013409D01*
X011154Y013388D01*
X011160Y013365D01*
X011162Y013342D01*
X011160Y013319D01*
X011154Y013296D01*
X011145Y013275D01*
X011132Y013255D01*
X011116Y013238D01*
X011098Y013224D01*
X011078Y013213D01*
X011056Y013205D01*
X011033Y013201D01*
X011009Y013201D01*
X010986Y013205D01*
X010964Y013213D01*
X010944Y013224D01*
X010926Y013238D01*
X010910Y013255D01*
X010897Y013275D01*
X010888Y013296D01*
X010882Y013319D01*
X010880Y013342D01*
X009201Y017682D02*
X009201Y018042D01*
X008841Y018042D01*
X008361Y018042D02*
X008001Y018042D01*
X008001Y017682D01*
X008471Y017482D02*
X008731Y017482D01*
X002101Y012762D02*
X001851Y013012D01*
X001351Y013012D01*
X001101Y012762D01*
X001101Y012262D01*
X001351Y012012D01*
X001851Y012012D01*
X002101Y012262D01*
X002101Y012762D01*
X001851Y012012D02*
X002101Y011762D01*
X002101Y011262D01*
X001851Y011012D01*
X001351Y011012D01*
X001101Y011262D01*
X001101Y011762D01*
X001351Y012012D01*
X000844Y013024D02*
X000844Y013451D01*
X000631Y013237D02*
X001058Y013237D01*
X035506Y018237D02*
X035933Y018237D01*
X036101Y018012D02*
X036351Y018262D01*
X036851Y018262D01*
X037101Y018012D01*
X037351Y018262D01*
X037851Y018262D01*
X038101Y018012D01*
X038101Y017512D01*
X037851Y017262D01*
X037351Y017262D01*
X037101Y017512D01*
X036851Y017262D01*
X036351Y017262D01*
X036101Y017512D01*
X036101Y018012D01*
X035719Y018024D02*
X035719Y018451D01*
X037101Y018012D02*
X037101Y017512D01*
D12*
X027345Y012794D02*
X027267Y012872D01*
X027110Y012872D01*
X027031Y012794D01*
X026885Y012794D02*
X026806Y012872D01*
X026650Y012872D01*
X026571Y012794D01*
X026571Y012716D01*
X026650Y012637D01*
X026806Y012637D01*
X026885Y012559D01*
X026885Y012480D01*
X026806Y012402D01*
X026650Y012402D01*
X026571Y012480D01*
X026424Y012480D02*
X026424Y012872D01*
X026111Y012872D02*
X026111Y012480D01*
X026189Y012402D01*
X026346Y012402D01*
X026424Y012480D01*
X026728Y012324D02*
X026728Y012951D01*
X027031Y012402D02*
X027345Y012716D01*
X027345Y012794D01*
X027345Y012402D02*
X027031Y012402D01*
X026154Y013650D02*
X025841Y013964D01*
X025998Y013964D02*
X025998Y013650D01*
X025841Y013650D02*
X026154Y013964D01*
X026154Y013807D02*
X025841Y013807D01*
X021456Y013129D02*
X021142Y012815D01*
X021142Y012972D02*
X021456Y012972D01*
X021456Y012815D02*
X021142Y013129D01*
X021299Y013129D02*
X021299Y012815D01*
X022091Y007464D02*
X022404Y007150D01*
X022248Y007150D02*
X022248Y007464D01*
X022404Y007464D02*
X022091Y007150D01*
X022091Y007307D02*
X022404Y007307D01*
X022361Y006372D02*
X022361Y005980D01*
X022439Y005902D01*
X022596Y005902D01*
X022674Y005980D01*
X022674Y006372D01*
X022821Y006294D02*
X022900Y006372D01*
X023056Y006372D01*
X023135Y006294D01*
X023281Y006216D02*
X023438Y006372D01*
X023438Y005902D01*
X023281Y005902D02*
X023595Y005902D01*
X023135Y005980D02*
X023135Y006059D01*
X023056Y006137D01*
X022900Y006137D01*
X022821Y006216D01*
X022821Y006294D01*
X022978Y006451D02*
X022978Y005824D01*
X022900Y005902D02*
X023056Y005902D01*
X023135Y005980D01*
X022900Y005902D02*
X022821Y005980D01*
X011710Y014277D02*
X011517Y014277D01*
X011614Y014277D02*
X011614Y014567D01*
X011517Y014471D01*
X011416Y014519D02*
X011367Y014567D01*
X011271Y014567D01*
X011222Y014519D01*
X011222Y014325D01*
X011271Y014277D01*
X011367Y014277D01*
X011416Y014325D01*
X011123Y014277D02*
X011026Y014277D01*
X011074Y014277D02*
X011074Y014567D01*
X011026Y014567D02*
X011123Y014567D01*
X008177Y017047D02*
X007864Y017361D01*
X008021Y017361D02*
X008021Y017047D01*
X007864Y017047D02*
X008177Y017361D01*
X008177Y017204D02*
X007864Y017204D01*
D13*
X008241Y016652D02*
X008241Y016344D01*
X008302Y016282D01*
X008426Y016282D01*
X008488Y016344D01*
X008488Y016652D01*
X008618Y016591D02*
X008680Y016652D01*
X008803Y016652D01*
X008865Y016591D01*
X008865Y016529D01*
X008618Y016282D01*
X008865Y016282D01*
X009697Y017282D02*
X009620Y017359D01*
X009620Y017512D01*
X009697Y017589D01*
X009697Y017742D02*
X009620Y017819D01*
X009620Y017973D01*
X009697Y018049D01*
X009774Y018049D01*
X009851Y017973D01*
X009851Y017819D01*
X009774Y017742D01*
X009697Y017742D01*
X009851Y017819D02*
X009927Y017742D01*
X010004Y017742D01*
X010081Y017819D01*
X010081Y017973D01*
X010004Y018049D01*
X009927Y018049D01*
X009851Y017973D01*
X010004Y017589D02*
X010081Y017512D01*
X010081Y017359D01*
X010004Y017282D01*
X009697Y017282D01*
X011370Y017282D02*
X011370Y017512D01*
X011447Y017589D01*
X011601Y017589D01*
X011677Y017512D01*
X011677Y017282D01*
X011677Y017435D02*
X011831Y017589D01*
X011831Y017742D02*
X011524Y018049D01*
X011447Y018049D01*
X011370Y017973D01*
X011370Y017819D01*
X011447Y017742D01*
X011831Y017742D02*
X011831Y018049D01*
X011831Y018203D02*
X011754Y018203D01*
X011447Y018510D01*
X011370Y018510D01*
X011370Y018203D01*
X012370Y017973D02*
X012370Y017819D01*
X012447Y017742D01*
X012447Y017589D02*
X012601Y017589D01*
X012677Y017512D01*
X012677Y017282D01*
X012677Y017435D02*
X012831Y017589D01*
X012831Y017742D02*
X012524Y018049D01*
X012447Y018049D01*
X012370Y017973D01*
X012601Y018203D02*
X012447Y018356D01*
X012370Y018510D01*
X012601Y018433D02*
X012601Y018203D01*
X012754Y018203D01*
X012831Y018279D01*
X012831Y018433D01*
X012754Y018510D01*
X012677Y018510D01*
X012601Y018433D01*
X012831Y018049D02*
X012831Y017742D01*
X012447Y017589D02*
X012370Y017512D01*
X012370Y017282D01*
X012831Y017282D01*
X011831Y017282D02*
X011370Y017282D01*
X010814Y015367D02*
X010814Y014907D01*
X010967Y014907D02*
X010660Y014907D01*
X010507Y014907D02*
X010353Y015060D01*
X010430Y015060D02*
X010200Y015060D01*
X010200Y014907D02*
X010200Y015367D01*
X010430Y015367D01*
X010507Y015291D01*
X010507Y015137D01*
X010430Y015060D01*
X010660Y015214D02*
X010814Y015367D01*
X006581Y017359D02*
X006581Y017512D01*
X006504Y017589D01*
X006504Y017742D02*
X006581Y017742D01*
X006504Y017742D02*
X006197Y018049D01*
X006120Y018049D01*
X006120Y017742D01*
X006197Y017589D02*
X006120Y017512D01*
X006120Y017359D01*
X006197Y017282D01*
X006504Y017282D01*
X006581Y017359D01*
X002479Y016176D02*
X002479Y016023D01*
X002403Y015946D01*
X002479Y015792D02*
X002479Y015486D01*
X002479Y015639D02*
X002019Y015639D01*
X002173Y015486D01*
X002096Y015332D02*
X002019Y015255D01*
X002019Y015102D01*
X002096Y015025D01*
X002403Y015025D01*
X002479Y015102D01*
X002479Y015255D01*
X002403Y015332D01*
X002096Y015946D02*
X002019Y016023D01*
X002019Y016176D01*
X002096Y016253D01*
X002173Y016253D01*
X002249Y016176D01*
X002326Y016253D01*
X002403Y016253D01*
X002479Y016176D01*
X002249Y016176D02*
X002249Y016099D01*
X007620Y012598D02*
X007697Y012674D01*
X007774Y012674D01*
X007851Y012598D01*
X007927Y012674D01*
X008004Y012674D01*
X008081Y012598D01*
X008081Y012444D01*
X008004Y012367D01*
X008004Y012214D02*
X008081Y012137D01*
X008081Y011984D01*
X008004Y011907D01*
X007697Y011907D01*
X007620Y011984D01*
X007620Y012137D01*
X007697Y012214D01*
X007697Y012367D02*
X007620Y012444D01*
X007620Y012598D01*
X007851Y012598D02*
X007851Y012521D01*
X007774Y011299D02*
X007697Y011299D01*
X007620Y011223D01*
X007620Y011069D01*
X007697Y010992D01*
X007697Y010839D02*
X007620Y010762D01*
X007620Y010532D01*
X008081Y010532D01*
X007927Y010532D02*
X007927Y010762D01*
X007851Y010839D01*
X007697Y010839D01*
X007927Y010685D02*
X008081Y010839D01*
X008081Y010992D02*
X007774Y011299D01*
X008081Y011299D02*
X008081Y010992D01*
X004763Y010166D02*
X004686Y010242D01*
X004533Y010242D01*
X004456Y010166D01*
X004410Y010282D02*
X004717Y010282D01*
X004763Y010166D02*
X004763Y010089D01*
X004456Y009782D01*
X004763Y009782D01*
X004303Y009859D02*
X004226Y009782D01*
X004072Y009782D01*
X003996Y009859D01*
X003996Y010166D01*
X004072Y010242D01*
X004226Y010242D01*
X004303Y010166D01*
X004180Y010282D02*
X004257Y010359D01*
X004180Y010282D02*
X004027Y010282D01*
X003950Y010359D01*
X003950Y010666D01*
X004027Y010742D01*
X004180Y010742D01*
X004257Y010666D01*
X004410Y010589D02*
X004564Y010742D01*
X004564Y010282D01*
X004822Y005242D02*
X004746Y005166D01*
X004746Y004859D01*
X004822Y004782D01*
X004976Y004782D01*
X005053Y004859D01*
X005206Y004859D02*
X005283Y004782D01*
X005436Y004782D01*
X005513Y004859D01*
X005513Y005012D01*
X005436Y005089D01*
X005360Y005089D01*
X005206Y005012D01*
X005206Y005242D01*
X005513Y005242D01*
X005053Y005166D02*
X004976Y005242D01*
X004822Y005242D01*
X005620Y004223D02*
X005851Y003992D01*
X005851Y004299D01*
X006081Y004223D02*
X005620Y004223D01*
X005697Y003839D02*
X005620Y003762D01*
X005620Y003532D01*
X006081Y003532D01*
X005927Y003532D02*
X005927Y003762D01*
X005851Y003839D01*
X005697Y003839D01*
X005927Y003685D02*
X006081Y003839D01*
X007620Y003762D02*
X007620Y003532D01*
X008081Y003532D01*
X007927Y003532D02*
X007927Y003762D01*
X007851Y003839D01*
X007697Y003839D01*
X007620Y003762D01*
X007697Y003992D02*
X007620Y004069D01*
X007620Y004223D01*
X007697Y004299D01*
X007774Y004299D01*
X007851Y004223D01*
X007927Y004299D01*
X008004Y004299D01*
X008081Y004223D01*
X008081Y004069D01*
X008004Y003992D01*
X008081Y003839D02*
X007927Y003685D01*
X007851Y004146D02*
X007851Y004223D01*
X007805Y004782D02*
X007882Y004859D01*
X007805Y004782D02*
X007652Y004782D01*
X007575Y004859D01*
X007575Y005166D01*
X007652Y005242D01*
X007805Y005242D01*
X007882Y005166D01*
X008035Y005012D02*
X008342Y005012D01*
X008266Y004782D02*
X008266Y005242D01*
X008035Y005012D01*
X008870Y004299D02*
X008870Y003992D01*
X009101Y003992D01*
X009024Y004146D01*
X009024Y004223D01*
X009101Y004299D01*
X009254Y004299D01*
X009331Y004223D01*
X009331Y004069D01*
X009254Y003992D01*
X009331Y003839D02*
X009177Y003685D01*
X009177Y003762D02*
X009177Y003532D01*
X009331Y003532D02*
X008870Y003532D01*
X008870Y003762D01*
X008947Y003839D01*
X009101Y003839D01*
X009177Y003762D01*
X005081Y002677D02*
X005081Y002523D01*
X005004Y002447D01*
X004851Y002447D01*
X004851Y002677D01*
X004927Y002754D01*
X005004Y002754D01*
X005081Y002677D01*
X004851Y002447D02*
X004697Y002600D01*
X004620Y002754D01*
X004697Y002293D02*
X004851Y002293D01*
X004927Y002216D01*
X004927Y001986D01*
X004927Y002140D02*
X005081Y002293D01*
X005081Y001986D02*
X004620Y001986D01*
X004620Y002216D01*
X004697Y002293D01*
X004004Y003361D02*
X004081Y003438D01*
X004081Y003591D01*
X004004Y003668D01*
X004004Y003822D02*
X004081Y003898D01*
X004081Y004052D01*
X004004Y004129D01*
X003927Y004129D01*
X003851Y004052D01*
X003851Y003822D01*
X004004Y003822D01*
X003851Y003822D02*
X003697Y003975D01*
X003620Y004129D01*
X003697Y003668D02*
X003620Y003591D01*
X003620Y003438D01*
X003697Y003361D01*
X004004Y003361D01*
X001581Y003532D02*
X001120Y003532D01*
X001120Y003762D01*
X001197Y003839D01*
X001351Y003839D01*
X001427Y003762D01*
X001427Y003532D01*
X001427Y003685D02*
X001581Y003839D01*
X001581Y003992D02*
X001504Y003992D01*
X001197Y004299D01*
X001120Y004299D01*
X001120Y003992D01*
X014870Y004069D02*
X014870Y004223D01*
X014947Y004299D01*
X015024Y004299D01*
X015101Y004223D01*
X015101Y004069D01*
X015024Y003992D01*
X014947Y003992D01*
X014870Y004069D01*
X015101Y004069D02*
X015177Y003992D01*
X015254Y003992D01*
X015331Y004069D01*
X015331Y004223D01*
X015254Y004299D01*
X015177Y004299D01*
X015101Y004223D01*
X015101Y003839D02*
X015177Y003762D01*
X015177Y003532D01*
X015177Y003685D02*
X015331Y003839D01*
X015101Y003839D02*
X014947Y003839D01*
X014870Y003762D01*
X014870Y003532D01*
X015331Y003532D01*
X017370Y003591D02*
X017370Y003438D01*
X017447Y003361D01*
X017447Y003208D02*
X017370Y003131D01*
X017370Y002978D01*
X017447Y002901D01*
X017754Y002901D01*
X017831Y002978D01*
X017831Y003131D01*
X017754Y003208D01*
X017831Y003361D02*
X017524Y003668D01*
X017447Y003668D01*
X017370Y003591D01*
X017524Y003822D02*
X017370Y003975D01*
X017831Y003975D01*
X017831Y003822D02*
X017831Y004129D01*
X018370Y004069D02*
X018447Y003992D01*
X018524Y003992D01*
X018601Y004069D01*
X018601Y004299D01*
X018754Y004299D02*
X018447Y004299D01*
X018370Y004223D01*
X018370Y004069D01*
X018447Y003839D02*
X018601Y003839D01*
X018677Y003762D01*
X018677Y003532D01*
X018677Y003685D02*
X018831Y003839D01*
X018754Y003992D02*
X018831Y004069D01*
X018831Y004223D01*
X018754Y004299D01*
X018447Y003839D02*
X018370Y003762D01*
X018370Y003532D01*
X018831Y003532D01*
X017831Y003668D02*
X017831Y003361D01*
X020870Y003438D02*
X020947Y003361D01*
X020870Y003438D02*
X020870Y003591D01*
X020947Y003668D01*
X021024Y003668D01*
X021331Y003361D01*
X021331Y003668D01*
X021331Y003822D02*
X021024Y004129D01*
X020947Y004129D01*
X020870Y004052D01*
X020870Y003898D01*
X020947Y003822D01*
X021331Y003822D02*
X021331Y004129D01*
X021254Y003208D02*
X021331Y003131D01*
X021331Y002978D01*
X021254Y002901D01*
X020947Y002901D01*
X020870Y002978D01*
X020870Y003131D01*
X020947Y003208D01*
X024006Y004320D02*
X024006Y004781D01*
X024159Y004781D02*
X023852Y004781D01*
X024312Y004781D02*
X024543Y004781D01*
X024619Y004704D01*
X024619Y004551D01*
X024543Y004474D01*
X024312Y004474D01*
X024312Y004320D02*
X024312Y004781D01*
X024773Y004244D02*
X025080Y004244D01*
X025233Y004320D02*
X025387Y004320D01*
X025310Y004320D02*
X025310Y004781D01*
X025233Y004781D02*
X025387Y004781D01*
X026197Y006026D02*
X026504Y006026D01*
X026581Y006103D01*
X026581Y006256D01*
X026504Y006333D01*
X026581Y006486D02*
X026274Y006793D01*
X026197Y006793D01*
X026120Y006716D01*
X026120Y006563D01*
X026197Y006486D01*
X026197Y006333D02*
X026120Y006256D01*
X026120Y006103D01*
X026197Y006026D01*
X026581Y006486D02*
X026581Y006793D01*
X026504Y006947D02*
X026197Y007254D01*
X026504Y007254D01*
X026581Y007177D01*
X026581Y007023D01*
X026504Y006947D01*
X026197Y006947D01*
X026120Y007023D01*
X026120Y007177D01*
X026197Y007254D01*
X027996Y008207D02*
X028149Y008207D01*
X028072Y008207D02*
X028072Y008667D01*
X027996Y008667D02*
X028149Y008667D01*
X028303Y008591D02*
X028303Y008284D01*
X028379Y008207D01*
X028533Y008207D01*
X028610Y008284D01*
X028763Y008284D02*
X028840Y008207D01*
X028993Y008207D01*
X029070Y008284D01*
X029070Y008360D01*
X028993Y008437D01*
X028916Y008437D01*
X028993Y008437D02*
X029070Y008514D01*
X029070Y008591D01*
X028993Y008667D01*
X028840Y008667D01*
X028763Y008591D01*
X028610Y008591D02*
X028533Y008667D01*
X028379Y008667D01*
X028303Y008591D01*
X028995Y008765D02*
X029149Y008611D01*
X029226Y008458D02*
X029302Y008381D01*
X029302Y008151D01*
X029302Y008304D02*
X029456Y008458D01*
X029456Y008611D02*
X029456Y008918D01*
X029456Y008765D02*
X028995Y008765D01*
X029072Y009072D02*
X028995Y009148D01*
X028995Y009302D01*
X029072Y009379D01*
X029149Y009379D01*
X029456Y009072D01*
X029456Y009379D01*
X029226Y008458D02*
X029072Y008458D01*
X028995Y008381D01*
X028995Y008151D01*
X029456Y008151D01*
X027098Y009532D02*
X026791Y009532D01*
X027098Y009839D01*
X027098Y009916D01*
X027022Y009992D01*
X026868Y009992D01*
X026791Y009916D01*
X026485Y009992D02*
X026485Y009532D01*
X026638Y009532D02*
X026331Y009532D01*
X026178Y009609D02*
X026101Y009532D01*
X025947Y009532D01*
X025871Y009609D01*
X025871Y009916D01*
X025947Y009992D01*
X026101Y009992D01*
X026178Y009916D01*
X026331Y009839D02*
X026485Y009992D01*
X025223Y010407D02*
X024916Y010407D01*
X024763Y010407D02*
X024456Y010407D01*
X024303Y010407D02*
X024149Y010560D01*
X024226Y010560D02*
X023996Y010560D01*
X023996Y010407D02*
X023996Y010867D01*
X024226Y010867D01*
X024303Y010791D01*
X024303Y010637D01*
X024226Y010560D01*
X024456Y010714D02*
X024610Y010867D01*
X024610Y010407D01*
X025070Y010407D02*
X025070Y010867D01*
X024916Y010714D01*
X021836Y010454D02*
X021759Y010531D01*
X021606Y010531D01*
X021529Y010454D01*
X021529Y010147D01*
X021606Y010070D01*
X021759Y010070D01*
X021836Y010147D01*
X021375Y010070D02*
X021375Y010377D01*
X021222Y010531D01*
X021069Y010377D01*
X021069Y010070D01*
X020915Y010147D02*
X020915Y010454D01*
X020838Y010531D01*
X020608Y010531D01*
X020608Y010070D01*
X020838Y010070D01*
X020915Y010147D01*
X021069Y010301D02*
X021375Y010301D01*
X020455Y009994D02*
X020148Y009994D01*
X019918Y010224D02*
X019687Y010224D01*
X019687Y010070D02*
X019687Y010531D01*
X019918Y010531D01*
X019994Y010454D01*
X019994Y010301D01*
X019918Y010224D01*
X019534Y010531D02*
X019227Y010531D01*
X019381Y010531D02*
X019381Y010070D01*
X018391Y011282D02*
X018237Y011282D01*
X018160Y011359D01*
X018160Y011435D01*
X018237Y011512D01*
X018391Y011512D01*
X018467Y011435D01*
X018467Y011359D01*
X018391Y011282D01*
X018391Y011512D02*
X018467Y011589D01*
X018467Y011666D01*
X018391Y011742D01*
X018237Y011742D01*
X018160Y011666D01*
X018160Y011589D01*
X018237Y011512D01*
X018007Y011282D02*
X017700Y011282D01*
X017853Y011282D02*
X017853Y011742D01*
X017700Y011589D01*
X017547Y011666D02*
X017470Y011742D01*
X017316Y011742D01*
X017240Y011666D01*
X017240Y011359D01*
X017316Y011282D01*
X017470Y011282D01*
X017547Y011359D01*
X015206Y011609D02*
X015206Y011762D01*
X015129Y011839D01*
X015206Y011992D02*
X015206Y012299D01*
X015206Y012146D02*
X014745Y012146D01*
X014899Y011992D01*
X014822Y011839D02*
X014745Y011762D01*
X014745Y011609D01*
X014822Y011532D01*
X015129Y011532D01*
X015206Y011609D01*
X015129Y012453D02*
X014822Y012453D01*
X014745Y012529D01*
X014745Y012683D01*
X014822Y012760D01*
X015129Y012453D01*
X015206Y012529D01*
X015206Y012683D01*
X015129Y012760D01*
X014822Y012760D01*
X017620Y013359D02*
X017697Y013282D01*
X018004Y013282D01*
X018081Y013359D01*
X018081Y013512D01*
X018004Y013589D01*
X018081Y013742D02*
X018081Y014049D01*
X018081Y013896D02*
X017620Y013896D01*
X017774Y013742D01*
X017697Y013589D02*
X017620Y013512D01*
X017620Y013359D01*
X017620Y014203D02*
X017620Y014510D01*
X017697Y014510D01*
X018004Y014203D01*
X018081Y014203D01*
X020206Y014834D02*
X020267Y014772D01*
X020391Y014772D01*
X020453Y014834D01*
X020453Y015142D01*
X020583Y015081D02*
X020645Y015142D01*
X020768Y015142D01*
X020830Y015081D01*
X020830Y015019D01*
X020768Y014957D01*
X020830Y014895D01*
X020830Y014834D01*
X020768Y014772D01*
X020645Y014772D01*
X020583Y014834D01*
X020707Y014957D02*
X020768Y014957D01*
X020206Y014834D02*
X020206Y015142D01*
X020256Y016883D02*
X019949Y016883D01*
X020103Y016883D02*
X020103Y017344D01*
X019949Y017190D01*
X019796Y017267D02*
X019719Y017344D01*
X019566Y017344D01*
X019489Y017267D01*
X019489Y016960D01*
X019566Y016883D01*
X019719Y016883D01*
X019796Y016960D01*
X020410Y017114D02*
X020716Y017114D01*
X020640Y017344D02*
X020640Y016883D01*
X020410Y017114D02*
X020640Y017344D01*
X024365Y016492D02*
X024365Y016032D01*
X024365Y016185D02*
X024595Y016185D01*
X024672Y016262D01*
X024672Y016416D01*
X024595Y016492D01*
X024365Y016492D01*
X024518Y016185D02*
X024672Y016032D01*
X024825Y016032D02*
X025132Y016032D01*
X024978Y016032D02*
X024978Y016492D01*
X024825Y016339D01*
X025285Y016416D02*
X025285Y016109D01*
X025592Y016416D01*
X025592Y016109D01*
X025516Y016032D01*
X025362Y016032D01*
X025285Y016109D01*
X025285Y016416D02*
X025362Y016492D01*
X025516Y016492D01*
X025592Y016416D01*
X026477Y016281D02*
X026784Y016281D01*
X026937Y016281D02*
X027168Y016281D01*
X027244Y016204D01*
X027244Y016051D01*
X027168Y015974D01*
X026937Y015974D01*
X026937Y015820D02*
X026937Y016281D01*
X026631Y016281D02*
X026631Y015820D01*
X027398Y015744D02*
X027705Y015744D01*
X027858Y015974D02*
X028012Y015820D01*
X028165Y015974D01*
X028165Y016281D01*
X028319Y016281D02*
X028472Y016281D01*
X028395Y016281D02*
X028395Y015820D01*
X028319Y015820D02*
X028472Y015820D01*
X028625Y015820D02*
X028625Y016281D01*
X028932Y015820D01*
X028932Y016281D01*
X028581Y016657D02*
X028120Y016657D01*
X028120Y016887D01*
X028197Y016964D01*
X028351Y016964D01*
X028427Y016887D01*
X028427Y016657D01*
X028427Y016810D02*
X028581Y016964D01*
X028581Y017117D02*
X028581Y017424D01*
X028581Y017271D02*
X028120Y017271D01*
X028274Y017117D01*
X028197Y017578D02*
X028120Y017654D01*
X028120Y017808D01*
X028197Y017885D01*
X028274Y017885D01*
X028351Y017808D01*
X028427Y017885D01*
X028504Y017885D01*
X028581Y017808D01*
X028581Y017654D01*
X028504Y017578D01*
X028351Y017731D02*
X028351Y017808D01*
X027858Y016281D02*
X027858Y015974D01*
X029371Y015859D02*
X029447Y015782D01*
X029601Y015782D01*
X029678Y015859D01*
X029831Y015782D02*
X030138Y015782D01*
X029985Y015782D02*
X029985Y016242D01*
X029831Y016089D01*
X029678Y016166D02*
X029601Y016242D01*
X029447Y016242D01*
X029371Y016166D01*
X029371Y015859D01*
X030291Y015782D02*
X030598Y015782D01*
X030740Y015810D02*
X030970Y015810D01*
X031047Y015887D01*
X031047Y016041D01*
X030970Y016117D01*
X030740Y016117D01*
X030740Y015657D01*
X030893Y015810D02*
X031047Y015657D01*
X031200Y015657D02*
X031507Y015657D01*
X031353Y015657D02*
X031353Y016117D01*
X031200Y015964D01*
X031660Y015887D02*
X031660Y016117D01*
X031967Y016117D01*
X031891Y015964D02*
X031967Y015887D01*
X031967Y015734D01*
X031891Y015657D01*
X031737Y015657D01*
X031660Y015734D01*
X031660Y015887D02*
X031814Y015964D01*
X031891Y015964D01*
X030445Y015782D02*
X030445Y016242D01*
X030291Y016089D01*
X030129Y013254D02*
X029822Y013254D01*
X029745Y013177D01*
X029745Y013023D01*
X029822Y012947D01*
X029899Y012947D01*
X029976Y013023D01*
X029976Y013254D01*
X030129Y013254D02*
X030206Y013177D01*
X030206Y013023D01*
X030129Y012947D01*
X030206Y012793D02*
X030206Y012486D01*
X030206Y012640D02*
X029745Y012640D01*
X029899Y012486D01*
X029822Y012333D02*
X029745Y012256D01*
X029745Y012103D01*
X029822Y012026D01*
X030129Y012026D01*
X030206Y012103D01*
X030206Y012256D01*
X030129Y012333D01*
X030227Y011406D02*
X030534Y011406D01*
X030687Y011406D02*
X030687Y010945D01*
X030687Y011099D02*
X030918Y011099D01*
X030994Y011176D01*
X030994Y011329D01*
X030918Y011406D01*
X030687Y011406D01*
X030381Y011406D02*
X030381Y010945D01*
X031148Y010869D02*
X031455Y010869D01*
X031608Y011022D02*
X031685Y010945D01*
X031838Y010945D01*
X031915Y011022D01*
X031915Y011099D01*
X031838Y011176D01*
X031685Y011176D01*
X031608Y011252D01*
X031608Y011329D01*
X031685Y011406D01*
X031838Y011406D01*
X031915Y011329D01*
X032069Y011406D02*
X032069Y010945D01*
X032375Y010945D01*
X032529Y010945D02*
X032529Y011406D01*
X032836Y010945D01*
X032836Y011406D01*
X032989Y011329D02*
X032989Y011252D01*
X033066Y011176D01*
X033219Y011176D01*
X033296Y011099D01*
X033296Y011022D01*
X033219Y010945D01*
X033066Y010945D01*
X032989Y011022D01*
X032989Y011329D02*
X033066Y011406D01*
X033219Y011406D01*
X033296Y011329D01*
X033450Y011406D02*
X033450Y010945D01*
X033756Y010945D01*
X033603Y011176D02*
X033450Y011176D01*
X033450Y011406D02*
X033756Y011406D01*
X032375Y011406D02*
X032069Y011406D01*
X032069Y011176D02*
X032222Y011176D01*
X024831Y012978D02*
X024831Y013131D01*
X024754Y013208D01*
X024831Y013361D02*
X024831Y013668D01*
X024831Y013515D02*
X024370Y013515D01*
X024524Y013361D01*
X024447Y013208D02*
X024370Y013131D01*
X024370Y012978D01*
X024447Y012901D01*
X024754Y012901D01*
X024831Y012978D01*
X024754Y013822D02*
X024831Y013898D01*
X024831Y014052D01*
X024754Y014129D01*
X024601Y014129D01*
X024524Y014052D01*
X024524Y013975D01*
X024601Y013822D01*
X024370Y013822D01*
X024370Y014129D01*
X023581Y014052D02*
X023504Y014129D01*
X023197Y014129D01*
X023120Y014052D01*
X023120Y013898D01*
X023197Y013822D01*
X023274Y013822D01*
X023351Y013898D01*
X023351Y014129D01*
X023581Y014052D02*
X023581Y013898D01*
X023504Y013822D01*
X023504Y013668D02*
X023581Y013591D01*
X023581Y013438D01*
X023504Y013361D01*
X023197Y013361D01*
X023120Y013438D01*
X023120Y013591D01*
X023197Y013668D01*
X021848Y013117D02*
X021695Y013041D01*
X021541Y012887D01*
X021772Y012887D01*
X021848Y012810D01*
X021848Y012734D01*
X021772Y012657D01*
X021618Y012657D01*
X021541Y012734D01*
X021541Y012887D01*
X021388Y012657D02*
X021081Y012657D01*
X021235Y012657D02*
X021235Y013117D01*
X021081Y012964D01*
X020928Y013041D02*
X020851Y013117D01*
X020697Y013117D01*
X020621Y013041D01*
X020621Y012734D01*
X020697Y012657D01*
X020851Y012657D01*
X020928Y012734D01*
D14*
X018421Y016567D02*
X018496Y016642D01*
X018421Y016567D02*
X018270Y016567D01*
X018195Y016642D01*
X018195Y016942D01*
X018270Y017017D01*
X018421Y017017D01*
X018496Y016942D01*
X018035Y016942D02*
X017960Y017017D01*
X017810Y017017D01*
X017735Y016942D01*
X017578Y017017D02*
X017428Y017017D01*
X017503Y017017D02*
X017503Y016567D01*
X017428Y016567D02*
X017578Y016567D01*
X017735Y016567D02*
X018035Y016867D01*
X018035Y016942D01*
X018035Y016567D02*
X017735Y016567D01*
X020846Y019132D02*
X020846Y019582D01*
X021146Y019582D01*
X021306Y019432D02*
X021456Y019582D01*
X021606Y019432D01*
X021606Y019132D01*
X021766Y019132D02*
X021766Y019582D01*
X022067Y019132D01*
X022067Y019582D01*
X021606Y019357D02*
X021306Y019357D01*
X021306Y019432D02*
X021306Y019132D01*
X020996Y019357D02*
X020846Y019357D01*
X023501Y017407D02*
X023576Y017482D01*
X023726Y017482D01*
X023801Y017407D01*
X023801Y017107D01*
X023726Y017032D01*
X023576Y017032D01*
X023501Y017107D01*
X023501Y017407D01*
X023651Y017182D02*
X023801Y017032D01*
X023961Y017107D02*
X024036Y017032D01*
X024186Y017032D01*
X024261Y017107D01*
X024261Y017182D01*
X024186Y017257D01*
X024111Y017257D01*
X024186Y017257D02*
X024261Y017332D01*
X024261Y017407D01*
X024186Y017482D01*
X024036Y017482D01*
X023961Y017407D01*
X029026Y017962D02*
X029101Y017887D01*
X029251Y017887D01*
X029326Y017962D01*
X029326Y018262D01*
X029251Y018337D01*
X029101Y018337D01*
X029026Y018262D01*
X029026Y017962D01*
X029176Y018037D02*
X029326Y017887D01*
X029486Y017887D02*
X029786Y018187D01*
X029786Y018262D01*
X029711Y018337D01*
X029561Y018337D01*
X029486Y018262D01*
X029486Y017887D02*
X029786Y017887D01*
X035395Y014487D02*
X035620Y014487D01*
X035695Y014412D01*
X035695Y014262D01*
X035620Y014187D01*
X035395Y014187D01*
X035545Y014187D02*
X035695Y014037D01*
X035855Y014037D02*
X036155Y014037D01*
X036005Y014037D02*
X036005Y014487D01*
X035855Y014337D01*
X035395Y014487D02*
X035395Y014037D01*
X036315Y014037D02*
X036315Y014112D01*
X036616Y014412D01*
X036616Y014487D01*
X036315Y014487D01*
X036390Y012987D02*
X036315Y012912D01*
X036315Y012837D01*
X036390Y012762D01*
X036616Y012762D01*
X036616Y012612D02*
X036541Y012537D01*
X036390Y012537D01*
X036315Y012612D01*
X036155Y012537D02*
X035855Y012537D01*
X036005Y012537D02*
X036005Y012987D01*
X035855Y012837D01*
X035695Y012912D02*
X035695Y012762D01*
X035620Y012687D01*
X035395Y012687D01*
X035545Y012687D02*
X035695Y012537D01*
X035395Y012537D02*
X035395Y012987D01*
X035620Y012987D01*
X035695Y012912D01*
X036390Y012987D02*
X036541Y012987D01*
X036616Y012912D01*
X036616Y012612D01*
X036616Y011487D02*
X036465Y011412D01*
X036315Y011262D01*
X036541Y011262D01*
X036616Y011187D01*
X036616Y011112D01*
X036541Y011037D01*
X036390Y011037D01*
X036315Y011112D01*
X036315Y011262D01*
X036155Y011037D02*
X035855Y011037D01*
X036005Y011037D02*
X036005Y011487D01*
X035855Y011337D01*
X035695Y011412D02*
X035695Y011262D01*
X035620Y011187D01*
X035395Y011187D01*
X035545Y011187D02*
X035695Y011037D01*
X035395Y011037D02*
X035395Y011487D01*
X035620Y011487D01*
X035695Y011412D01*
X035620Y009987D02*
X035695Y009912D01*
X035695Y009762D01*
X035620Y009687D01*
X035395Y009687D01*
X035545Y009687D02*
X035695Y009537D01*
X035855Y009537D02*
X036155Y009837D01*
X036155Y009912D01*
X036080Y009987D01*
X035930Y009987D01*
X035855Y009912D01*
X035620Y009987D02*
X035395Y009987D01*
X035395Y009537D01*
X035855Y009537D02*
X036155Y009537D01*
X036315Y009612D02*
X036390Y009537D01*
X036541Y009537D01*
X036616Y009612D01*
X036616Y009687D01*
X036541Y009762D01*
X036465Y009762D01*
X036541Y009762D02*
X036616Y009837D01*
X036616Y009912D01*
X036541Y009987D01*
X036390Y009987D01*
X036315Y009912D01*
X036390Y008487D02*
X036541Y008487D01*
X036616Y008412D01*
X036315Y008112D01*
X036390Y008037D01*
X036541Y008037D01*
X036616Y008112D01*
X036616Y008412D01*
X036390Y008487D02*
X036315Y008412D01*
X036315Y008112D01*
X036155Y008037D02*
X035855Y008037D01*
X036155Y008337D01*
X036155Y008412D01*
X036080Y008487D01*
X035930Y008487D01*
X035855Y008412D01*
X035695Y008412D02*
X035695Y008262D01*
X035620Y008187D01*
X035395Y008187D01*
X035545Y008187D02*
X035695Y008037D01*
X035395Y008037D02*
X035395Y008487D01*
X035620Y008487D01*
X035695Y008412D01*
X035620Y006987D02*
X035695Y006912D01*
X035695Y006762D01*
X035620Y006687D01*
X035395Y006687D01*
X035545Y006687D02*
X035695Y006537D01*
X035855Y006537D02*
X036155Y006837D01*
X036155Y006912D01*
X036080Y006987D01*
X035930Y006987D01*
X035855Y006912D01*
X035620Y006987D02*
X035395Y006987D01*
X035395Y006537D01*
X035855Y006537D02*
X036155Y006537D01*
X036315Y006762D02*
X036616Y006762D01*
X036541Y006537D02*
X036541Y006987D01*
X036315Y006762D01*
X036315Y005487D02*
X036315Y005262D01*
X036465Y005337D01*
X036541Y005337D01*
X036616Y005262D01*
X036616Y005112D01*
X036541Y005037D01*
X036390Y005037D01*
X036315Y005112D01*
X036155Y005037D02*
X035855Y005037D01*
X036155Y005337D01*
X036155Y005412D01*
X036080Y005487D01*
X035930Y005487D01*
X035855Y005412D01*
X035695Y005412D02*
X035695Y005262D01*
X035620Y005187D01*
X035395Y005187D01*
X035545Y005187D02*
X035695Y005037D01*
X035395Y005037D02*
X035395Y005487D01*
X035620Y005487D01*
X035695Y005412D01*
X036315Y005487D02*
X036616Y005487D01*
X036541Y003987D02*
X036390Y003987D01*
X036315Y003912D01*
X036155Y003912D02*
X036155Y003837D01*
X035855Y003537D01*
X036155Y003537D01*
X036315Y003537D02*
X036616Y003837D01*
X036616Y003912D01*
X036541Y003987D01*
X036155Y003912D02*
X036080Y003987D01*
X035930Y003987D01*
X035855Y003912D01*
X035695Y003912D02*
X035695Y003762D01*
X035620Y003687D01*
X035395Y003687D01*
X035545Y003687D02*
X035695Y003537D01*
X035395Y003537D02*
X035395Y003987D01*
X035620Y003987D01*
X035695Y003912D01*
X036315Y003537D02*
X036616Y003537D01*
X036465Y002487D02*
X036465Y002037D01*
X036315Y002037D02*
X036616Y002037D01*
X036315Y002337D02*
X036465Y002487D01*
X036155Y002412D02*
X036080Y002487D01*
X035930Y002487D01*
X035855Y002412D01*
X035695Y002412D02*
X035620Y002487D01*
X035395Y002487D01*
X035395Y002037D01*
X035395Y002187D02*
X035620Y002187D01*
X035695Y002262D01*
X035695Y002412D01*
X035545Y002187D02*
X035695Y002037D01*
X035855Y002037D02*
X036155Y002337D01*
X036155Y002412D01*
X036155Y002037D02*
X035855Y002037D01*
X036005Y000987D02*
X036005Y000537D01*
X035855Y000537D02*
X036155Y000537D01*
X036315Y000612D02*
X036315Y000687D01*
X036390Y000762D01*
X036541Y000762D01*
X036616Y000687D01*
X036616Y000612D01*
X036541Y000537D01*
X036390Y000537D01*
X036315Y000612D01*
X036390Y000762D02*
X036315Y000837D01*
X036315Y000912D01*
X036390Y000987D01*
X036541Y000987D01*
X036616Y000912D01*
X036616Y000837D01*
X036541Y000762D01*
X036005Y000987D02*
X035855Y000837D01*
X035695Y000762D02*
X035620Y000687D01*
X035395Y000687D01*
X035545Y000687D02*
X035695Y000537D01*
X035695Y000762D02*
X035695Y000912D01*
X035620Y000987D01*
X035395Y000987D01*
X035395Y000537D01*
X020527Y002507D02*
X020227Y002507D01*
X020527Y002807D01*
X020527Y002882D01*
X020452Y002957D01*
X020302Y002957D01*
X020227Y002882D01*
X020067Y002957D02*
X020067Y002507D01*
X019766Y002957D01*
X019766Y002507D01*
X019456Y002507D02*
X019456Y002957D01*
X019306Y002957D02*
X019606Y002957D01*
X019146Y002882D02*
X019146Y002807D01*
X019071Y002732D01*
X018846Y002732D01*
X018846Y002507D02*
X019071Y002507D01*
X019146Y002582D01*
X019146Y002657D01*
X019071Y002732D01*
X019146Y002882D02*
X019071Y002957D01*
X018846Y002957D01*
X018846Y002507D01*
X017027Y002507D02*
X016727Y002507D01*
X016877Y002507D02*
X016877Y002957D01*
X016727Y002807D01*
X016567Y002957D02*
X016567Y002507D01*
X016266Y002957D01*
X016266Y002507D01*
X015956Y002507D02*
X015956Y002957D01*
X015806Y002957D02*
X016106Y002957D01*
X015646Y002882D02*
X015646Y002807D01*
X015571Y002732D01*
X015346Y002732D01*
X015571Y002732D02*
X015646Y002657D01*
X015646Y002582D01*
X015571Y002507D01*
X015346Y002507D01*
X015346Y002957D01*
X015571Y002957D01*
X015646Y002882D01*
X011966Y003887D02*
X011891Y003812D01*
X011665Y003812D01*
X011665Y003662D02*
X011665Y004112D01*
X011891Y004112D01*
X011966Y004037D01*
X011966Y003887D01*
X011505Y003812D02*
X011505Y003737D01*
X011430Y003662D01*
X011280Y003662D01*
X011205Y003737D01*
X011280Y003887D02*
X011205Y003962D01*
X011205Y004037D01*
X011280Y004112D01*
X011430Y004112D01*
X011505Y004037D01*
X011430Y003887D02*
X011505Y003812D01*
X011430Y003887D02*
X011280Y003887D01*
X011048Y003662D02*
X010898Y003662D01*
X010973Y003662D02*
X010973Y004112D01*
X010898Y004112D02*
X011048Y004112D01*
X010992Y002457D02*
X010842Y002457D01*
X010766Y002382D01*
X010766Y002082D01*
X010842Y002007D01*
X010992Y002007D01*
X011067Y002082D01*
X011067Y002232D01*
X010917Y002232D01*
X011067Y002382D02*
X010992Y002457D01*
X010606Y002382D02*
X010606Y002307D01*
X010531Y002232D01*
X010306Y002232D01*
X010146Y002082D02*
X010146Y002382D01*
X010071Y002457D01*
X009846Y002457D01*
X009846Y002007D01*
X010071Y002007D01*
X010146Y002082D01*
X010306Y002007D02*
X010531Y002007D01*
X010606Y002082D01*
X010606Y002157D01*
X010531Y002232D01*
X010606Y002382D02*
X010531Y002457D01*
X010306Y002457D01*
X010306Y002007D01*
X007317Y002582D02*
X007242Y002507D01*
X007092Y002507D01*
X007016Y002582D01*
X007016Y002882D01*
X007092Y002957D01*
X007242Y002957D01*
X007317Y002882D01*
X006856Y002957D02*
X006856Y002507D01*
X006556Y002957D01*
X006556Y002507D01*
X006396Y002507D02*
X006096Y002507D01*
X006096Y002957D01*
X006396Y002957D01*
X006246Y002732D02*
X006096Y002732D01*
X002817Y002507D02*
X002817Y002957D01*
X002516Y002957D02*
X002817Y002507D01*
X002516Y002507D02*
X002516Y002957D01*
X002356Y002957D02*
X002056Y002957D01*
X002206Y002957D02*
X002206Y002507D01*
X001896Y002582D02*
X001821Y002507D01*
X001596Y002507D01*
X001596Y002957D01*
X001821Y002957D01*
X001896Y002882D01*
X001896Y002807D01*
X001821Y002732D01*
X001596Y002732D01*
X001821Y002732D02*
X001896Y002657D01*
X001896Y002582D01*
X000781Y006632D02*
X000856Y006707D01*
X000856Y006857D01*
X000781Y006932D01*
X000405Y006932D01*
X000556Y007092D02*
X000405Y007243D01*
X000556Y007393D01*
X000856Y007393D01*
X000856Y007553D02*
X000405Y007553D01*
X000405Y007778D01*
X000480Y007853D01*
X000631Y007853D01*
X000706Y007778D01*
X000706Y007553D01*
X000706Y007703D02*
X000856Y007853D01*
X000856Y008163D02*
X000405Y008163D01*
X000405Y008013D02*
X000405Y008313D01*
X000631Y007393D02*
X000631Y007092D01*
X000556Y007092D02*
X000856Y007092D01*
X000781Y006632D02*
X000405Y006632D01*
X005075Y008362D02*
X005075Y008512D01*
X005150Y008587D01*
X005451Y008587D01*
X005526Y008512D01*
X005526Y008362D01*
X005451Y008287D01*
X005150Y008287D01*
X005075Y008362D01*
X005376Y008437D02*
X005526Y008587D01*
X005526Y008747D02*
X005526Y009048D01*
X005526Y008898D02*
X005075Y008898D01*
X005226Y008747D01*
X002971Y011692D02*
X003121Y011842D01*
X003121Y012142D01*
X002820Y012142D02*
X002820Y011842D01*
X002971Y011692D01*
X002660Y011767D02*
X002660Y011917D01*
X002585Y011992D01*
X002510Y011992D01*
X002360Y011917D01*
X002360Y012142D01*
X002660Y012142D01*
X002660Y011767D02*
X002585Y011692D01*
X002435Y011692D01*
X002360Y011767D01*
X036096Y018657D02*
X036246Y018507D01*
X036396Y018657D01*
X036396Y018957D01*
X036556Y018957D02*
X036706Y018957D01*
X036631Y018957D02*
X036631Y018507D01*
X036556Y018507D02*
X036706Y018507D01*
X036863Y018507D02*
X036863Y018957D01*
X037163Y018507D01*
X037163Y018957D01*
X036096Y018957D02*
X036096Y018657D01*
D15*
X034226Y019062D02*
X034226Y019462D01*
X030226Y019462D01*
X030226Y019062D01*
X034226Y019062D01*
X034226Y018112D01*
X034225Y018078D01*
X034221Y018043D01*
X034213Y018010D01*
X034202Y017977D01*
X034187Y017946D01*
X034170Y017916D01*
X034149Y017888D01*
X034126Y017862D01*
X034100Y017839D01*
X034072Y017818D01*
X034042Y017801D01*
X034011Y017786D01*
X033978Y017775D01*
X033945Y017767D01*
X033910Y017763D01*
X033876Y017762D01*
X033726Y017762D01*
X030726Y017762D02*
X030576Y017762D01*
X030575Y017762D02*
X030541Y017763D01*
X030506Y017767D01*
X030473Y017775D01*
X030440Y017786D01*
X030409Y017801D01*
X030379Y017818D01*
X030351Y017839D01*
X030325Y017862D01*
X030302Y017888D01*
X030281Y017916D01*
X030264Y017946D01*
X030249Y017977D01*
X030238Y018010D01*
X030230Y018043D01*
X030226Y018078D01*
X030225Y018112D01*
X030226Y018112D02*
X030226Y019062D01*
X021197Y016379D02*
X020843Y016734D01*
X019504Y016734D01*
X019504Y016320D01*
X019701Y016261D02*
X019729Y016306D01*
X019760Y016348D01*
X019793Y016388D01*
X019830Y016426D01*
X019868Y016461D01*
X019910Y016493D01*
X019953Y016523D01*
X019999Y016549D01*
X020046Y016572D01*
X020094Y016592D01*
X020144Y016608D01*
X020195Y016621D01*
X020247Y016630D01*
X020299Y016635D01*
X020351Y016637D01*
X020403Y016635D01*
X020455Y016630D01*
X020507Y016621D01*
X020558Y016608D01*
X020608Y016592D01*
X020656Y016572D01*
X020703Y016549D01*
X020749Y016523D01*
X020792Y016493D01*
X020834Y016461D01*
X020872Y016426D01*
X020909Y016388D01*
X020942Y016348D01*
X020973Y016306D01*
X021001Y016261D01*
X021197Y016320D02*
X021197Y016379D01*
X021001Y015513D02*
X020973Y015468D01*
X020942Y015426D01*
X020909Y015386D01*
X020872Y015348D01*
X020834Y015313D01*
X020792Y015281D01*
X020749Y015251D01*
X020703Y015225D01*
X020656Y015202D01*
X020608Y015182D01*
X020558Y015166D01*
X020507Y015153D01*
X020455Y015144D01*
X020403Y015139D01*
X020351Y015137D01*
X020299Y015139D01*
X020247Y015144D01*
X020195Y015153D01*
X020144Y015166D01*
X020094Y015182D01*
X020046Y015202D01*
X019999Y015225D01*
X019953Y015251D01*
X019910Y015281D01*
X019868Y015313D01*
X019830Y015348D01*
X019793Y015386D01*
X019760Y015426D01*
X019729Y015468D01*
X019701Y015513D01*
X019504Y015454D02*
X019504Y015041D01*
X020843Y015041D01*
X021197Y015395D01*
X021197Y015474D01*
X012726Y007262D02*
X012476Y007512D01*
X010976Y007512D01*
X010726Y007262D01*
X010726Y006762D01*
X010976Y006512D01*
X012476Y006512D01*
X012726Y006262D01*
X012726Y005762D01*
X012476Y005512D01*
X010976Y005512D01*
X010726Y005262D01*
X010726Y004762D01*
X010976Y004512D01*
X012476Y004512D01*
X012726Y004762D01*
X012726Y005262D01*
X012476Y005512D01*
X012476Y006512D02*
X012726Y006762D01*
X012726Y007262D01*
X010976Y006512D02*
X010726Y006262D01*
X010726Y005762D01*
X010976Y005512D01*
X010594Y006762D02*
X010594Y007262D01*
X004322Y015041D02*
X003909Y015041D01*
X004322Y015041D02*
X004322Y016379D01*
X003968Y016734D01*
X003889Y016734D01*
X003043Y016734D02*
X002984Y016734D01*
X002629Y016379D01*
X002629Y015041D01*
X003043Y015041D01*
X003102Y015237D02*
X003057Y015265D01*
X003015Y015296D01*
X002975Y015329D01*
X002937Y015366D01*
X002902Y015404D01*
X002870Y015446D01*
X002840Y015489D01*
X002814Y015535D01*
X002791Y015582D01*
X002771Y015630D01*
X002755Y015680D01*
X002742Y015731D01*
X002733Y015783D01*
X002728Y015835D01*
X002726Y015887D01*
X002728Y015939D01*
X002733Y015991D01*
X002742Y016043D01*
X002755Y016094D01*
X002771Y016144D01*
X002791Y016192D01*
X002814Y016239D01*
X002840Y016285D01*
X002870Y016328D01*
X002902Y016370D01*
X002937Y016408D01*
X002975Y016445D01*
X003015Y016478D01*
X003057Y016509D01*
X003102Y016537D01*
X003850Y016537D02*
X003895Y016509D01*
X003937Y016478D01*
X003977Y016445D01*
X004015Y016408D01*
X004050Y016370D01*
X004082Y016328D01*
X004112Y016285D01*
X004138Y016239D01*
X004161Y016192D01*
X004181Y016144D01*
X004197Y016094D01*
X004210Y016043D01*
X004219Y015991D01*
X004224Y015939D01*
X004226Y015887D01*
X004224Y015835D01*
X004219Y015783D01*
X004210Y015731D01*
X004197Y015680D01*
X004181Y015630D01*
X004161Y015582D01*
X004138Y015535D01*
X004112Y015489D01*
X004082Y015446D01*
X004050Y015404D01*
X004015Y015366D01*
X003977Y015329D01*
X003937Y015296D01*
X003895Y015265D01*
X003850Y015237D01*
D16*
X005751Y011462D02*
X005751Y009062D01*
X005753Y009005D01*
X005759Y008949D01*
X005768Y008893D01*
X005781Y008837D01*
X005798Y008783D01*
X005818Y008730D01*
X005842Y008679D01*
X005870Y008629D01*
X005900Y008581D01*
X005934Y008535D01*
X005971Y008492D01*
X006010Y008451D01*
X006052Y008413D01*
X006097Y008378D01*
X006144Y008346D01*
X006193Y008317D01*
X006243Y008291D01*
X006296Y008269D01*
X006349Y008250D01*
X006404Y008235D01*
X006460Y008224D01*
X006516Y008216D01*
X006573Y008212D01*
X006629Y008212D01*
X006686Y008216D01*
X006742Y008224D01*
X006798Y008235D01*
X006853Y008250D01*
X006906Y008269D01*
X006959Y008291D01*
X007009Y008317D01*
X007058Y008346D01*
X007105Y008378D01*
X007150Y008413D01*
X007192Y008451D01*
X007231Y008492D01*
X007268Y008535D01*
X007302Y008581D01*
X007332Y008629D01*
X007360Y008679D01*
X007384Y008730D01*
X007404Y008783D01*
X007421Y008837D01*
X007434Y008893D01*
X007443Y008949D01*
X007449Y009005D01*
X007451Y009062D01*
X007451Y011462D01*
X007449Y011519D01*
X007443Y011575D01*
X007434Y011631D01*
X007421Y011687D01*
X007404Y011741D01*
X007384Y011794D01*
X007360Y011845D01*
X007332Y011895D01*
X007302Y011943D01*
X007268Y011989D01*
X007231Y012032D01*
X007192Y012073D01*
X007150Y012111D01*
X007105Y012146D01*
X007058Y012178D01*
X007009Y012207D01*
X006959Y012233D01*
X006906Y012255D01*
X006853Y012274D01*
X006798Y012289D01*
X006742Y012300D01*
X006686Y012308D01*
X006629Y012312D01*
X006573Y012312D01*
X006516Y012308D01*
X006460Y012300D01*
X006404Y012289D01*
X006349Y012274D01*
X006296Y012255D01*
X006243Y012233D01*
X006193Y012207D01*
X006144Y012178D01*
X006097Y012146D01*
X006052Y012111D01*
X006010Y012073D01*
X005971Y012032D01*
X005934Y011989D01*
X005900Y011943D01*
X005870Y011895D01*
X005842Y011845D01*
X005818Y011794D01*
X005798Y011741D01*
X005781Y011687D01*
X005768Y011631D01*
X005759Y011575D01*
X005753Y011519D01*
X005751Y011462D01*
D17*
X033231Y010762D03*
X033231Y009262D03*
X033231Y007762D03*
X033231Y006262D03*
X033231Y004762D03*
X033231Y003262D03*
X033231Y001762D03*
X036971Y001762D03*
X036971Y003262D03*
X036971Y004762D03*
X036971Y006262D03*
X036971Y007762D03*
X036971Y009262D03*
X036971Y010762D03*
X036971Y012262D03*
X036971Y013762D03*
X036971Y015262D03*
X033231Y015262D03*
X033231Y013762D03*
X033231Y012262D03*
D18*
X032226Y019262D03*
D19*
X023706Y017927D03*
D20*
X025476Y019237D03*
D21*
X027201Y018987D03*
X023751Y018987D03*
D22*
X024976Y018987D03*
X025976Y018987D03*
M02*
