G75*
G70*
%OFA0B0*%
%FSLAX24Y24*%
%IPPOS*%
%LPD*%
%AMOC8*
5,1,8,0,0,1.08239X$1,22.5*
%
%ADD10C,0.0000*%
%ADD11R,0.0500X0.0220*%
%ADD12R,0.0220X0.0500*%
%ADD13R,0.0512X0.0591*%
%ADD14R,0.0591X0.0512*%
%ADD15C,0.0600*%
%ADD16OC8,0.0740*%
%ADD17R,0.0220X0.0520*%
%ADD18C,0.0520*%
%ADD19OC8,0.0520*%
%ADD20R,0.0630X0.1024*%
%ADD21R,0.1024X0.0630*%
%ADD22R,0.0520X0.0220*%
%ADD23R,0.0787X0.0787*%
%ADD24R,0.0866X0.0236*%
%ADD25R,0.0580X0.0220*%
%ADD26C,0.0780*%
%ADD27C,0.0520*%
%ADD28C,0.0160*%
%ADD29C,0.0317*%
%ADD30C,0.0100*%
%ADD31C,0.0240*%
%ADD32C,0.0356*%
D10*
X000125Y000262D02*
X000125Y019632D01*
X038992Y019632D01*
X038992Y000262D01*
X000125Y000262D01*
D11*
X010310Y011160D03*
X010310Y011475D03*
X010310Y011790D03*
X010310Y012105D03*
X010310Y012420D03*
X010310Y012734D03*
X010310Y013049D03*
X010310Y013364D03*
X013690Y013364D03*
X013690Y013049D03*
X013690Y012734D03*
X013690Y012420D03*
X013690Y012105D03*
X013690Y011790D03*
X013690Y011475D03*
X013690Y011160D03*
D12*
X013102Y010572D03*
X012787Y010572D03*
X012472Y010572D03*
X012157Y010572D03*
X011843Y010572D03*
X011528Y010572D03*
X011213Y010572D03*
X010898Y010572D03*
X010898Y013952D03*
X011213Y013952D03*
X011528Y013952D03*
X011843Y013952D03*
X012157Y013952D03*
X012472Y013952D03*
X012787Y013952D03*
X013102Y013952D03*
D13*
X011124Y015887D03*
X010376Y015887D03*
X004624Y011262D03*
X003876Y011262D03*
X004001Y009262D03*
X004749Y009262D03*
X004626Y005762D03*
X005374Y005762D03*
X007501Y005762D03*
X008249Y005762D03*
X017626Y012262D03*
X018374Y012262D03*
X020626Y012137D03*
X021374Y012137D03*
X025876Y009012D03*
X026624Y009012D03*
X027751Y009012D03*
X028499Y009012D03*
X029376Y015262D03*
X030124Y015262D03*
X031376Y016637D03*
X032124Y016637D03*
X025749Y017012D03*
X025001Y017012D03*
D14*
X029000Y017261D03*
X029000Y016513D03*
X029125Y013261D03*
X029125Y012513D03*
X024625Y009761D03*
X024625Y009013D03*
X025500Y007261D03*
X025500Y006513D03*
X020250Y004136D03*
X019250Y004136D03*
X019250Y003388D03*
X020250Y003388D03*
X016750Y003388D03*
X015750Y003388D03*
X015750Y004136D03*
X016750Y004136D03*
X009750Y004136D03*
X008500Y004136D03*
X008500Y003388D03*
X009750Y003388D03*
X006500Y003388D03*
X006500Y004136D03*
X005000Y004136D03*
X005000Y003388D03*
X003000Y003388D03*
X002000Y003388D03*
X002000Y004136D03*
X003000Y004136D03*
X008500Y010388D03*
X008500Y011136D03*
X008500Y012013D03*
X008500Y012761D03*
X012250Y017138D03*
X013250Y017138D03*
X013250Y017886D03*
X012250Y017886D03*
X010500Y018136D03*
X010500Y017388D03*
X007000Y017388D03*
X007000Y018136D03*
X015625Y012386D03*
X015625Y011638D03*
X018500Y013388D03*
X018500Y014136D03*
X022500Y014136D03*
X022500Y013388D03*
X023750Y013388D03*
X023750Y014136D03*
D15*
X022625Y017212D02*
X022625Y017812D01*
X021625Y017812D02*
X021625Y017212D01*
X024375Y018087D02*
X024375Y018687D01*
X025375Y018687D02*
X025375Y018087D01*
X026375Y018087D02*
X026375Y018687D01*
X031125Y018687D02*
X031125Y018087D01*
X032125Y018087D02*
X032125Y018687D01*
X033125Y018687D02*
X033125Y018087D01*
X018000Y018062D02*
X018000Y017462D01*
X017000Y017462D02*
X017000Y018062D01*
X016000Y018062D02*
X016000Y017462D01*
X015000Y017462D02*
X015000Y018062D01*
X001800Y012512D02*
X001200Y012512D01*
X001200Y011512D02*
X001800Y011512D01*
X001800Y009137D02*
X001200Y009137D01*
X001200Y008137D02*
X001800Y008137D01*
X001800Y007137D02*
X001200Y007137D01*
X002000Y002062D02*
X002000Y001462D01*
X003000Y001462D02*
X003000Y002062D01*
X006500Y002062D02*
X006500Y001462D01*
X007500Y001462D02*
X007500Y002062D01*
X008500Y002062D02*
X008500Y001462D01*
X011700Y001762D02*
X012300Y001762D01*
X012300Y002762D02*
X011700Y002762D01*
X015750Y002062D02*
X015750Y001462D01*
X016750Y001462D02*
X016750Y002062D01*
X019250Y002062D02*
X019250Y001462D01*
X020250Y001462D02*
X020250Y002062D01*
D16*
X012125Y005012D03*
X011125Y005012D03*
X011125Y006012D03*
X012125Y006012D03*
X012125Y007012D03*
X011125Y007012D03*
D17*
X008870Y017362D03*
X008130Y017362D03*
X008500Y018162D03*
D18*
X006500Y011212D03*
X006500Y009312D03*
D19*
X032500Y009262D03*
X032500Y010762D03*
X032500Y012262D03*
X032500Y013762D03*
X032500Y015262D03*
X037500Y015262D03*
X037500Y013762D03*
X037500Y012262D03*
X037500Y010762D03*
X037500Y009262D03*
X037500Y007762D03*
X037500Y006262D03*
X037500Y004762D03*
X037500Y003262D03*
X037500Y001762D03*
X032500Y001762D03*
X032500Y003262D03*
X032500Y004762D03*
X032500Y006262D03*
X032500Y007762D03*
D20*
X003375Y015178D03*
X003375Y016596D03*
D21*
X019541Y015762D03*
X020959Y015762D03*
D22*
X021040Y014132D03*
X021040Y013762D03*
X021040Y013392D03*
X019960Y013392D03*
X019960Y013762D03*
X019960Y014132D03*
D23*
X020625Y011012D03*
X028000Y015262D03*
X030375Y009012D03*
X024750Y003637D03*
D24*
X027601Y004887D03*
X027601Y005387D03*
X027601Y005887D03*
X027601Y006387D03*
X027601Y006887D03*
X027601Y007387D03*
X027601Y007887D03*
X029649Y007887D03*
X029649Y007387D03*
X029649Y006887D03*
X029649Y006387D03*
X029649Y005887D03*
X029649Y005387D03*
X029649Y004887D03*
D25*
X024445Y005387D03*
X024445Y005887D03*
X024445Y006387D03*
X024445Y006887D03*
X022305Y006887D03*
X022305Y006387D03*
X022305Y005887D03*
X022305Y005387D03*
X026055Y011887D03*
X026055Y012387D03*
X026055Y012887D03*
X026055Y013387D03*
X028195Y013387D03*
X028195Y012887D03*
X028195Y012387D03*
X028195Y011887D03*
D26*
X035510Y017497D02*
X035510Y018277D01*
X037490Y018277D02*
X037490Y017497D01*
D27*
X022885Y018637D02*
X022365Y018637D01*
X019885Y018637D02*
X019365Y018637D01*
D28*
X018875Y018887D02*
X018875Y017262D01*
X019250Y016887D01*
X020750Y016887D01*
X020959Y016678D01*
X020959Y015762D01*
X021750Y015762D01*
X021750Y014762D01*
X022000Y014762D01*
X022500Y014762D01*
X022500Y014136D01*
X022000Y014132D02*
X022000Y014762D01*
X021662Y014452D02*
X021420Y014452D01*
X021348Y014482D01*
X020732Y014482D01*
X020644Y014445D01*
X020577Y014378D01*
X020540Y014290D01*
X020540Y013974D01*
X020577Y013886D01*
X020600Y013863D01*
X020600Y013762D01*
X020600Y013661D01*
X020577Y013638D01*
X020540Y013550D01*
X020540Y013234D01*
X020577Y013146D01*
X020644Y013079D01*
X020724Y013046D01*
X020694Y013033D01*
X020444Y012783D01*
X020354Y012693D01*
X020345Y012672D01*
X020322Y012672D01*
X020234Y012636D01*
X020167Y012568D01*
X020130Y012480D01*
X020130Y011794D01*
X020167Y011706D01*
X020227Y011646D01*
X020184Y011646D01*
X020095Y011609D01*
X020028Y011542D01*
X019991Y011453D01*
X019991Y010707D01*
X017118Y010707D01*
X017101Y010725D01*
X016954Y010785D01*
X016796Y010785D01*
X016649Y010725D01*
X016537Y010613D01*
X016477Y010466D01*
X016477Y010308D01*
X016518Y010207D01*
X014243Y010207D01*
X014226Y010225D01*
X014079Y010285D01*
X013921Y010285D01*
X013898Y010276D01*
X013898Y010341D01*
X013838Y010488D01*
X013726Y010600D01*
X013579Y010660D01*
X013452Y010660D01*
X013452Y010810D01*
X013875Y010810D01*
X013977Y010708D01*
X013977Y010683D01*
X014037Y010536D01*
X014149Y010424D01*
X014296Y010364D01*
X014454Y010364D01*
X014601Y010424D01*
X014713Y010536D01*
X014773Y010683D01*
X014773Y010708D01*
X014883Y010817D01*
X019007Y010817D01*
X019024Y010799D01*
X019171Y010739D01*
X019329Y010739D01*
X019476Y010799D01*
X019588Y010911D01*
X019648Y011058D01*
X019648Y011216D01*
X019588Y011363D01*
X019476Y011475D01*
X019329Y011535D01*
X019171Y011535D01*
X019024Y011475D01*
X019007Y011457D01*
X018230Y011457D01*
X018500Y011727D01*
X018678Y011727D01*
X018766Y011763D01*
X018833Y011831D01*
X018870Y011919D01*
X018870Y012605D01*
X018833Y012693D01*
X018820Y012707D01*
X018820Y012892D01*
X018843Y012892D01*
X018931Y012929D01*
X018999Y012996D01*
X019028Y013068D01*
X019590Y013068D01*
X019652Y013042D01*
X019855Y013042D01*
X019888Y013028D01*
X020032Y013028D01*
X020065Y013042D01*
X020268Y013042D01*
X020356Y013079D01*
X020423Y013146D01*
X020460Y013234D01*
X020460Y013550D01*
X020449Y013577D01*
X020460Y013604D01*
X020460Y013920D01*
X020449Y013947D01*
X020460Y013974D01*
X020460Y014290D01*
X020423Y014378D01*
X020356Y014445D01*
X020268Y014482D01*
X019652Y014482D01*
X019580Y014452D01*
X019526Y014452D01*
X019487Y014491D01*
X019333Y014555D01*
X019167Y014555D01*
X019013Y014491D01*
X018967Y014445D01*
X018963Y014461D01*
X018939Y014502D01*
X018906Y014536D01*
X018865Y014560D01*
X018819Y014572D01*
X018548Y014572D01*
X018548Y014184D01*
X018452Y014184D01*
X018452Y014572D01*
X018290Y014572D01*
X018290Y016998D01*
X018306Y017004D01*
X018458Y017156D01*
X018540Y017355D01*
X018540Y018169D01*
X018458Y018368D01*
X018320Y018506D01*
X018320Y018576D01*
X018288Y018652D01*
X018555Y018652D01*
X018555Y017198D01*
X018604Y017081D01*
X018694Y016991D01*
X019069Y016616D01*
X019186Y016567D01*
X019314Y016567D01*
X020617Y016567D01*
X020639Y016546D01*
X020639Y016317D01*
X020399Y016317D01*
X020311Y016280D01*
X020243Y016213D01*
X020218Y016151D01*
X020197Y016188D01*
X020164Y016221D01*
X020123Y016245D01*
X020077Y016257D01*
X019619Y016257D01*
X019619Y015840D01*
X019464Y015840D01*
X019464Y016257D01*
X019006Y016257D01*
X018960Y016245D01*
X018919Y016221D01*
X018885Y016188D01*
X018862Y016146D01*
X018850Y016101D01*
X018850Y015840D01*
X019464Y015840D01*
X019464Y015684D01*
X019619Y015684D01*
X019619Y015267D01*
X020077Y015267D01*
X020123Y015279D01*
X020164Y015303D01*
X020197Y015337D01*
X020218Y015373D01*
X020243Y015311D01*
X020311Y015244D01*
X020399Y015207D01*
X021430Y015207D01*
X021430Y014826D01*
X021430Y014698D01*
X021479Y014581D01*
X021569Y014491D01*
X021662Y014452D01*
X021529Y014531D02*
X019392Y014531D01*
X019108Y014531D02*
X018911Y014531D01*
X018548Y014531D02*
X018452Y014531D01*
X018500Y014512D02*
X018500Y014136D01*
X018452Y014214D02*
X018548Y014214D01*
X018548Y014372D02*
X018452Y014372D01*
X018500Y014512D02*
X020375Y014512D01*
X020500Y014387D01*
X020500Y013887D01*
X020625Y013762D01*
X021040Y013762D01*
X021875Y013762D01*
X021875Y013262D01*
X021875Y012137D01*
X021374Y012137D01*
X021422Y012153D02*
X022813Y012153D01*
X022655Y011994D02*
X021810Y011994D01*
X021810Y012089D02*
X021422Y012089D01*
X021422Y012185D01*
X021810Y012185D01*
X021810Y012456D01*
X021798Y012502D01*
X021774Y012543D01*
X021754Y012563D01*
X021771Y012581D01*
X021820Y012698D01*
X021820Y012826D01*
X021820Y013326D01*
X021771Y013443D01*
X021681Y013533D01*
X021551Y013663D01*
X021480Y013693D01*
X021480Y013762D01*
X021480Y013812D01*
X021936Y013812D01*
X021973Y013812D01*
X022001Y013744D01*
X022036Y013709D01*
X022025Y013668D01*
X022025Y013436D01*
X022452Y013436D01*
X022452Y013340D01*
X022548Y013340D01*
X022548Y013436D01*
X022975Y013436D01*
X022975Y013668D01*
X022964Y013709D01*
X022999Y013744D01*
X023035Y013832D01*
X023035Y014440D01*
X023034Y014442D01*
X023216Y014442D01*
X023215Y014440D01*
X023215Y013832D01*
X023251Y013744D01*
X023286Y013709D01*
X023275Y013668D01*
X023275Y013436D01*
X023702Y013436D01*
X023702Y013340D01*
X023275Y013340D01*
X023275Y013108D01*
X023287Y013063D01*
X023311Y013022D01*
X023344Y012988D01*
X023385Y012964D01*
X023431Y012952D01*
X023613Y012952D01*
X021855Y011195D01*
X021838Y011238D01*
X021726Y011350D01*
X021579Y011410D01*
X021421Y011410D01*
X021274Y011350D01*
X021259Y011334D01*
X021259Y011453D01*
X021222Y011542D01*
X021155Y011609D01*
X021066Y011646D01*
X021025Y011646D01*
X021053Y011673D01*
X021094Y011662D01*
X021326Y011662D01*
X021326Y012089D01*
X021422Y012089D01*
X021422Y011662D01*
X021654Y011662D01*
X021699Y011674D01*
X021740Y011698D01*
X021774Y011731D01*
X021798Y011772D01*
X021810Y011818D01*
X021810Y012089D01*
X021810Y012311D02*
X022972Y012311D01*
X023130Y012470D02*
X021806Y012470D01*
X021791Y012628D02*
X023289Y012628D01*
X023447Y012787D02*
X021820Y012787D01*
X021820Y012946D02*
X023606Y012946D01*
X023276Y013104D02*
X022974Y013104D01*
X022975Y013108D02*
X022975Y013340D01*
X022548Y013340D01*
X022548Y012952D01*
X022819Y012952D01*
X022865Y012964D01*
X022906Y012988D01*
X022939Y013022D01*
X022963Y013063D01*
X022975Y013108D01*
X022975Y013263D02*
X023275Y013263D01*
X023275Y013580D02*
X022975Y013580D01*
X022993Y013738D02*
X023257Y013738D01*
X023215Y013897D02*
X023035Y013897D01*
X023035Y014055D02*
X023215Y014055D01*
X023215Y014214D02*
X023035Y014214D01*
X023035Y014372D02*
X023215Y014372D01*
X023750Y014136D02*
X023751Y014137D01*
X025125Y014137D01*
X027750Y014137D01*
X028195Y013692D01*
X028195Y013387D01*
X028999Y013387D01*
X029125Y013261D01*
X029660Y013263D02*
X030298Y013263D01*
X030319Y013283D02*
X030229Y013193D01*
X030180Y013076D01*
X030180Y012895D01*
X029600Y012315D01*
X029600Y012465D01*
X029173Y012465D01*
X029173Y012561D01*
X029600Y012561D01*
X029600Y012793D01*
X029589Y012834D01*
X029624Y012869D01*
X029660Y012957D01*
X029660Y013565D01*
X029624Y013653D01*
X029556Y013720D01*
X029468Y013757D01*
X028782Y013757D01*
X028694Y013720D01*
X028680Y013707D01*
X028605Y013707D01*
X028533Y013737D01*
X028515Y013737D01*
X028515Y013756D01*
X028466Y013873D01*
X028021Y014318D01*
X027931Y014408D01*
X027814Y014457D01*
X025368Y014457D01*
X025351Y014475D01*
X025204Y014535D01*
X025046Y014535D01*
X024899Y014475D01*
X024882Y014457D01*
X024278Y014457D01*
X024249Y014528D01*
X024181Y014595D01*
X024093Y014632D01*
X024070Y014632D01*
X024070Y014826D01*
X024021Y014943D01*
X023931Y015033D01*
X023814Y015082D01*
X023686Y015082D01*
X022564Y015082D01*
X022436Y015082D01*
X022070Y015082D01*
X022070Y015826D01*
X022021Y015943D01*
X021931Y016033D01*
X021814Y016082D01*
X021710Y016082D01*
X021710Y016125D01*
X021683Y016192D01*
X023561Y016192D01*
X023689Y016192D01*
X023806Y016241D01*
X024375Y016809D01*
X024444Y016741D01*
X024505Y016715D01*
X024505Y016669D01*
X024542Y016581D01*
X024609Y016513D01*
X024697Y016477D01*
X025305Y016477D01*
X025393Y016513D01*
X025428Y016548D01*
X025469Y016537D01*
X025701Y016537D01*
X025701Y016964D01*
X025797Y016964D01*
X025797Y017060D01*
X026185Y017060D01*
X026185Y017331D01*
X026173Y017377D01*
X026149Y017418D01*
X026115Y017451D01*
X026074Y017475D01*
X026029Y017487D01*
X025797Y017487D01*
X025797Y017060D01*
X025701Y017060D01*
X025701Y017487D01*
X025469Y017487D01*
X025428Y017476D01*
X025393Y017511D01*
X025305Y017547D01*
X025482Y017547D01*
X025681Y017629D01*
X025833Y017781D01*
X025909Y017966D01*
X025930Y017903D01*
X025964Y017835D01*
X026009Y017774D01*
X026062Y017721D01*
X026123Y017676D01*
X026191Y017642D01*
X026263Y017619D01*
X026337Y017607D01*
X026355Y017607D01*
X026355Y018367D01*
X026395Y018367D01*
X026395Y018407D01*
X026855Y018407D01*
X026855Y018725D01*
X026843Y018799D01*
X026820Y018871D01*
X026786Y018939D01*
X026741Y019000D01*
X026688Y019053D01*
X026627Y019098D01*
X026559Y019132D01*
X026487Y019155D01*
X026413Y019167D01*
X026395Y019167D01*
X026395Y018407D01*
X026355Y018407D01*
X026355Y019167D01*
X026337Y019167D01*
X026263Y019155D01*
X026191Y019132D01*
X026123Y019098D01*
X026062Y019053D01*
X026009Y019000D01*
X025964Y018939D01*
X025930Y018871D01*
X025909Y018808D01*
X025833Y018993D01*
X025681Y019145D01*
X025482Y019227D01*
X025268Y019227D01*
X025069Y019145D01*
X024917Y018993D01*
X024875Y018891D01*
X024833Y018993D01*
X024681Y019145D01*
X024482Y019227D01*
X024268Y019227D01*
X024069Y019145D01*
X023917Y018993D01*
X023835Y018794D01*
X023835Y017980D01*
X023917Y017781D01*
X024055Y017643D01*
X024055Y017395D01*
X023492Y016832D01*
X023009Y016832D01*
X023083Y016906D01*
X023165Y017105D01*
X023165Y017919D01*
X023083Y018118D01*
X023040Y018160D01*
X023168Y018213D01*
X023309Y018354D01*
X023385Y018538D01*
X023385Y018736D01*
X023309Y018920D01*
X023168Y019061D01*
X022984Y019137D01*
X022266Y019137D01*
X022082Y019061D01*
X021941Y018920D01*
X021865Y018736D01*
X021865Y018538D01*
X021941Y018354D01*
X022082Y018213D01*
X022210Y018160D01*
X022167Y018118D01*
X022125Y018016D01*
X022083Y018118D01*
X021931Y018270D01*
X021732Y018352D01*
X021518Y018352D01*
X021319Y018270D01*
X021167Y018118D01*
X021085Y017919D01*
X021085Y017380D01*
X020931Y017533D01*
X020814Y017582D01*
X020686Y017582D01*
X019618Y017582D01*
X019601Y017600D01*
X019454Y017660D01*
X019296Y017660D01*
X019195Y017619D01*
X019195Y018166D01*
X019266Y018137D01*
X019984Y018137D01*
X020168Y018213D01*
X020309Y018354D01*
X020385Y018538D01*
X020385Y018736D01*
X020309Y018920D01*
X020168Y019061D01*
X019984Y019137D01*
X019634Y019137D01*
X019579Y019192D01*
X019447Y019247D01*
X019303Y019247D01*
X019024Y019247D01*
X018954Y019317D01*
X018822Y019372D01*
X016447Y019372D01*
X016303Y019372D01*
X016171Y019317D01*
X015851Y018997D01*
X013447Y018997D01*
X013303Y018997D01*
X013171Y018942D01*
X012976Y018747D01*
X012178Y018747D01*
X011553Y018747D01*
X011421Y018692D01*
X011320Y018591D01*
X011265Y018459D01*
X011265Y018315D01*
X011265Y017135D01*
X011204Y017160D01*
X011046Y017160D01*
X011035Y017156D01*
X011035Y017692D01*
X010999Y017780D01*
X010964Y017815D01*
X010975Y017856D01*
X010975Y018088D01*
X010548Y018088D01*
X010548Y018184D01*
X010975Y018184D01*
X010975Y018416D01*
X010963Y018461D01*
X010939Y018502D01*
X010906Y018536D01*
X010865Y018560D01*
X010819Y018572D01*
X010548Y018572D01*
X010548Y018184D01*
X010452Y018184D01*
X010452Y018088D01*
X010025Y018088D01*
X010025Y017856D01*
X010036Y017815D01*
X010001Y017780D01*
X009965Y017692D01*
X009965Y017122D01*
X009230Y017122D01*
X009230Y017434D01*
X009220Y017458D01*
X009220Y017670D01*
X009183Y017758D01*
X009116Y017825D01*
X009028Y017862D01*
X008786Y017862D01*
X008790Y017878D01*
X008790Y018162D01*
X008790Y018446D01*
X008778Y018491D01*
X008754Y018533D01*
X008721Y018566D01*
X008679Y018590D01*
X008634Y018602D01*
X008500Y018602D01*
X008500Y018162D01*
X008500Y017722D01*
X008542Y017722D01*
X008520Y017670D01*
X008520Y017458D01*
X008510Y017434D01*
X008510Y016690D01*
X008565Y016558D01*
X008666Y016457D01*
X008798Y016402D01*
X008942Y016402D01*
X010024Y016402D01*
X009984Y016386D01*
X009917Y016318D01*
X009887Y016247D01*
X008490Y016247D01*
X008490Y016334D01*
X008490Y016834D01*
X008490Y017434D01*
X008480Y017458D01*
X008480Y017670D01*
X008458Y017722D01*
X008500Y017722D01*
X008500Y018162D01*
X008500Y018162D01*
X008500Y018162D01*
X008790Y018162D01*
X008500Y018162D01*
X008500Y018162D01*
X008210Y018162D01*
X008210Y017878D01*
X008214Y017862D01*
X007972Y017862D01*
X007884Y017825D01*
X007817Y017758D01*
X007780Y017670D01*
X007780Y017458D01*
X007770Y017434D01*
X007770Y017122D01*
X007535Y017122D01*
X007535Y017692D01*
X007499Y017780D01*
X007464Y017815D01*
X007475Y017856D01*
X007475Y018088D01*
X007048Y018088D01*
X007048Y018184D01*
X007475Y018184D01*
X007475Y018416D01*
X007463Y018461D01*
X007439Y018502D01*
X007406Y018536D01*
X007365Y018560D01*
X007319Y018572D01*
X007048Y018572D01*
X007048Y018184D01*
X006952Y018184D01*
X006952Y018088D01*
X006525Y018088D01*
X006525Y017856D01*
X006536Y017815D01*
X006501Y017780D01*
X006465Y017692D01*
X006465Y017084D01*
X006501Y016996D01*
X006569Y016929D01*
X006640Y016899D01*
X006640Y016834D01*
X006640Y016690D01*
X006668Y016622D01*
X004860Y016622D01*
X004860Y017215D01*
X004898Y017308D01*
X004898Y017466D01*
X004838Y017613D01*
X004726Y017725D01*
X004579Y017785D01*
X004421Y017785D01*
X004328Y017747D01*
X003303Y017747D01*
X003171Y017692D01*
X003070Y017591D01*
X003015Y017459D01*
X003015Y017347D01*
X003012Y017347D01*
X002924Y017311D01*
X002857Y017243D01*
X002820Y017155D01*
X002820Y016036D01*
X002857Y015948D01*
X002924Y015880D01*
X002986Y015855D01*
X002949Y015834D01*
X002916Y015801D01*
X002892Y015760D01*
X002880Y015714D01*
X002880Y015256D01*
X003297Y015256D01*
X003297Y015101D01*
X002880Y015101D01*
X002880Y014643D01*
X002892Y014597D01*
X002916Y014556D01*
X002949Y014523D01*
X002991Y014499D01*
X003036Y014487D01*
X003297Y014487D01*
X003297Y015101D01*
X003452Y015101D01*
X003452Y014487D01*
X003714Y014487D01*
X003759Y014499D01*
X003800Y014523D01*
X003834Y014556D01*
X003858Y014597D01*
X003870Y014643D01*
X003870Y015101D01*
X003453Y015101D01*
X003453Y015256D01*
X003870Y015256D01*
X003870Y015714D01*
X003858Y015760D01*
X003834Y015801D01*
X003800Y015834D01*
X003764Y015855D01*
X003826Y015880D01*
X003893Y015948D01*
X003930Y016036D01*
X003930Y017027D01*
X004140Y017027D01*
X004140Y016334D01*
X004140Y016190D01*
X004195Y016058D01*
X004296Y015957D01*
X004428Y015902D01*
X007770Y015902D01*
X007770Y015815D01*
X007805Y015731D01*
X007805Y014744D01*
X007704Y014785D01*
X007546Y014785D01*
X007399Y014725D01*
X007343Y014668D01*
X007319Y014658D01*
X006242Y013582D01*
X005939Y013582D01*
X005811Y013582D01*
X005694Y013533D01*
X004742Y012582D01*
X003436Y012582D01*
X003319Y012533D01*
X003229Y012443D01*
X002319Y011533D01*
X002319Y011533D01*
X002277Y011492D01*
X001520Y011492D01*
X001520Y011532D01*
X002280Y011532D01*
X002280Y011550D01*
X002268Y011624D01*
X002245Y011696D01*
X002211Y011764D01*
X002166Y011825D01*
X002113Y011878D01*
X002052Y011923D01*
X001984Y011957D01*
X001921Y011978D01*
X002106Y012054D01*
X002258Y012206D01*
X002340Y012405D01*
X002340Y012619D01*
X002258Y012818D01*
X002106Y012970D01*
X001907Y013052D01*
X001093Y013052D01*
X000894Y012970D01*
X000742Y012818D01*
X000660Y012619D01*
X000660Y012405D01*
X000669Y012383D01*
X000444Y012158D01*
X000375Y012090D01*
X000375Y019387D01*
X038625Y019387D01*
X038625Y000512D01*
X000375Y000512D01*
X000375Y006184D01*
X001602Y004958D01*
X001602Y004933D01*
X001640Y004840D01*
X001640Y004625D01*
X001569Y004595D01*
X001501Y004528D01*
X001465Y004440D01*
X001465Y003832D01*
X001494Y003762D01*
X001465Y003692D01*
X001465Y003084D01*
X001501Y002996D01*
X001569Y002929D01*
X001657Y002892D01*
X001680Y002892D01*
X001680Y002506D01*
X001542Y002368D01*
X001460Y002169D01*
X001460Y001355D01*
X001542Y001156D01*
X001694Y001004D01*
X001893Y000922D01*
X002107Y000922D01*
X002306Y001004D01*
X002458Y001156D01*
X002534Y001341D01*
X002555Y001278D01*
X002589Y001210D01*
X002634Y001149D01*
X002687Y001096D01*
X002748Y001051D01*
X002816Y001017D01*
X002888Y000994D01*
X002962Y000982D01*
X002980Y000982D01*
X002980Y001742D01*
X003020Y001742D01*
X003020Y001782D01*
X003480Y001782D01*
X003480Y002100D01*
X003468Y002174D01*
X003445Y002246D01*
X003411Y002314D01*
X003366Y002375D01*
X003313Y002428D01*
X003252Y002473D01*
X003184Y002507D01*
X003112Y002530D01*
X003038Y002542D01*
X003020Y002542D01*
X003020Y001782D01*
X002980Y001782D01*
X002980Y002542D01*
X002962Y002542D01*
X002888Y002530D01*
X002816Y002507D01*
X002748Y002473D01*
X002687Y002428D01*
X002634Y002375D01*
X002589Y002314D01*
X002555Y002246D01*
X002534Y002183D01*
X002458Y002368D01*
X002320Y002506D01*
X002320Y002892D01*
X002343Y002892D01*
X002431Y002929D01*
X002499Y002996D01*
X002528Y003068D01*
X002536Y003068D01*
X002537Y003063D01*
X002561Y003022D01*
X002594Y002988D01*
X002635Y002964D01*
X002681Y002952D01*
X002952Y002952D01*
X002952Y003340D01*
X003048Y003340D01*
X003048Y002952D01*
X003319Y002952D01*
X003365Y002964D01*
X003406Y002988D01*
X003439Y003022D01*
X003463Y003063D01*
X003475Y003108D01*
X003475Y003340D01*
X003048Y003340D01*
X003048Y003436D01*
X003475Y003436D01*
X003475Y003668D01*
X003464Y003709D01*
X003499Y003744D01*
X003535Y003832D01*
X003535Y004440D01*
X003499Y004528D01*
X003431Y004595D01*
X003343Y004632D01*
X003340Y004632D01*
X003320Y004680D01*
X003320Y005769D01*
X003338Y005786D01*
X003398Y005933D01*
X003398Y006091D01*
X003338Y006238D01*
X003226Y006350D01*
X003079Y006410D01*
X002921Y006410D01*
X002774Y006350D01*
X002662Y006238D01*
X002602Y006091D01*
X002602Y005933D01*
X002662Y005786D01*
X002680Y005769D01*
X002680Y004832D01*
X002436Y004832D01*
X002360Y004800D01*
X002360Y004840D01*
X002398Y004933D01*
X002398Y005091D01*
X002338Y005238D01*
X002226Y005350D01*
X002079Y005410D01*
X002054Y005410D01*
X000945Y006520D01*
X000945Y006658D01*
X001093Y006597D01*
X001907Y006597D01*
X002106Y006679D01*
X002244Y006817D01*
X002936Y006817D01*
X003064Y006817D01*
X003181Y006866D01*
X003271Y006956D01*
X003320Y007073D01*
X003320Y011254D01*
X003440Y011375D01*
X003440Y011310D01*
X003828Y011310D01*
X003828Y011214D01*
X003924Y011214D01*
X003924Y010787D01*
X004156Y010787D01*
X004197Y010798D01*
X004232Y010763D01*
X004320Y010727D01*
X004928Y010727D01*
X005016Y010763D01*
X005083Y010831D01*
X005109Y010892D01*
X006113Y010892D01*
X006217Y010788D01*
X006401Y010712D01*
X006599Y010712D01*
X006783Y010788D01*
X006811Y010816D01*
X007971Y010816D01*
X007994Y010762D01*
X007965Y010692D01*
X007965Y010084D01*
X008001Y009996D01*
X008069Y009929D01*
X008157Y009892D01*
X008180Y009892D01*
X008180Y009632D01*
X006887Y009632D01*
X006783Y009736D01*
X006599Y009812D01*
X006401Y009812D01*
X006217Y009736D01*
X006076Y009595D01*
X006071Y009582D01*
X005245Y009582D01*
X005245Y009605D01*
X005208Y009693D01*
X005141Y009761D01*
X005053Y009797D01*
X004445Y009797D01*
X004357Y009761D01*
X004322Y009726D01*
X004281Y009737D01*
X004049Y009737D01*
X004049Y009310D01*
X003953Y009310D01*
X003953Y009214D01*
X004049Y009214D01*
X004049Y008787D01*
X004281Y008787D01*
X004322Y008798D01*
X004357Y008763D01*
X004445Y008727D01*
X005053Y008727D01*
X005141Y008763D01*
X005208Y008831D01*
X005245Y008919D01*
X005245Y008942D01*
X006163Y008942D01*
X006217Y008888D01*
X006401Y008812D01*
X006599Y008812D01*
X006783Y008888D01*
X006887Y008992D01*
X008564Y008992D01*
X008681Y009041D01*
X008771Y009131D01*
X008820Y009248D01*
X008820Y009376D01*
X008820Y009692D01*
X009814Y009692D01*
X009931Y009741D01*
X010021Y009831D01*
X010070Y009948D01*
X010070Y010076D01*
X010070Y010810D01*
X010548Y010810D01*
X010548Y010274D01*
X010578Y010202D01*
X010578Y010082D01*
X010311Y010082D01*
X010194Y010033D01*
X010104Y009943D01*
X010055Y009826D01*
X010055Y009698D01*
X010055Y008895D01*
X009976Y008975D01*
X009829Y009035D01*
X009671Y009035D01*
X009524Y008975D01*
X009412Y008863D01*
X009352Y008716D01*
X009352Y008558D01*
X009412Y008411D01*
X009430Y008394D01*
X009430Y006082D01*
X008745Y006082D01*
X008745Y006105D01*
X008708Y006193D01*
X008641Y006261D01*
X008553Y006297D01*
X007945Y006297D01*
X007857Y006261D01*
X007822Y006226D01*
X007781Y006237D01*
X007549Y006237D01*
X007549Y005810D01*
X007453Y005810D01*
X007453Y005714D01*
X007549Y005714D01*
X007549Y005287D01*
X007781Y005287D01*
X007822Y005298D01*
X007857Y005263D01*
X007945Y005227D01*
X008553Y005227D01*
X008641Y005263D01*
X008708Y005331D01*
X008745Y005419D01*
X008745Y005442D01*
X009430Y005442D01*
X009430Y004632D01*
X009407Y004632D01*
X009319Y004595D01*
X009251Y004528D01*
X009215Y004440D01*
X009215Y003832D01*
X009244Y003762D01*
X009221Y003708D01*
X009028Y003708D01*
X009006Y003762D01*
X009035Y003832D01*
X009035Y004440D01*
X008999Y004528D01*
X008931Y004595D01*
X008843Y004632D01*
X008157Y004632D01*
X008069Y004595D01*
X008001Y004528D01*
X007971Y004456D01*
X007028Y004456D01*
X006999Y004528D01*
X006931Y004595D01*
X006843Y004632D01*
X006820Y004632D01*
X006820Y004769D01*
X006838Y004786D01*
X006898Y004933D01*
X006898Y005091D01*
X006838Y005238D01*
X006726Y005350D01*
X006579Y005410D01*
X006421Y005410D01*
X006274Y005350D01*
X006162Y005238D01*
X006102Y005091D01*
X006102Y004933D01*
X006162Y004786D01*
X006180Y004769D01*
X006180Y004632D01*
X006157Y004632D01*
X006069Y004595D01*
X006001Y004528D01*
X005965Y004440D01*
X005965Y003832D01*
X005994Y003762D01*
X005971Y003708D01*
X005528Y003708D01*
X005506Y003762D01*
X005535Y003832D01*
X005535Y004440D01*
X005499Y004528D01*
X005431Y004595D01*
X005343Y004632D01*
X004657Y004632D01*
X004570Y004596D01*
X004570Y005227D01*
X004930Y005227D01*
X005018Y005263D01*
X005053Y005298D01*
X005094Y005287D01*
X005326Y005287D01*
X005326Y005714D01*
X005422Y005714D01*
X005422Y005810D01*
X005810Y005810D01*
X005810Y006081D01*
X005798Y006127D01*
X005774Y006168D01*
X005740Y006201D01*
X005699Y006225D01*
X005654Y006237D01*
X005422Y006237D01*
X005422Y005810D01*
X005326Y005810D01*
X005326Y006237D01*
X005094Y006237D01*
X005053Y006226D01*
X005018Y006261D01*
X004945Y006291D01*
X004945Y006519D01*
X004963Y006536D01*
X005023Y006683D01*
X005023Y006841D01*
X004963Y006988D01*
X004851Y007100D01*
X004704Y007160D01*
X004546Y007160D01*
X004399Y007100D01*
X004287Y006988D01*
X004227Y006841D01*
X004227Y006683D01*
X004287Y006536D01*
X004305Y006519D01*
X004305Y006290D01*
X004234Y006261D01*
X004167Y006193D01*
X004130Y006105D01*
X004130Y006059D01*
X004069Y006033D01*
X003979Y005943D01*
X003930Y005826D01*
X003930Y005698D01*
X003930Y004072D01*
X003979Y003955D01*
X004069Y003865D01*
X004186Y003816D01*
X004314Y003816D01*
X004471Y003816D01*
X004494Y003762D01*
X004465Y003692D01*
X004465Y003084D01*
X004501Y002996D01*
X004569Y002929D01*
X004657Y002892D01*
X005343Y002892D01*
X005431Y002929D01*
X005499Y002996D01*
X005528Y003068D01*
X005971Y003068D01*
X006001Y002996D01*
X006069Y002929D01*
X006157Y002892D01*
X006180Y002892D01*
X006180Y002506D01*
X006042Y002368D01*
X005960Y002169D01*
X005960Y001355D01*
X006042Y001156D01*
X006194Y001004D01*
X006393Y000922D01*
X006607Y000922D01*
X006806Y001004D01*
X006958Y001156D01*
X007034Y001341D01*
X007055Y001278D01*
X007089Y001210D01*
X007134Y001149D01*
X007187Y001096D01*
X007248Y001051D01*
X007316Y001017D01*
X007388Y000994D01*
X007462Y000982D01*
X007480Y000982D01*
X007480Y001742D01*
X007520Y001742D01*
X007520Y000982D01*
X007538Y000982D01*
X007612Y000994D01*
X007684Y001017D01*
X007752Y001051D01*
X007813Y001096D01*
X007866Y001149D01*
X007911Y001210D01*
X007945Y001278D01*
X007965Y001341D01*
X008042Y001156D01*
X008194Y001004D01*
X008393Y000922D01*
X008607Y000922D01*
X008806Y001004D01*
X008958Y001156D01*
X009040Y001355D01*
X009040Y002169D01*
X008958Y002368D01*
X008820Y002506D01*
X008820Y002892D01*
X008843Y002892D01*
X008931Y002929D01*
X008999Y002996D01*
X009028Y003068D01*
X009221Y003068D01*
X009251Y002996D01*
X009319Y002929D01*
X009407Y002892D01*
X010055Y002892D01*
X010055Y002698D01*
X010104Y002581D01*
X010194Y002491D01*
X010311Y002442D01*
X010439Y002442D01*
X011256Y002442D01*
X011394Y002304D01*
X011579Y002228D01*
X011516Y002207D01*
X011448Y002173D01*
X011387Y002128D01*
X011334Y002075D01*
X011289Y002014D01*
X011255Y001946D01*
X011232Y001874D01*
X011220Y001800D01*
X011220Y001782D01*
X011980Y001782D01*
X011980Y001742D01*
X012020Y001742D01*
X012020Y001782D01*
X012780Y001782D01*
X012780Y001800D01*
X012768Y001874D01*
X012745Y001946D01*
X012711Y002014D01*
X012666Y002075D01*
X012613Y002128D01*
X012552Y002173D01*
X012484Y002207D01*
X012421Y002228D01*
X012606Y002304D01*
X012758Y002456D01*
X012840Y002655D01*
X012840Y002869D01*
X012758Y003068D01*
X012606Y003220D01*
X012407Y003302D01*
X011593Y003302D01*
X011394Y003220D01*
X011256Y003082D01*
X010695Y003082D01*
X010695Y004579D01*
X010872Y004402D01*
X011378Y004402D01*
X011667Y004692D01*
X011897Y004462D01*
X012105Y004462D01*
X012105Y004992D01*
X012145Y004992D01*
X012145Y005032D01*
X012675Y005032D01*
X012675Y005240D01*
X012445Y005470D01*
X012735Y005759D01*
X012735Y006265D01*
X012488Y006512D01*
X012668Y006692D01*
X013367Y006692D01*
X013930Y006129D01*
X013930Y004201D01*
X013930Y004073D01*
X013930Y001573D01*
X013979Y001456D01*
X014069Y001366D01*
X014819Y000616D01*
X014936Y000567D01*
X015064Y000567D01*
X017689Y000567D01*
X017806Y000616D01*
X017896Y000706D01*
X018521Y001331D01*
X018570Y001448D01*
X018570Y001576D01*
X018570Y003379D01*
X018715Y003524D01*
X018715Y003084D01*
X018751Y002996D01*
X018819Y002929D01*
X018907Y002892D01*
X018930Y002892D01*
X018930Y002506D01*
X018792Y002368D01*
X018710Y002169D01*
X018710Y001355D01*
X018792Y001156D01*
X018944Y001004D01*
X019143Y000922D01*
X019357Y000922D01*
X019556Y001004D01*
X019708Y001156D01*
X019784Y001341D01*
X019805Y001278D01*
X019839Y001210D01*
X019884Y001149D01*
X019937Y001096D01*
X019998Y001051D01*
X020066Y001017D01*
X020138Y000994D01*
X020212Y000982D01*
X020230Y000982D01*
X020230Y001742D01*
X020270Y001742D01*
X020270Y001782D01*
X020730Y001782D01*
X020730Y002100D01*
X020718Y002174D01*
X020695Y002246D01*
X020661Y002314D01*
X020616Y002375D01*
X020563Y002428D01*
X020502Y002473D01*
X020434Y002507D01*
X020362Y002530D01*
X020288Y002542D01*
X020270Y002542D01*
X020270Y001782D01*
X020230Y001782D01*
X020230Y002542D01*
X020212Y002542D01*
X020138Y002530D01*
X020066Y002507D01*
X019998Y002473D01*
X019937Y002428D01*
X019884Y002375D01*
X019839Y002314D01*
X019805Y002246D01*
X019784Y002183D01*
X019708Y002368D01*
X019570Y002506D01*
X019570Y002892D01*
X019593Y002892D01*
X019681Y002929D01*
X019749Y002996D01*
X019783Y003078D01*
X019787Y003063D01*
X019811Y003022D01*
X019844Y002988D01*
X019885Y002964D01*
X019931Y002952D01*
X020202Y002952D01*
X020202Y003340D01*
X020298Y003340D01*
X020298Y003436D01*
X020725Y003436D01*
X020725Y003668D01*
X020714Y003709D01*
X020749Y003744D01*
X020785Y003832D01*
X020785Y004440D01*
X020749Y004528D01*
X020681Y004595D01*
X020593Y004632D01*
X020207Y004632D01*
X018271Y006567D01*
X021784Y006567D01*
X021775Y006545D01*
X021775Y006229D01*
X021812Y006141D01*
X021816Y006137D01*
X021812Y006133D01*
X021775Y006045D01*
X021775Y005909D01*
X021711Y005883D01*
X021461Y005633D01*
X021379Y005551D01*
X021335Y005445D01*
X021335Y005160D01*
X021287Y005113D01*
X021227Y004966D01*
X021227Y004808D01*
X021287Y004661D01*
X021399Y004549D01*
X021546Y004489D01*
X021704Y004489D01*
X021851Y004549D01*
X021868Y004567D01*
X024430Y004567D01*
X024430Y004271D01*
X024309Y004271D01*
X024220Y004234D01*
X024153Y004167D01*
X024116Y004078D01*
X024116Y003196D01*
X024153Y003107D01*
X024220Y003040D01*
X024309Y003003D01*
X025191Y003003D01*
X025280Y003040D01*
X025347Y003107D01*
X025384Y003196D01*
X025384Y004078D01*
X025347Y004167D01*
X025280Y004234D01*
X025191Y004271D01*
X025070Y004271D01*
X025070Y004567D01*
X027031Y004567D01*
X027032Y004565D01*
X027121Y004529D01*
X028082Y004529D01*
X028170Y004565D01*
X028238Y004633D01*
X028274Y004721D01*
X028274Y005053D01*
X028240Y005137D01*
X028274Y005221D01*
X028274Y005553D01*
X028256Y005597D01*
X028630Y005597D01*
X028754Y005473D01*
X028836Y005391D01*
X028942Y005347D01*
X028976Y005347D01*
X028976Y005221D01*
X029010Y005137D01*
X028976Y005053D01*
X028976Y004721D01*
X029012Y004633D01*
X029080Y004565D01*
X029168Y004529D01*
X030129Y004529D01*
X030218Y004565D01*
X030285Y004633D01*
X030322Y004721D01*
X030322Y005053D01*
X030287Y005137D01*
X030322Y005221D01*
X030322Y005347D01*
X030433Y005347D01*
X030539Y005391D01*
X030621Y005473D01*
X030665Y005579D01*
X030665Y008378D01*
X030816Y008378D01*
X030905Y008415D01*
X030972Y008482D01*
X031009Y008571D01*
X031009Y008692D01*
X031257Y008692D01*
X031274Y008674D01*
X031421Y008614D01*
X031579Y008614D01*
X031726Y008674D01*
X031838Y008786D01*
X031898Y008933D01*
X031898Y009091D01*
X031838Y009238D01*
X031726Y009350D01*
X031579Y009410D01*
X031421Y009410D01*
X031274Y009350D01*
X031257Y009332D01*
X031009Y009332D01*
X031009Y009453D01*
X030972Y009542D01*
X030905Y009609D01*
X030816Y009646D01*
X029934Y009646D01*
X029845Y009609D01*
X029778Y009542D01*
X029741Y009453D01*
X029741Y009332D01*
X028995Y009332D01*
X028995Y009355D01*
X028958Y009443D01*
X028891Y009511D01*
X028803Y009547D01*
X028195Y009547D01*
X028125Y009518D01*
X028055Y009547D01*
X027447Y009547D01*
X027359Y009511D01*
X027292Y009443D01*
X027255Y009355D01*
X027255Y009332D01*
X027120Y009332D01*
X027120Y009355D01*
X027083Y009443D01*
X027016Y009511D01*
X026928Y009547D01*
X026320Y009547D01*
X026250Y009518D01*
X026180Y009547D01*
X025967Y009547D01*
X026023Y009683D01*
X026023Y009841D01*
X025963Y009988D01*
X025851Y010100D01*
X025704Y010160D01*
X025546Y010160D01*
X025399Y010100D01*
X025382Y010082D01*
X025153Y010082D01*
X025124Y010153D01*
X025056Y010220D01*
X024968Y010257D01*
X024282Y010257D01*
X024194Y010220D01*
X024126Y010153D01*
X024090Y010065D01*
X024090Y009457D01*
X024119Y009387D01*
X024090Y009317D01*
X024090Y008709D01*
X024126Y008621D01*
X024194Y008554D01*
X024282Y008517D01*
X024305Y008517D01*
X024305Y008457D01*
X024225Y008457D01*
X024213Y008488D01*
X024101Y008600D01*
X023954Y008660D01*
X023796Y008660D01*
X023649Y008600D01*
X023570Y008520D01*
X023570Y011004D01*
X024633Y012067D01*
X025598Y012067D01*
X025597Y012066D01*
X025585Y012021D01*
X025585Y011887D01*
X025585Y011753D01*
X025597Y011708D01*
X025621Y011666D01*
X025654Y011633D01*
X025696Y011609D01*
X025741Y011597D01*
X026055Y011597D01*
X026369Y011597D01*
X026414Y011609D01*
X026456Y011633D01*
X026489Y011666D01*
X026513Y011708D01*
X026525Y011753D01*
X026525Y011887D01*
X026525Y012021D01*
X026513Y012066D01*
X026498Y012091D01*
X026548Y012141D01*
X026585Y012229D01*
X026585Y012545D01*
X026548Y012633D01*
X026544Y012637D01*
X026548Y012641D01*
X026585Y012729D01*
X026585Y013045D01*
X026548Y013133D01*
X026544Y013137D01*
X026548Y013141D01*
X026585Y013229D01*
X026585Y013545D01*
X026548Y013633D01*
X026481Y013700D01*
X026393Y013737D01*
X025717Y013737D01*
X025645Y013707D01*
X024564Y013707D01*
X024436Y013707D01*
X024319Y013658D01*
X024225Y013565D01*
X024225Y013668D01*
X024214Y013709D01*
X024249Y013744D01*
X024279Y013817D01*
X024882Y013817D01*
X024899Y013799D01*
X025046Y013739D01*
X025204Y013739D01*
X025351Y013799D01*
X025368Y013817D01*
X027617Y013817D01*
X027752Y013683D01*
X027702Y013633D01*
X027665Y013545D01*
X027665Y013229D01*
X027702Y013141D01*
X027751Y013091D01*
X027737Y013066D01*
X027725Y013021D01*
X027725Y012887D01*
X027725Y012753D01*
X027737Y012708D01*
X027751Y012683D01*
X027702Y012633D01*
X027665Y012545D01*
X027665Y012229D01*
X027702Y012141D01*
X027706Y012137D01*
X027702Y012133D01*
X027665Y012045D01*
X027665Y011729D01*
X027702Y011641D01*
X027769Y011574D01*
X027857Y011537D01*
X028533Y011537D01*
X028605Y011567D01*
X029689Y011567D01*
X029806Y011616D01*
X029896Y011706D01*
X030771Y012581D01*
X030820Y012698D01*
X030820Y012826D01*
X030820Y012879D01*
X031021Y013081D01*
X031070Y013198D01*
X031070Y013326D01*
X031070Y014504D01*
X031102Y014536D01*
X031102Y014433D01*
X031162Y014286D01*
X031274Y014174D01*
X031421Y014114D01*
X031579Y014114D01*
X031726Y014174D01*
X031838Y014286D01*
X031898Y014433D01*
X031898Y014500D01*
X031996Y014598D01*
X032040Y014704D01*
X032040Y014820D01*
X032040Y015015D01*
X032293Y014762D01*
X032707Y014762D01*
X033000Y015055D01*
X033000Y015469D01*
X032707Y015762D01*
X032293Y015762D01*
X032040Y015509D01*
X032040Y016102D01*
X032428Y016102D01*
X032516Y016138D01*
X032583Y016206D01*
X032613Y016277D01*
X034188Y016277D01*
X034332Y016277D01*
X034464Y016332D01*
X035124Y016992D01*
X035153Y016963D01*
X035385Y016867D01*
X035635Y016867D01*
X035867Y016963D01*
X036044Y017140D01*
X036140Y017372D01*
X036140Y018402D01*
X036044Y018634D01*
X035867Y018811D01*
X035635Y018907D01*
X035385Y018907D01*
X035153Y018811D01*
X034976Y018634D01*
X034880Y018402D01*
X034880Y017766D01*
X034111Y016997D01*
X032613Y016997D01*
X032583Y017068D01*
X032516Y017136D01*
X032484Y017149D01*
X032484Y017682D01*
X032583Y017781D01*
X032625Y017883D01*
X032667Y017781D01*
X032819Y017629D01*
X033018Y017547D01*
X033232Y017547D01*
X033431Y017629D01*
X033583Y017781D01*
X033665Y017980D01*
X033665Y018794D01*
X033583Y018993D01*
X033431Y019145D01*
X033232Y019227D01*
X033018Y019227D01*
X032819Y019145D01*
X032667Y018993D01*
X032625Y018891D01*
X032583Y018993D01*
X032431Y019145D01*
X032232Y019227D01*
X032018Y019227D01*
X031819Y019145D01*
X031667Y018993D01*
X031625Y018891D01*
X031583Y018993D01*
X031431Y019145D01*
X031232Y019227D01*
X031018Y019227D01*
X030819Y019145D01*
X030667Y018993D01*
X030585Y018794D01*
X030585Y017980D01*
X030667Y017781D01*
X030819Y017629D01*
X031018Y017547D01*
X031055Y017547D01*
X031430Y017172D01*
X031198Y017172D01*
X030600Y017546D01*
X030579Y017567D01*
X030540Y017583D01*
X030505Y017605D01*
X030475Y017610D01*
X030446Y017622D01*
X030405Y017622D01*
X030364Y017629D01*
X030334Y017622D01*
X029512Y017621D01*
X029499Y017653D01*
X029431Y017720D01*
X029343Y017757D01*
X028657Y017757D01*
X028569Y017720D01*
X028501Y017653D01*
X028488Y017621D01*
X028072Y017621D01*
X027928Y017621D01*
X027796Y017566D01*
X027695Y017465D01*
X027640Y017333D01*
X027640Y015896D01*
X027569Y015896D01*
X027556Y015908D01*
X027439Y015957D01*
X023243Y015957D01*
X023226Y015975D01*
X023079Y016035D01*
X022921Y016035D01*
X022774Y015975D01*
X022662Y015863D01*
X022602Y015716D01*
X022602Y015558D01*
X022662Y015411D01*
X022774Y015299D01*
X022921Y015239D01*
X023079Y015239D01*
X023226Y015299D01*
X023243Y015317D01*
X027242Y015317D01*
X027366Y015193D01*
X027366Y014821D01*
X027403Y014732D01*
X027470Y014665D01*
X027559Y014628D01*
X028441Y014628D01*
X028530Y014665D01*
X028597Y014732D01*
X028634Y014821D01*
X028634Y014902D01*
X028887Y014902D01*
X028917Y014831D01*
X028984Y014763D01*
X029072Y014727D01*
X029680Y014727D01*
X029768Y014763D01*
X029803Y014798D01*
X029844Y014787D01*
X030076Y014787D01*
X030076Y015214D01*
X030172Y015214D01*
X030172Y015310D01*
X030560Y015310D01*
X030560Y015581D01*
X030548Y015627D01*
X030524Y015668D01*
X030500Y015692D01*
X030564Y015692D01*
X030617Y015692D01*
X030805Y015504D01*
X030805Y015145D01*
X030569Y014908D01*
X030534Y014873D01*
X030548Y014897D01*
X030560Y014943D01*
X030560Y015214D01*
X030172Y015214D01*
X030172Y014787D01*
X030404Y014787D01*
X030449Y014799D01*
X030477Y014815D01*
X030430Y014701D01*
X030430Y013395D01*
X030319Y013283D01*
X030430Y013421D02*
X029660Y013421D01*
X029654Y013580D02*
X030430Y013580D01*
X030430Y013738D02*
X029513Y013738D01*
X029750Y013137D02*
X030375Y013762D01*
X030375Y015261D01*
X030124Y015262D01*
X030172Y015310D02*
X030076Y015310D01*
X030076Y015737D01*
X029844Y015737D01*
X029803Y015726D01*
X029768Y015761D01*
X029680Y015797D01*
X029072Y015797D01*
X028984Y015761D01*
X028917Y015693D01*
X028887Y015622D01*
X028634Y015622D01*
X028634Y015703D01*
X028597Y015792D01*
X028530Y015859D01*
X028441Y015896D01*
X028360Y015896D01*
X028360Y016901D01*
X028488Y016901D01*
X028494Y016887D01*
X028465Y016817D01*
X028465Y016209D01*
X028501Y016121D01*
X028569Y016054D01*
X028657Y016017D01*
X029343Y016017D01*
X029431Y016054D01*
X029499Y016121D01*
X029528Y016192D01*
X029563Y016192D01*
X029563Y016192D01*
X029867Y016192D01*
X030319Y015741D01*
X030327Y015737D01*
X030172Y015737D01*
X030172Y015310D01*
X030172Y015324D02*
X030076Y015324D01*
X030076Y015482D02*
X030172Y015482D01*
X030172Y015641D02*
X030076Y015641D01*
X030260Y015799D02*
X028590Y015799D01*
X028634Y015641D02*
X028895Y015641D01*
X028360Y015958D02*
X030102Y015958D01*
X029943Y016116D02*
X029494Y016116D01*
X029500Y016512D02*
X029000Y016513D01*
X029500Y016512D02*
X030000Y016512D01*
X030500Y016012D01*
X030750Y016012D01*
X031125Y015637D01*
X031125Y015012D01*
X030750Y014637D01*
X030750Y013262D01*
X030500Y013012D01*
X030500Y012762D01*
X029625Y011887D01*
X028625Y011887D01*
X028195Y011887D01*
X027665Y011836D02*
X026525Y011836D01*
X026525Y011887D02*
X026055Y011887D01*
X027000Y011887D01*
X028000Y012887D01*
X028195Y012887D01*
X027725Y012887D01*
X028195Y012887D01*
X028195Y012887D01*
X027725Y012946D02*
X026585Y012946D01*
X026585Y012787D02*
X027725Y012787D01*
X027700Y012628D02*
X026550Y012628D01*
X026585Y012470D02*
X027665Y012470D01*
X027665Y012311D02*
X026585Y012311D01*
X026553Y012153D02*
X027697Y012153D01*
X027665Y011994D02*
X026525Y011994D01*
X026525Y011887D02*
X026055Y011887D01*
X026055Y011597D01*
X026055Y011887D01*
X026055Y011887D01*
X026055Y011887D01*
X025585Y011887D01*
X026055Y011887D01*
X026055Y011887D01*
X026055Y011836D02*
X026055Y011836D01*
X026055Y011677D02*
X026055Y011677D01*
X026495Y011677D02*
X027687Y011677D01*
X028907Y012465D02*
X028871Y012551D01*
X028861Y012561D01*
X029077Y012561D01*
X029077Y012465D01*
X028907Y012465D01*
X028905Y012470D02*
X029077Y012470D01*
X029125Y012513D02*
X029749Y012513D01*
X029750Y012512D01*
X029750Y013137D01*
X029660Y013104D02*
X030192Y013104D01*
X030180Y012946D02*
X029655Y012946D01*
X029600Y012787D02*
X030072Y012787D01*
X029914Y012628D02*
X029600Y012628D01*
X029755Y012470D02*
X029173Y012470D01*
X029868Y011677D02*
X038625Y011677D01*
X038625Y011519D02*
X024084Y011519D01*
X024243Y011677D02*
X025615Y011677D01*
X025585Y011836D02*
X024401Y011836D01*
X024560Y011994D02*
X025585Y011994D01*
X026055Y012387D02*
X024500Y012387D01*
X023250Y011137D01*
X023250Y006512D01*
X022625Y005887D01*
X022305Y005887D01*
X022305Y005387D02*
X024445Y005387D01*
X025000Y005387D01*
X024915Y005387D02*
X024915Y005521D01*
X024903Y005566D01*
X024902Y005567D01*
X024992Y005567D01*
X025352Y005207D01*
X024902Y005207D01*
X024903Y005208D01*
X024915Y005253D01*
X024915Y005387D01*
X024445Y005387D01*
X024445Y005387D01*
X024915Y005387D01*
X024915Y005335D02*
X025224Y005335D01*
X025065Y005494D02*
X024915Y005494D01*
X024445Y005387D02*
X024445Y005387D01*
X023975Y005387D01*
X023975Y005253D01*
X023987Y005208D01*
X023988Y005207D01*
X022762Y005207D01*
X022763Y005208D01*
X022775Y005253D01*
X022775Y005347D01*
X023058Y005347D01*
X023164Y005391D01*
X023246Y005473D01*
X023870Y006097D01*
X023937Y006097D01*
X023915Y006045D01*
X023915Y005729D01*
X023952Y005641D01*
X024001Y005591D01*
X023987Y005566D01*
X023975Y005521D01*
X023975Y005387D01*
X024445Y005387D01*
X023975Y005335D02*
X022775Y005335D01*
X023267Y005494D02*
X023975Y005494D01*
X023947Y005653D02*
X023426Y005653D01*
X023584Y005811D02*
X023915Y005811D01*
X023915Y005970D02*
X023743Y005970D01*
X024445Y005887D02*
X025125Y005887D01*
X025625Y005387D01*
X027601Y005387D01*
X027601Y004887D02*
X024750Y004887D01*
X021625Y004887D01*
X021625Y004887D01*
X021248Y005018D02*
X019820Y005018D01*
X019979Y004860D02*
X021227Y004860D01*
X021271Y004701D02*
X020137Y004701D01*
X020250Y004136D02*
X017874Y006512D01*
X017500Y006512D01*
X015375Y008637D01*
X012500Y008637D01*
X011528Y009609D01*
X011528Y010572D01*
X011843Y010572D02*
X011843Y009670D01*
X012375Y009137D01*
X015375Y009137D01*
X017625Y006887D01*
X022305Y006887D01*
X022625Y006387D02*
X022875Y006637D01*
X022875Y009387D01*
X023570Y009458D02*
X024090Y009458D01*
X024090Y009616D02*
X023570Y009616D01*
X023570Y009775D02*
X024090Y009775D01*
X024090Y009933D02*
X023570Y009933D01*
X023570Y010092D02*
X024101Y010092D01*
X024266Y010250D02*
X023570Y010250D01*
X023570Y010409D02*
X032146Y010409D01*
X032000Y010555D02*
X032293Y010262D01*
X032707Y010262D01*
X033000Y010555D01*
X033000Y010969D01*
X032707Y011262D01*
X032293Y011262D01*
X032000Y010969D01*
X032000Y010555D01*
X032000Y010567D02*
X023570Y010567D01*
X023570Y010726D02*
X032000Y010726D01*
X032000Y010884D02*
X023570Y010884D01*
X023609Y011043D02*
X032074Y011043D01*
X032232Y011202D02*
X023767Y011202D01*
X023926Y011360D02*
X038625Y011360D01*
X038625Y011202D02*
X037683Y011202D01*
X037682Y011202D02*
X037500Y011202D01*
X037500Y010762D01*
X037500Y010322D01*
X037682Y010322D01*
X037940Y010580D01*
X037940Y010762D01*
X037940Y010944D01*
X037682Y011202D01*
X037500Y011202D02*
X037500Y011202D01*
X037318Y011202D01*
X037060Y010944D01*
X037060Y010762D01*
X037060Y010580D01*
X037318Y010322D01*
X037500Y010322D01*
X037500Y010762D01*
X037500Y010762D01*
X037940Y010762D01*
X037500Y010762D01*
X037500Y010762D01*
X037500Y010762D01*
X037060Y010762D01*
X037500Y010762D01*
X037500Y010762D01*
X037500Y011202D01*
X037500Y011043D02*
X037500Y011043D01*
X037500Y010884D02*
X037500Y010884D01*
X037500Y010726D02*
X037500Y010726D01*
X037500Y010567D02*
X037500Y010567D01*
X037500Y010409D02*
X037500Y010409D01*
X037769Y010409D02*
X038625Y010409D01*
X038625Y010567D02*
X037928Y010567D01*
X037940Y010726D02*
X038625Y010726D01*
X038625Y010884D02*
X037940Y010884D01*
X037841Y011043D02*
X038625Y011043D01*
X038625Y011836D02*
X037696Y011836D01*
X037682Y011822D02*
X037940Y012080D01*
X037940Y012262D01*
X037940Y012444D01*
X037682Y012702D01*
X037500Y012702D01*
X037500Y012262D01*
X037500Y011822D01*
X037682Y011822D01*
X037500Y011822D02*
X037500Y012262D01*
X037500Y012262D01*
X037940Y012262D01*
X037500Y012262D01*
X037500Y012262D01*
X037500Y012262D01*
X037060Y012262D01*
X037060Y012080D01*
X037318Y011822D01*
X037500Y011822D01*
X037500Y011836D02*
X037500Y011836D01*
X037500Y011994D02*
X037500Y011994D01*
X037500Y012153D02*
X037500Y012153D01*
X037500Y012262D02*
X037500Y012262D01*
X037060Y012262D01*
X037060Y012444D01*
X037318Y012702D01*
X037500Y012702D01*
X037500Y012262D01*
X037500Y012311D02*
X037500Y012311D01*
X037500Y012470D02*
X037500Y012470D01*
X037500Y012628D02*
X037500Y012628D01*
X037756Y012628D02*
X038625Y012628D01*
X038625Y012470D02*
X037914Y012470D01*
X037940Y012311D02*
X038625Y012311D01*
X038625Y012153D02*
X037940Y012153D01*
X037854Y011994D02*
X038625Y011994D01*
X038625Y012787D02*
X030820Y012787D01*
X030791Y012628D02*
X032159Y012628D01*
X032293Y012762D02*
X032000Y012469D01*
X032000Y012055D01*
X032293Y011762D01*
X032707Y011762D01*
X033000Y012055D01*
X033000Y012469D01*
X032707Y012762D01*
X032293Y012762D01*
X032001Y012470D02*
X030660Y012470D01*
X030502Y012311D02*
X032000Y012311D01*
X032000Y012153D02*
X030343Y012153D01*
X030185Y011994D02*
X032061Y011994D01*
X032219Y011836D02*
X030026Y011836D01*
X030886Y012946D02*
X038625Y012946D01*
X038625Y013104D02*
X031031Y013104D01*
X031070Y013263D02*
X032292Y013263D01*
X032293Y013262D02*
X032707Y013262D01*
X033000Y013555D01*
X033000Y013969D01*
X032707Y014262D01*
X032293Y014262D01*
X032000Y013969D01*
X032000Y013555D01*
X032293Y013262D01*
X032134Y013421D02*
X031070Y013421D01*
X031070Y013580D02*
X032000Y013580D01*
X032000Y013738D02*
X031070Y013738D01*
X031070Y013897D02*
X032000Y013897D01*
X032086Y014055D02*
X031070Y014055D01*
X031070Y014214D02*
X031235Y014214D01*
X031127Y014372D02*
X031070Y014372D01*
X031096Y014531D02*
X031102Y014531D01*
X030667Y015007D02*
X030560Y015007D01*
X030560Y015165D02*
X030805Y015165D01*
X030805Y015324D02*
X030560Y015324D01*
X030560Y015482D02*
X030805Y015482D01*
X030669Y015641D02*
X030540Y015641D01*
X030172Y015165D02*
X030076Y015165D01*
X030076Y015007D02*
X030172Y015007D01*
X030172Y014848D02*
X030076Y014848D01*
X030430Y014689D02*
X028554Y014689D01*
X028634Y014848D02*
X028909Y014848D01*
X028000Y015262D02*
X027750Y015262D01*
X027375Y015637D01*
X023000Y015637D01*
X022633Y015482D02*
X022070Y015482D01*
X022070Y015324D02*
X022750Y015324D01*
X022602Y015641D02*
X022070Y015641D01*
X022070Y015799D02*
X022636Y015799D01*
X022757Y015958D02*
X022007Y015958D01*
X021710Y016116D02*
X027640Y016116D01*
X027640Y015958D02*
X023243Y015958D01*
X023840Y016275D02*
X027640Y016275D01*
X027640Y016433D02*
X023999Y016433D01*
X024158Y016592D02*
X024537Y016592D01*
X024434Y016751D02*
X024316Y016751D01*
X024625Y017012D02*
X025001Y017012D01*
X024625Y017012D02*
X024375Y017262D01*
X023625Y016512D01*
X021500Y016512D01*
X020750Y017262D01*
X019375Y017262D01*
X019195Y017702D02*
X021085Y017702D01*
X021085Y017860D02*
X019195Y017860D01*
X019195Y018019D02*
X021126Y018019D01*
X021227Y018177D02*
X020082Y018177D01*
X020291Y018336D02*
X021479Y018336D01*
X021771Y018336D02*
X021959Y018336D01*
X022023Y018177D02*
X022168Y018177D01*
X022126Y018019D02*
X022124Y018019D01*
X021883Y018495D02*
X020367Y018495D01*
X020385Y018653D02*
X021865Y018653D01*
X021896Y018812D02*
X020354Y018812D01*
X020259Y018970D02*
X021991Y018970D01*
X022245Y019129D02*
X020005Y019129D01*
X018984Y019287D02*
X038625Y019287D01*
X038625Y019129D02*
X033447Y019129D01*
X033592Y018970D02*
X038625Y018970D01*
X038625Y018812D02*
X037689Y018812D01*
X037709Y018805D02*
X037623Y018833D01*
X037540Y018846D01*
X037540Y017937D01*
X038060Y017937D01*
X038060Y018322D01*
X038046Y018411D01*
X038018Y018496D01*
X037977Y018576D01*
X037925Y018648D01*
X037861Y018712D01*
X037789Y018765D01*
X037709Y018805D01*
X037540Y018812D02*
X037440Y018812D01*
X037440Y018846D02*
X037356Y018833D01*
X037271Y018805D01*
X037191Y018765D01*
X037119Y018712D01*
X037055Y018648D01*
X037002Y018576D01*
X036962Y018496D01*
X036934Y018411D01*
X036920Y018322D01*
X036920Y017937D01*
X037440Y017937D01*
X037440Y017837D01*
X037540Y017837D01*
X037540Y017937D01*
X037440Y017937D01*
X037440Y018846D01*
X037291Y018812D02*
X035866Y018812D01*
X036025Y018653D02*
X037060Y018653D01*
X036961Y018495D02*
X036102Y018495D01*
X036140Y018336D02*
X036922Y018336D01*
X036920Y018177D02*
X036140Y018177D01*
X036140Y018019D02*
X036920Y018019D01*
X036920Y017837D02*
X036920Y017452D01*
X036934Y017364D01*
X036962Y017278D01*
X037002Y017198D01*
X037055Y017126D01*
X037119Y017062D01*
X037191Y017010D01*
X037271Y016969D01*
X037356Y016941D01*
X037440Y016928D01*
X037440Y017837D01*
X036920Y017837D01*
X036920Y017702D02*
X036140Y017702D01*
X036140Y017860D02*
X037440Y017860D01*
X037540Y017860D02*
X038625Y017860D01*
X038625Y017702D02*
X038060Y017702D01*
X038060Y017837D02*
X037540Y017837D01*
X037540Y016928D01*
X037623Y016941D01*
X037709Y016969D01*
X037789Y017010D01*
X037861Y017062D01*
X037925Y017126D01*
X037977Y017198D01*
X038018Y017278D01*
X038046Y017364D01*
X038060Y017452D01*
X038060Y017837D01*
X038060Y018019D02*
X038625Y018019D01*
X038625Y018177D02*
X038060Y018177D01*
X038058Y018336D02*
X038625Y018336D01*
X038625Y018495D02*
X038019Y018495D01*
X037920Y018653D02*
X038625Y018653D01*
X037540Y018653D02*
X037440Y018653D01*
X037440Y018495D02*
X037540Y018495D01*
X037540Y018336D02*
X037440Y018336D01*
X037440Y018177D02*
X037540Y018177D01*
X037540Y018019D02*
X037440Y018019D01*
X037440Y017702D02*
X037540Y017702D01*
X037540Y017543D02*
X037440Y017543D01*
X037440Y017385D02*
X037540Y017385D01*
X037540Y017226D02*
X037440Y017226D01*
X037440Y017068D02*
X037540Y017068D01*
X037867Y017068D02*
X038625Y017068D01*
X038625Y017226D02*
X037992Y017226D01*
X038049Y017385D02*
X038625Y017385D01*
X038625Y017543D02*
X038060Y017543D01*
X038625Y016909D02*
X035737Y016909D01*
X035972Y017068D02*
X037113Y017068D01*
X036988Y017226D02*
X036080Y017226D01*
X036140Y017385D02*
X036931Y017385D01*
X036920Y017543D02*
X036140Y017543D01*
X035283Y016909D02*
X035041Y016909D01*
X034883Y016751D02*
X038625Y016751D01*
X038625Y016592D02*
X034724Y016592D01*
X034565Y016433D02*
X038625Y016433D01*
X038625Y016275D02*
X032612Y016275D01*
X032463Y016116D02*
X038625Y016116D01*
X038625Y015958D02*
X032040Y015958D01*
X032040Y015799D02*
X038625Y015799D01*
X038625Y015641D02*
X037743Y015641D01*
X037682Y015702D02*
X037500Y015702D01*
X037500Y015262D01*
X037500Y014822D01*
X037682Y014822D01*
X037940Y015080D01*
X037940Y015262D01*
X037940Y015444D01*
X037682Y015702D01*
X037500Y015702D02*
X037318Y015702D01*
X037060Y015444D01*
X037060Y015262D01*
X037060Y015080D01*
X037318Y014822D01*
X037500Y014822D01*
X037500Y015262D01*
X037500Y015262D01*
X037940Y015262D01*
X037500Y015262D01*
X037500Y015262D01*
X037500Y015262D01*
X037060Y015262D01*
X037500Y015262D01*
X037500Y015262D01*
X037500Y015702D01*
X037500Y015641D02*
X037500Y015641D01*
X037500Y015482D02*
X037500Y015482D01*
X037500Y015324D02*
X037500Y015324D01*
X037500Y015165D02*
X037500Y015165D01*
X037500Y015007D02*
X037500Y015007D01*
X037500Y014848D02*
X037500Y014848D01*
X037708Y014848D02*
X038625Y014848D01*
X038625Y014689D02*
X032034Y014689D01*
X032040Y014848D02*
X032207Y014848D01*
X032048Y015007D02*
X032040Y015007D01*
X031929Y014531D02*
X038625Y014531D01*
X038625Y014372D02*
X031873Y014372D01*
X031765Y014214D02*
X032245Y014214D01*
X032755Y014214D02*
X038625Y014214D01*
X038625Y014055D02*
X037829Y014055D01*
X037940Y013944D02*
X037682Y014202D01*
X037500Y014202D01*
X037500Y013762D01*
X037500Y013322D01*
X037682Y013322D01*
X037940Y013580D01*
X037940Y013762D01*
X037940Y013944D01*
X037940Y013897D02*
X038625Y013897D01*
X038625Y013738D02*
X037940Y013738D01*
X037940Y013762D02*
X037500Y013762D01*
X037500Y013762D01*
X037940Y013762D01*
X037940Y013580D02*
X038625Y013580D01*
X038625Y013421D02*
X037781Y013421D01*
X037500Y013421D02*
X037500Y013421D01*
X037500Y013322D02*
X037500Y013762D01*
X037500Y013762D01*
X037500Y013762D01*
X037060Y013762D01*
X037060Y013580D01*
X037318Y013322D01*
X037500Y013322D01*
X037500Y013580D02*
X037500Y013580D01*
X037500Y013738D02*
X037500Y013738D01*
X037500Y013762D02*
X037500Y013762D01*
X037060Y013762D01*
X037060Y013944D01*
X037318Y014202D01*
X037500Y014202D01*
X037500Y013762D01*
X037500Y013897D02*
X037500Y013897D01*
X037500Y014055D02*
X037500Y014055D01*
X037171Y014055D02*
X032914Y014055D01*
X033000Y013897D02*
X037060Y013897D01*
X037060Y013738D02*
X033000Y013738D01*
X033000Y013580D02*
X037060Y013580D01*
X037219Y013421D02*
X032866Y013421D01*
X032708Y013263D02*
X038625Y013263D01*
X037244Y012628D02*
X032841Y012628D01*
X032999Y012470D02*
X037086Y012470D01*
X037060Y012311D02*
X033000Y012311D01*
X033000Y012153D02*
X037060Y012153D01*
X037146Y011994D02*
X032939Y011994D01*
X032781Y011836D02*
X037304Y011836D01*
X037317Y011202D02*
X032768Y011202D01*
X032926Y011043D02*
X037159Y011043D01*
X037060Y010884D02*
X033000Y010884D01*
X033000Y010726D02*
X037060Y010726D01*
X037072Y010567D02*
X033000Y010567D01*
X032854Y010409D02*
X037231Y010409D01*
X037318Y009702D02*
X037060Y009444D01*
X037060Y009262D01*
X037060Y009080D01*
X037318Y008822D01*
X037500Y008822D01*
X037682Y008822D01*
X037940Y009080D01*
X037940Y009262D01*
X037940Y009444D01*
X037682Y009702D01*
X037500Y009702D01*
X037500Y009262D01*
X037500Y008822D01*
X037500Y009262D01*
X037500Y009262D01*
X037940Y009262D01*
X037500Y009262D01*
X037500Y009262D01*
X037500Y009262D01*
X037060Y009262D01*
X037500Y009262D01*
X037500Y009262D01*
X037500Y009702D01*
X037318Y009702D01*
X037232Y009616D02*
X032853Y009616D01*
X032707Y009762D02*
X033000Y009469D01*
X033000Y009055D01*
X032707Y008762D01*
X032293Y008762D01*
X032000Y009055D01*
X032000Y009469D01*
X032293Y009762D01*
X032707Y009762D01*
X032147Y009616D02*
X030888Y009616D01*
X031007Y009458D02*
X032000Y009458D01*
X032000Y009299D02*
X031776Y009299D01*
X031878Y009140D02*
X032000Y009140D01*
X032073Y008982D02*
X031898Y008982D01*
X031853Y008823D02*
X032232Y008823D01*
X032768Y008823D02*
X037316Y008823D01*
X037500Y008823D02*
X037500Y008823D01*
X037500Y008982D02*
X037500Y008982D01*
X037500Y009140D02*
X037500Y009140D01*
X037500Y009299D02*
X037500Y009299D01*
X037500Y009458D02*
X037500Y009458D01*
X037500Y009616D02*
X037500Y009616D01*
X037768Y009616D02*
X038625Y009616D01*
X038625Y009458D02*
X037927Y009458D01*
X037940Y009299D02*
X038625Y009299D01*
X038625Y009140D02*
X037940Y009140D01*
X037842Y008982D02*
X038625Y008982D01*
X038625Y008823D02*
X037684Y008823D01*
X037158Y008982D02*
X032927Y008982D01*
X033000Y009140D02*
X037060Y009140D01*
X037060Y009299D02*
X033000Y009299D01*
X033000Y009458D02*
X037073Y009458D01*
X038625Y009775D02*
X026023Y009775D01*
X025996Y009616D02*
X029862Y009616D01*
X029743Y009458D02*
X028944Y009458D01*
X028499Y009012D02*
X030375Y009012D01*
X031500Y009012D01*
X031703Y008665D02*
X038625Y008665D01*
X038625Y008506D02*
X030982Y008506D01*
X031009Y008665D02*
X031297Y008665D01*
X030665Y008348D02*
X038625Y008348D01*
X038625Y008189D02*
X037695Y008189D01*
X037682Y008202D02*
X037500Y008202D01*
X037500Y007762D01*
X037500Y007322D01*
X037682Y007322D01*
X037940Y007580D01*
X037940Y007762D01*
X037940Y007944D01*
X037682Y008202D01*
X037500Y008202D02*
X037318Y008202D01*
X037060Y007944D01*
X037060Y007762D01*
X037060Y007580D01*
X037318Y007322D01*
X037500Y007322D01*
X037500Y007762D01*
X037500Y007762D01*
X037940Y007762D01*
X037500Y007762D01*
X037500Y007762D01*
X037500Y007762D01*
X037060Y007762D01*
X037500Y007762D01*
X037500Y007762D01*
X037500Y008202D01*
X037500Y008189D02*
X037500Y008189D01*
X037500Y008031D02*
X037500Y008031D01*
X037500Y007872D02*
X037500Y007872D01*
X037500Y007714D02*
X037500Y007714D01*
X037500Y007555D02*
X037500Y007555D01*
X037500Y007396D02*
X037500Y007396D01*
X037757Y007396D02*
X038625Y007396D01*
X038625Y007238D02*
X030665Y007238D01*
X030665Y007396D02*
X032158Y007396D01*
X032293Y007262D02*
X032000Y007555D01*
X030665Y007555D01*
X030665Y007714D02*
X032000Y007714D01*
X032000Y007872D02*
X030665Y007872D01*
X030665Y008031D02*
X032062Y008031D01*
X032000Y007969D02*
X032000Y007555D01*
X032000Y007969D02*
X032293Y008262D01*
X032707Y008262D01*
X033000Y007969D01*
X033000Y007555D01*
X037085Y007555D01*
X037060Y007714D02*
X033000Y007714D01*
X033000Y007872D02*
X037060Y007872D01*
X037146Y008031D02*
X032938Y008031D01*
X032780Y008189D02*
X037305Y008189D01*
X037854Y008031D02*
X038625Y008031D01*
X038625Y007872D02*
X037940Y007872D01*
X037940Y007714D02*
X038625Y007714D01*
X038625Y007555D02*
X037915Y007555D01*
X037243Y007396D02*
X032842Y007396D01*
X032707Y007262D02*
X033000Y007555D01*
X032707Y007262D02*
X032293Y007262D01*
X032293Y006762D02*
X032000Y006469D01*
X032000Y006055D01*
X032293Y005762D01*
X032707Y005762D01*
X033000Y006055D01*
X033000Y006469D01*
X032707Y006762D01*
X032293Y006762D01*
X032135Y006604D02*
X030665Y006604D01*
X030665Y006762D02*
X038625Y006762D01*
X038625Y006604D02*
X037780Y006604D01*
X037682Y006702D02*
X037500Y006702D01*
X037500Y006262D01*
X037500Y005822D01*
X037682Y005822D01*
X037940Y006080D01*
X037940Y006262D01*
X037940Y006444D01*
X037682Y006702D01*
X037500Y006702D02*
X037318Y006702D01*
X037060Y006444D01*
X037060Y006262D01*
X037060Y006080D01*
X037318Y005822D01*
X037500Y005822D01*
X037500Y006262D01*
X037500Y006262D01*
X037940Y006262D01*
X037500Y006262D01*
X037500Y006262D01*
X037500Y006262D01*
X037060Y006262D01*
X037500Y006262D01*
X037500Y006262D01*
X037500Y006702D01*
X037500Y006604D02*
X037500Y006604D01*
X037500Y006445D02*
X037500Y006445D01*
X037500Y006287D02*
X037500Y006287D01*
X037500Y006128D02*
X037500Y006128D01*
X037500Y005970D02*
X037500Y005970D01*
X037830Y005970D02*
X038625Y005970D01*
X038625Y006128D02*
X037940Y006128D01*
X037940Y006287D02*
X038625Y006287D01*
X038625Y006445D02*
X037939Y006445D01*
X037220Y006604D02*
X032865Y006604D01*
X033000Y006445D02*
X037061Y006445D01*
X037060Y006287D02*
X033000Y006287D01*
X033000Y006128D02*
X037060Y006128D01*
X037170Y005970D02*
X032915Y005970D01*
X032756Y005811D02*
X038625Y005811D01*
X038625Y005653D02*
X030665Y005653D01*
X030665Y005811D02*
X032244Y005811D01*
X032085Y005970D02*
X030665Y005970D01*
X030665Y006128D02*
X032000Y006128D01*
X032000Y006287D02*
X030665Y006287D01*
X030665Y006445D02*
X032000Y006445D01*
X030665Y006921D02*
X038625Y006921D01*
X038625Y007079D02*
X030665Y007079D01*
X029648Y006387D02*
X029648Y006387D01*
X029036Y006387D01*
X029036Y006245D01*
X029048Y006199D01*
X029056Y006185D01*
X029012Y006141D01*
X028981Y006066D01*
X028914Y006133D01*
X028808Y006177D01*
X028692Y006177D01*
X028256Y006177D01*
X028274Y006221D01*
X028274Y006553D01*
X028240Y006637D01*
X028274Y006721D01*
X028274Y007053D01*
X028269Y007067D01*
X028314Y007067D01*
X028431Y007116D01*
X028521Y007206D01*
X028556Y007241D01*
X028556Y007241D01*
X028646Y007331D01*
X028695Y007448D01*
X028695Y008326D01*
X028646Y008443D01*
X028613Y008477D01*
X028803Y008477D01*
X028891Y008513D01*
X028958Y008581D01*
X028995Y008669D01*
X028995Y008692D01*
X029741Y008692D01*
X029741Y008571D01*
X029778Y008482D01*
X029845Y008415D01*
X029934Y008378D01*
X030085Y008378D01*
X030085Y008245D01*
X029168Y008245D01*
X029080Y008209D01*
X029012Y008141D01*
X028976Y008053D01*
X028976Y007721D01*
X029010Y007637D01*
X028976Y007553D01*
X028976Y007221D01*
X029010Y007137D01*
X028976Y007053D01*
X028976Y006721D01*
X029012Y006633D01*
X029056Y006589D01*
X029048Y006575D01*
X029036Y006529D01*
X029036Y006387D01*
X029648Y006387D01*
X029036Y006445D02*
X028274Y006445D01*
X028274Y006287D02*
X029036Y006287D01*
X029007Y006128D02*
X028919Y006128D01*
X029041Y006604D02*
X028253Y006604D01*
X028274Y006762D02*
X028976Y006762D01*
X028976Y006921D02*
X028274Y006921D01*
X028344Y007079D02*
X028987Y007079D01*
X028976Y007238D02*
X028553Y007238D01*
X028521Y007206D02*
X028521Y007206D01*
X028673Y007396D02*
X028976Y007396D01*
X028976Y007555D02*
X028695Y007555D01*
X028695Y007714D02*
X028979Y007714D01*
X028976Y007872D02*
X028695Y007872D01*
X028695Y008031D02*
X028976Y008031D01*
X029060Y008189D02*
X028695Y008189D01*
X028686Y008348D02*
X030085Y008348D01*
X029768Y008506D02*
X028874Y008506D01*
X028993Y008665D02*
X029741Y008665D01*
X030665Y008189D02*
X032220Y008189D01*
X028375Y008262D02*
X028375Y007512D01*
X028250Y007387D01*
X027601Y007387D01*
X027601Y006887D02*
X027125Y006887D01*
X026500Y007512D01*
X026500Y007762D01*
X026125Y008137D01*
X024000Y008137D01*
X023875Y008262D01*
X024194Y008506D02*
X024305Y008506D01*
X024108Y008665D02*
X023570Y008665D01*
X023570Y008823D02*
X024090Y008823D01*
X024090Y008982D02*
X023570Y008982D01*
X023570Y009140D02*
X024090Y009140D01*
X024090Y009299D02*
X023570Y009299D01*
X024625Y009013D02*
X024625Y008512D01*
X024750Y008387D01*
X025375Y008387D01*
X025375Y008887D01*
X025500Y009012D01*
X025876Y009012D01*
X026624Y009012D02*
X027751Y009012D01*
X027751Y008388D01*
X027750Y008387D01*
X028250Y008387D01*
X028375Y008262D01*
X027601Y007887D02*
X026750Y007887D01*
X026250Y008387D01*
X025375Y008387D01*
X025500Y007762D02*
X025125Y007762D01*
X025000Y007637D01*
X024500Y007637D01*
X025000Y007637D02*
X025000Y007137D01*
X024750Y006887D01*
X024445Y006887D01*
X024941Y006626D02*
X025025Y006709D01*
X025025Y006561D01*
X025452Y006561D01*
X025452Y006465D01*
X025548Y006465D01*
X025548Y006561D01*
X025975Y006561D01*
X025975Y006616D01*
X026534Y006151D01*
X026569Y006116D01*
X026583Y006110D01*
X026594Y006100D01*
X026641Y006086D01*
X026686Y006067D01*
X026701Y006067D01*
X026716Y006063D01*
X026764Y006067D01*
X026934Y006067D01*
X026928Y006053D01*
X026928Y005721D01*
X026934Y005707D01*
X025758Y005707D01*
X025387Y006077D01*
X025452Y006077D01*
X025452Y006465D01*
X025025Y006465D01*
X025025Y006233D01*
X025032Y006207D01*
X024966Y006207D01*
X024975Y006229D01*
X024975Y006545D01*
X024941Y006626D01*
X024951Y006604D02*
X025025Y006604D01*
X025025Y006445D02*
X024975Y006445D01*
X024975Y006287D02*
X025025Y006287D01*
X025452Y006287D02*
X025548Y006287D01*
X025500Y006262D02*
X025500Y006513D01*
X025548Y006465D02*
X025548Y006077D01*
X025819Y006077D01*
X025865Y006089D01*
X025906Y006113D01*
X025939Y006147D01*
X025963Y006188D01*
X025975Y006233D01*
X025975Y006465D01*
X025548Y006465D01*
X025548Y006445D02*
X025452Y006445D01*
X025500Y006262D02*
X025625Y006137D01*
X025750Y006137D01*
X025921Y006128D02*
X026556Y006128D01*
X026371Y006287D02*
X025975Y006287D01*
X025975Y006445D02*
X026180Y006445D01*
X025990Y006604D02*
X025975Y006604D01*
X026000Y007012D02*
X026000Y007762D01*
X025625Y007762D01*
X025500Y007637D01*
X025500Y007261D01*
X026000Y007012D02*
X026750Y006387D01*
X027601Y006387D01*
X026928Y005970D02*
X025495Y005970D01*
X025452Y006128D02*
X025548Y006128D01*
X025654Y005811D02*
X026928Y005811D01*
X028274Y005494D02*
X028733Y005494D01*
X028976Y005335D02*
X028274Y005335D01*
X028256Y005177D02*
X028994Y005177D01*
X028976Y005018D02*
X028274Y005018D01*
X028274Y004860D02*
X028976Y004860D01*
X028984Y004701D02*
X028266Y004701D01*
X028115Y004543D02*
X029134Y004543D01*
X030163Y004543D02*
X032012Y004543D01*
X032000Y004555D02*
X032293Y004262D01*
X032707Y004262D01*
X033000Y004555D01*
X033000Y004969D01*
X032707Y005262D01*
X032293Y005262D01*
X032000Y004969D01*
X032000Y004555D01*
X032000Y004701D02*
X030313Y004701D01*
X030322Y004860D02*
X032000Y004860D01*
X032049Y005018D02*
X030322Y005018D01*
X030303Y005177D02*
X032208Y005177D01*
X032792Y005177D02*
X037293Y005177D01*
X037318Y005202D02*
X037060Y004944D01*
X037060Y004762D01*
X037060Y004580D01*
X037318Y004322D01*
X037500Y004322D01*
X037682Y004322D01*
X037940Y004580D01*
X037940Y004762D01*
X037940Y004944D01*
X037682Y005202D01*
X037500Y005202D01*
X037500Y004762D01*
X037500Y004322D01*
X037500Y004762D01*
X037500Y004762D01*
X037940Y004762D01*
X037500Y004762D01*
X037500Y004762D01*
X037500Y004762D01*
X037060Y004762D01*
X037500Y004762D01*
X037500Y004762D01*
X037500Y005202D01*
X037318Y005202D01*
X037500Y005177D02*
X037500Y005177D01*
X037500Y005018D02*
X037500Y005018D01*
X037500Y004860D02*
X037500Y004860D01*
X037500Y004701D02*
X037500Y004701D01*
X037500Y004543D02*
X037500Y004543D01*
X037500Y004384D02*
X037500Y004384D01*
X037744Y004384D02*
X038625Y004384D01*
X038625Y004226D02*
X025288Y004226D01*
X025384Y004067D02*
X038625Y004067D01*
X038625Y003909D02*
X025384Y003909D01*
X025384Y003750D02*
X032281Y003750D01*
X032293Y003762D02*
X032000Y003469D01*
X032000Y003055D01*
X032293Y002762D01*
X032707Y002762D01*
X033000Y003055D01*
X033000Y003469D01*
X032707Y003762D01*
X032293Y003762D01*
X032122Y003591D02*
X025384Y003591D01*
X025384Y003433D02*
X032000Y003433D01*
X032000Y003274D02*
X025384Y003274D01*
X025351Y003116D02*
X032000Y003116D01*
X032098Y002957D02*
X020588Y002957D01*
X020569Y002952D02*
X020615Y002964D01*
X020656Y002988D01*
X020689Y003022D01*
X020713Y003063D01*
X020725Y003108D01*
X020725Y003340D01*
X020298Y003340D01*
X020298Y002952D01*
X020569Y002952D01*
X020725Y003116D02*
X024149Y003116D01*
X024116Y003274D02*
X020725Y003274D01*
X020725Y003591D02*
X024116Y003591D01*
X024116Y003433D02*
X020298Y003433D01*
X020250Y003388D02*
X020250Y001762D01*
X020270Y001742D02*
X020270Y000982D01*
X020288Y000982D01*
X020362Y000994D01*
X020434Y001017D01*
X020502Y001051D01*
X020563Y001096D01*
X020616Y001149D01*
X020661Y001210D01*
X020695Y001278D01*
X020718Y001350D01*
X020730Y001424D01*
X020730Y001742D01*
X020270Y001742D01*
X020270Y001689D02*
X020230Y001689D01*
X020230Y001847D02*
X020270Y001847D01*
X020270Y002006D02*
X020230Y002006D01*
X020230Y002165D02*
X020270Y002165D01*
X020270Y002323D02*
X020230Y002323D01*
X020230Y002482D02*
X020270Y002482D01*
X020484Y002482D02*
X038625Y002482D01*
X038625Y002640D02*
X019570Y002640D01*
X019570Y002799D02*
X032256Y002799D01*
X032744Y002799D02*
X038625Y002799D01*
X038625Y002957D02*
X037817Y002957D01*
X037940Y003080D02*
X037682Y002822D01*
X037500Y002822D01*
X037500Y003262D01*
X037500Y003262D01*
X037940Y003262D01*
X037940Y003444D01*
X037682Y003702D01*
X037500Y003702D01*
X037500Y003262D01*
X037500Y003262D01*
X037940Y003262D01*
X037940Y003080D01*
X037940Y003116D02*
X038625Y003116D01*
X038625Y003274D02*
X037940Y003274D01*
X037940Y003433D02*
X038625Y003433D01*
X038625Y003591D02*
X037793Y003591D01*
X037500Y003591D02*
X037500Y003591D01*
X037500Y003702D02*
X037500Y003262D01*
X037500Y002822D01*
X037318Y002822D01*
X037060Y003080D01*
X037060Y003262D01*
X037500Y003262D01*
X037500Y003262D01*
X037500Y003262D01*
X037060Y003262D01*
X037060Y003444D01*
X037318Y003702D01*
X037500Y003702D01*
X037500Y003433D02*
X037500Y003433D01*
X037500Y003274D02*
X037500Y003274D01*
X037500Y003116D02*
X037500Y003116D01*
X037500Y002957D02*
X037500Y002957D01*
X037183Y002957D02*
X032902Y002957D01*
X033000Y003116D02*
X037060Y003116D01*
X037060Y003274D02*
X033000Y003274D01*
X033000Y003433D02*
X037060Y003433D01*
X037207Y003591D02*
X032878Y003591D01*
X032719Y003750D02*
X038625Y003750D01*
X038625Y004543D02*
X037903Y004543D01*
X037940Y004701D02*
X038625Y004701D01*
X038625Y004860D02*
X037940Y004860D01*
X037866Y005018D02*
X038625Y005018D01*
X038625Y005177D02*
X037707Y005177D01*
X037134Y005018D02*
X032951Y005018D01*
X033000Y004860D02*
X037060Y004860D01*
X037060Y004701D02*
X033000Y004701D01*
X032988Y004543D02*
X037097Y004543D01*
X037256Y004384D02*
X032829Y004384D01*
X032171Y004384D02*
X025070Y004384D01*
X025070Y004543D02*
X027087Y004543D01*
X024750Y004887D02*
X024750Y003637D01*
X024116Y003750D02*
X020751Y003750D01*
X020785Y003909D02*
X024116Y003909D01*
X024116Y004067D02*
X020785Y004067D01*
X020785Y004226D02*
X024212Y004226D01*
X024430Y004384D02*
X020785Y004384D01*
X020734Y004543D02*
X021415Y004543D01*
X021835Y004543D02*
X024430Y004543D01*
X021775Y005970D02*
X018869Y005970D01*
X018710Y006128D02*
X021810Y006128D01*
X021775Y006287D02*
X018552Y006287D01*
X018393Y006445D02*
X021775Y006445D01*
X022305Y006387D02*
X022625Y006387D01*
X021639Y005811D02*
X019027Y005811D01*
X019186Y005653D02*
X021480Y005653D01*
X021355Y005494D02*
X019345Y005494D01*
X019503Y005335D02*
X021335Y005335D01*
X021335Y005177D02*
X019662Y005177D01*
X019232Y004701D02*
X017070Y004701D01*
X017070Y004632D02*
X017070Y006490D01*
X017229Y006331D01*
X017319Y006241D01*
X017436Y006192D01*
X017741Y006192D01*
X019302Y004632D01*
X018907Y004632D01*
X018819Y004595D01*
X018751Y004528D01*
X018715Y004440D01*
X018715Y004416D01*
X018693Y004407D01*
X017979Y003693D01*
X017930Y003576D01*
X017930Y003448D01*
X017930Y001645D01*
X017492Y001207D01*
X017158Y001207D01*
X017161Y001210D01*
X017195Y001278D01*
X017218Y001350D01*
X017230Y001424D01*
X017230Y001742D01*
X016770Y001742D01*
X016770Y001782D01*
X017230Y001782D01*
X017230Y002100D01*
X017218Y002174D01*
X017195Y002246D01*
X017161Y002314D01*
X017116Y002375D01*
X017063Y002428D01*
X017002Y002473D01*
X016934Y002507D01*
X016862Y002530D01*
X016788Y002542D01*
X016770Y002542D01*
X016770Y001782D01*
X016730Y001782D01*
X016730Y002542D01*
X016712Y002542D01*
X016638Y002530D01*
X016566Y002507D01*
X016498Y002473D01*
X016437Y002428D01*
X016384Y002375D01*
X016339Y002314D01*
X016305Y002246D01*
X016284Y002183D01*
X016208Y002368D01*
X016070Y002506D01*
X016070Y002892D01*
X016093Y002892D01*
X016181Y002929D01*
X016249Y002996D01*
X016283Y003078D01*
X016287Y003063D01*
X016311Y003022D01*
X016344Y002988D01*
X016385Y002964D01*
X016431Y002952D01*
X016702Y002952D01*
X016702Y003340D01*
X016798Y003340D01*
X016798Y003436D01*
X017225Y003436D01*
X017225Y003668D01*
X017214Y003709D01*
X017249Y003744D01*
X017285Y003832D01*
X017285Y004440D01*
X017249Y004528D01*
X017181Y004595D01*
X017093Y004632D01*
X017070Y004632D01*
X017234Y004543D02*
X018766Y004543D01*
X018670Y004384D02*
X017285Y004384D01*
X017285Y004226D02*
X018511Y004226D01*
X018352Y004067D02*
X017285Y004067D01*
X017285Y003909D02*
X018194Y003909D01*
X018035Y003750D02*
X017251Y003750D01*
X017225Y003591D02*
X017937Y003591D01*
X017930Y003433D02*
X016798Y003433D01*
X016750Y003388D02*
X016750Y001762D01*
X016730Y001847D02*
X016770Y001847D01*
X016770Y002006D02*
X016730Y002006D01*
X016730Y002165D02*
X016770Y002165D01*
X016770Y002323D02*
X016730Y002323D01*
X016730Y002482D02*
X016770Y002482D01*
X016984Y002482D02*
X017930Y002482D01*
X017930Y002640D02*
X016070Y002640D01*
X016070Y002799D02*
X017930Y002799D01*
X017930Y002957D02*
X017088Y002957D01*
X017069Y002952D02*
X017115Y002964D01*
X017156Y002988D01*
X017189Y003022D01*
X017213Y003063D01*
X017225Y003108D01*
X017225Y003340D01*
X016798Y003340D01*
X016798Y002952D01*
X017069Y002952D01*
X017225Y003116D02*
X017930Y003116D01*
X017930Y003274D02*
X017225Y003274D01*
X016798Y003274D02*
X016702Y003274D01*
X016702Y003116D02*
X016798Y003116D01*
X016798Y002957D02*
X016702Y002957D01*
X016412Y002957D02*
X016210Y002957D01*
X015876Y003388D02*
X016500Y004012D01*
X016626Y004012D01*
X016750Y004136D01*
X016750Y006512D01*
X015625Y007637D01*
X014500Y007637D01*
X013750Y008387D01*
X012375Y008387D01*
X011213Y009549D01*
X011213Y010572D01*
X010898Y010572D02*
X010898Y009762D01*
X010375Y009762D01*
X010375Y002762D01*
X012000Y002762D01*
X011526Y003274D02*
X010695Y003274D01*
X010695Y003116D02*
X011290Y003116D01*
X010695Y003433D02*
X013930Y003433D01*
X013930Y003591D02*
X010695Y003591D01*
X010695Y003750D02*
X013930Y003750D01*
X013930Y003909D02*
X010695Y003909D01*
X010695Y004067D02*
X013930Y004067D01*
X013930Y004226D02*
X010695Y004226D01*
X010695Y004384D02*
X013930Y004384D01*
X013930Y004543D02*
X012433Y004543D01*
X012353Y004462D02*
X012675Y004784D01*
X012675Y004992D01*
X012145Y004992D01*
X012145Y004462D01*
X012353Y004462D01*
X012145Y004543D02*
X012105Y004543D01*
X012105Y004701D02*
X012145Y004701D01*
X012145Y004860D02*
X012105Y004860D01*
X012145Y005018D02*
X013930Y005018D01*
X013930Y004860D02*
X012675Y004860D01*
X012592Y004701D02*
X013930Y004701D01*
X013930Y005177D02*
X012675Y005177D01*
X012579Y005335D02*
X013930Y005335D01*
X013930Y005494D02*
X012470Y005494D01*
X012628Y005653D02*
X013930Y005653D01*
X013930Y005811D02*
X012735Y005811D01*
X012735Y005970D02*
X013930Y005970D01*
X013930Y006128D02*
X012735Y006128D01*
X012713Y006287D02*
X013773Y006287D01*
X013614Y006445D02*
X012554Y006445D01*
X012579Y006604D02*
X013456Y006604D01*
X013500Y007012D02*
X012125Y007012D01*
X013500Y007012D02*
X014250Y006262D01*
X014250Y004137D01*
X014251Y004136D01*
X015750Y004136D01*
X017070Y004860D02*
X019074Y004860D01*
X018915Y005018D02*
X017070Y005018D01*
X017070Y005177D02*
X018757Y005177D01*
X018598Y005335D02*
X017070Y005335D01*
X017070Y005494D02*
X018440Y005494D01*
X018281Y005653D02*
X017070Y005653D01*
X017070Y005811D02*
X018122Y005811D01*
X017964Y005970D02*
X017070Y005970D01*
X017070Y006128D02*
X017805Y006128D01*
X017273Y006287D02*
X017070Y006287D01*
X017070Y006445D02*
X017114Y006445D01*
X018874Y004136D02*
X018250Y003512D01*
X018250Y001512D01*
X017625Y000887D01*
X015000Y000887D01*
X014250Y001637D01*
X014250Y004137D01*
X013930Y003274D02*
X012474Y003274D01*
X012710Y003116D02*
X013930Y003116D01*
X013930Y002957D02*
X012804Y002957D01*
X012840Y002799D02*
X013930Y002799D01*
X013930Y002640D02*
X012834Y002640D01*
X012768Y002482D02*
X013930Y002482D01*
X013930Y002323D02*
X012625Y002323D01*
X012563Y002165D02*
X013930Y002165D01*
X013930Y002006D02*
X012714Y002006D01*
X012772Y001847D02*
X013930Y001847D01*
X013930Y001689D02*
X012774Y001689D01*
X012780Y001724D02*
X012768Y001650D01*
X012745Y001578D01*
X012711Y001510D01*
X012666Y001449D01*
X012613Y001396D01*
X012552Y001351D01*
X012484Y001317D01*
X012412Y001294D01*
X012338Y001282D01*
X012020Y001282D01*
X012020Y001742D01*
X012780Y001742D01*
X012780Y001724D01*
X012721Y001530D02*
X013948Y001530D01*
X014063Y001372D02*
X012580Y001372D01*
X012020Y001372D02*
X011980Y001372D01*
X011980Y001282D02*
X011980Y001742D01*
X011220Y001742D01*
X011220Y001724D01*
X011232Y001650D01*
X011255Y001578D01*
X011289Y001510D01*
X011334Y001449D01*
X011387Y001396D01*
X011448Y001351D01*
X011516Y001317D01*
X011588Y001294D01*
X011662Y001282D01*
X011980Y001282D01*
X011980Y001530D02*
X012020Y001530D01*
X012020Y001689D02*
X011980Y001689D01*
X011420Y001372D02*
X009040Y001372D01*
X009040Y001530D02*
X011279Y001530D01*
X011226Y001689D02*
X009040Y001689D01*
X009040Y001847D02*
X011228Y001847D01*
X011286Y002006D02*
X009040Y002006D01*
X009040Y002165D02*
X011437Y002165D01*
X011375Y002323D02*
X008976Y002323D01*
X008844Y002482D02*
X010216Y002482D01*
X010079Y002640D02*
X008820Y002640D01*
X008820Y002799D02*
X010055Y002799D01*
X009750Y003388D02*
X008500Y003388D01*
X008500Y001762D01*
X007965Y002183D02*
X007945Y002246D01*
X007911Y002314D01*
X007866Y002375D01*
X007813Y002428D01*
X007752Y002473D01*
X007684Y002507D01*
X007612Y002530D01*
X007538Y002542D01*
X007520Y002542D01*
X007520Y001782D01*
X007480Y001782D01*
X007480Y002542D01*
X007462Y002542D01*
X007388Y002530D01*
X007316Y002507D01*
X007248Y002473D01*
X007187Y002428D01*
X007134Y002375D01*
X007089Y002314D01*
X007055Y002246D01*
X007034Y002183D01*
X006958Y002368D01*
X006820Y002506D01*
X006820Y002892D01*
X006843Y002892D01*
X006931Y002929D01*
X006999Y002996D01*
X007035Y003084D01*
X007035Y003692D01*
X007006Y003762D01*
X007028Y003816D01*
X007971Y003816D01*
X007994Y003762D01*
X007965Y003692D01*
X007965Y003084D01*
X008001Y002996D01*
X008069Y002929D01*
X008157Y002892D01*
X008180Y002892D01*
X008180Y002506D01*
X008042Y002368D01*
X007965Y002183D01*
X008024Y002323D02*
X007904Y002323D01*
X007734Y002482D02*
X008156Y002482D01*
X008180Y002640D02*
X006820Y002640D01*
X006820Y002799D02*
X008180Y002799D01*
X008040Y002957D02*
X006960Y002957D01*
X007035Y003116D02*
X007965Y003116D01*
X007965Y003274D02*
X007035Y003274D01*
X007035Y003433D02*
X007965Y003433D01*
X007965Y003591D02*
X007035Y003591D01*
X007011Y003750D02*
X007989Y003750D01*
X008500Y004136D02*
X006500Y004136D01*
X006500Y005012D01*
X006868Y004860D02*
X009430Y004860D01*
X009430Y005018D02*
X006898Y005018D01*
X006863Y005177D02*
X009430Y005177D01*
X009430Y005335D02*
X008710Y005335D01*
X008249Y005762D02*
X009750Y005762D01*
X009750Y008637D01*
X009373Y008506D02*
X003320Y008506D01*
X003320Y008348D02*
X009430Y008348D01*
X009430Y008189D02*
X003320Y008189D01*
X003320Y008031D02*
X009430Y008031D01*
X009430Y007872D02*
X003320Y007872D01*
X003320Y007714D02*
X009430Y007714D01*
X009430Y007555D02*
X003320Y007555D01*
X003320Y007396D02*
X009430Y007396D01*
X009430Y007238D02*
X003320Y007238D01*
X003320Y007079D02*
X004379Y007079D01*
X004260Y006921D02*
X003236Y006921D01*
X003000Y007137D02*
X003000Y011387D01*
X003500Y011887D01*
X005125Y011887D01*
X006125Y012887D01*
X006750Y012887D01*
X007625Y013762D01*
X007625Y013887D01*
X007625Y014387D02*
X007500Y014387D01*
X006375Y013262D01*
X005875Y013262D01*
X004875Y012262D01*
X003500Y012262D01*
X002500Y011262D01*
X002500Y008137D01*
X001500Y008137D01*
X001500Y007137D02*
X003000Y007137D01*
X002189Y006762D02*
X004227Y006762D01*
X004259Y006604D02*
X001924Y006604D01*
X001336Y006128D02*
X002617Y006128D01*
X002602Y005970D02*
X001495Y005970D01*
X001654Y005811D02*
X002652Y005811D01*
X002680Y005653D02*
X001812Y005653D01*
X001971Y005494D02*
X002680Y005494D01*
X002680Y005335D02*
X002240Y005335D01*
X002363Y005177D02*
X002680Y005177D01*
X002680Y005018D02*
X002398Y005018D01*
X002368Y004860D02*
X002680Y004860D01*
X002000Y005012D02*
X000625Y006387D01*
X000625Y011887D01*
X001250Y012512D01*
X001500Y012512D01*
X001961Y011994D02*
X002780Y011994D01*
X002938Y012153D02*
X002204Y012153D01*
X002301Y012311D02*
X003097Y012311D01*
X003229Y012443D02*
X003229Y012443D01*
X003255Y012470D02*
X002340Y012470D01*
X002336Y012628D02*
X004789Y012628D01*
X004947Y012787D02*
X002271Y012787D01*
X002130Y012946D02*
X005106Y012946D01*
X005264Y013104D02*
X000375Y013104D01*
X000375Y012946D02*
X000870Y012946D01*
X000729Y012787D02*
X000375Y012787D01*
X000375Y012628D02*
X000664Y012628D01*
X000660Y012470D02*
X000375Y012470D01*
X000375Y012311D02*
X000597Y012311D01*
X000438Y012153D02*
X000375Y012153D01*
X001480Y011492D02*
X001520Y011492D01*
X001520Y011032D01*
X001838Y011032D01*
X001912Y011044D01*
X001984Y011067D01*
X002052Y011101D01*
X002113Y011146D01*
X002166Y011199D01*
X002180Y011219D01*
X002180Y009431D01*
X002166Y009450D01*
X002113Y009503D01*
X002052Y009548D01*
X001984Y009582D01*
X001912Y009605D01*
X001838Y009617D01*
X001520Y009617D01*
X001520Y009157D01*
X001480Y009157D01*
X001480Y009617D01*
X001162Y009617D01*
X001088Y009605D01*
X001016Y009582D01*
X000948Y009548D01*
X000945Y009545D01*
X000945Y011104D01*
X000948Y011101D01*
X001016Y011067D01*
X001088Y011044D01*
X001162Y011032D01*
X001480Y011032D01*
X001480Y011492D01*
X001520Y011519D02*
X002304Y011519D01*
X002251Y011677D02*
X002463Y011677D01*
X002621Y011836D02*
X002155Y011836D01*
X002168Y011202D02*
X002180Y011202D01*
X002180Y011043D02*
X001907Y011043D01*
X002180Y010884D02*
X000945Y010884D01*
X000945Y010726D02*
X002180Y010726D01*
X002180Y010567D02*
X000945Y010567D01*
X000945Y010409D02*
X002180Y010409D01*
X002180Y010250D02*
X000945Y010250D01*
X000945Y010092D02*
X002180Y010092D01*
X002180Y009933D02*
X000945Y009933D01*
X000945Y009775D02*
X002180Y009775D01*
X002180Y009616D02*
X001844Y009616D01*
X001520Y009616D02*
X001480Y009616D01*
X001480Y009458D02*
X001520Y009458D01*
X001520Y009299D02*
X001480Y009299D01*
X001156Y009616D02*
X000945Y009616D01*
X002158Y009458D02*
X002180Y009458D01*
X003320Y009458D02*
X003565Y009458D01*
X003565Y009581D02*
X003565Y009310D01*
X003953Y009310D01*
X003953Y009737D01*
X003721Y009737D01*
X003676Y009725D01*
X003635Y009701D01*
X003601Y009668D01*
X003577Y009627D01*
X003565Y009581D01*
X003575Y009616D02*
X003320Y009616D01*
X003320Y009775D02*
X004391Y009775D01*
X004049Y009616D02*
X003953Y009616D01*
X003953Y009458D02*
X004049Y009458D01*
X003953Y009299D02*
X003320Y009299D01*
X003375Y009262D02*
X004001Y009262D01*
X003953Y009214D02*
X003565Y009214D01*
X003565Y008943D01*
X003577Y008897D01*
X003601Y008856D01*
X003635Y008823D01*
X003676Y008799D01*
X003721Y008787D01*
X003953Y008787D01*
X003953Y009214D01*
X003953Y009140D02*
X004049Y009140D01*
X004049Y008982D02*
X003953Y008982D01*
X003953Y008823D02*
X004049Y008823D01*
X003634Y008823D02*
X003320Y008823D01*
X003320Y008665D02*
X009352Y008665D01*
X009396Y008823D02*
X006627Y008823D01*
X006373Y008823D02*
X005201Y008823D01*
X004749Y009262D02*
X006500Y009262D01*
X006500Y009312D01*
X008500Y009312D01*
X008500Y010012D01*
X008500Y010388D01*
X008500Y010012D02*
X009750Y010012D01*
X009750Y011160D01*
X010310Y011160D01*
X010548Y010726D02*
X010070Y010726D01*
X010070Y010567D02*
X010548Y010567D01*
X010548Y010409D02*
X010070Y010409D01*
X010070Y010250D02*
X010558Y010250D01*
X010578Y010092D02*
X010070Y010092D01*
X010064Y009933D02*
X010100Y009933D01*
X010055Y009775D02*
X009965Y009775D01*
X010055Y009616D02*
X008820Y009616D01*
X008820Y009458D02*
X010055Y009458D01*
X010055Y009299D02*
X008820Y009299D01*
X008775Y009140D02*
X010055Y009140D01*
X010055Y008982D02*
X009958Y008982D01*
X009542Y008982D02*
X006877Y008982D01*
X006097Y009616D02*
X005240Y009616D01*
X005107Y009775D02*
X006310Y009775D01*
X006690Y009775D02*
X008180Y009775D01*
X008064Y009933D02*
X003320Y009933D01*
X003320Y010092D02*
X007965Y010092D01*
X007965Y010250D02*
X003320Y010250D01*
X003375Y010262D02*
X003375Y011262D01*
X003876Y011262D01*
X003828Y011214D02*
X003828Y010787D01*
X003596Y010787D01*
X003551Y010799D01*
X003510Y010823D01*
X003476Y010856D01*
X003452Y010897D01*
X003440Y010943D01*
X003440Y011214D01*
X003828Y011214D01*
X003828Y011202D02*
X003924Y011202D01*
X003924Y011043D02*
X003828Y011043D01*
X003828Y010884D02*
X003924Y010884D01*
X003460Y010884D02*
X003320Y010884D01*
X003320Y010726D02*
X006367Y010726D01*
X006633Y010726D02*
X007979Y010726D01*
X007965Y010567D02*
X003320Y010567D01*
X003320Y010409D02*
X007965Y010409D01*
X008500Y011136D02*
X006500Y011136D01*
X006500Y011212D01*
X004749Y011212D01*
X004624Y011262D01*
X005106Y010884D02*
X006120Y010884D01*
X007875Y011887D02*
X007875Y013262D01*
X008125Y013512D01*
X008125Y015882D01*
X008130Y015887D01*
X007777Y015799D02*
X003835Y015799D01*
X003870Y015641D02*
X007805Y015641D01*
X007805Y015482D02*
X003870Y015482D01*
X003870Y015324D02*
X007805Y015324D01*
X007805Y015165D02*
X003453Y015165D01*
X003297Y015165D02*
X000375Y015165D01*
X000375Y015007D02*
X002880Y015007D01*
X002880Y014848D02*
X000375Y014848D01*
X000375Y014689D02*
X002880Y014689D01*
X002941Y014531D02*
X000375Y014531D01*
X000375Y014372D02*
X007033Y014372D01*
X006874Y014214D02*
X000375Y014214D01*
X000375Y014055D02*
X006716Y014055D01*
X006557Y013897D02*
X000375Y013897D01*
X000375Y013738D02*
X006399Y013738D01*
X005806Y013580D02*
X000375Y013580D01*
X000375Y013421D02*
X005582Y013421D01*
X005423Y013263D02*
X000375Y013263D01*
X001480Y011360D02*
X001520Y011360D01*
X001520Y011202D02*
X001480Y011202D01*
X001480Y011043D02*
X001520Y011043D01*
X001093Y011043D02*
X000945Y011043D01*
X003320Y011043D02*
X003440Y011043D01*
X003440Y011202D02*
X003320Y011202D01*
X003426Y011360D02*
X003440Y011360D01*
X003375Y010262D02*
X003375Y009262D01*
X003320Y009140D02*
X003565Y009140D01*
X003565Y008982D02*
X003320Y008982D01*
X004871Y007079D02*
X009430Y007079D01*
X009430Y006921D02*
X004990Y006921D01*
X005023Y006762D02*
X009430Y006762D01*
X009430Y006604D02*
X004991Y006604D01*
X004945Y006445D02*
X009430Y006445D01*
X009430Y006287D02*
X008578Y006287D01*
X008735Y006128D02*
X009430Y006128D01*
X009750Y005762D02*
X009750Y004136D01*
X009215Y004067D02*
X009035Y004067D01*
X009035Y003909D02*
X009215Y003909D01*
X009239Y003750D02*
X009011Y003750D01*
X009035Y004226D02*
X009215Y004226D01*
X009215Y004384D02*
X009035Y004384D01*
X008984Y004543D02*
X009266Y004543D01*
X009430Y004701D02*
X006820Y004701D01*
X006984Y004543D02*
X008016Y004543D01*
X007549Y005335D02*
X007453Y005335D01*
X007453Y005287D02*
X007453Y005714D01*
X007065Y005714D01*
X007065Y005443D01*
X007077Y005397D01*
X007101Y005356D01*
X007135Y005323D01*
X007176Y005299D01*
X007221Y005287D01*
X007453Y005287D01*
X007453Y005494D02*
X007549Y005494D01*
X007549Y005653D02*
X007453Y005653D01*
X007501Y005762D02*
X006500Y005762D01*
X005374Y005762D01*
X005422Y005714D02*
X005422Y005287D01*
X005654Y005287D01*
X005699Y005299D01*
X005740Y005323D01*
X005774Y005356D01*
X005798Y005397D01*
X005810Y005443D01*
X005810Y005714D01*
X005422Y005714D01*
X005422Y005653D02*
X005326Y005653D01*
X005326Y005811D02*
X005422Y005811D01*
X005422Y005970D02*
X005326Y005970D01*
X005326Y006128D02*
X005422Y006128D01*
X005797Y006128D02*
X007078Y006128D01*
X007077Y006127D02*
X007065Y006081D01*
X007065Y005810D01*
X007453Y005810D01*
X007453Y006237D01*
X007221Y006237D01*
X007176Y006225D01*
X007135Y006201D01*
X007101Y006168D01*
X007077Y006127D01*
X007065Y005970D02*
X005810Y005970D01*
X005810Y005811D02*
X007065Y005811D01*
X007065Y005653D02*
X005810Y005653D01*
X005810Y005494D02*
X007065Y005494D01*
X007122Y005335D02*
X006740Y005335D01*
X006260Y005335D02*
X005753Y005335D01*
X005422Y005335D02*
X005326Y005335D01*
X005326Y005494D02*
X005422Y005494D01*
X006137Y005177D02*
X004570Y005177D01*
X004570Y005018D02*
X006102Y005018D01*
X006132Y004860D02*
X004570Y004860D01*
X004570Y004701D02*
X006180Y004701D01*
X006016Y004543D02*
X005484Y004543D01*
X005535Y004384D02*
X005965Y004384D01*
X005965Y004226D02*
X005535Y004226D01*
X005535Y004067D02*
X005965Y004067D01*
X005965Y003909D02*
X005535Y003909D01*
X005511Y003750D02*
X005989Y003750D01*
X006500Y003388D02*
X006500Y001762D01*
X005960Y001689D02*
X003480Y001689D01*
X003480Y001742D02*
X003020Y001742D01*
X003020Y000982D01*
X003038Y000982D01*
X003112Y000994D01*
X003184Y001017D01*
X003252Y001051D01*
X003313Y001096D01*
X003366Y001149D01*
X003411Y001210D01*
X003445Y001278D01*
X003468Y001350D01*
X003480Y001424D01*
X003480Y001742D01*
X003480Y001847D02*
X005960Y001847D01*
X005960Y002006D02*
X003480Y002006D01*
X003470Y002165D02*
X005960Y002165D01*
X006024Y002323D02*
X003404Y002323D01*
X003234Y002482D02*
X006156Y002482D01*
X006180Y002640D02*
X002320Y002640D01*
X002320Y002799D02*
X006180Y002799D01*
X006040Y002957D02*
X005460Y002957D01*
X005000Y003388D02*
X006500Y003388D01*
X006844Y002482D02*
X007266Y002482D01*
X007480Y002482D02*
X007520Y002482D01*
X007520Y002323D02*
X007480Y002323D01*
X007480Y002165D02*
X007520Y002165D01*
X007520Y002006D02*
X007480Y002006D01*
X007480Y001847D02*
X007520Y001847D01*
X007520Y001689D02*
X007480Y001689D01*
X007480Y001530D02*
X007520Y001530D01*
X007520Y001372D02*
X007480Y001372D01*
X007480Y001213D02*
X007520Y001213D01*
X007520Y001055D02*
X007480Y001055D01*
X007244Y001055D02*
X006856Y001055D01*
X006981Y001213D02*
X007088Y001213D01*
X007756Y001055D02*
X008144Y001055D01*
X008019Y001213D02*
X007912Y001213D01*
X008856Y001055D02*
X014380Y001055D01*
X014538Y000896D02*
X000375Y000896D01*
X000375Y000738D02*
X014697Y000738D01*
X014907Y000579D02*
X000375Y000579D01*
X000375Y001055D02*
X001644Y001055D01*
X001519Y001213D02*
X000375Y001213D01*
X000375Y001372D02*
X001460Y001372D01*
X001460Y001530D02*
X000375Y001530D01*
X000375Y001689D02*
X001460Y001689D01*
X001460Y001847D02*
X000375Y001847D01*
X000375Y002006D02*
X001460Y002006D01*
X001460Y002165D02*
X000375Y002165D01*
X000375Y002323D02*
X001524Y002323D01*
X001656Y002482D02*
X000375Y002482D01*
X000375Y002640D02*
X001680Y002640D01*
X001680Y002799D02*
X000375Y002799D01*
X000375Y002957D02*
X001540Y002957D01*
X001465Y003116D02*
X000375Y003116D01*
X000375Y003274D02*
X001465Y003274D01*
X001465Y003433D02*
X000375Y003433D01*
X000375Y003591D02*
X001465Y003591D01*
X001489Y003750D02*
X000375Y003750D01*
X000375Y003909D02*
X001465Y003909D01*
X001465Y004067D02*
X000375Y004067D01*
X000375Y004226D02*
X001465Y004226D01*
X001465Y004384D02*
X000375Y004384D01*
X000375Y004543D02*
X001516Y004543D01*
X001640Y004701D02*
X000375Y004701D01*
X000375Y004860D02*
X001632Y004860D01*
X001541Y005018D02*
X000375Y005018D01*
X000375Y005177D02*
X001383Y005177D01*
X001224Y005335D02*
X000375Y005335D01*
X000375Y005494D02*
X001065Y005494D01*
X000907Y005653D02*
X000375Y005653D01*
X000375Y005811D02*
X000748Y005811D01*
X000590Y005970D02*
X000375Y005970D01*
X000375Y006128D02*
X000431Y006128D01*
X001019Y006445D02*
X004305Y006445D01*
X004297Y006287D02*
X003289Y006287D01*
X003383Y006128D02*
X004140Y006128D01*
X004005Y005970D02*
X003398Y005970D01*
X003348Y005811D02*
X003930Y005811D01*
X003930Y005653D02*
X003320Y005653D01*
X003320Y005494D02*
X003930Y005494D01*
X003930Y005335D02*
X003320Y005335D01*
X003320Y005177D02*
X003930Y005177D01*
X003930Y005018D02*
X003320Y005018D01*
X003320Y004860D02*
X003930Y004860D01*
X003930Y004701D02*
X003320Y004701D01*
X003484Y004543D02*
X003930Y004543D01*
X003930Y004384D02*
X003535Y004384D01*
X003535Y004226D02*
X003930Y004226D01*
X003932Y004067D02*
X003535Y004067D01*
X003535Y003909D02*
X004025Y003909D01*
X004250Y004136D02*
X004250Y005762D01*
X004626Y005762D01*
X004625Y005762D01*
X004625Y006762D01*
X004955Y006287D02*
X007920Y006287D01*
X007549Y006128D02*
X007453Y006128D01*
X007453Y005970D02*
X007549Y005970D01*
X007549Y005811D02*
X007453Y005811D01*
X005000Y004136D02*
X004250Y004136D01*
X004489Y003750D02*
X003501Y003750D01*
X003475Y003591D02*
X004465Y003591D01*
X004465Y003433D02*
X003048Y003433D01*
X003000Y003388D02*
X003000Y001762D01*
X002980Y001689D02*
X003020Y001689D01*
X003020Y001847D02*
X002980Y001847D01*
X002980Y002006D02*
X003020Y002006D01*
X003020Y002165D02*
X002980Y002165D01*
X002980Y002323D02*
X003020Y002323D01*
X003020Y002482D02*
X002980Y002482D01*
X002766Y002482D02*
X002344Y002482D01*
X002476Y002323D02*
X002596Y002323D01*
X002000Y001762D02*
X002000Y003388D01*
X002500Y003388D01*
X002500Y004512D01*
X003000Y004512D01*
X003000Y004136D02*
X003000Y006012D01*
X002711Y006287D02*
X001178Y006287D01*
X001076Y006604D02*
X000945Y006604D01*
X002952Y003274D02*
X003048Y003274D01*
X003048Y003116D02*
X002952Y003116D01*
X002952Y002957D02*
X003048Y002957D01*
X003338Y002957D02*
X004540Y002957D01*
X004465Y003116D02*
X003475Y003116D01*
X003475Y003274D02*
X004465Y003274D01*
X002662Y002957D02*
X002460Y002957D01*
X002980Y001530D02*
X003020Y001530D01*
X003020Y001372D02*
X002980Y001372D01*
X002980Y001213D02*
X003020Y001213D01*
X003020Y001055D02*
X002980Y001055D01*
X002744Y001055D02*
X002356Y001055D01*
X002481Y001213D02*
X002588Y001213D01*
X003256Y001055D02*
X006144Y001055D01*
X006019Y001213D02*
X003412Y001213D01*
X003472Y001372D02*
X005960Y001372D01*
X005960Y001530D02*
X003480Y001530D01*
X006976Y002323D02*
X007096Y002323D01*
X008960Y002957D02*
X009290Y002957D01*
X010695Y004543D02*
X010732Y004543D01*
X011518Y004543D02*
X011816Y004543D01*
X015750Y003388D02*
X015876Y003388D01*
X015750Y003388D02*
X015750Y001762D01*
X016226Y002323D02*
X016346Y002323D01*
X016516Y002482D02*
X016094Y002482D01*
X017154Y002323D02*
X017930Y002323D01*
X017930Y002165D02*
X017220Y002165D01*
X017230Y002006D02*
X017930Y002006D01*
X017930Y001847D02*
X017230Y001847D01*
X017230Y001689D02*
X017930Y001689D01*
X017816Y001530D02*
X017230Y001530D01*
X017222Y001372D02*
X017657Y001372D01*
X017499Y001213D02*
X017162Y001213D01*
X017718Y000579D02*
X038625Y000579D01*
X038625Y000738D02*
X017928Y000738D01*
X017896Y000706D02*
X017896Y000706D01*
X018087Y000896D02*
X038625Y000896D01*
X038625Y001055D02*
X020506Y001055D01*
X020662Y001213D02*
X038625Y001213D01*
X038625Y001372D02*
X037732Y001372D01*
X037682Y001322D02*
X037940Y001580D01*
X037940Y001762D01*
X037940Y001944D01*
X037682Y002202D01*
X037500Y002202D01*
X037500Y001762D01*
X037500Y001322D01*
X037682Y001322D01*
X037500Y001322D02*
X037500Y001762D01*
X037500Y001762D01*
X037940Y001762D01*
X037500Y001762D01*
X037500Y001762D01*
X037500Y001762D01*
X037060Y001762D01*
X037060Y001580D01*
X037318Y001322D01*
X037500Y001322D01*
X037500Y001372D02*
X037500Y001372D01*
X037500Y001530D02*
X037500Y001530D01*
X037500Y001689D02*
X037500Y001689D01*
X037500Y001762D02*
X037500Y001762D01*
X037060Y001762D01*
X037060Y001944D01*
X037318Y002202D01*
X037500Y002202D01*
X037500Y001762D01*
X037500Y001847D02*
X037500Y001847D01*
X037500Y002006D02*
X037500Y002006D01*
X037500Y002165D02*
X037500Y002165D01*
X037720Y002165D02*
X038625Y002165D01*
X038625Y002323D02*
X020654Y002323D01*
X020720Y002165D02*
X032195Y002165D01*
X032293Y002262D02*
X032000Y001969D01*
X032000Y001555D01*
X032293Y001262D01*
X032707Y001262D01*
X033000Y001555D01*
X033000Y001969D01*
X032707Y002262D01*
X032293Y002262D01*
X032037Y002006D02*
X020730Y002006D01*
X020730Y001847D02*
X032000Y001847D01*
X032000Y001689D02*
X020730Y001689D01*
X020730Y001530D02*
X032025Y001530D01*
X032183Y001372D02*
X020722Y001372D01*
X020270Y001372D02*
X020230Y001372D01*
X020230Y001530D02*
X020270Y001530D01*
X020270Y001213D02*
X020230Y001213D01*
X020230Y001055D02*
X020270Y001055D01*
X019994Y001055D02*
X019606Y001055D01*
X019731Y001213D02*
X019838Y001213D01*
X018894Y001055D02*
X018245Y001055D01*
X018404Y001213D02*
X018769Y001213D01*
X018710Y001372D02*
X018538Y001372D01*
X018570Y001530D02*
X018710Y001530D01*
X018710Y001689D02*
X018570Y001689D01*
X018570Y001847D02*
X018710Y001847D01*
X018710Y002006D02*
X018570Y002006D01*
X018570Y002165D02*
X018710Y002165D01*
X018774Y002323D02*
X018570Y002323D01*
X018570Y002482D02*
X018906Y002482D01*
X018930Y002640D02*
X018570Y002640D01*
X018570Y002799D02*
X018930Y002799D01*
X018790Y002957D02*
X018570Y002957D01*
X018570Y003116D02*
X018715Y003116D01*
X018715Y003274D02*
X018570Y003274D01*
X018623Y003433D02*
X018715Y003433D01*
X019250Y003388D02*
X019374Y003512D01*
X019500Y003512D01*
X020000Y004012D01*
X020126Y004012D01*
X020250Y004136D01*
X019250Y004136D02*
X018874Y004136D01*
X019250Y003388D02*
X019250Y001762D01*
X019726Y002323D02*
X019846Y002323D01*
X020016Y002482D02*
X019594Y002482D01*
X019710Y002957D02*
X019912Y002957D01*
X020202Y002957D02*
X020298Y002957D01*
X020298Y003116D02*
X020202Y003116D01*
X020202Y003274D02*
X020298Y003274D01*
X019251Y003388D02*
X019250Y003388D01*
X014221Y001213D02*
X008981Y001213D01*
X014069Y001366D02*
X014069Y001366D01*
X025500Y007637D02*
X025500Y007762D01*
X027069Y009458D02*
X027306Y009458D01*
X025985Y009933D02*
X038625Y009933D01*
X038625Y010092D02*
X025859Y010092D01*
X025625Y009762D02*
X024626Y009762D01*
X024984Y010250D02*
X038625Y010250D01*
X038625Y015007D02*
X037867Y015007D01*
X037940Y015165D02*
X038625Y015165D01*
X038625Y015324D02*
X037940Y015324D01*
X037902Y015482D02*
X038625Y015482D01*
X037256Y015641D02*
X032828Y015641D01*
X032987Y015482D02*
X037098Y015482D01*
X037060Y015324D02*
X033000Y015324D01*
X033000Y015165D02*
X037060Y015165D01*
X037133Y015007D02*
X032952Y015007D01*
X032793Y014848D02*
X037292Y014848D01*
X034340Y017226D02*
X032484Y017226D01*
X032484Y017385D02*
X034499Y017385D01*
X034657Y017543D02*
X032484Y017543D01*
X032503Y017702D02*
X032747Y017702D01*
X032634Y017860D02*
X032616Y017860D01*
X033503Y017702D02*
X034816Y017702D01*
X034880Y017860D02*
X033616Y017860D01*
X033665Y018019D02*
X034880Y018019D01*
X034880Y018177D02*
X033665Y018177D01*
X033665Y018336D02*
X034880Y018336D01*
X034918Y018495D02*
X033665Y018495D01*
X033665Y018653D02*
X034995Y018653D01*
X035154Y018812D02*
X033658Y018812D01*
X032803Y019129D02*
X032447Y019129D01*
X032592Y018970D02*
X032658Y018970D01*
X031803Y019129D02*
X031447Y019129D01*
X031592Y018970D02*
X031658Y018970D01*
X030803Y019129D02*
X026565Y019129D01*
X026395Y019129D02*
X026355Y019129D01*
X026355Y018970D02*
X026395Y018970D01*
X026395Y018812D02*
X026355Y018812D01*
X026355Y018653D02*
X026395Y018653D01*
X026395Y018495D02*
X026355Y018495D01*
X026375Y018387D02*
X026375Y017262D01*
X026125Y017012D01*
X025749Y017012D01*
X025797Y016964D02*
X025797Y016537D01*
X026029Y016537D01*
X026074Y016549D01*
X026115Y016573D01*
X026149Y016606D01*
X026173Y016647D01*
X026185Y016693D01*
X026185Y016964D01*
X025797Y016964D01*
X025797Y016909D02*
X025701Y016909D01*
X025701Y016751D02*
X025797Y016751D01*
X025797Y016592D02*
X025701Y016592D01*
X026135Y016592D02*
X027640Y016592D01*
X027640Y016751D02*
X026185Y016751D01*
X026185Y016909D02*
X027640Y016909D01*
X027640Y017068D02*
X026185Y017068D01*
X026185Y017226D02*
X027640Y017226D01*
X027662Y017385D02*
X026168Y017385D01*
X026395Y017607D02*
X026413Y017607D01*
X026487Y017619D01*
X026559Y017642D01*
X026627Y017676D01*
X026688Y017721D01*
X026741Y017774D01*
X026786Y017835D01*
X026820Y017903D01*
X026843Y017975D01*
X026855Y018049D01*
X026855Y018367D01*
X026395Y018367D01*
X026395Y017607D01*
X026395Y017702D02*
X026355Y017702D01*
X026355Y017860D02*
X026395Y017860D01*
X026395Y018019D02*
X026355Y018019D01*
X026355Y018177D02*
X026395Y018177D01*
X026395Y018336D02*
X026355Y018336D01*
X026855Y018336D02*
X030585Y018336D01*
X030585Y018177D02*
X026855Y018177D01*
X026850Y018019D02*
X030585Y018019D01*
X030634Y017860D02*
X026798Y017860D01*
X026661Y017702D02*
X028550Y017702D01*
X027773Y017543D02*
X025314Y017543D01*
X025701Y017385D02*
X025797Y017385D01*
X025797Y017226D02*
X025701Y017226D01*
X025701Y017068D02*
X025797Y017068D01*
X025753Y017702D02*
X026089Y017702D01*
X025952Y017860D02*
X025866Y017860D01*
X026855Y018495D02*
X030585Y018495D01*
X030585Y018653D02*
X026855Y018653D01*
X026839Y018812D02*
X030592Y018812D01*
X030658Y018970D02*
X026763Y018970D01*
X026185Y019129D02*
X025697Y019129D01*
X025842Y018970D02*
X025987Y018970D01*
X025911Y018812D02*
X025908Y018812D01*
X025053Y019129D02*
X024697Y019129D01*
X024842Y018970D02*
X024908Y018970D01*
X024053Y019129D02*
X023005Y019129D01*
X023259Y018970D02*
X023908Y018970D01*
X023842Y018812D02*
X023354Y018812D01*
X023385Y018653D02*
X023835Y018653D01*
X023835Y018495D02*
X023367Y018495D01*
X023291Y018336D02*
X023835Y018336D01*
X023835Y018177D02*
X023082Y018177D01*
X023124Y018019D02*
X023835Y018019D01*
X023884Y017860D02*
X023165Y017860D01*
X023165Y017702D02*
X023997Y017702D01*
X024055Y017543D02*
X023165Y017543D01*
X023165Y017385D02*
X024045Y017385D01*
X023887Y017226D02*
X023165Y017226D01*
X023150Y017068D02*
X023728Y017068D01*
X023569Y016909D02*
X023084Y016909D01*
X024375Y017262D02*
X024375Y018387D01*
X021085Y017543D02*
X020907Y017543D01*
X021080Y017385D02*
X021085Y017385D01*
X020639Y016433D02*
X018290Y016433D01*
X018290Y016275D02*
X020305Y016275D01*
X019619Y016116D02*
X019464Y016116D01*
X019464Y015958D02*
X019619Y015958D01*
X019541Y015762D02*
X018750Y015762D01*
X018500Y015512D01*
X018500Y015012D01*
X019000Y015012D01*
X019006Y015267D02*
X019464Y015267D01*
X019464Y015684D01*
X018850Y015684D01*
X018850Y015423D01*
X018862Y015378D01*
X018885Y015337D01*
X018919Y015303D01*
X018960Y015279D01*
X019006Y015267D01*
X018898Y015324D02*
X018290Y015324D01*
X018290Y015482D02*
X018850Y015482D01*
X018850Y015641D02*
X018290Y015641D01*
X018290Y015799D02*
X019464Y015799D01*
X019464Y015641D02*
X019619Y015641D01*
X019619Y015482D02*
X019464Y015482D01*
X019464Y015324D02*
X019619Y015324D01*
X020184Y015324D02*
X020238Y015324D01*
X021430Y015165D02*
X018290Y015165D01*
X018290Y015007D02*
X021430Y015007D01*
X021430Y014848D02*
X018290Y014848D01*
X018290Y014689D02*
X021434Y014689D01*
X021040Y014132D02*
X022000Y014132D01*
X022007Y013738D02*
X021480Y013738D01*
X021480Y013762D02*
X021040Y013762D01*
X021480Y013762D01*
X021635Y013580D02*
X022025Y013580D01*
X022025Y013340D02*
X022025Y013108D01*
X022037Y013063D01*
X022061Y013022D01*
X022094Y012988D01*
X022135Y012964D01*
X022181Y012952D01*
X022452Y012952D01*
X022452Y013340D01*
X022025Y013340D01*
X022025Y013263D02*
X021820Y013263D01*
X021875Y013262D02*
X022500Y013262D01*
X022500Y013388D01*
X023750Y013388D01*
X023702Y013421D02*
X022548Y013421D01*
X022452Y013421D02*
X021780Y013421D01*
X021500Y013262D02*
X021500Y012762D01*
X020875Y012762D01*
X020625Y012512D01*
X020625Y012138D01*
X020626Y012137D01*
X020626Y011013D01*
X020625Y011012D01*
X020624Y011013D02*
X021500Y011012D01*
X021853Y011202D02*
X021862Y011202D01*
X022021Y011360D02*
X021701Y011360D01*
X021299Y011360D02*
X021259Y011360D01*
X021232Y011519D02*
X022179Y011519D01*
X022338Y011677D02*
X021705Y011677D01*
X021810Y011836D02*
X022496Y011836D01*
X022875Y011262D02*
X024500Y012887D01*
X026055Y012887D01*
X026560Y013104D02*
X027739Y013104D01*
X027665Y013263D02*
X026585Y013263D01*
X026585Y013421D02*
X027665Y013421D01*
X027679Y013580D02*
X026571Y013580D01*
X026055Y013387D02*
X024500Y013387D01*
X021500Y010387D01*
X016875Y010387D01*
X016500Y010250D02*
X014164Y010250D01*
X014187Y010409D02*
X013870Y010409D01*
X013758Y010567D02*
X014024Y010567D01*
X013959Y010726D02*
X013452Y010726D01*
X013102Y010572D02*
X013102Y010410D01*
X013250Y010262D01*
X013500Y010262D01*
X014000Y009887D02*
X013000Y009887D01*
X012787Y010100D01*
X012787Y010572D01*
X012157Y010572D02*
X012157Y009730D01*
X012500Y009387D01*
X015875Y009387D01*
X016477Y010409D02*
X014563Y010409D01*
X014726Y010567D02*
X016518Y010567D01*
X016652Y010726D02*
X014791Y010726D01*
X014750Y011137D02*
X019250Y011137D01*
X019227Y011160D01*
X019589Y011360D02*
X019991Y011360D01*
X019991Y011202D02*
X019648Y011202D01*
X019642Y011043D02*
X019991Y011043D01*
X019991Y010884D02*
X019561Y010884D01*
X019991Y010726D02*
X017098Y010726D01*
X018292Y011519D02*
X019130Y011519D01*
X019370Y011519D02*
X020018Y011519D01*
X020195Y011677D02*
X018450Y011677D01*
X018835Y011836D02*
X020130Y011836D01*
X020130Y011994D02*
X018870Y011994D01*
X018870Y012153D02*
X020130Y012153D01*
X020130Y012311D02*
X018870Y012311D01*
X018870Y012470D02*
X020130Y012470D01*
X020227Y012628D02*
X018860Y012628D01*
X018820Y012787D02*
X020447Y012787D01*
X020606Y012946D02*
X018948Y012946D01*
X018500Y013388D02*
X018500Y012262D01*
X018180Y012797D02*
X018070Y012797D01*
X017982Y012761D01*
X017947Y012726D01*
X017906Y012737D01*
X017674Y012737D01*
X017674Y012310D01*
X017578Y012310D01*
X017578Y012737D01*
X017369Y012737D01*
X017398Y012808D01*
X017398Y012966D01*
X017338Y013113D01*
X017226Y013225D01*
X017079Y013285D01*
X016921Y013285D01*
X016774Y013225D01*
X016757Y013207D01*
X016383Y013207D01*
X016269Y013321D01*
X016151Y013369D01*
X016024Y013369D01*
X014787Y013369D01*
X014820Y013448D01*
X014820Y014629D01*
X015508Y015317D01*
X017007Y015317D01*
X017024Y015299D01*
X017171Y015239D01*
X017305Y015239D01*
X017305Y014408D01*
X017271Y014374D01*
X017207Y014220D01*
X017207Y014054D01*
X017271Y013900D01*
X017388Y013783D01*
X017542Y013719D01*
X017708Y013719D01*
X017749Y013736D01*
X017754Y013723D01*
X017879Y013598D01*
X017961Y013516D01*
X017965Y013515D01*
X017965Y013084D01*
X018001Y012996D01*
X018069Y012929D01*
X018157Y012892D01*
X018180Y012892D01*
X018180Y012797D01*
X018045Y012787D02*
X017390Y012787D01*
X017398Y012946D02*
X018052Y012946D01*
X017965Y013104D02*
X017341Y013104D01*
X017134Y013263D02*
X017965Y013263D01*
X017965Y013421D02*
X014809Y013421D01*
X014820Y013580D02*
X017897Y013580D01*
X017495Y013738D02*
X014820Y013738D01*
X014820Y013897D02*
X017274Y013897D01*
X017207Y014055D02*
X014820Y014055D01*
X014820Y014214D02*
X017207Y014214D01*
X017270Y014372D02*
X014820Y014372D01*
X014820Y014531D02*
X017305Y014531D01*
X017305Y014689D02*
X014880Y014689D01*
X015039Y014848D02*
X017305Y014848D01*
X017305Y015007D02*
X015197Y015007D01*
X015356Y015165D02*
X017305Y015165D01*
X017250Y015637D02*
X015375Y015637D01*
X014500Y014762D01*
X014500Y013512D01*
X014352Y013364D01*
X013690Y013364D01*
X013690Y013049D02*
X016088Y013049D01*
X016250Y012887D01*
X017000Y012887D01*
X016866Y013263D02*
X016327Y013263D01*
X016100Y012603D02*
X016186Y012567D01*
X016757Y012567D01*
X016774Y012549D01*
X016921Y012489D01*
X017079Y012489D01*
X017190Y012535D01*
X017190Y012310D01*
X017578Y012310D01*
X017578Y012214D01*
X017190Y012214D01*
X017190Y011982D01*
X016914Y012258D01*
X016808Y012302D01*
X016692Y012302D01*
X016100Y012302D01*
X016100Y012338D01*
X015673Y012338D01*
X015673Y012434D01*
X016100Y012434D01*
X016100Y012603D01*
X016100Y012470D02*
X017190Y012470D01*
X017190Y012311D02*
X016100Y012311D01*
X015625Y012386D02*
X017502Y012386D01*
X017626Y012262D01*
X017578Y012311D02*
X017674Y012311D01*
X017674Y012470D02*
X017578Y012470D01*
X017578Y012628D02*
X017674Y012628D01*
X017190Y012153D02*
X017019Y012153D01*
X017178Y011994D02*
X017190Y011994D01*
X015625Y011638D02*
X015462Y011475D01*
X013690Y011475D01*
X011912Y011475D01*
X011597Y011790D01*
X010310Y011790D01*
X009625Y011790D01*
X009625Y012262D01*
X009782Y012420D01*
X010310Y012420D01*
X010310Y012734D02*
X010935Y012734D01*
X011250Y012420D01*
X010935Y012105D01*
X010310Y012105D01*
X010740Y012110D02*
X010740Y012150D01*
X010763Y012174D01*
X010800Y012262D01*
X010800Y012577D01*
X010763Y012665D01*
X010740Y012689D01*
X010740Y012734D01*
X010693Y012734D01*
X010692Y012734D01*
X010693Y012735D01*
X010740Y012735D01*
X010740Y012780D01*
X010763Y012803D01*
X010800Y012892D01*
X010800Y013207D01*
X010800Y013462D01*
X011055Y013462D01*
X011370Y013462D01*
X011685Y013462D01*
X012000Y013462D01*
X012315Y013462D01*
X012630Y013462D01*
X012945Y013462D01*
X013200Y013462D01*
X013200Y013207D01*
X013200Y012892D01*
X013200Y012577D01*
X013237Y012489D01*
X013260Y012465D01*
X013260Y012425D01*
X012814Y012425D01*
X012686Y012425D01*
X012569Y012376D01*
X012556Y012363D01*
X012524Y012350D01*
X012412Y012238D01*
X012352Y012091D01*
X012352Y011933D01*
X012409Y011795D01*
X012045Y011795D01*
X011779Y012061D01*
X011661Y012110D01*
X011534Y012110D01*
X010740Y012110D01*
X010743Y012153D02*
X012377Y012153D01*
X012352Y011994D02*
X011845Y011994D01*
X012004Y011836D02*
X012392Y011836D01*
X012750Y012012D02*
X012750Y012105D01*
X013690Y012105D01*
X014657Y012105D01*
X014750Y012012D01*
X014913Y012302D02*
X014839Y012376D01*
X014721Y012425D01*
X014594Y012425D01*
X014120Y012425D01*
X014120Y012465D01*
X014143Y012489D01*
X014180Y012577D01*
X014180Y012729D01*
X015172Y012729D01*
X015162Y012711D01*
X015150Y012666D01*
X015150Y012434D01*
X015577Y012434D01*
X015577Y012338D01*
X015150Y012338D01*
X015150Y012302D01*
X014913Y012302D01*
X014903Y012311D02*
X015150Y012311D01*
X015150Y012470D02*
X014125Y012470D01*
X014180Y012628D02*
X015150Y012628D01*
X015592Y012420D02*
X015625Y012386D01*
X015592Y012420D02*
X013690Y012420D01*
X011250Y012420D01*
X010800Y012470D02*
X013255Y012470D01*
X013200Y012628D02*
X010779Y012628D01*
X010747Y012787D02*
X013200Y012787D01*
X013200Y012946D02*
X010800Y012946D01*
X010800Y013104D02*
X013200Y013104D01*
X013200Y013263D02*
X010800Y013263D01*
X010800Y013421D02*
X013200Y013421D01*
X013125Y013952D02*
X013125Y015637D01*
X013375Y015887D01*
X014625Y015887D01*
X014750Y016012D01*
X016625Y016012D01*
X015750Y016387D02*
X014375Y016387D01*
X014125Y016137D01*
X013125Y016137D01*
X012787Y015799D01*
X012787Y013952D01*
X012472Y013952D02*
X012472Y016109D01*
X012875Y016512D01*
X013250Y016512D01*
X013250Y017138D01*
X013750Y017512D02*
X014250Y017012D01*
X016500Y017012D01*
X016500Y018512D01*
X016625Y018637D01*
X017875Y018637D01*
X018000Y018512D01*
X018000Y017762D01*
X018540Y017702D02*
X018555Y017702D01*
X018540Y017860D02*
X018555Y017860D01*
X018540Y018019D02*
X018555Y018019D01*
X018555Y018177D02*
X018537Y018177D01*
X018555Y018336D02*
X018471Y018336D01*
X018555Y018495D02*
X018331Y018495D01*
X017000Y017762D02*
X017000Y016762D01*
X014125Y016762D01*
X013875Y016512D01*
X013250Y016512D01*
X012250Y017138D02*
X012157Y017046D01*
X012157Y013952D01*
X011843Y013952D02*
X011843Y015137D01*
X011843Y015887D01*
X011124Y015887D01*
X010376Y015887D02*
X010376Y016138D01*
X009899Y016275D02*
X008490Y016275D01*
X008490Y016433D02*
X008722Y016433D01*
X008551Y016592D02*
X008490Y016592D01*
X008490Y016751D02*
X008510Y016751D01*
X008510Y016909D02*
X008490Y016909D01*
X008490Y017068D02*
X008510Y017068D01*
X008510Y017226D02*
X008490Y017226D01*
X008490Y017385D02*
X008510Y017385D01*
X008520Y017543D02*
X008480Y017543D01*
X008467Y017702D02*
X008533Y017702D01*
X008500Y017860D02*
X008500Y017860D01*
X008500Y018019D02*
X008500Y018019D01*
X008500Y018162D02*
X008500Y018162D01*
X008210Y018162D01*
X008210Y018446D01*
X008222Y018491D01*
X008246Y018533D01*
X008279Y018566D01*
X008321Y018590D01*
X008366Y018602D01*
X008500Y018602D01*
X008500Y018162D01*
X008500Y018177D02*
X008500Y018177D01*
X008500Y018336D02*
X008500Y018336D01*
X008500Y018495D02*
X008500Y018495D01*
X008224Y018495D02*
X007444Y018495D01*
X007475Y018336D02*
X008210Y018336D01*
X008210Y018177D02*
X007048Y018177D01*
X006952Y018177D02*
X000375Y018177D01*
X000375Y018019D02*
X006525Y018019D01*
X006525Y017860D02*
X000375Y017860D01*
X000375Y017702D02*
X003194Y017702D01*
X003050Y017543D02*
X000375Y017543D01*
X000375Y017385D02*
X003015Y017385D01*
X002849Y017226D02*
X000375Y017226D01*
X000375Y017068D02*
X002820Y017068D01*
X002820Y016909D02*
X000375Y016909D01*
X000375Y016751D02*
X002820Y016751D01*
X002820Y016592D02*
X000375Y016592D01*
X000375Y016433D02*
X002820Y016433D01*
X002820Y016275D02*
X000375Y016275D01*
X000375Y016116D02*
X002820Y016116D01*
X002852Y015958D02*
X000375Y015958D01*
X000375Y015799D02*
X002915Y015799D01*
X002880Y015641D02*
X000375Y015641D01*
X000375Y015482D02*
X002880Y015482D01*
X002880Y015324D02*
X000375Y015324D01*
X003297Y015007D02*
X003452Y015007D01*
X003452Y014848D02*
X003297Y014848D01*
X003297Y014689D02*
X003452Y014689D01*
X003452Y014531D02*
X003297Y014531D01*
X003809Y014531D02*
X007191Y014531D01*
X007364Y014689D02*
X003870Y014689D01*
X003870Y014848D02*
X007805Y014848D01*
X007805Y015007D02*
X003870Y015007D01*
X003897Y015958D02*
X004295Y015958D01*
X004171Y016116D02*
X003930Y016116D01*
X003930Y016275D02*
X004140Y016275D01*
X004140Y016433D02*
X003930Y016433D01*
X003930Y016592D02*
X004140Y016592D01*
X004140Y016751D02*
X003930Y016751D01*
X003930Y016909D02*
X004140Y016909D01*
X004860Y016909D02*
X006616Y016909D01*
X006640Y016751D02*
X004860Y016751D01*
X004860Y017068D02*
X006472Y017068D01*
X006465Y017226D02*
X004865Y017226D01*
X004898Y017385D02*
X006465Y017385D01*
X006465Y017543D02*
X004866Y017543D01*
X004749Y017702D02*
X006469Y017702D01*
X006525Y018184D02*
X006952Y018184D01*
X006952Y018572D01*
X006681Y018572D01*
X006635Y018560D01*
X006594Y018536D01*
X006561Y018502D01*
X006537Y018461D01*
X006525Y018416D01*
X006525Y018184D01*
X006525Y018336D02*
X000375Y018336D01*
X000375Y018495D02*
X006556Y018495D01*
X006952Y018495D02*
X007048Y018495D01*
X007048Y018336D02*
X006952Y018336D01*
X007475Y018019D02*
X008210Y018019D01*
X007968Y017860D02*
X007475Y017860D01*
X007531Y017702D02*
X007793Y017702D01*
X007780Y017543D02*
X007535Y017543D01*
X007535Y017385D02*
X007770Y017385D01*
X007770Y017226D02*
X007535Y017226D01*
X008790Y018019D02*
X010025Y018019D01*
X010025Y017860D02*
X009032Y017860D01*
X009207Y017702D02*
X009969Y017702D01*
X009965Y017543D02*
X009220Y017543D01*
X009230Y017385D02*
X009965Y017385D01*
X009965Y017226D02*
X009230Y017226D01*
X010500Y016762D02*
X011125Y016762D01*
X011035Y017226D02*
X011265Y017226D01*
X011265Y017385D02*
X011035Y017385D01*
X011035Y017543D02*
X011265Y017543D01*
X011265Y017702D02*
X011031Y017702D01*
X010975Y017860D02*
X011265Y017860D01*
X011265Y018019D02*
X010975Y018019D01*
X010975Y018336D02*
X011265Y018336D01*
X011265Y018177D02*
X010548Y018177D01*
X010452Y018177D02*
X008790Y018177D01*
X008790Y018336D02*
X010025Y018336D01*
X010025Y018416D02*
X010025Y018184D01*
X010452Y018184D01*
X010452Y018572D01*
X010181Y018572D01*
X010135Y018560D01*
X010094Y018536D01*
X010061Y018502D01*
X010037Y018461D01*
X010025Y018416D01*
X010056Y018495D02*
X008776Y018495D01*
X010452Y018495D02*
X010548Y018495D01*
X010548Y018336D02*
X010452Y018336D01*
X010944Y018495D02*
X011280Y018495D01*
X011382Y018653D02*
X000375Y018653D01*
X000375Y018812D02*
X013040Y018812D01*
X013239Y018970D02*
X000375Y018970D01*
X000375Y019129D02*
X015983Y019129D01*
X016141Y019287D02*
X000375Y019287D01*
X008625Y014762D02*
X008625Y013887D01*
X008750Y013387D02*
X008750Y013364D01*
X010310Y013364D01*
X010310Y013049D02*
X009250Y013049D01*
X009250Y013012D01*
X009531Y012729D02*
X009695Y012729D01*
X009601Y012691D01*
X009444Y012533D01*
X009354Y012443D01*
X009305Y012326D01*
X009305Y012110D01*
X009035Y012110D01*
X009035Y012317D01*
X008999Y012405D01*
X008964Y012440D01*
X008975Y012481D01*
X008975Y012713D01*
X008548Y012713D01*
X008548Y012809D01*
X008903Y012809D01*
X008912Y012786D01*
X009024Y012674D01*
X009171Y012614D01*
X009329Y012614D01*
X009476Y012674D01*
X009531Y012729D01*
X009597Y012734D02*
X009500Y012637D01*
X008998Y012637D01*
X008874Y012761D01*
X008875Y012762D01*
X008874Y012761D02*
X008500Y012761D01*
X008548Y012787D02*
X008912Y012787D01*
X008975Y012628D02*
X009135Y012628D01*
X008972Y012470D02*
X009380Y012470D01*
X009365Y012628D02*
X009539Y012628D01*
X009597Y012734D02*
X010310Y012734D01*
X010800Y012311D02*
X012486Y012311D01*
X013690Y011160D02*
X013977Y011160D01*
X014375Y010762D01*
X014750Y011137D01*
X014000Y009887D02*
X022000Y009887D01*
X023250Y011137D01*
X021422Y011677D02*
X021326Y011677D01*
X021326Y011836D02*
X021422Y011836D01*
X021422Y011994D02*
X021326Y011994D01*
X021820Y013104D02*
X022026Y013104D01*
X022452Y013104D02*
X022548Y013104D01*
X022548Y013263D02*
X022452Y013263D01*
X021500Y013262D02*
X021370Y013392D01*
X021040Y013392D01*
X021040Y013762D02*
X020600Y013762D01*
X021040Y013762D01*
X021040Y013762D01*
X021040Y013762D01*
X020600Y013738D02*
X020460Y013738D01*
X020450Y013580D02*
X020552Y013580D01*
X020540Y013421D02*
X020460Y013421D01*
X020460Y013263D02*
X020540Y013263D01*
X020619Y013104D02*
X020381Y013104D01*
X019960Y013388D02*
X018500Y013388D01*
X019250Y014137D02*
X019255Y014132D01*
X019960Y014132D01*
X020460Y014055D02*
X020540Y014055D01*
X020540Y014214D02*
X020460Y014214D01*
X020426Y014372D02*
X020574Y014372D01*
X020572Y013897D02*
X020460Y013897D01*
X022070Y015165D02*
X027366Y015165D01*
X027366Y015007D02*
X023958Y015007D01*
X024061Y014848D02*
X027366Y014848D01*
X027446Y014689D02*
X024070Y014689D01*
X024246Y014531D02*
X025035Y014531D01*
X025215Y014531D02*
X030430Y014531D01*
X030430Y014372D02*
X027967Y014372D01*
X028126Y014214D02*
X030430Y014214D01*
X030430Y014055D02*
X028284Y014055D01*
X028443Y013897D02*
X030430Y013897D01*
X028737Y013738D02*
X028515Y013738D01*
X027696Y013738D02*
X024243Y013738D01*
X024240Y013580D02*
X024225Y013580D01*
X023750Y014136D02*
X023750Y014762D01*
X022500Y014762D01*
X019126Y016592D02*
X018290Y016592D01*
X018290Y016751D02*
X018934Y016751D01*
X018775Y016909D02*
X018290Y016909D01*
X018369Y017068D02*
X018617Y017068D01*
X018555Y017226D02*
X018487Y017226D01*
X018540Y017385D02*
X018555Y017385D01*
X018540Y017543D02*
X018555Y017543D01*
X017625Y016137D02*
X017000Y016762D01*
X017625Y016137D02*
X017625Y014137D01*
X018500Y014512D02*
X018500Y015012D01*
X018290Y015958D02*
X018850Y015958D01*
X018854Y016116D02*
X018290Y016116D01*
X016000Y017762D02*
X016000Y018637D01*
X014980Y017782D02*
X014520Y017782D01*
X014520Y018100D01*
X014532Y018174D01*
X014555Y018246D01*
X014571Y018277D01*
X013749Y018277D01*
X013785Y018190D01*
X013785Y017832D01*
X013814Y017832D01*
X013931Y017783D01*
X014383Y017332D01*
X014538Y017332D01*
X014532Y017350D01*
X014520Y017424D01*
X014520Y017742D01*
X014980Y017742D01*
X014980Y017782D01*
X014520Y017860D02*
X013785Y017860D01*
X013785Y018019D02*
X014520Y018019D01*
X014533Y018177D02*
X013785Y018177D01*
X014013Y017702D02*
X014520Y017702D01*
X014520Y017543D02*
X014171Y017543D01*
X014330Y017385D02*
X014526Y017385D01*
X011843Y015137D02*
X010500Y015137D01*
X011213Y014387D02*
X009000Y014387D01*
X008625Y014762D02*
X011528Y014762D01*
X011528Y013952D01*
X011213Y013952D02*
X011213Y014387D01*
X010898Y013952D02*
X009750Y013952D01*
X009750Y013887D01*
X009305Y012311D02*
X009035Y012311D01*
X009035Y012153D02*
X009305Y012153D01*
X009625Y011790D02*
X008723Y011790D01*
X007972Y011790D01*
X007875Y011887D01*
X008500Y012013D02*
X008723Y011790D01*
X008500Y011475D02*
X008500Y011136D01*
X008500Y011475D02*
X010310Y011475D01*
X013102Y013952D02*
X013125Y013952D01*
X025149Y010092D02*
X025391Y010092D01*
X030630Y005494D02*
X038625Y005494D01*
X038625Y005335D02*
X030322Y005335D01*
X032805Y002165D02*
X037280Y002165D01*
X037122Y002006D02*
X032963Y002006D01*
X033000Y001847D02*
X037060Y001847D01*
X037060Y001689D02*
X033000Y001689D01*
X032975Y001530D02*
X037109Y001530D01*
X037268Y001372D02*
X032817Y001372D01*
X037891Y001530D02*
X038625Y001530D01*
X038625Y001689D02*
X037940Y001689D01*
X037940Y001847D02*
X038625Y001847D01*
X038625Y002006D02*
X037878Y002006D01*
X032172Y015641D02*
X032040Y015641D01*
X032584Y017068D02*
X034181Y017068D01*
X031376Y017226D02*
X031112Y017226D01*
X031217Y017385D02*
X030858Y017385D01*
X031059Y017543D02*
X030604Y017543D01*
X030747Y017702D02*
X029450Y017702D01*
X028465Y016751D02*
X028360Y016751D01*
X028360Y016592D02*
X028465Y016592D01*
X028465Y016433D02*
X028360Y016433D01*
X028360Y016275D02*
X028465Y016275D01*
X028506Y016116D02*
X028360Y016116D01*
D29*
X030750Y015262D03*
X031500Y014512D03*
X025125Y014137D03*
X023000Y015637D03*
X019375Y017262D03*
X017250Y015637D03*
X016625Y016012D03*
X015750Y016387D03*
X019000Y015012D03*
X017000Y012887D03*
X016625Y012387D03*
X014375Y010762D03*
X013500Y010262D03*
X014000Y009887D03*
X015875Y009387D03*
X016875Y010387D03*
X019250Y011137D03*
X021500Y011012D03*
X022875Y011262D03*
X025625Y009762D03*
X023875Y008262D03*
X024500Y007637D03*
X026125Y006137D03*
X025000Y005387D03*
X021625Y004887D03*
X022875Y009387D03*
X031500Y009012D03*
X012750Y012012D03*
X009750Y013887D03*
X009000Y014387D03*
X008625Y013887D03*
X008750Y013387D03*
X009250Y013012D03*
X007625Y013887D03*
X007625Y014387D03*
X010500Y015137D03*
X011125Y016762D03*
X006000Y018137D03*
X004500Y017387D03*
X003375Y014262D03*
X003375Y010262D03*
X004625Y006762D03*
X003000Y006012D03*
X002000Y005012D03*
X006500Y005012D03*
X006500Y005762D03*
X009750Y008637D03*
X010875Y008887D03*
D30*
X010875Y008387D01*
X010625Y008387D01*
X010625Y005012D01*
X011125Y005012D01*
X017125Y011637D02*
X018000Y011637D01*
X018375Y012012D01*
X018375Y012261D01*
X018374Y012262D01*
X017502Y012386D02*
X016626Y012386D01*
X016625Y012387D01*
X016750Y012012D02*
X017125Y011637D01*
X016750Y012012D02*
X014750Y012012D01*
X018000Y013887D02*
X018125Y013762D01*
X019960Y013762D01*
X018000Y013887D02*
X018000Y017762D01*
X013750Y017512D02*
X012624Y017512D01*
X012250Y017138D01*
X024625Y009761D02*
X024626Y009762D01*
X028195Y012387D02*
X028625Y012387D01*
X028625Y011887D01*
X028999Y012513D02*
X028625Y012887D01*
X028195Y012887D01*
X028999Y012513D02*
X029125Y012513D01*
X031500Y014512D02*
X031750Y014762D01*
X031750Y017262D01*
X031125Y017887D01*
X031125Y018387D01*
X030750Y015262D02*
X030124Y015262D01*
X030375Y009012D02*
X030375Y005637D01*
X029000Y005637D01*
X028750Y005887D01*
X027601Y005887D01*
X028875Y006137D02*
X026125Y006137D01*
X025750Y006137D01*
X024445Y006387D02*
X023750Y006387D01*
X023000Y005637D01*
X021875Y005637D01*
X021625Y005387D01*
X021625Y004887D01*
X028875Y006137D02*
X029125Y006387D01*
X029649Y006387D01*
D31*
X018500Y012262D02*
X018374Y012262D01*
X019960Y013388D02*
X019960Y013392D01*
X013250Y017886D02*
X013250Y018262D01*
X013125Y018387D01*
X013375Y018637D01*
X016000Y018637D01*
X016375Y019012D01*
X018750Y019012D01*
X018875Y018887D01*
X019375Y018887D01*
X019625Y018637D01*
X013125Y018387D02*
X012250Y018387D01*
X012250Y017886D01*
X012250Y018387D02*
X011625Y018387D01*
X011625Y016637D01*
X011375Y016387D01*
X010625Y016387D01*
X010376Y016138D01*
X010376Y015887D02*
X008130Y015887D01*
X008130Y016262D01*
X008130Y016762D01*
X008130Y017362D01*
X008130Y016762D02*
X007000Y016762D01*
X007000Y017388D01*
X007000Y018136D02*
X006000Y018137D01*
X007000Y018136D02*
X008500Y018136D01*
X008500Y018162D01*
X010500Y018162D01*
X010500Y018136D01*
X010500Y017388D02*
X010500Y016762D01*
X008870Y016762D01*
X008870Y017362D01*
X008130Y016262D02*
X004500Y016262D01*
X004500Y017387D01*
X003375Y017387D01*
X003375Y016596D01*
X003375Y015178D02*
X003375Y014262D01*
X002000Y005012D02*
X002000Y004136D01*
X003000Y004136D02*
X003000Y004512D01*
X028000Y015262D02*
X028000Y017261D01*
X029000Y017261D01*
X030375Y017262D01*
X031376Y016637D01*
X032124Y016637D02*
X034260Y016637D01*
X035510Y017887D01*
X032124Y018261D02*
X032124Y016637D01*
X032124Y018261D02*
X032125Y018387D01*
X029376Y015262D02*
X028000Y015262D01*
D32*
X019250Y014137D03*
X017625Y014137D03*
M02*
