%
M48
M72
T01C0.0197
T02C0.0236
T03C0.0320
T04C0.0400
%
T01
X2101Y5012
X3101Y6012
X4726Y6762
X6601Y5762
X6601Y5012
X9851Y8637
X10976Y8887
X13601Y10262
X14101Y9887
X14476Y10762
X12851Y12012
X9851Y13887
X9101Y14387
X8726Y13887
X8851Y13387
X9351Y13012
X7726Y13887
X7726Y14387
X10601Y15137
X11226Y16762
X15851Y16387
X16726Y16012
X17351Y15637
X19101Y15012
X17101Y12887
X16726Y12387
X19351Y11137
X21601Y11012
X22976Y11262
X25726Y9762
X23976Y8262
X24601Y7637
X22976Y9387
X25476Y5762
X21726Y4887
X15976Y9387
X16976Y10387
X25226Y14137
X23101Y15637
X19601Y17512
X30851Y15262
X31601Y14512
X34851Y17512
X31601Y9012
X6101Y18137
X4601Y17387
X3476Y14262
X3476Y10262
T02
X17726Y14137
X19351Y14137
T03
X6601Y11212
X6601Y9312
X32601Y9262
X32601Y10762
X32601Y12262
X32601Y13762
X32601Y15262
X37601Y15262
X37601Y13762
X37601Y12262
X37601Y10762
X37601Y9262
X37601Y7762
X37601Y6262
X37601Y4762
X37601Y3262
X37601Y1762
X32601Y1762
X32601Y3262
X32601Y4762
X32601Y6262
X32601Y7762
T04
X2101Y1762
X3101Y1762
X6601Y1762
X7601Y1762
X8601Y1762
X12101Y1762
X12101Y2762
X12226Y5012
X11226Y5012
X11226Y6012
X12226Y6012
X12226Y7012
X11226Y7012
X15851Y1762
X16851Y1762
X19351Y1762
X20351Y1762
X1601Y7137
X1601Y8137
X1601Y9137
X1601Y11512
X1601Y12512
X15101Y17762
X16101Y17762
X17101Y17762
X18101Y17762
X21351Y18387
X22351Y18387
X24476Y18387
X25476Y18387
X26476Y18387
X31226Y18262
X32226Y18262
X33226Y18262
X36601Y17762
X37601Y17762
M30
