G75*
G70*
%OFA0B0*%
%FSLAX24Y24*%
%IPPOS*%
%LPD*%
%AMOC8*
5,1,8,0,0,1.08239X$1,22.5*
%
%ADD10C,0.0000*%
%ADD11C,0.0640*%
%ADD12OC8,0.0780*%
%ADD13C,0.0560*%
%ADD14OC8,0.0560*%
%ADD15C,0.0820*%
%ADD16C,0.0560*%
D10*
X000125Y000262D02*
X000125Y019632D01*
X038992Y019632D01*
X038992Y000262D01*
X000125Y000262D01*
D11*
X002000Y001462D02*
X002000Y002062D01*
X003000Y002062D02*
X003000Y001462D01*
X006500Y001462D02*
X006500Y002062D01*
X007500Y002062D02*
X007500Y001462D01*
X008500Y001462D02*
X008500Y002062D01*
X011700Y001762D02*
X012300Y001762D01*
X012300Y002762D02*
X011700Y002762D01*
X015750Y002062D02*
X015750Y001462D01*
X016750Y001462D02*
X016750Y002062D01*
X019250Y002062D02*
X019250Y001462D01*
X020250Y001462D02*
X020250Y002062D01*
X001800Y007137D02*
X001200Y007137D01*
X001200Y008137D02*
X001800Y008137D01*
X001800Y009137D02*
X001200Y009137D01*
X001200Y011512D02*
X001800Y011512D01*
X001800Y012512D02*
X001200Y012512D01*
X015000Y017462D02*
X015000Y018062D01*
X016000Y018062D02*
X016000Y017462D01*
X017000Y017462D02*
X017000Y018062D01*
X018000Y018062D02*
X018000Y017462D01*
X021625Y017212D02*
X021625Y017812D01*
X022625Y017812D02*
X022625Y017212D01*
X024375Y018087D02*
X024375Y018687D01*
X025375Y018687D02*
X025375Y018087D01*
X026375Y018087D02*
X026375Y018687D01*
X031125Y018687D02*
X031125Y018087D01*
X032125Y018087D02*
X032125Y018687D01*
X033125Y018687D02*
X033125Y018087D01*
D12*
X012125Y007012D03*
X011125Y007012D03*
X011125Y006012D03*
X012125Y006012D03*
X012125Y005012D03*
X011125Y005012D03*
D13*
X006500Y009312D03*
X006500Y011212D03*
D14*
X032500Y010762D03*
X032500Y009262D03*
X032500Y007762D03*
X032500Y006262D03*
X032500Y004762D03*
X032500Y003262D03*
X032500Y001762D03*
X037500Y001762D03*
X037500Y003262D03*
X037500Y004762D03*
X037500Y006262D03*
X037500Y007762D03*
X037500Y009262D03*
X037500Y010762D03*
X037500Y012262D03*
X037500Y013762D03*
X037500Y015262D03*
X032500Y015262D03*
X032500Y013762D03*
X032500Y012262D03*
D15*
X035510Y017497D02*
X035510Y018277D01*
X037490Y018277D02*
X037490Y017497D01*
D16*
X022885Y018637D02*
X022365Y018637D01*
X019885Y018637D02*
X019365Y018637D01*
M02*
