G75*
G70*
%OFA0B0*%
%FSLAX24Y24*%
%IPPOS*%
%LPD*%
%AMOC8*
5,1,8,0,0,1.08239X$1,22.5*
%
%ADD10C,0.0000*%
%ADD11C,0.0600*%
%ADD12OC8,0.0740*%
%ADD13C,0.0520*%
%ADD14OC8,0.0520*%
%ADD15C,0.0780*%
%ADD16C,0.0520*%
%ADD17C,0.0317*%
%ADD18C,0.0160*%
%ADD19C,0.0240*%
%ADD20C,0.0320*%
%ADD21C,0.0100*%
%ADD22C,0.0356*%
D10*
X000125Y000262D02*
X000125Y019632D01*
X038992Y019632D01*
X038992Y000262D01*
X000125Y000262D01*
D11*
X002000Y001462D02*
X002000Y002062D01*
X003000Y002062D02*
X003000Y001462D01*
X006500Y001462D02*
X006500Y002062D01*
X007500Y002062D02*
X007500Y001462D01*
X008500Y001462D02*
X008500Y002062D01*
X011700Y001762D02*
X012300Y001762D01*
X012300Y002762D02*
X011700Y002762D01*
X015750Y002062D02*
X015750Y001462D01*
X016750Y001462D02*
X016750Y002062D01*
X019250Y002062D02*
X019250Y001462D01*
X020250Y001462D02*
X020250Y002062D01*
X001800Y007137D02*
X001200Y007137D01*
X001200Y008137D02*
X001800Y008137D01*
X001800Y009137D02*
X001200Y009137D01*
X001200Y011512D02*
X001800Y011512D01*
X001800Y012512D02*
X001200Y012512D01*
X015000Y017462D02*
X015000Y018062D01*
X016000Y018062D02*
X016000Y017462D01*
X017000Y017462D02*
X017000Y018062D01*
X018000Y018062D02*
X018000Y017462D01*
X021625Y017212D02*
X021625Y017812D01*
X022625Y017812D02*
X022625Y017212D01*
X024375Y018087D02*
X024375Y018687D01*
X025375Y018687D02*
X025375Y018087D01*
X026375Y018087D02*
X026375Y018687D01*
X031125Y018687D02*
X031125Y018087D01*
X032125Y018087D02*
X032125Y018687D01*
X033125Y018687D02*
X033125Y018087D01*
D12*
X012125Y007012D03*
X011125Y007012D03*
X011125Y006012D03*
X012125Y006012D03*
X012125Y005012D03*
X011125Y005012D03*
D13*
X006500Y009312D03*
X006500Y011212D03*
D14*
X032500Y010762D03*
X032500Y009262D03*
X032500Y007762D03*
X032500Y006262D03*
X032500Y004762D03*
X032500Y003262D03*
X032500Y001762D03*
X037500Y001762D03*
X037500Y003262D03*
X037500Y004762D03*
X037500Y006262D03*
X037500Y007762D03*
X037500Y009262D03*
X037500Y010762D03*
X037500Y012262D03*
X037500Y013762D03*
X037500Y015262D03*
X032500Y015262D03*
X032500Y013762D03*
X032500Y012262D03*
D15*
X035510Y017497D02*
X035510Y018277D01*
X037490Y018277D02*
X037490Y017497D01*
D16*
X022885Y018637D02*
X022365Y018637D01*
X019885Y018637D02*
X019365Y018637D01*
D17*
X019375Y017262D03*
X017250Y015637D03*
X016625Y016012D03*
X015750Y016387D03*
X019000Y015012D03*
X017000Y012887D03*
X016625Y012387D03*
X014375Y010762D03*
X013500Y010262D03*
X014000Y009887D03*
X015875Y009387D03*
X016875Y010387D03*
X019250Y011137D03*
X021500Y011012D03*
X022875Y011262D03*
X025625Y009762D03*
X023875Y008262D03*
X024500Y007637D03*
X026125Y006137D03*
X025000Y005387D03*
X021625Y004887D03*
X022875Y009387D03*
X025125Y014137D03*
X023000Y015637D03*
X030750Y015262D03*
X031500Y014512D03*
X031500Y009012D03*
X012750Y012012D03*
X009750Y013887D03*
X009000Y014387D03*
X008625Y013887D03*
X008750Y013387D03*
X009250Y013012D03*
X007625Y013887D03*
X007625Y014387D03*
X010500Y015137D03*
X011125Y016762D03*
X006000Y018137D03*
X004500Y017387D03*
X003375Y014262D03*
X003375Y010262D03*
X004625Y006762D03*
X003000Y006012D03*
X002000Y005012D03*
X006500Y005012D03*
X006500Y005762D03*
X009750Y008637D03*
X010875Y008887D03*
D18*
X010500Y008887D01*
X010500Y015137D01*
X010123Y015007D02*
X001860Y015007D01*
X001860Y015165D02*
X010102Y015165D01*
X010102Y015216D02*
X010102Y015058D01*
X010162Y014911D01*
X010180Y014894D01*
X010180Y008823D01*
X010229Y008706D01*
X010319Y008616D01*
X010436Y008567D01*
X010564Y008567D01*
X010632Y008567D01*
X010649Y008549D01*
X010796Y008489D01*
X010954Y008489D01*
X011101Y008549D01*
X011213Y008661D01*
X011273Y008808D01*
X011273Y008966D01*
X011213Y009113D01*
X011101Y009225D01*
X010954Y009285D01*
X010820Y009285D01*
X010820Y013287D01*
X010854Y013206D01*
X010944Y013116D01*
X011444Y012616D01*
X011561Y012567D01*
X011689Y012567D01*
X012117Y012567D01*
X012430Y012255D01*
X012412Y012238D01*
X012352Y012091D01*
X012352Y011933D01*
X012412Y011786D01*
X012524Y011674D01*
X012671Y011614D01*
X012829Y011614D01*
X012976Y011674D01*
X013088Y011786D01*
X013148Y011933D01*
X013148Y012091D01*
X013088Y012238D01*
X013070Y012255D01*
X013070Y012451D01*
X013021Y012568D01*
X012931Y012658D01*
X012521Y013068D01*
X012521Y013068D01*
X012431Y013158D01*
X012314Y013207D01*
X011758Y013207D01*
X011445Y013520D01*
X011445Y016519D01*
X011463Y016536D01*
X011523Y016683D01*
X011523Y016841D01*
X011463Y016988D01*
X011351Y017100D01*
X011204Y017160D01*
X011046Y017160D01*
X010899Y017100D01*
X010787Y016988D01*
X010727Y016841D01*
X010727Y016683D01*
X010787Y016536D01*
X010805Y016519D01*
X010805Y015395D01*
X010726Y015475D01*
X010579Y015535D01*
X010421Y015535D01*
X010274Y015475D01*
X010162Y015363D01*
X010102Y015216D01*
X010146Y015324D02*
X001860Y015324D01*
X001860Y015482D02*
X010292Y015482D01*
X010708Y015482D02*
X010805Y015482D01*
X010805Y015641D02*
X001860Y015641D01*
X001860Y015799D02*
X010805Y015799D01*
X010805Y015958D02*
X001860Y015958D01*
X001860Y016116D02*
X010805Y016116D01*
X010805Y016275D02*
X001860Y016275D01*
X001860Y016433D02*
X010805Y016433D01*
X010764Y016592D02*
X001860Y016592D01*
X001860Y016751D02*
X010727Y016751D01*
X010755Y016909D02*
X001860Y016909D01*
X001860Y017027D02*
X004328Y017027D01*
X004421Y016989D01*
X004579Y016989D01*
X004726Y017049D01*
X004838Y017161D01*
X004898Y017308D01*
X004898Y017466D01*
X004838Y017613D01*
X004726Y017725D01*
X004579Y017785D01*
X004421Y017785D01*
X004328Y017747D01*
X001428Y017747D01*
X001296Y017692D01*
X001195Y017591D01*
X001140Y017459D01*
X001140Y017315D01*
X001140Y013052D01*
X001093Y013052D01*
X000894Y012970D01*
X000742Y012818D01*
X000660Y012619D01*
X000660Y012405D01*
X000742Y012206D01*
X000894Y012054D01*
X001079Y011978D01*
X001016Y011957D01*
X000948Y011923D01*
X000887Y011878D01*
X000834Y011825D01*
X000789Y011764D01*
X000755Y011696D01*
X000732Y011624D01*
X000720Y011550D01*
X000720Y011532D01*
X001480Y011532D01*
X001480Y011492D01*
X001520Y011492D01*
X001520Y011532D01*
X002280Y011532D01*
X002280Y011550D01*
X002268Y011624D01*
X002245Y011696D01*
X002211Y011764D01*
X002166Y011825D01*
X002113Y011878D01*
X002052Y011923D01*
X001984Y011957D01*
X001921Y011978D01*
X002106Y012054D01*
X002258Y012206D01*
X002340Y012405D01*
X002340Y012619D01*
X002258Y012818D01*
X002106Y012970D01*
X001907Y013052D01*
X001860Y013052D01*
X001860Y017027D01*
X001140Y017068D02*
X000375Y017068D01*
X000375Y017226D02*
X001140Y017226D01*
X001140Y017385D02*
X000375Y017385D01*
X000375Y017543D02*
X001175Y017543D01*
X001319Y017702D02*
X000375Y017702D01*
X000375Y017860D02*
X014520Y017860D01*
X014520Y017782D02*
X014980Y017782D01*
X014980Y017742D01*
X015020Y017742D01*
X015020Y016982D01*
X015038Y016982D01*
X015112Y016994D01*
X015184Y017017D01*
X015252Y017051D01*
X015313Y017096D01*
X015366Y017149D01*
X015411Y017210D01*
X015445Y017278D01*
X015465Y017341D01*
X015542Y017156D01*
X015694Y017004D01*
X015850Y016940D01*
X015696Y016785D01*
X015671Y016785D01*
X015524Y016725D01*
X015412Y016613D01*
X015352Y016466D01*
X015352Y016308D01*
X015412Y016161D01*
X015524Y016049D01*
X015671Y015989D01*
X015829Y015989D01*
X015976Y016049D01*
X016088Y016161D01*
X016148Y016308D01*
X016148Y016333D01*
X016258Y016442D01*
X018939Y016442D01*
X019056Y016491D01*
X019146Y016581D01*
X019429Y016864D01*
X019454Y016864D01*
X019601Y016924D01*
X019713Y017036D01*
X019773Y017183D01*
X019773Y017341D01*
X019713Y017488D01*
X019601Y017600D01*
X019454Y017660D01*
X019296Y017660D01*
X019149Y017600D01*
X019037Y017488D01*
X018977Y017341D01*
X018977Y017316D01*
X018742Y017082D01*
X018384Y017082D01*
X018458Y017156D01*
X018540Y017355D01*
X018540Y018169D01*
X018458Y018368D01*
X018306Y018520D01*
X018107Y018602D01*
X017893Y018602D01*
X017694Y018520D01*
X017542Y018368D01*
X017500Y018266D01*
X017458Y018368D01*
X017306Y018520D01*
X017107Y018602D01*
X016893Y018602D01*
X016694Y018520D01*
X016542Y018368D01*
X016500Y018266D01*
X016458Y018368D01*
X016306Y018520D01*
X016107Y018602D01*
X015893Y018602D01*
X015694Y018520D01*
X015542Y018368D01*
X015465Y018183D01*
X015445Y018246D01*
X015411Y018314D01*
X015366Y018375D01*
X015313Y018428D01*
X015252Y018473D01*
X015184Y018507D01*
X015112Y018530D01*
X015038Y018542D01*
X015020Y018542D01*
X015020Y017782D01*
X014980Y017782D01*
X014980Y018542D01*
X014962Y018542D01*
X014888Y018530D01*
X014816Y018507D01*
X014748Y018473D01*
X014687Y018428D01*
X014634Y018375D01*
X014589Y018314D01*
X014555Y018246D01*
X014532Y018174D01*
X014520Y018100D01*
X014520Y017782D01*
X014520Y017742D02*
X014520Y017424D01*
X014532Y017350D01*
X014555Y017278D01*
X014589Y017210D01*
X014634Y017149D01*
X014687Y017096D01*
X014748Y017051D01*
X014816Y017017D01*
X014888Y016994D01*
X014962Y016982D01*
X014980Y016982D01*
X014980Y017742D01*
X014520Y017742D01*
X014520Y017702D02*
X004749Y017702D01*
X004866Y017543D02*
X014520Y017543D01*
X014526Y017385D02*
X004898Y017385D01*
X004865Y017226D02*
X014581Y017226D01*
X014726Y017068D02*
X011383Y017068D01*
X011495Y016909D02*
X015819Y016909D01*
X015631Y017068D02*
X015274Y017068D01*
X015419Y017226D02*
X015513Y017226D01*
X015020Y017226D02*
X014980Y017226D01*
X014980Y017068D02*
X015020Y017068D01*
X015020Y017385D02*
X014980Y017385D01*
X014980Y017543D02*
X015020Y017543D01*
X015020Y017702D02*
X014980Y017702D01*
X014980Y017860D02*
X015020Y017860D01*
X015020Y018019D02*
X014980Y018019D01*
X014980Y018177D02*
X015020Y018177D01*
X015020Y018336D02*
X014980Y018336D01*
X014980Y018495D02*
X015020Y018495D01*
X015208Y018495D02*
X015669Y018495D01*
X015529Y018336D02*
X015394Y018336D01*
X014792Y018495D02*
X000375Y018495D01*
X000375Y018653D02*
X018865Y018653D01*
X018865Y018736D02*
X018865Y018538D01*
X018941Y018354D01*
X019082Y018213D01*
X019266Y018137D01*
X019984Y018137D01*
X020168Y018213D01*
X020232Y018277D01*
X020476Y018277D01*
X021085Y017668D01*
X021085Y017105D01*
X021167Y016906D01*
X021319Y016754D01*
X021518Y016672D01*
X021732Y016672D01*
X021931Y016754D01*
X022083Y016906D01*
X022125Y017008D01*
X022167Y016906D01*
X022319Y016754D01*
X022518Y016672D01*
X022732Y016672D01*
X022931Y016754D01*
X023079Y016902D01*
X025072Y016902D01*
X025204Y016957D01*
X025305Y017058D01*
X025680Y017433D01*
X025735Y017565D01*
X025735Y017683D01*
X025833Y017781D01*
X025909Y017966D01*
X025930Y017903D01*
X025964Y017835D01*
X026009Y017774D01*
X026062Y017721D01*
X026123Y017676D01*
X026191Y017642D01*
X026263Y017619D01*
X026337Y017607D01*
X026355Y017607D01*
X026355Y018367D01*
X026395Y018367D01*
X026395Y018407D01*
X026855Y018407D01*
X026855Y018725D01*
X026843Y018799D01*
X026820Y018871D01*
X026786Y018939D01*
X026741Y019000D01*
X026688Y019053D01*
X026627Y019098D01*
X026559Y019132D01*
X026487Y019155D01*
X026413Y019167D01*
X026395Y019167D01*
X026395Y018407D01*
X026355Y018407D01*
X026355Y019167D01*
X026337Y019167D01*
X026263Y019155D01*
X026191Y019132D01*
X026123Y019098D01*
X026062Y019053D01*
X026009Y019000D01*
X025964Y018939D01*
X025930Y018871D01*
X025909Y018808D01*
X025833Y018993D01*
X025681Y019145D01*
X025482Y019227D01*
X025268Y019227D01*
X025069Y019145D01*
X024917Y018993D01*
X024875Y018891D01*
X024833Y018993D01*
X024681Y019145D01*
X024482Y019227D01*
X024268Y019227D01*
X024069Y019145D01*
X023917Y018993D01*
X023835Y018794D01*
X023835Y017980D01*
X023917Y017781D01*
X024069Y017629D01*
X024087Y017622D01*
X023165Y017622D01*
X023165Y017919D01*
X023083Y018118D01*
X023040Y018160D01*
X023168Y018213D01*
X023309Y018354D01*
X023385Y018538D01*
X023385Y018736D01*
X023309Y018920D01*
X023168Y019061D01*
X022984Y019137D01*
X022266Y019137D01*
X022082Y019061D01*
X021941Y018920D01*
X021865Y018736D01*
X021865Y018538D01*
X021941Y018354D01*
X022082Y018213D01*
X022210Y018160D01*
X022167Y018118D01*
X022125Y018016D01*
X022083Y018118D01*
X021931Y018270D01*
X021732Y018352D01*
X021518Y018352D01*
X021448Y018323D01*
X020930Y018841D01*
X020829Y018942D01*
X020697Y018997D01*
X020232Y018997D01*
X020168Y019061D01*
X019984Y019137D01*
X019266Y019137D01*
X019082Y019061D01*
X018941Y018920D01*
X018865Y018736D01*
X018896Y018812D02*
X000375Y018812D01*
X000375Y018970D02*
X018991Y018970D01*
X019245Y019129D02*
X000375Y019129D01*
X000375Y019287D02*
X038625Y019287D01*
X038625Y019387D02*
X000375Y019387D01*
X000375Y000512D01*
X038625Y000512D01*
X038625Y019387D01*
X038625Y019129D02*
X033447Y019129D01*
X033431Y019145D02*
X033232Y019227D01*
X033018Y019227D01*
X032819Y019145D01*
X032667Y018993D01*
X032625Y018891D01*
X032583Y018993D01*
X032431Y019145D01*
X032232Y019227D01*
X032018Y019227D01*
X031819Y019145D01*
X031667Y018993D01*
X031625Y018891D01*
X031583Y018993D01*
X031431Y019145D01*
X031232Y019227D01*
X031018Y019227D01*
X030819Y019145D01*
X030667Y018993D01*
X030585Y018794D01*
X030585Y017980D01*
X030667Y017781D01*
X030819Y017629D01*
X031018Y017547D01*
X031232Y017547D01*
X031431Y017629D01*
X031583Y017781D01*
X031625Y017883D01*
X031667Y017781D01*
X031819Y017629D01*
X032018Y017547D01*
X032232Y017547D01*
X032431Y017629D01*
X032583Y017781D01*
X032625Y017883D01*
X032667Y017781D01*
X032765Y017683D01*
X032765Y016286D01*
X032347Y015868D01*
X031931Y016283D01*
X031814Y016332D01*
X031686Y016332D01*
X016868Y016332D01*
X016851Y016350D01*
X016704Y016410D01*
X016546Y016410D01*
X016399Y016350D01*
X016287Y016238D01*
X016227Y016091D01*
X016227Y015933D01*
X016287Y015786D01*
X016399Y015674D01*
X016546Y015614D01*
X016704Y015614D01*
X016851Y015674D01*
X016852Y015675D01*
X016852Y015558D01*
X016912Y015411D01*
X017024Y015299D01*
X017171Y015239D01*
X017329Y015239D01*
X017476Y015299D01*
X017493Y015317D01*
X022757Y015317D01*
X022774Y015299D01*
X022921Y015239D01*
X023079Y015239D01*
X023226Y015299D01*
X023338Y015411D01*
X023398Y015558D01*
X023398Y015692D01*
X031617Y015692D01*
X032000Y015309D01*
X032000Y015055D01*
X032100Y014955D01*
X032100Y014069D01*
X032000Y013969D01*
X032000Y013555D01*
X032100Y013455D01*
X032100Y012569D01*
X032000Y012469D01*
X032000Y012055D01*
X032100Y011955D01*
X032100Y011069D01*
X032000Y010969D01*
X032000Y010555D01*
X032100Y010455D01*
X032100Y009569D01*
X032000Y009469D01*
X032000Y009090D01*
X031806Y009283D01*
X031782Y009293D01*
X031726Y009350D01*
X031579Y009410D01*
X031421Y009410D01*
X031274Y009350D01*
X031162Y009238D01*
X031102Y009091D01*
X031102Y008933D01*
X031162Y008786D01*
X031274Y008674D01*
X031421Y008614D01*
X031571Y008614D01*
X031854Y008331D01*
X031944Y008241D01*
X032061Y008192D01*
X032100Y008192D01*
X032100Y008069D01*
X032000Y007969D01*
X032000Y007555D01*
X024897Y007555D01*
X024898Y007558D02*
X024898Y007716D01*
X024838Y007863D01*
X024820Y007880D01*
X025306Y008366D01*
X025306Y008366D01*
X025396Y008456D01*
X025445Y008573D01*
X025445Y009405D01*
X025546Y009364D01*
X025704Y009364D01*
X025851Y009424D01*
X025868Y009442D01*
X028064Y009442D01*
X028181Y009491D01*
X028271Y009581D01*
X028883Y010192D01*
X029064Y010192D01*
X029181Y010241D01*
X029271Y010331D01*
X031771Y012831D01*
X031820Y012948D01*
X031820Y013076D01*
X031820Y014269D01*
X031838Y014286D01*
X031898Y014433D01*
X031898Y014591D01*
X031838Y014738D01*
X031726Y014850D01*
X031579Y014910D01*
X031421Y014910D01*
X031274Y014850D01*
X031162Y014738D01*
X031102Y014591D01*
X031102Y014433D01*
X031162Y014286D01*
X031180Y014269D01*
X031180Y013145D01*
X028867Y010832D01*
X028814Y010832D01*
X028686Y010832D01*
X028569Y010783D01*
X027867Y010082D01*
X025868Y010082D01*
X025851Y010100D01*
X025704Y010160D01*
X025546Y010160D01*
X025445Y010119D01*
X025445Y013894D01*
X025463Y013911D01*
X025523Y014058D01*
X025523Y014216D01*
X025463Y014363D01*
X025351Y014475D01*
X025204Y014535D01*
X025046Y014535D01*
X024899Y014475D01*
X024787Y014363D01*
X024727Y014216D01*
X024727Y014058D01*
X024787Y013911D01*
X024805Y013894D01*
X024805Y008770D01*
X024319Y008283D01*
X024319Y008283D01*
X024273Y008238D01*
X024273Y008341D01*
X024213Y008488D01*
X024101Y008600D01*
X023954Y008660D01*
X023796Y008660D01*
X023649Y008600D01*
X023632Y008582D01*
X022883Y008582D01*
X022820Y008645D01*
X022820Y008989D01*
X022954Y008989D01*
X023101Y009049D01*
X023213Y009161D01*
X023273Y009308D01*
X023273Y009466D01*
X023213Y009613D01*
X023195Y009630D01*
X023195Y011019D01*
X023213Y011036D01*
X023273Y011183D01*
X023273Y011341D01*
X023213Y011488D01*
X023101Y011600D01*
X022954Y011660D01*
X022929Y011660D01*
X022896Y011693D01*
X022806Y011783D01*
X022689Y011832D01*
X019689Y011832D01*
X019561Y011832D01*
X019444Y011783D01*
X019196Y011535D01*
X019171Y011535D01*
X019024Y011475D01*
X018912Y011363D01*
X018852Y011216D01*
X018852Y011058D01*
X018912Y010911D01*
X019024Y010799D01*
X019171Y010739D01*
X019329Y010739D01*
X019476Y010799D01*
X019588Y010911D01*
X019648Y011058D01*
X019648Y011083D01*
X019758Y011192D01*
X021143Y011192D01*
X021102Y011091D01*
X021102Y010933D01*
X021162Y010786D01*
X021274Y010674D01*
X021421Y010614D01*
X021579Y010614D01*
X021726Y010674D01*
X021743Y010692D01*
X022117Y010692D01*
X022180Y010629D01*
X022180Y008448D01*
X022229Y008331D01*
X022319Y008241D01*
X022569Y007991D01*
X022686Y007942D01*
X022814Y007942D01*
X023632Y007942D01*
X023649Y007924D01*
X023796Y007864D01*
X023954Y007864D01*
X024101Y007924D01*
X024180Y008004D01*
X024180Y007880D01*
X024162Y007863D01*
X024102Y007716D01*
X024102Y007558D01*
X024162Y007411D01*
X024274Y007299D01*
X024421Y007239D01*
X024579Y007239D01*
X024726Y007299D01*
X024838Y007411D01*
X024898Y007558D01*
X024898Y007714D02*
X032000Y007714D01*
X032000Y007872D02*
X024828Y007872D01*
X024971Y008031D02*
X032062Y008031D01*
X032100Y008189D02*
X025130Y008189D01*
X025288Y008348D02*
X031837Y008348D01*
X031678Y008506D02*
X025417Y008506D01*
X025445Y008665D02*
X031297Y008665D01*
X031147Y008823D02*
X025445Y008823D01*
X025445Y008982D02*
X031102Y008982D01*
X031122Y009140D02*
X025445Y009140D01*
X025445Y009299D02*
X031224Y009299D01*
X031500Y009012D02*
X031625Y009012D01*
X032125Y008512D01*
X032500Y008512D01*
X032900Y008506D02*
X038625Y008506D01*
X038625Y008348D02*
X032900Y008348D01*
X032900Y008189D02*
X037305Y008189D01*
X037318Y008202D02*
X037060Y007944D01*
X037060Y007762D01*
X037060Y007580D01*
X037318Y007322D01*
X037500Y007322D01*
X037682Y007322D01*
X037940Y007580D01*
X037940Y007762D01*
X037940Y007944D01*
X037682Y008202D01*
X037500Y008202D01*
X037500Y007762D01*
X037500Y007322D01*
X037500Y007762D01*
X037500Y007762D01*
X037940Y007762D01*
X037500Y007762D01*
X037500Y007762D01*
X037500Y007762D01*
X037060Y007762D01*
X037500Y007762D01*
X037500Y007762D01*
X037500Y008202D01*
X037318Y008202D01*
X037500Y008189D02*
X037500Y008189D01*
X037500Y008031D02*
X037500Y008031D01*
X037500Y007872D02*
X037500Y007872D01*
X037500Y007714D02*
X037500Y007714D01*
X037500Y007555D02*
X037500Y007555D01*
X037500Y007396D02*
X037500Y007396D01*
X037757Y007396D02*
X038625Y007396D01*
X038625Y007238D02*
X032900Y007238D01*
X032900Y007396D02*
X037243Y007396D01*
X037085Y007555D02*
X033000Y007555D01*
X033000Y007969D01*
X032900Y008069D01*
X032900Y008592D01*
X032900Y008955D01*
X033000Y009055D01*
X033000Y009469D01*
X032900Y009569D01*
X032900Y010455D01*
X033000Y010555D01*
X033000Y010969D01*
X032900Y011069D01*
X032900Y011955D01*
X033000Y012055D01*
X033000Y012469D01*
X032900Y012569D01*
X032900Y013455D01*
X033000Y013555D01*
X033000Y013969D01*
X032900Y014069D01*
X032900Y014955D01*
X033000Y015055D01*
X033000Y015469D01*
X032983Y015486D01*
X033329Y015832D01*
X033430Y015933D01*
X033485Y016065D01*
X033485Y017683D01*
X033583Y017781D01*
X033665Y017980D01*
X033665Y018794D01*
X033583Y018993D01*
X033431Y019145D01*
X033592Y018970D02*
X038625Y018970D01*
X038625Y018812D02*
X037689Y018812D01*
X037709Y018805D02*
X037623Y018833D01*
X037540Y018846D01*
X037540Y017937D01*
X038060Y017937D01*
X038060Y018322D01*
X038046Y018411D01*
X038018Y018496D01*
X037977Y018576D01*
X037925Y018648D01*
X037861Y018712D01*
X037789Y018765D01*
X037709Y018805D01*
X037540Y018812D02*
X037440Y018812D01*
X037440Y018846D02*
X037356Y018833D01*
X037271Y018805D01*
X037191Y018765D01*
X037119Y018712D01*
X037055Y018648D01*
X037002Y018576D01*
X036962Y018496D01*
X036934Y018411D01*
X036920Y018322D01*
X036920Y017937D01*
X037440Y017937D01*
X037440Y017837D01*
X037540Y017837D01*
X037540Y017937D01*
X037440Y017937D01*
X037440Y018846D01*
X037291Y018812D02*
X035866Y018812D01*
X035867Y018811D02*
X035635Y018907D01*
X035385Y018907D01*
X035153Y018811D01*
X034976Y018634D01*
X034880Y018402D01*
X034880Y017372D01*
X034976Y017140D01*
X035153Y016963D01*
X035385Y016867D01*
X035635Y016867D01*
X035867Y016963D01*
X036044Y017140D01*
X036140Y017372D01*
X036140Y018402D01*
X036044Y018634D01*
X035867Y018811D01*
X036025Y018653D02*
X037060Y018653D01*
X036961Y018495D02*
X036102Y018495D01*
X036140Y018336D02*
X036922Y018336D01*
X036920Y018177D02*
X036140Y018177D01*
X036140Y018019D02*
X036920Y018019D01*
X036920Y017837D02*
X036920Y017452D01*
X036934Y017364D01*
X036962Y017278D01*
X037002Y017198D01*
X037055Y017126D01*
X037119Y017062D01*
X037191Y017010D01*
X037271Y016969D01*
X037356Y016941D01*
X037440Y016928D01*
X037440Y017837D01*
X036920Y017837D01*
X036920Y017702D02*
X036140Y017702D01*
X036140Y017860D02*
X037440Y017860D01*
X037540Y017860D02*
X038625Y017860D01*
X038625Y017702D02*
X038060Y017702D01*
X038060Y017837D02*
X037540Y017837D01*
X037540Y016928D01*
X037623Y016941D01*
X037709Y016969D01*
X037789Y017010D01*
X037861Y017062D01*
X037925Y017126D01*
X037977Y017198D01*
X038018Y017278D01*
X038046Y017364D01*
X038060Y017452D01*
X038060Y017837D01*
X038060Y018019D02*
X038625Y018019D01*
X038625Y018177D02*
X038060Y018177D01*
X038058Y018336D02*
X038625Y018336D01*
X038625Y018495D02*
X038019Y018495D01*
X037920Y018653D02*
X038625Y018653D01*
X037540Y018653D02*
X037440Y018653D01*
X037440Y018495D02*
X037540Y018495D01*
X037540Y018336D02*
X037440Y018336D01*
X037440Y018177D02*
X037540Y018177D01*
X037540Y018019D02*
X037440Y018019D01*
X037440Y017702D02*
X037540Y017702D01*
X037540Y017543D02*
X037440Y017543D01*
X037440Y017385D02*
X037540Y017385D01*
X037540Y017226D02*
X037440Y017226D01*
X037440Y017068D02*
X037540Y017068D01*
X037867Y017068D02*
X038625Y017068D01*
X038625Y017226D02*
X037992Y017226D01*
X038049Y017385D02*
X038625Y017385D01*
X038625Y017543D02*
X038060Y017543D01*
X038625Y016909D02*
X035737Y016909D01*
X035972Y017068D02*
X037113Y017068D01*
X036988Y017226D02*
X036080Y017226D01*
X036140Y017385D02*
X036931Y017385D01*
X036920Y017543D02*
X036140Y017543D01*
X035283Y016909D02*
X033485Y016909D01*
X033485Y016751D02*
X038625Y016751D01*
X038625Y016592D02*
X033485Y016592D01*
X033485Y016433D02*
X038625Y016433D01*
X038625Y016275D02*
X033485Y016275D01*
X033485Y016116D02*
X038625Y016116D01*
X038625Y015958D02*
X033440Y015958D01*
X033296Y015799D02*
X038625Y015799D01*
X038625Y015641D02*
X037743Y015641D01*
X037682Y015702D02*
X037500Y015702D01*
X037500Y015262D01*
X037500Y014822D01*
X037682Y014822D01*
X037940Y015080D01*
X037940Y015262D01*
X037940Y015444D01*
X037682Y015702D01*
X037500Y015702D02*
X037318Y015702D01*
X037060Y015444D01*
X037060Y015262D01*
X037060Y015080D01*
X037318Y014822D01*
X037500Y014822D01*
X037500Y015262D01*
X037500Y015262D01*
X037940Y015262D01*
X037500Y015262D01*
X037500Y015262D01*
X037500Y015262D01*
X037060Y015262D01*
X037500Y015262D01*
X037500Y015262D01*
X037500Y015702D01*
X037500Y015641D02*
X037500Y015641D01*
X037500Y015482D02*
X037500Y015482D01*
X037500Y015324D02*
X037500Y015324D01*
X037500Y015165D02*
X037500Y015165D01*
X037500Y015007D02*
X037500Y015007D01*
X037500Y014848D02*
X037500Y014848D01*
X037708Y014848D02*
X038625Y014848D01*
X038625Y014689D02*
X032900Y014689D01*
X032900Y014531D02*
X038625Y014531D01*
X038625Y014372D02*
X032900Y014372D01*
X032900Y014214D02*
X038625Y014214D01*
X038625Y014055D02*
X037829Y014055D01*
X037940Y013944D02*
X037682Y014202D01*
X037500Y014202D01*
X037500Y013762D01*
X037500Y013322D01*
X037682Y013322D01*
X037940Y013580D01*
X037940Y013762D01*
X037940Y013944D01*
X037940Y013897D02*
X038625Y013897D01*
X038625Y013738D02*
X037940Y013738D01*
X037940Y013762D02*
X037500Y013762D01*
X037500Y013762D01*
X037940Y013762D01*
X037940Y013580D02*
X038625Y013580D01*
X038625Y013421D02*
X037781Y013421D01*
X037500Y013421D02*
X037500Y013421D01*
X037500Y013322D02*
X037500Y013762D01*
X037500Y013762D01*
X037500Y013762D01*
X037060Y013762D01*
X037060Y013580D01*
X037318Y013322D01*
X037500Y013322D01*
X037500Y013580D02*
X037500Y013580D01*
X037500Y013738D02*
X037500Y013738D01*
X037500Y013762D02*
X037500Y013762D01*
X037060Y013762D01*
X037060Y013944D01*
X037318Y014202D01*
X037500Y014202D01*
X037500Y013762D01*
X037500Y013897D02*
X037500Y013897D01*
X037500Y014055D02*
X037500Y014055D01*
X037171Y014055D02*
X032914Y014055D01*
X033000Y013897D02*
X037060Y013897D01*
X037060Y013738D02*
X033000Y013738D01*
X033000Y013580D02*
X037060Y013580D01*
X037219Y013421D02*
X032900Y013421D01*
X032900Y013263D02*
X038625Y013263D01*
X038625Y013104D02*
X032900Y013104D01*
X032900Y012946D02*
X038625Y012946D01*
X038625Y012787D02*
X032900Y012787D01*
X032900Y012628D02*
X037244Y012628D01*
X037318Y012702D02*
X037060Y012444D01*
X037060Y012262D01*
X037060Y012080D01*
X037318Y011822D01*
X037500Y011822D01*
X037682Y011822D01*
X037940Y012080D01*
X037940Y012262D01*
X037940Y012444D01*
X037682Y012702D01*
X037500Y012702D01*
X037500Y012262D01*
X037500Y011822D01*
X037500Y012262D01*
X037500Y012262D01*
X037940Y012262D01*
X037500Y012262D01*
X037500Y012262D01*
X037500Y012262D01*
X037060Y012262D01*
X037500Y012262D01*
X037500Y012262D01*
X037500Y012702D01*
X037318Y012702D01*
X037500Y012628D02*
X037500Y012628D01*
X037500Y012470D02*
X037500Y012470D01*
X037500Y012311D02*
X037500Y012311D01*
X037500Y012153D02*
X037500Y012153D01*
X037500Y011994D02*
X037500Y011994D01*
X037500Y011836D02*
X037500Y011836D01*
X037696Y011836D02*
X038625Y011836D01*
X038625Y011994D02*
X037854Y011994D01*
X037940Y012153D02*
X038625Y012153D01*
X038625Y012311D02*
X037940Y012311D01*
X037914Y012470D02*
X038625Y012470D01*
X038625Y012628D02*
X037756Y012628D01*
X037086Y012470D02*
X032999Y012470D01*
X033000Y012311D02*
X037060Y012311D01*
X037060Y012153D02*
X033000Y012153D01*
X032939Y011994D02*
X037146Y011994D01*
X037304Y011836D02*
X032900Y011836D01*
X032900Y011677D02*
X038625Y011677D01*
X038625Y011519D02*
X032900Y011519D01*
X032900Y011360D02*
X038625Y011360D01*
X038625Y011202D02*
X037683Y011202D01*
X037682Y011202D02*
X037500Y011202D01*
X037500Y010762D01*
X037500Y010322D01*
X037682Y010322D01*
X037940Y010580D01*
X037940Y010762D01*
X037940Y010944D01*
X037682Y011202D01*
X037500Y011202D02*
X037500Y011202D01*
X037318Y011202D01*
X037060Y010944D01*
X037060Y010762D01*
X037060Y010580D01*
X037318Y010322D01*
X037500Y010322D01*
X037500Y010762D01*
X037500Y010762D01*
X037940Y010762D01*
X037500Y010762D01*
X037500Y010762D01*
X037500Y010762D01*
X037060Y010762D01*
X037500Y010762D01*
X037500Y010762D01*
X037500Y011202D01*
X037500Y011043D02*
X037500Y011043D01*
X037500Y010884D02*
X037500Y010884D01*
X037500Y010726D02*
X037500Y010726D01*
X037500Y010567D02*
X037500Y010567D01*
X037500Y010409D02*
X037500Y010409D01*
X037769Y010409D02*
X038625Y010409D01*
X038625Y010567D02*
X037928Y010567D01*
X037940Y010726D02*
X038625Y010726D01*
X038625Y010884D02*
X037940Y010884D01*
X037841Y011043D02*
X038625Y011043D01*
X038625Y010250D02*
X032900Y010250D01*
X032900Y010092D02*
X038625Y010092D01*
X038625Y009933D02*
X032900Y009933D01*
X032900Y009775D02*
X038625Y009775D01*
X038625Y009616D02*
X037768Y009616D01*
X037682Y009702D02*
X037500Y009702D01*
X037500Y009262D01*
X037500Y008822D01*
X037682Y008822D01*
X037940Y009080D01*
X037940Y009262D01*
X037940Y009444D01*
X037682Y009702D01*
X037500Y009702D02*
X037500Y009262D01*
X037500Y009262D01*
X037940Y009262D01*
X037500Y009262D01*
X037500Y009262D01*
X037500Y008822D01*
X037318Y008822D01*
X037060Y009080D01*
X037060Y009262D01*
X037500Y009262D01*
X037500Y009262D01*
X037500Y009262D01*
X037060Y009262D01*
X037060Y009444D01*
X037318Y009702D01*
X037500Y009702D01*
X037500Y009616D02*
X037500Y009616D01*
X037500Y009458D02*
X037500Y009458D01*
X037500Y009299D02*
X037500Y009299D01*
X037500Y009140D02*
X037500Y009140D01*
X037500Y008982D02*
X037500Y008982D01*
X037500Y008823D02*
X037500Y008823D01*
X037684Y008823D02*
X038625Y008823D01*
X038625Y008665D02*
X032900Y008665D01*
X032900Y008823D02*
X037316Y008823D01*
X037158Y008982D02*
X032927Y008982D01*
X033000Y009140D02*
X037060Y009140D01*
X037060Y009299D02*
X033000Y009299D01*
X033000Y009458D02*
X037073Y009458D01*
X037232Y009616D02*
X032900Y009616D01*
X032100Y009616D02*
X028307Y009616D01*
X028465Y009775D02*
X032100Y009775D01*
X032100Y009933D02*
X028624Y009933D01*
X028782Y010092D02*
X032100Y010092D01*
X032100Y010250D02*
X029191Y010250D01*
X029349Y010409D02*
X032100Y010409D01*
X032000Y010567D02*
X029508Y010567D01*
X029666Y010726D02*
X032000Y010726D01*
X032000Y010884D02*
X029825Y010884D01*
X029984Y011043D02*
X032074Y011043D01*
X032100Y011202D02*
X030142Y011202D01*
X030301Y011360D02*
X032100Y011360D01*
X032100Y011519D02*
X030459Y011519D01*
X030618Y011677D02*
X032100Y011677D01*
X032100Y011836D02*
X030776Y011836D01*
X030935Y011994D02*
X032061Y011994D01*
X032000Y012153D02*
X031093Y012153D01*
X031252Y012311D02*
X032000Y012311D01*
X032001Y012470D02*
X031410Y012470D01*
X031569Y012628D02*
X032100Y012628D01*
X032100Y012787D02*
X031727Y012787D01*
X031819Y012946D02*
X032100Y012946D01*
X032100Y013104D02*
X031820Y013104D01*
X031820Y013263D02*
X032100Y013263D01*
X032100Y013421D02*
X031820Y013421D01*
X031820Y013580D02*
X032000Y013580D01*
X032000Y013738D02*
X031820Y013738D01*
X031820Y013897D02*
X032000Y013897D01*
X032086Y014055D02*
X031820Y014055D01*
X031820Y014214D02*
X032100Y014214D01*
X032100Y014372D02*
X031873Y014372D01*
X031898Y014531D02*
X032100Y014531D01*
X032100Y014689D02*
X031858Y014689D01*
X031727Y014848D02*
X032100Y014848D01*
X032048Y015007D02*
X011445Y015007D01*
X011445Y015165D02*
X032000Y015165D01*
X031986Y015324D02*
X023250Y015324D01*
X023367Y015482D02*
X031827Y015482D01*
X031669Y015641D02*
X023398Y015641D01*
X023000Y015637D02*
X017250Y015637D01*
X016883Y015482D02*
X011445Y015482D01*
X011445Y015324D02*
X017000Y015324D01*
X016852Y015641D02*
X016770Y015641D01*
X016480Y015641D02*
X011445Y015641D01*
X011445Y015799D02*
X016282Y015799D01*
X016227Y015958D02*
X011445Y015958D01*
X011445Y016116D02*
X015457Y016116D01*
X015365Y016275D02*
X011445Y016275D01*
X011445Y016433D02*
X015352Y016433D01*
X015404Y016592D02*
X011486Y016592D01*
X011523Y016751D02*
X015587Y016751D01*
X015750Y016387D02*
X016125Y016762D01*
X018875Y016762D01*
X019375Y017262D01*
X019657Y017543D02*
X021085Y017543D01*
X021085Y017385D02*
X019755Y017385D01*
X019773Y017226D02*
X021085Y017226D01*
X021100Y017068D02*
X019726Y017068D01*
X019564Y016909D02*
X021166Y016909D01*
X021328Y016751D02*
X019316Y016751D01*
X019158Y016592D02*
X032765Y016592D01*
X032765Y016751D02*
X022922Y016751D01*
X022328Y016751D02*
X021922Y016751D01*
X022084Y016909D02*
X022166Y016909D01*
X023165Y017702D02*
X023997Y017702D01*
X023884Y017860D02*
X023165Y017860D01*
X023124Y018019D02*
X023835Y018019D01*
X023835Y018177D02*
X023082Y018177D01*
X023291Y018336D02*
X023835Y018336D01*
X023835Y018495D02*
X023367Y018495D01*
X023385Y018653D02*
X023835Y018653D01*
X023842Y018812D02*
X023354Y018812D01*
X023259Y018970D02*
X023908Y018970D01*
X024053Y019129D02*
X023005Y019129D01*
X022245Y019129D02*
X020005Y019129D01*
X020761Y018970D02*
X021991Y018970D01*
X021896Y018812D02*
X020959Y018812D01*
X021118Y018653D02*
X021865Y018653D01*
X021883Y018495D02*
X021277Y018495D01*
X021435Y018336D02*
X021479Y018336D01*
X021771Y018336D02*
X021959Y018336D01*
X022023Y018177D02*
X022168Y018177D01*
X022126Y018019D02*
X022124Y018019D01*
X021051Y017702D02*
X018540Y017702D01*
X018540Y017860D02*
X020893Y017860D01*
X020734Y018019D02*
X018540Y018019D01*
X018537Y018177D02*
X019168Y018177D01*
X018959Y018336D02*
X018471Y018336D01*
X018331Y018495D02*
X018883Y018495D01*
X017669Y018495D02*
X017331Y018495D01*
X017471Y018336D02*
X017529Y018336D01*
X016669Y018495D02*
X016331Y018495D01*
X016471Y018336D02*
X016529Y018336D01*
X014606Y018336D02*
X000375Y018336D01*
X000375Y018177D02*
X014533Y018177D01*
X014520Y018019D02*
X000375Y018019D01*
X000375Y016909D02*
X001140Y016909D01*
X001140Y016751D02*
X000375Y016751D01*
X000375Y016592D02*
X001140Y016592D01*
X001140Y016433D02*
X000375Y016433D01*
X000375Y016275D02*
X001140Y016275D01*
X001140Y016116D02*
X000375Y016116D01*
X000375Y015958D02*
X001140Y015958D01*
X001140Y015799D02*
X000375Y015799D01*
X000375Y015641D02*
X001140Y015641D01*
X001140Y015482D02*
X000375Y015482D01*
X000375Y015324D02*
X001140Y015324D01*
X001140Y015165D02*
X000375Y015165D01*
X000375Y015007D02*
X001140Y015007D01*
X001140Y014848D02*
X000375Y014848D01*
X000375Y014689D02*
X001140Y014689D01*
X001140Y014531D02*
X000375Y014531D01*
X000375Y014372D02*
X001140Y014372D01*
X001140Y014214D02*
X000375Y014214D01*
X000375Y014055D02*
X001140Y014055D01*
X001140Y013897D02*
X000375Y013897D01*
X000375Y013738D02*
X001140Y013738D01*
X001140Y013580D02*
X000375Y013580D01*
X000375Y013421D02*
X001140Y013421D01*
X001140Y013263D02*
X000375Y013263D01*
X000375Y013104D02*
X001140Y013104D01*
X000870Y012946D02*
X000375Y012946D01*
X000375Y012787D02*
X000729Y012787D01*
X000664Y012628D02*
X000375Y012628D01*
X000375Y012470D02*
X000660Y012470D01*
X000699Y012311D02*
X000375Y012311D01*
X000375Y012153D02*
X000796Y012153D01*
X001039Y011994D02*
X000375Y011994D01*
X000375Y011836D02*
X000845Y011836D01*
X000749Y011677D02*
X000375Y011677D01*
X000375Y011519D02*
X001480Y011519D01*
X001500Y011512D02*
X002375Y011512D01*
X003375Y014262D01*
X001860Y014214D02*
X007265Y014214D01*
X007287Y014161D02*
X007312Y014137D01*
X007287Y014113D01*
X007227Y013966D01*
X007227Y013808D01*
X007268Y013707D01*
X005689Y013707D01*
X005561Y013707D01*
X005444Y013658D01*
X003979Y012193D01*
X003930Y012076D01*
X003930Y011948D01*
X003930Y008582D01*
X003064Y008582D01*
X002936Y008582D01*
X002819Y008533D01*
X002729Y008443D01*
X002680Y008326D01*
X002680Y006255D01*
X002662Y006238D01*
X002602Y006091D01*
X002602Y005933D01*
X002662Y005786D01*
X002774Y005674D01*
X002921Y005614D01*
X003079Y005614D01*
X003226Y005674D01*
X003338Y005786D01*
X003398Y005933D01*
X003398Y006091D01*
X003338Y006238D01*
X003320Y006255D01*
X003320Y007942D01*
X004305Y007942D01*
X004305Y007005D01*
X004287Y006988D01*
X004227Y006841D01*
X004227Y006683D01*
X004287Y006536D01*
X004399Y006424D01*
X004546Y006364D01*
X004704Y006364D01*
X004851Y006424D01*
X004963Y006536D01*
X005023Y006683D01*
X005023Y006841D01*
X004963Y006988D01*
X004945Y007005D01*
X004945Y011629D01*
X006008Y012692D01*
X009007Y012692D01*
X009024Y012674D01*
X009171Y012614D01*
X009329Y012614D01*
X009430Y012655D01*
X009430Y008880D01*
X009412Y008863D01*
X009352Y008716D01*
X009352Y008558D01*
X009412Y008411D01*
X009524Y008299D01*
X009671Y008239D01*
X009829Y008239D01*
X009976Y008299D01*
X010088Y008411D01*
X010148Y008558D01*
X010148Y008716D01*
X010088Y008863D01*
X010070Y008880D01*
X010070Y013644D01*
X010088Y013661D01*
X010148Y013808D01*
X010148Y013966D01*
X010088Y014113D01*
X009976Y014225D01*
X009829Y014285D01*
X009671Y014285D01*
X009524Y014225D01*
X009412Y014113D01*
X009352Y013966D01*
X009352Y013808D01*
X009412Y013661D01*
X009430Y013644D01*
X009430Y013369D01*
X009329Y013410D01*
X009171Y013410D01*
X009148Y013401D01*
X009148Y013466D01*
X009088Y013613D01*
X008985Y013715D01*
X009023Y013808D01*
X009023Y013966D01*
X009014Y013989D01*
X009079Y013989D01*
X009226Y014049D01*
X009338Y014161D01*
X009398Y014308D01*
X009398Y014466D01*
X009338Y014613D01*
X009226Y014725D01*
X009079Y014785D01*
X008921Y014785D01*
X008774Y014725D01*
X008757Y014707D01*
X007868Y014707D01*
X007851Y014725D01*
X007704Y014785D01*
X007546Y014785D01*
X007399Y014725D01*
X007287Y014613D01*
X007227Y014466D01*
X007227Y014308D01*
X007287Y014161D01*
X007263Y014055D02*
X001860Y014055D01*
X001860Y013897D02*
X007227Y013897D01*
X007255Y013738D02*
X001860Y013738D01*
X001860Y013580D02*
X005365Y013580D01*
X005207Y013421D02*
X001860Y013421D01*
X001860Y013263D02*
X005048Y013263D01*
X004889Y013104D02*
X001860Y013104D01*
X002130Y012946D02*
X004731Y012946D01*
X004572Y012787D02*
X002271Y012787D01*
X002336Y012628D02*
X004414Y012628D01*
X004255Y012470D02*
X002340Y012470D01*
X002301Y012311D02*
X004097Y012311D01*
X003962Y012153D02*
X002204Y012153D01*
X001961Y011994D02*
X003930Y011994D01*
X003930Y011836D02*
X002155Y011836D01*
X002251Y011677D02*
X003930Y011677D01*
X003930Y011519D02*
X001520Y011519D01*
X001520Y011492D02*
X002280Y011492D01*
X002280Y011474D01*
X002268Y011400D01*
X002245Y011328D01*
X002211Y011260D01*
X002166Y011199D01*
X002113Y011146D01*
X002052Y011101D01*
X001984Y011067D01*
X001912Y011044D01*
X001838Y011032D01*
X001520Y011032D01*
X001520Y011492D01*
X001480Y011492D02*
X001480Y011032D01*
X001162Y011032D01*
X001088Y011044D01*
X001016Y011067D01*
X000948Y011101D01*
X000887Y011146D01*
X000834Y011199D01*
X000789Y011260D01*
X000755Y011328D01*
X000732Y011400D01*
X000720Y011474D01*
X000720Y011492D01*
X001480Y011492D01*
X001480Y011360D02*
X001520Y011360D01*
X001520Y011202D02*
X001480Y011202D01*
X001480Y011043D02*
X001520Y011043D01*
X001907Y011043D02*
X003930Y011043D01*
X003930Y010884D02*
X000375Y010884D01*
X000375Y010726D02*
X003930Y010726D01*
X003930Y010567D02*
X000375Y010567D01*
X000375Y010409D02*
X003930Y010409D01*
X003930Y010250D02*
X000375Y010250D01*
X000375Y010092D02*
X003930Y010092D01*
X003930Y009933D02*
X000375Y009933D01*
X000375Y009775D02*
X003930Y009775D01*
X003930Y009616D02*
X001844Y009616D01*
X001838Y009617D02*
X001520Y009617D01*
X001520Y009157D01*
X002280Y009157D01*
X002280Y009175D01*
X002268Y009249D01*
X002245Y009321D01*
X002211Y009389D01*
X002166Y009450D01*
X002113Y009503D01*
X002052Y009548D01*
X001984Y009582D01*
X001912Y009605D01*
X001838Y009617D01*
X001520Y009616D02*
X001480Y009616D01*
X001480Y009617D02*
X001162Y009617D01*
X001088Y009605D01*
X001016Y009582D01*
X000948Y009548D01*
X000887Y009503D01*
X000834Y009450D01*
X000789Y009389D01*
X000755Y009321D01*
X000732Y009249D01*
X000720Y009175D01*
X000720Y009157D01*
X001480Y009157D01*
X001480Y009617D01*
X001480Y009458D02*
X001520Y009458D01*
X001520Y009299D02*
X001480Y009299D01*
X001480Y009157D02*
X001520Y009157D01*
X001520Y009117D01*
X002280Y009117D01*
X002280Y009099D01*
X002268Y009025D01*
X002245Y008953D01*
X002211Y008885D01*
X002166Y008824D01*
X002113Y008771D01*
X002052Y008726D01*
X001984Y008692D01*
X001921Y008672D01*
X002106Y008595D01*
X002258Y008443D01*
X002340Y008244D01*
X002340Y008030D01*
X002258Y007831D01*
X002106Y007679D01*
X002004Y007637D01*
X002106Y007595D01*
X002258Y007443D01*
X002340Y007244D01*
X002340Y007030D01*
X002258Y006831D01*
X002106Y006679D01*
X001907Y006597D01*
X001093Y006597D01*
X000894Y006679D01*
X000742Y006831D01*
X000660Y007030D01*
X000660Y007244D01*
X000742Y007443D01*
X000894Y007595D01*
X000996Y007637D01*
X000894Y007679D01*
X000742Y007831D01*
X000660Y008030D01*
X000660Y008244D01*
X000742Y008443D01*
X000894Y008595D01*
X001079Y008672D01*
X001016Y008692D01*
X000948Y008726D01*
X000887Y008771D01*
X000834Y008824D01*
X000789Y008885D01*
X000755Y008953D01*
X000732Y009025D01*
X000720Y009099D01*
X000720Y009117D01*
X001480Y009117D01*
X001520Y009117D01*
X001520Y008677D01*
X001480Y008677D01*
X001480Y009117D01*
X001480Y009157D01*
X001480Y009140D02*
X000375Y009140D01*
X000375Y008982D02*
X000746Y008982D01*
X000835Y008823D02*
X000375Y008823D01*
X000375Y008665D02*
X001063Y008665D01*
X000806Y008506D02*
X000375Y008506D01*
X000375Y008348D02*
X000703Y008348D01*
X000660Y008189D02*
X000375Y008189D01*
X000375Y008031D02*
X000660Y008031D01*
X000725Y007872D02*
X000375Y007872D01*
X000375Y007714D02*
X000860Y007714D01*
X000854Y007555D02*
X000375Y007555D01*
X000375Y007396D02*
X000723Y007396D01*
X000660Y007238D02*
X000375Y007238D01*
X000375Y007079D02*
X000660Y007079D01*
X000705Y006921D02*
X000375Y006921D01*
X000375Y006762D02*
X000811Y006762D01*
X001076Y006604D02*
X000375Y006604D01*
X000375Y006445D02*
X002680Y006445D01*
X002680Y006287D02*
X000375Y006287D01*
X000375Y006128D02*
X002617Y006128D01*
X002602Y005970D02*
X000375Y005970D01*
X000375Y005811D02*
X002652Y005811D01*
X002827Y005653D02*
X000375Y005653D01*
X000375Y005494D02*
X005680Y005494D01*
X005680Y005372D02*
X002172Y005372D01*
X002079Y005410D01*
X001921Y005410D01*
X001774Y005350D01*
X001662Y005238D01*
X001602Y005091D01*
X001602Y004933D01*
X001662Y004786D01*
X001774Y004674D01*
X001921Y004614D01*
X002079Y004614D01*
X002172Y004652D01*
X005928Y004652D01*
X006328Y004652D01*
X006421Y004614D01*
X006579Y004614D01*
X006726Y004674D01*
X006838Y004786D01*
X006898Y004933D01*
X006898Y005091D01*
X006838Y005238D01*
X006726Y005350D01*
X006579Y005410D01*
X006421Y005410D01*
X006328Y005372D01*
X006320Y005372D01*
X006320Y006067D01*
X007061Y006067D01*
X007189Y006067D01*
X007306Y006116D01*
X008758Y007567D01*
X010817Y007567D01*
X010515Y007265D01*
X010515Y006759D01*
X010762Y006512D01*
X010515Y006265D01*
X010515Y005759D01*
X010762Y005512D01*
X010515Y005265D01*
X010515Y004759D01*
X010872Y004402D01*
X011378Y004402D01*
X011667Y004692D01*
X011897Y004462D01*
X012105Y004462D01*
X012105Y004992D01*
X012145Y004992D01*
X012145Y005032D01*
X012675Y005032D01*
X012675Y005222D01*
X012942Y005222D01*
X013058Y005222D01*
X013164Y005266D01*
X014539Y006641D01*
X014621Y006723D01*
X014665Y006829D01*
X014665Y010489D01*
X014713Y010536D01*
X014773Y010683D01*
X014773Y010841D01*
X014713Y010988D01*
X014601Y011100D01*
X014454Y011160D01*
X014296Y011160D01*
X014149Y011100D01*
X014037Y010988D01*
X013977Y010841D01*
X013977Y010683D01*
X014037Y010536D01*
X014085Y010489D01*
X014085Y010283D01*
X014079Y010285D01*
X013921Y010285D01*
X013898Y010276D01*
X013898Y010341D01*
X013838Y010488D01*
X013726Y010600D01*
X013579Y010660D01*
X013421Y010660D01*
X013274Y010600D01*
X013162Y010488D01*
X013102Y010341D01*
X013102Y010183D01*
X013162Y010036D01*
X013210Y009989D01*
X013210Y007257D01*
X012755Y006802D01*
X012735Y006802D01*
X012735Y007265D01*
X012445Y007555D01*
X013210Y007555D01*
X013210Y007396D02*
X012603Y007396D01*
X012735Y007238D02*
X013191Y007238D01*
X013032Y007079D02*
X012735Y007079D01*
X012735Y006921D02*
X012874Y006921D01*
X012125Y007012D02*
X012125Y007887D01*
X008625Y007887D01*
X007125Y006387D01*
X006000Y006387D01*
X006000Y005012D01*
X005680Y005372D02*
X005680Y006323D01*
X005680Y006451D01*
X005729Y006568D01*
X005819Y006658D01*
X005936Y006707D01*
X006992Y006707D01*
X008444Y008158D01*
X008561Y008207D01*
X008689Y008207D01*
X012189Y008207D01*
X012306Y008158D01*
X012396Y008068D01*
X012445Y007951D01*
X012445Y007823D01*
X012445Y007555D01*
X012445Y007714D02*
X013210Y007714D01*
X013210Y007872D02*
X012445Y007872D01*
X012412Y008031D02*
X013210Y008031D01*
X013210Y008189D02*
X012232Y008189D01*
X013210Y008348D02*
X010024Y008348D01*
X010127Y008506D02*
X010753Y008506D01*
X010997Y008506D02*
X013210Y008506D01*
X013210Y008665D02*
X011214Y008665D01*
X011273Y008823D02*
X013210Y008823D01*
X013210Y008982D02*
X011267Y008982D01*
X011185Y009140D02*
X013210Y009140D01*
X013210Y009299D02*
X010820Y009299D01*
X010820Y009458D02*
X013210Y009458D01*
X013210Y009616D02*
X010820Y009616D01*
X010820Y009775D02*
X013210Y009775D01*
X013210Y009933D02*
X010820Y009933D01*
X010820Y010092D02*
X013139Y010092D01*
X013102Y010250D02*
X010820Y010250D01*
X010820Y010409D02*
X013130Y010409D01*
X013242Y010567D02*
X010820Y010567D01*
X010820Y010726D02*
X013977Y010726D01*
X013994Y010884D02*
X010820Y010884D01*
X010820Y011043D02*
X014093Y011043D01*
X014657Y011043D02*
X017805Y011043D01*
X017805Y010884D02*
X014756Y010884D01*
X014773Y010726D02*
X016652Y010726D01*
X016649Y010725D02*
X016537Y010613D01*
X016477Y010466D01*
X016477Y010441D01*
X015821Y009785D01*
X015796Y009785D01*
X015649Y009725D01*
X015537Y009613D01*
X015477Y009466D01*
X015477Y009308D01*
X015537Y009161D01*
X015649Y009049D01*
X015796Y008989D01*
X015954Y008989D01*
X016101Y009049D01*
X016213Y009161D01*
X016273Y009308D01*
X016273Y009333D01*
X016929Y009989D01*
X016954Y009989D01*
X017101Y010049D01*
X017213Y010161D01*
X017273Y010308D01*
X017273Y010466D01*
X017213Y010613D01*
X017101Y010725D01*
X016954Y010785D01*
X016796Y010785D01*
X016649Y010725D01*
X016518Y010567D02*
X014726Y010567D01*
X014665Y010409D02*
X016444Y010409D01*
X016286Y010250D02*
X014665Y010250D01*
X014665Y010092D02*
X016127Y010092D01*
X015969Y009933D02*
X014665Y009933D01*
X014665Y009775D02*
X015770Y009775D01*
X015541Y009616D02*
X014665Y009616D01*
X014665Y009458D02*
X015477Y009458D01*
X015480Y009299D02*
X014665Y009299D01*
X014665Y009140D02*
X015558Y009140D01*
X015875Y009387D02*
X016875Y010387D01*
X017250Y010250D02*
X017805Y010250D01*
X017805Y010198D02*
X017854Y010081D01*
X018555Y009379D01*
X018555Y007076D01*
X018555Y006948D01*
X018604Y006831D01*
X020729Y004706D01*
X020819Y004616D01*
X020936Y004567D01*
X021382Y004567D01*
X021399Y004549D01*
X021546Y004489D01*
X021704Y004489D01*
X021851Y004549D01*
X021963Y004661D01*
X022023Y004808D01*
X022023Y004966D01*
X021963Y005113D01*
X021851Y005225D01*
X021704Y005285D01*
X021546Y005285D01*
X021399Y005225D01*
X021382Y005207D01*
X021133Y005207D01*
X019195Y007145D01*
X019195Y009576D01*
X019146Y009693D01*
X019056Y009783D01*
X018445Y010395D01*
X018445Y011951D01*
X018396Y012068D01*
X018306Y012158D01*
X017306Y013158D01*
X017282Y013168D01*
X017226Y013225D01*
X017079Y013285D01*
X016921Y013285D01*
X016774Y013225D01*
X016662Y013113D01*
X016602Y012966D01*
X016602Y012808D01*
X016662Y012661D01*
X016774Y012549D01*
X016921Y012489D01*
X017071Y012489D01*
X017805Y011754D01*
X017805Y010326D01*
X017805Y010198D01*
X017849Y010092D02*
X017143Y010092D01*
X016874Y009933D02*
X018001Y009933D01*
X018160Y009775D02*
X016715Y009775D01*
X016557Y009616D02*
X018318Y009616D01*
X018477Y009458D02*
X016398Y009458D01*
X016270Y009299D02*
X018555Y009299D01*
X018555Y009140D02*
X016192Y009140D01*
X014665Y008982D02*
X018555Y008982D01*
X018555Y008823D02*
X014665Y008823D01*
X014665Y008665D02*
X018555Y008665D01*
X018555Y008506D02*
X014665Y008506D01*
X014665Y008348D02*
X018555Y008348D01*
X018555Y008189D02*
X014665Y008189D01*
X014665Y008031D02*
X018555Y008031D01*
X018555Y007872D02*
X014665Y007872D01*
X014665Y007714D02*
X018555Y007714D01*
X018555Y007555D02*
X014665Y007555D01*
X014665Y007396D02*
X018555Y007396D01*
X018555Y007238D02*
X014665Y007238D01*
X014665Y007079D02*
X018555Y007079D01*
X018566Y006921D02*
X014665Y006921D01*
X014637Y006762D02*
X018672Y006762D01*
X018831Y006604D02*
X014502Y006604D01*
X014343Y006445D02*
X018989Y006445D01*
X019148Y006287D02*
X014185Y006287D01*
X014026Y006128D02*
X019306Y006128D01*
X019465Y005970D02*
X013868Y005970D01*
X013709Y005811D02*
X019623Y005811D01*
X019782Y005653D02*
X013551Y005653D01*
X013392Y005494D02*
X019940Y005494D01*
X020099Y005335D02*
X013234Y005335D01*
X012875Y005012D02*
X012875Y001762D01*
X012000Y001762D01*
X012020Y001742D02*
X012020Y001282D01*
X012338Y001282D01*
X012412Y001294D01*
X012484Y001317D01*
X012552Y001351D01*
X012613Y001396D01*
X012666Y001449D01*
X012711Y001510D01*
X012745Y001578D01*
X012768Y001650D01*
X012780Y001724D01*
X012780Y001742D01*
X012020Y001742D01*
X011980Y001742D01*
X011980Y001282D01*
X011662Y001282D01*
X011588Y001294D01*
X011516Y001317D01*
X011448Y001351D01*
X011387Y001396D01*
X011334Y001449D01*
X011289Y001510D01*
X011255Y001578D01*
X011232Y001650D01*
X011220Y001724D01*
X011220Y001742D01*
X011980Y001742D01*
X011980Y001782D01*
X011220Y001782D01*
X011220Y001800D01*
X011232Y001874D01*
X011255Y001946D01*
X011289Y002014D01*
X011334Y002075D01*
X011387Y002128D01*
X011448Y002173D01*
X011516Y002207D01*
X011579Y002228D01*
X011394Y002304D01*
X011242Y002456D01*
X011160Y002655D01*
X011160Y002869D01*
X011242Y003068D01*
X011394Y003220D01*
X011593Y003302D01*
X012407Y003302D01*
X012606Y003220D01*
X012758Y003068D01*
X012840Y002869D01*
X012840Y002655D01*
X012758Y002456D01*
X012606Y002304D01*
X012421Y002228D01*
X012484Y002207D01*
X012552Y002173D01*
X012613Y002128D01*
X012666Y002075D01*
X012711Y002014D01*
X012745Y001946D01*
X012768Y001874D01*
X012780Y001800D01*
X012780Y001782D01*
X012020Y001782D01*
X012020Y001742D01*
X012020Y001689D02*
X011980Y001689D01*
X011980Y001530D02*
X012020Y001530D01*
X012020Y001372D02*
X011980Y001372D01*
X011420Y001372D02*
X009040Y001372D01*
X009040Y001355D02*
X009040Y002169D01*
X008958Y002368D01*
X008806Y002520D01*
X008607Y002602D01*
X008393Y002602D01*
X008194Y002520D01*
X008042Y002368D01*
X007965Y002183D01*
X007945Y002246D01*
X007911Y002314D01*
X007866Y002375D01*
X007813Y002428D01*
X007752Y002473D01*
X007684Y002507D01*
X007612Y002530D01*
X007538Y002542D01*
X007520Y002542D01*
X007520Y001782D01*
X007480Y001782D01*
X007480Y002542D01*
X007462Y002542D01*
X007388Y002530D01*
X007316Y002507D01*
X007248Y002473D01*
X007187Y002428D01*
X007134Y002375D01*
X007089Y002314D01*
X007055Y002246D01*
X007034Y002183D01*
X006958Y002368D01*
X006806Y002520D01*
X006607Y002602D01*
X006393Y002602D01*
X006194Y002520D01*
X006042Y002368D01*
X005960Y002169D01*
X005960Y001355D01*
X006042Y001156D01*
X006194Y001004D01*
X006393Y000922D01*
X006607Y000922D01*
X006806Y001004D01*
X006958Y001156D01*
X007034Y001341D01*
X007055Y001278D01*
X007089Y001210D01*
X007134Y001149D01*
X007187Y001096D01*
X007248Y001051D01*
X007316Y001017D01*
X007388Y000994D01*
X007462Y000982D01*
X007480Y000982D01*
X007480Y001742D01*
X007520Y001742D01*
X007520Y000982D01*
X007538Y000982D01*
X007612Y000994D01*
X007684Y001017D01*
X007752Y001051D01*
X007813Y001096D01*
X007866Y001149D01*
X007911Y001210D01*
X007945Y001278D01*
X007965Y001341D01*
X008042Y001156D01*
X008194Y001004D01*
X008393Y000922D01*
X008607Y000922D01*
X008806Y001004D01*
X008958Y001156D01*
X009040Y001355D01*
X008981Y001213D02*
X015269Y001213D01*
X015292Y001156D02*
X015444Y001004D01*
X015643Y000922D01*
X015857Y000922D01*
X016056Y001004D01*
X016208Y001156D01*
X016284Y001341D01*
X016305Y001278D01*
X016339Y001210D01*
X016384Y001149D01*
X016437Y001096D01*
X016498Y001051D01*
X016566Y001017D01*
X016638Y000994D01*
X016712Y000982D01*
X016730Y000982D01*
X016730Y001742D01*
X016770Y001742D01*
X016770Y001782D01*
X017230Y001782D01*
X017230Y002100D01*
X017218Y002174D01*
X017195Y002246D01*
X017161Y002314D01*
X017116Y002375D01*
X017063Y002428D01*
X017002Y002473D01*
X016934Y002507D01*
X016862Y002530D01*
X016788Y002542D01*
X016770Y002542D01*
X016770Y001782D01*
X016730Y001782D01*
X016730Y002542D01*
X016712Y002542D01*
X016638Y002530D01*
X016566Y002507D01*
X016498Y002473D01*
X016437Y002428D01*
X016384Y002375D01*
X016339Y002314D01*
X016305Y002246D01*
X016284Y002183D01*
X016208Y002368D01*
X016056Y002520D01*
X015857Y002602D01*
X015643Y002602D01*
X015444Y002520D01*
X015292Y002368D01*
X015210Y002169D01*
X015210Y001355D01*
X015292Y001156D01*
X015394Y001055D02*
X008856Y001055D01*
X009040Y001530D02*
X011279Y001530D01*
X011226Y001689D02*
X009040Y001689D01*
X009040Y001847D02*
X011228Y001847D01*
X011286Y002006D02*
X009040Y002006D01*
X009040Y002165D02*
X011437Y002165D01*
X011375Y002323D02*
X008976Y002323D01*
X008844Y002482D02*
X011232Y002482D01*
X011166Y002640D02*
X000375Y002640D01*
X000375Y002482D02*
X001656Y002482D01*
X001694Y002520D02*
X001542Y002368D01*
X001460Y002169D01*
X001460Y001355D01*
X001542Y001156D01*
X001694Y001004D01*
X001893Y000922D01*
X002107Y000922D01*
X002306Y001004D01*
X002458Y001156D01*
X002534Y001341D01*
X002555Y001278D01*
X002589Y001210D01*
X002634Y001149D01*
X002687Y001096D01*
X002748Y001051D01*
X002816Y001017D01*
X002888Y000994D01*
X002962Y000982D01*
X002980Y000982D01*
X002980Y001742D01*
X003020Y001742D01*
X003020Y001782D01*
X003480Y001782D01*
X003480Y002100D01*
X003468Y002174D01*
X003445Y002246D01*
X003411Y002314D01*
X003366Y002375D01*
X003313Y002428D01*
X003252Y002473D01*
X003184Y002507D01*
X003112Y002530D01*
X003038Y002542D01*
X003020Y002542D01*
X003020Y001782D01*
X002980Y001782D01*
X002980Y002542D01*
X002962Y002542D01*
X002888Y002530D01*
X002816Y002507D01*
X002748Y002473D01*
X002687Y002428D01*
X002634Y002375D01*
X002589Y002314D01*
X002555Y002246D01*
X002534Y002183D01*
X002458Y002368D01*
X002306Y002520D01*
X002107Y002602D01*
X001893Y002602D01*
X001694Y002520D01*
X001524Y002323D02*
X000375Y002323D01*
X000375Y002165D02*
X001460Y002165D01*
X001460Y002006D02*
X000375Y002006D01*
X000375Y001847D02*
X001460Y001847D01*
X001460Y001689D02*
X000375Y001689D01*
X000375Y001530D02*
X001460Y001530D01*
X001460Y001372D02*
X000375Y001372D01*
X000375Y001213D02*
X001519Y001213D01*
X001644Y001055D02*
X000375Y001055D01*
X000375Y000896D02*
X038625Y000896D01*
X038625Y000738D02*
X000375Y000738D01*
X000375Y000579D02*
X038625Y000579D01*
X038625Y001055D02*
X020506Y001055D01*
X020502Y001051D02*
X020563Y001096D01*
X020616Y001149D01*
X020661Y001210D01*
X020695Y001278D01*
X020718Y001350D01*
X020730Y001424D01*
X020730Y001742D01*
X020270Y001742D01*
X020270Y001782D01*
X020730Y001782D01*
X020730Y002100D01*
X020718Y002174D01*
X020695Y002246D01*
X020661Y002314D01*
X020616Y002375D01*
X020563Y002428D01*
X020502Y002473D01*
X020434Y002507D01*
X020362Y002530D01*
X020288Y002542D01*
X020270Y002542D01*
X020270Y001782D01*
X020230Y001782D01*
X020230Y002542D01*
X020212Y002542D01*
X020138Y002530D01*
X020066Y002507D01*
X019998Y002473D01*
X019937Y002428D01*
X019884Y002375D01*
X019839Y002314D01*
X019805Y002246D01*
X019784Y002183D01*
X019708Y002368D01*
X019556Y002520D01*
X019357Y002602D01*
X019143Y002602D01*
X018944Y002520D01*
X018792Y002368D01*
X018710Y002169D01*
X018710Y001355D01*
X018792Y001156D01*
X018944Y001004D01*
X019143Y000922D01*
X019357Y000922D01*
X019556Y001004D01*
X019708Y001156D01*
X019784Y001341D01*
X019805Y001278D01*
X019839Y001210D01*
X019884Y001149D01*
X019937Y001096D01*
X019998Y001051D01*
X020066Y001017D01*
X020138Y000994D01*
X020212Y000982D01*
X020230Y000982D01*
X020230Y001742D01*
X020270Y001742D01*
X020270Y000982D01*
X020288Y000982D01*
X020362Y000994D01*
X020434Y001017D01*
X020502Y001051D01*
X020662Y001213D02*
X038625Y001213D01*
X038625Y001372D02*
X037732Y001372D01*
X037682Y001322D02*
X037940Y001580D01*
X037940Y001762D01*
X037940Y001944D01*
X037682Y002202D01*
X037500Y002202D01*
X037500Y001762D01*
X037500Y001322D01*
X037682Y001322D01*
X037500Y001322D02*
X037500Y001762D01*
X037500Y001762D01*
X037940Y001762D01*
X037500Y001762D01*
X037500Y001762D01*
X037500Y001762D01*
X037060Y001762D01*
X037060Y001580D01*
X037318Y001322D01*
X037500Y001322D01*
X037500Y001372D02*
X037500Y001372D01*
X037500Y001530D02*
X037500Y001530D01*
X037500Y001689D02*
X037500Y001689D01*
X037500Y001762D02*
X037500Y001762D01*
X037060Y001762D01*
X037060Y001944D01*
X037318Y002202D01*
X037500Y002202D01*
X037500Y001762D01*
X037500Y001847D02*
X037500Y001847D01*
X037500Y002006D02*
X037500Y002006D01*
X037500Y002165D02*
X037500Y002165D01*
X037720Y002165D02*
X038625Y002165D01*
X038625Y002323D02*
X032900Y002323D01*
X032900Y002165D02*
X037280Y002165D01*
X037122Y002006D02*
X032963Y002006D01*
X033000Y001969D02*
X032900Y002069D01*
X032900Y002955D01*
X033000Y003055D01*
X033000Y003469D01*
X032900Y003569D01*
X032900Y004455D01*
X033000Y004555D01*
X033000Y004969D01*
X032900Y005069D01*
X032900Y005955D01*
X033000Y006055D01*
X033000Y006469D01*
X032900Y006569D01*
X032900Y007455D01*
X033000Y007555D01*
X033000Y007714D02*
X037060Y007714D01*
X037060Y007872D02*
X033000Y007872D01*
X032938Y008031D02*
X037146Y008031D01*
X037695Y008189D02*
X038625Y008189D01*
X038625Y008031D02*
X037854Y008031D01*
X037940Y007872D02*
X038625Y007872D01*
X038625Y007714D02*
X037940Y007714D01*
X037915Y007555D02*
X038625Y007555D01*
X038625Y007079D02*
X032900Y007079D01*
X032900Y006921D02*
X038625Y006921D01*
X038625Y006762D02*
X032900Y006762D01*
X032900Y006604D02*
X037220Y006604D01*
X037318Y006702D02*
X037060Y006444D01*
X037060Y006262D01*
X037060Y006080D01*
X037318Y005822D01*
X037500Y005822D01*
X037682Y005822D01*
X037940Y006080D01*
X037940Y006262D01*
X037940Y006444D01*
X037682Y006702D01*
X037500Y006702D01*
X037500Y006262D01*
X037500Y005822D01*
X037500Y006262D01*
X037500Y006262D01*
X037940Y006262D01*
X037500Y006262D01*
X037500Y006262D01*
X037500Y006262D01*
X037060Y006262D01*
X037500Y006262D01*
X037500Y006262D01*
X037500Y006702D01*
X037318Y006702D01*
X037500Y006604D02*
X037500Y006604D01*
X037500Y006445D02*
X037500Y006445D01*
X037500Y006287D02*
X037500Y006287D01*
X037500Y006128D02*
X037500Y006128D01*
X037500Y005970D02*
X037500Y005970D01*
X037830Y005970D02*
X038625Y005970D01*
X038625Y006128D02*
X037940Y006128D01*
X037940Y006287D02*
X038625Y006287D01*
X038625Y006445D02*
X037939Y006445D01*
X037780Y006604D02*
X038625Y006604D01*
X037170Y005970D02*
X032915Y005970D01*
X032900Y005811D02*
X038625Y005811D01*
X038625Y005653D02*
X032900Y005653D01*
X032900Y005494D02*
X038625Y005494D01*
X038625Y005335D02*
X032900Y005335D01*
X032900Y005177D02*
X037293Y005177D01*
X037318Y005202D02*
X037060Y004944D01*
X037060Y004762D01*
X037060Y004580D01*
X037318Y004322D01*
X037500Y004322D01*
X037682Y004322D01*
X037940Y004580D01*
X037940Y004762D01*
X037940Y004944D01*
X037682Y005202D01*
X037500Y005202D01*
X037500Y004762D01*
X037500Y004322D01*
X037500Y004762D01*
X037500Y004762D01*
X037940Y004762D01*
X037500Y004762D01*
X037500Y004762D01*
X037500Y004762D01*
X037060Y004762D01*
X037500Y004762D01*
X037500Y004762D01*
X037500Y005202D01*
X037318Y005202D01*
X037500Y005177D02*
X037500Y005177D01*
X037500Y005018D02*
X037500Y005018D01*
X037500Y004860D02*
X037500Y004860D01*
X037500Y004701D02*
X037500Y004701D01*
X037500Y004543D02*
X037500Y004543D01*
X037500Y004384D02*
X037500Y004384D01*
X037744Y004384D02*
X038625Y004384D01*
X038625Y004226D02*
X032900Y004226D01*
X032900Y004384D02*
X037256Y004384D01*
X037097Y004543D02*
X032988Y004543D01*
X033000Y004701D02*
X037060Y004701D01*
X037060Y004860D02*
X033000Y004860D01*
X032951Y005018D02*
X037134Y005018D01*
X037707Y005177D02*
X038625Y005177D01*
X038625Y005018D02*
X037866Y005018D01*
X037940Y004860D02*
X038625Y004860D01*
X038625Y004701D02*
X037940Y004701D01*
X037903Y004543D02*
X038625Y004543D01*
X038625Y004067D02*
X032900Y004067D01*
X032900Y003909D02*
X038625Y003909D01*
X038625Y003750D02*
X032900Y003750D01*
X032900Y003591D02*
X037207Y003591D01*
X037318Y003702D02*
X037060Y003444D01*
X037060Y003262D01*
X037060Y003080D01*
X037318Y002822D01*
X037500Y002822D01*
X037682Y002822D01*
X037940Y003080D01*
X037940Y003262D01*
X037940Y003444D01*
X037682Y003702D01*
X037500Y003702D01*
X037500Y003262D01*
X037500Y002822D01*
X037500Y003262D01*
X037500Y003262D01*
X037940Y003262D01*
X037500Y003262D01*
X037500Y003262D01*
X037500Y003262D01*
X037060Y003262D01*
X037500Y003262D01*
X037500Y003262D01*
X037500Y003702D01*
X037318Y003702D01*
X037500Y003591D02*
X037500Y003591D01*
X037500Y003433D02*
X037500Y003433D01*
X037500Y003274D02*
X037500Y003274D01*
X037500Y003116D02*
X037500Y003116D01*
X037500Y002957D02*
X037500Y002957D01*
X037817Y002957D02*
X038625Y002957D01*
X038625Y002799D02*
X032900Y002799D01*
X032902Y002957D02*
X037183Y002957D01*
X037060Y003116D02*
X033000Y003116D01*
X033000Y003274D02*
X037060Y003274D01*
X037060Y003433D02*
X033000Y003433D01*
X032100Y003569D02*
X032000Y003469D01*
X032000Y003055D01*
X032100Y002955D01*
X032100Y002069D01*
X032000Y001969D01*
X032000Y001555D01*
X032293Y001262D01*
X032707Y001262D01*
X033000Y001555D01*
X033000Y001969D01*
X033000Y001847D02*
X037060Y001847D01*
X037060Y001689D02*
X033000Y001689D01*
X032975Y001530D02*
X037109Y001530D01*
X037268Y001372D02*
X032817Y001372D01*
X032183Y001372D02*
X020722Y001372D01*
X020730Y001530D02*
X032025Y001530D01*
X032000Y001689D02*
X020730Y001689D01*
X020730Y001847D02*
X032000Y001847D01*
X032037Y002006D02*
X020730Y002006D01*
X020720Y002165D02*
X032100Y002165D01*
X032100Y002323D02*
X020654Y002323D01*
X020484Y002482D02*
X032100Y002482D01*
X032100Y002640D02*
X012834Y002640D01*
X012840Y002799D02*
X032100Y002799D01*
X032098Y002957D02*
X012804Y002957D01*
X012710Y003116D02*
X032000Y003116D01*
X032000Y003274D02*
X012474Y003274D01*
X011526Y003274D02*
X000375Y003274D01*
X000375Y003116D02*
X011290Y003116D01*
X011196Y002957D02*
X000375Y002957D01*
X000375Y002799D02*
X011160Y002799D01*
X012563Y002165D02*
X015210Y002165D01*
X015210Y002006D02*
X012714Y002006D01*
X012772Y001847D02*
X015210Y001847D01*
X015210Y001689D02*
X012774Y001689D01*
X012721Y001530D02*
X015210Y001530D01*
X015210Y001372D02*
X012580Y001372D01*
X012625Y002323D02*
X015274Y002323D01*
X015406Y002482D02*
X012768Y002482D01*
X012353Y004462D02*
X012675Y004784D01*
X012675Y004992D01*
X012145Y004992D01*
X012145Y004462D01*
X012353Y004462D01*
X012433Y004543D02*
X021415Y004543D01*
X021835Y004543D02*
X032012Y004543D01*
X032000Y004555D02*
X032100Y004455D01*
X032100Y003569D01*
X032100Y003591D02*
X000375Y003591D01*
X000375Y003433D02*
X032000Y003433D01*
X032100Y003750D02*
X000375Y003750D01*
X000375Y003909D02*
X032100Y003909D01*
X032100Y004067D02*
X000375Y004067D01*
X000375Y004226D02*
X032100Y004226D01*
X032100Y004384D02*
X000375Y004384D01*
X000375Y004543D02*
X010732Y004543D01*
X010573Y004701D02*
X006753Y004701D01*
X006868Y004860D02*
X010515Y004860D01*
X010515Y005018D02*
X006898Y005018D01*
X006863Y005177D02*
X010515Y005177D01*
X010586Y005335D02*
X006740Y005335D01*
X006320Y005494D02*
X010744Y005494D01*
X010622Y005653D02*
X006320Y005653D01*
X006320Y005811D02*
X010515Y005811D01*
X010515Y005970D02*
X006320Y005970D01*
X006500Y005762D02*
X007500Y005762D01*
X007500Y001762D01*
X007480Y001689D02*
X007520Y001689D01*
X007520Y001847D02*
X007480Y001847D01*
X007480Y002006D02*
X007520Y002006D01*
X007520Y002165D02*
X007480Y002165D01*
X007480Y002323D02*
X007520Y002323D01*
X007520Y002482D02*
X007480Y002482D01*
X007266Y002482D02*
X006844Y002482D01*
X006976Y002323D02*
X007096Y002323D01*
X007734Y002482D02*
X008156Y002482D01*
X008024Y002323D02*
X007904Y002323D01*
X007520Y001530D02*
X007480Y001530D01*
X007480Y001372D02*
X007520Y001372D01*
X007520Y001213D02*
X007480Y001213D01*
X007480Y001055D02*
X007520Y001055D01*
X007756Y001055D02*
X008144Y001055D01*
X008019Y001213D02*
X007912Y001213D01*
X007244Y001055D02*
X006856Y001055D01*
X006981Y001213D02*
X007088Y001213D01*
X006144Y001055D02*
X003256Y001055D01*
X003252Y001051D02*
X003313Y001096D01*
X003366Y001149D01*
X003411Y001210D01*
X003445Y001278D01*
X003468Y001350D01*
X003480Y001424D01*
X003480Y001742D01*
X003020Y001742D01*
X003020Y000982D01*
X003038Y000982D01*
X003112Y000994D01*
X003184Y001017D01*
X003252Y001051D01*
X003412Y001213D02*
X006019Y001213D01*
X005960Y001372D02*
X003472Y001372D01*
X003480Y001530D02*
X005960Y001530D01*
X005960Y001689D02*
X003480Y001689D01*
X003480Y001847D02*
X005960Y001847D01*
X005960Y002006D02*
X003480Y002006D01*
X003470Y002165D02*
X005960Y002165D01*
X006024Y002323D02*
X003404Y002323D01*
X003234Y002482D02*
X006156Y002482D01*
X003020Y002482D02*
X002980Y002482D01*
X002980Y002323D02*
X003020Y002323D01*
X003020Y002165D02*
X002980Y002165D01*
X002980Y002006D02*
X003020Y002006D01*
X003020Y001847D02*
X002980Y001847D01*
X002980Y001689D02*
X003020Y001689D01*
X003020Y001530D02*
X002980Y001530D01*
X002980Y001372D02*
X003020Y001372D01*
X003020Y001213D02*
X002980Y001213D01*
X002980Y001055D02*
X003020Y001055D01*
X002744Y001055D02*
X002356Y001055D01*
X002481Y001213D02*
X002588Y001213D01*
X002596Y002323D02*
X002476Y002323D01*
X002344Y002482D02*
X002766Y002482D01*
X001747Y004701D02*
X000375Y004701D01*
X000375Y004860D02*
X001632Y004860D01*
X001602Y005018D02*
X000375Y005018D01*
X000375Y005177D02*
X001637Y005177D01*
X001760Y005335D02*
X000375Y005335D01*
X001924Y006604D02*
X002680Y006604D01*
X002680Y006762D02*
X002189Y006762D01*
X002295Y006921D02*
X002680Y006921D01*
X002680Y007079D02*
X002340Y007079D01*
X002340Y007238D02*
X002680Y007238D01*
X002680Y007396D02*
X002277Y007396D01*
X002146Y007555D02*
X002680Y007555D01*
X002680Y007714D02*
X002140Y007714D01*
X002275Y007872D02*
X002680Y007872D01*
X002680Y008031D02*
X002340Y008031D01*
X002340Y008189D02*
X002680Y008189D01*
X002689Y008348D02*
X002297Y008348D01*
X002194Y008506D02*
X002792Y008506D01*
X003000Y008262D02*
X003000Y006012D01*
X003173Y005653D02*
X005680Y005653D01*
X005680Y005811D02*
X003348Y005811D01*
X003398Y005970D02*
X005680Y005970D01*
X005680Y006128D02*
X003383Y006128D01*
X003320Y006287D02*
X005680Y006287D01*
X005680Y006445D02*
X004872Y006445D01*
X004991Y006604D02*
X005764Y006604D01*
X005023Y006762D02*
X007048Y006762D01*
X007206Y006921D02*
X004990Y006921D01*
X004945Y007079D02*
X007365Y007079D01*
X007523Y007238D02*
X004945Y007238D01*
X004945Y007396D02*
X007682Y007396D01*
X007840Y007555D02*
X004945Y007555D01*
X004945Y007714D02*
X007999Y007714D01*
X008158Y007872D02*
X004945Y007872D01*
X004945Y008031D02*
X008316Y008031D01*
X008518Y008189D02*
X004945Y008189D01*
X004945Y008348D02*
X009476Y008348D01*
X009373Y008506D02*
X004945Y008506D01*
X004945Y008665D02*
X009352Y008665D01*
X009396Y008823D02*
X006627Y008823D01*
X006599Y008812D02*
X006783Y008888D01*
X006924Y009029D01*
X007000Y009213D01*
X007000Y009411D01*
X006924Y009595D01*
X006783Y009736D01*
X006599Y009812D01*
X006401Y009812D01*
X006217Y009736D01*
X006076Y009595D01*
X006000Y009411D01*
X006000Y009213D01*
X006076Y009029D01*
X006217Y008888D01*
X006401Y008812D01*
X006599Y008812D01*
X006373Y008823D02*
X004945Y008823D01*
X004945Y008982D02*
X006123Y008982D01*
X006030Y009140D02*
X004945Y009140D01*
X004945Y009299D02*
X006000Y009299D01*
X006019Y009458D02*
X004945Y009458D01*
X004945Y009616D02*
X006097Y009616D01*
X006310Y009775D02*
X004945Y009775D01*
X004945Y009933D02*
X009430Y009933D01*
X009430Y009775D02*
X006690Y009775D01*
X006903Y009616D02*
X009430Y009616D01*
X009430Y009458D02*
X006981Y009458D01*
X007000Y009299D02*
X009430Y009299D01*
X009430Y009140D02*
X006970Y009140D01*
X006877Y008982D02*
X009430Y008982D01*
X009750Y008637D02*
X009750Y013887D01*
X010120Y013738D02*
X010180Y013738D01*
X010180Y013580D02*
X010070Y013580D01*
X010070Y013421D02*
X010180Y013421D01*
X010180Y013263D02*
X010070Y013263D01*
X010070Y013104D02*
X010180Y013104D01*
X010180Y012946D02*
X010070Y012946D01*
X010070Y012787D02*
X010180Y012787D01*
X010180Y012628D02*
X010070Y012628D01*
X010070Y012470D02*
X010180Y012470D01*
X010180Y012311D02*
X010070Y012311D01*
X010070Y012153D02*
X010180Y012153D01*
X010180Y011994D02*
X010070Y011994D01*
X010070Y011836D02*
X010180Y011836D01*
X010180Y011677D02*
X010070Y011677D01*
X010070Y011519D02*
X010180Y011519D01*
X010180Y011360D02*
X010070Y011360D01*
X010070Y011202D02*
X010180Y011202D01*
X010180Y011043D02*
X010070Y011043D01*
X010070Y010884D02*
X010180Y010884D01*
X010180Y010726D02*
X010070Y010726D01*
X010070Y010567D02*
X010180Y010567D01*
X010180Y010409D02*
X010070Y010409D01*
X010070Y010250D02*
X010180Y010250D01*
X010180Y010092D02*
X010070Y010092D01*
X010070Y009933D02*
X010180Y009933D01*
X010180Y009775D02*
X010070Y009775D01*
X010070Y009616D02*
X010180Y009616D01*
X010180Y009458D02*
X010070Y009458D01*
X010070Y009299D02*
X010180Y009299D01*
X010180Y009140D02*
X010070Y009140D01*
X010070Y008982D02*
X010180Y008982D01*
X010180Y008823D02*
X010104Y008823D01*
X010148Y008665D02*
X010270Y008665D01*
X010805Y007555D02*
X008746Y007555D01*
X008587Y007396D02*
X010647Y007396D01*
X010515Y007238D02*
X008428Y007238D01*
X008270Y007079D02*
X010515Y007079D01*
X010515Y006921D02*
X008111Y006921D01*
X007953Y006762D02*
X010515Y006762D01*
X010671Y006604D02*
X007794Y006604D01*
X007636Y006445D02*
X010696Y006445D01*
X010537Y006287D02*
X007477Y006287D01*
X007319Y006128D02*
X010515Y006128D01*
X012125Y005012D02*
X012875Y005012D01*
X012675Y004860D02*
X020575Y004860D01*
X020733Y004701D02*
X012592Y004701D01*
X012145Y004701D02*
X012105Y004701D01*
X012105Y004543D02*
X012145Y004543D01*
X011816Y004543D02*
X011518Y004543D01*
X012105Y004860D02*
X012145Y004860D01*
X012145Y005018D02*
X020416Y005018D01*
X020258Y005177D02*
X012675Y005177D01*
X016094Y002482D02*
X016516Y002482D01*
X016730Y002482D02*
X016770Y002482D01*
X016770Y002323D02*
X016730Y002323D01*
X016730Y002165D02*
X016770Y002165D01*
X016770Y002006D02*
X016730Y002006D01*
X016730Y001847D02*
X016770Y001847D01*
X016770Y001742D02*
X017230Y001742D01*
X017230Y001424D01*
X017218Y001350D01*
X017195Y001278D01*
X017161Y001210D01*
X017116Y001149D01*
X017063Y001096D01*
X017002Y001051D01*
X016934Y001017D01*
X016862Y000994D01*
X016788Y000982D01*
X016770Y000982D01*
X016770Y001742D01*
X016770Y001689D02*
X016730Y001689D01*
X016730Y001530D02*
X016770Y001530D01*
X016770Y001372D02*
X016730Y001372D01*
X016730Y001213D02*
X016770Y001213D01*
X016770Y001055D02*
X016730Y001055D01*
X016494Y001055D02*
X016106Y001055D01*
X016231Y001213D02*
X016338Y001213D01*
X017006Y001055D02*
X018894Y001055D01*
X018769Y001213D02*
X017162Y001213D01*
X017222Y001372D02*
X018710Y001372D01*
X018710Y001530D02*
X017230Y001530D01*
X017230Y001689D02*
X018710Y001689D01*
X018710Y001847D02*
X017230Y001847D01*
X017230Y002006D02*
X018710Y002006D01*
X018710Y002165D02*
X017220Y002165D01*
X017154Y002323D02*
X018774Y002323D01*
X018906Y002482D02*
X016984Y002482D01*
X016346Y002323D02*
X016226Y002323D01*
X019594Y002482D02*
X020016Y002482D01*
X020230Y002482D02*
X020270Y002482D01*
X020270Y002323D02*
X020230Y002323D01*
X020230Y002165D02*
X020270Y002165D01*
X020270Y002006D02*
X020230Y002006D01*
X020230Y001847D02*
X020270Y001847D01*
X020270Y001689D02*
X020230Y001689D01*
X020230Y001530D02*
X020270Y001530D01*
X020270Y001372D02*
X020230Y001372D01*
X020230Y001213D02*
X020270Y001213D01*
X020270Y001055D02*
X020230Y001055D01*
X019994Y001055D02*
X019606Y001055D01*
X019731Y001213D02*
X019838Y001213D01*
X019846Y002323D02*
X019726Y002323D01*
X021979Y004701D02*
X032000Y004701D01*
X032000Y004555D02*
X032000Y004969D01*
X032100Y005069D01*
X032100Y005955D01*
X032000Y006055D01*
X032000Y006469D01*
X032100Y006569D01*
X032100Y007455D01*
X032000Y007555D01*
X032100Y007396D02*
X024823Y007396D01*
X024500Y007637D02*
X024500Y008012D01*
X025125Y008637D01*
X025125Y014137D01*
X025448Y013897D02*
X031180Y013897D01*
X031180Y014055D02*
X025522Y014055D01*
X025523Y014214D02*
X031180Y014214D01*
X031127Y014372D02*
X025453Y014372D01*
X025215Y014531D02*
X031102Y014531D01*
X031142Y014689D02*
X011445Y014689D01*
X011445Y014531D02*
X017483Y014531D01*
X017542Y014555D02*
X017388Y014491D01*
X017271Y014374D01*
X017207Y014220D01*
X017207Y014054D01*
X017271Y013900D01*
X017388Y013783D01*
X017542Y013719D01*
X017708Y013719D01*
X017862Y013783D01*
X017896Y013817D01*
X018979Y013817D01*
X019013Y013783D01*
X019167Y013719D01*
X019333Y013719D01*
X019487Y013783D01*
X019604Y013900D01*
X019668Y014054D01*
X019668Y014220D01*
X019604Y014374D01*
X019487Y014491D01*
X019333Y014555D01*
X019167Y014555D01*
X019013Y014491D01*
X018979Y014457D01*
X017896Y014457D01*
X017862Y014491D01*
X017708Y014555D01*
X017542Y014555D01*
X017767Y014531D02*
X019108Y014531D01*
X019392Y014531D02*
X025035Y014531D01*
X024797Y014372D02*
X019605Y014372D01*
X019668Y014214D02*
X024727Y014214D01*
X024728Y014055D02*
X019668Y014055D01*
X019601Y013897D02*
X024802Y013897D01*
X024805Y013738D02*
X019380Y013738D01*
X019120Y013738D02*
X017755Y013738D01*
X017495Y013738D02*
X011445Y013738D01*
X011445Y013580D02*
X024805Y013580D01*
X024805Y013421D02*
X011543Y013421D01*
X011702Y013263D02*
X016866Y013263D01*
X016659Y013104D02*
X012486Y013104D01*
X012644Y012946D02*
X016602Y012946D01*
X016610Y012787D02*
X012803Y012787D01*
X012931Y012658D02*
X012931Y012658D01*
X012961Y012628D02*
X016695Y012628D01*
X017000Y012887D02*
X017125Y012887D01*
X018125Y011887D01*
X018125Y010262D01*
X018875Y009512D01*
X018875Y007012D01*
X021000Y004887D01*
X021625Y004887D01*
X021899Y005177D02*
X032100Y005177D01*
X032100Y005335D02*
X021004Y005335D01*
X020846Y005494D02*
X032100Y005494D01*
X032100Y005653D02*
X020687Y005653D01*
X020529Y005811D02*
X032100Y005811D01*
X032085Y005970D02*
X020370Y005970D01*
X020211Y006128D02*
X032000Y006128D01*
X032000Y006287D02*
X020053Y006287D01*
X019894Y006445D02*
X032000Y006445D01*
X032100Y006604D02*
X019736Y006604D01*
X019577Y006762D02*
X032100Y006762D01*
X032100Y006921D02*
X019419Y006921D01*
X019260Y007079D02*
X032100Y007079D01*
X032100Y007238D02*
X019195Y007238D01*
X019195Y007396D02*
X024177Y007396D01*
X024103Y007555D02*
X019195Y007555D01*
X019195Y007714D02*
X024102Y007714D01*
X024172Y007872D02*
X023975Y007872D01*
X023775Y007872D02*
X019195Y007872D01*
X019195Y008031D02*
X022529Y008031D01*
X022370Y008189D02*
X019195Y008189D01*
X019195Y008348D02*
X022222Y008348D01*
X022180Y008506D02*
X019195Y008506D01*
X019195Y008665D02*
X022180Y008665D01*
X022180Y008823D02*
X019195Y008823D01*
X019195Y008982D02*
X022180Y008982D01*
X022180Y009140D02*
X019195Y009140D01*
X019195Y009299D02*
X022180Y009299D01*
X022180Y009458D02*
X019195Y009458D01*
X019178Y009616D02*
X022180Y009616D01*
X022180Y009775D02*
X019065Y009775D01*
X018906Y009933D02*
X022180Y009933D01*
X022180Y010092D02*
X018748Y010092D01*
X018589Y010250D02*
X022180Y010250D01*
X022180Y010409D02*
X018445Y010409D01*
X018445Y010567D02*
X022180Y010567D01*
X022500Y010762D02*
X022250Y011012D01*
X021500Y011012D01*
X021223Y010726D02*
X018445Y010726D01*
X018445Y010884D02*
X018939Y010884D01*
X018858Y011043D02*
X018445Y011043D01*
X018445Y011202D02*
X018852Y011202D01*
X018911Y011360D02*
X018445Y011360D01*
X018445Y011519D02*
X019130Y011519D01*
X019338Y011677D02*
X018445Y011677D01*
X018445Y011836D02*
X024805Y011836D01*
X024805Y011994D02*
X018427Y011994D01*
X018312Y012153D02*
X024805Y012153D01*
X024805Y012311D02*
X018153Y012311D01*
X017995Y012470D02*
X024805Y012470D01*
X024805Y012628D02*
X017836Y012628D01*
X017678Y012787D02*
X024805Y012787D01*
X024805Y012946D02*
X017519Y012946D01*
X017361Y013104D02*
X024805Y013104D01*
X024805Y013263D02*
X017134Y013263D01*
X017274Y013897D02*
X011445Y013897D01*
X011445Y014055D02*
X017207Y014055D01*
X017207Y014214D02*
X011445Y014214D01*
X011445Y014372D02*
X017270Y014372D01*
X017625Y014137D02*
X019250Y014137D01*
X017090Y012470D02*
X013062Y012470D01*
X013070Y012311D02*
X017248Y012311D01*
X017407Y012153D02*
X013123Y012153D01*
X013148Y011994D02*
X017565Y011994D01*
X017724Y011836D02*
X013108Y011836D01*
X012979Y011677D02*
X017805Y011677D01*
X017805Y011519D02*
X010820Y011519D01*
X010820Y011677D02*
X012521Y011677D01*
X012392Y011836D02*
X010820Y011836D01*
X010820Y011994D02*
X012352Y011994D01*
X012377Y012153D02*
X010820Y012153D01*
X010820Y012311D02*
X012373Y012311D01*
X012215Y012470D02*
X010820Y012470D01*
X010820Y012628D02*
X011431Y012628D01*
X011272Y012787D02*
X010820Y012787D01*
X010820Y012946D02*
X011114Y012946D01*
X010955Y013104D02*
X010820Y013104D01*
X010944Y013116D02*
X010944Y013116D01*
X010830Y013263D02*
X010820Y013263D01*
X011125Y013387D02*
X011125Y016762D01*
X010867Y017068D02*
X004744Y017068D01*
X001860Y014848D02*
X010180Y014848D01*
X010180Y014689D02*
X009261Y014689D01*
X009372Y014531D02*
X010180Y014531D01*
X010180Y014372D02*
X009398Y014372D01*
X009359Y014214D02*
X009513Y014214D01*
X009388Y014055D02*
X009232Y014055D01*
X009352Y013897D02*
X009023Y013897D01*
X008995Y013738D02*
X009380Y013738D01*
X009430Y013580D02*
X009101Y013580D01*
X009148Y013421D02*
X009430Y013421D01*
X009250Y013012D02*
X005875Y013012D01*
X004625Y011762D01*
X004625Y006762D01*
X004227Y006762D02*
X003320Y006762D01*
X003320Y006604D02*
X004259Y006604D01*
X004378Y006445D02*
X003320Y006445D01*
X003320Y006921D02*
X004260Y006921D01*
X004305Y007079D02*
X003320Y007079D01*
X003320Y007238D02*
X004305Y007238D01*
X004305Y007396D02*
X003320Y007396D01*
X003320Y007555D02*
X004305Y007555D01*
X004305Y007714D02*
X003320Y007714D01*
X003320Y007872D02*
X004305Y007872D01*
X004250Y008262D02*
X003000Y008262D01*
X002165Y008823D02*
X003930Y008823D01*
X003930Y008665D02*
X001937Y008665D01*
X001520Y008823D02*
X001480Y008823D01*
X001480Y008982D02*
X001520Y008982D01*
X001520Y009140D02*
X003930Y009140D01*
X003930Y008982D02*
X002254Y008982D01*
X002252Y009299D02*
X003930Y009299D01*
X003930Y009458D02*
X002158Y009458D01*
X001156Y009616D02*
X000375Y009616D01*
X000375Y009458D02*
X000842Y009458D01*
X000748Y009299D02*
X000375Y009299D01*
X000375Y011043D02*
X001093Y011043D01*
X000832Y011202D02*
X000375Y011202D01*
X000375Y011360D02*
X000745Y011360D01*
X002168Y011202D02*
X003930Y011202D01*
X003930Y011360D02*
X002255Y011360D01*
X004250Y012012D02*
X005625Y013387D01*
X008750Y013387D01*
X008625Y013887D02*
X007625Y013887D01*
X007625Y014387D02*
X009000Y014387D01*
X009987Y014214D02*
X010180Y014214D01*
X010180Y014055D02*
X010112Y014055D01*
X010148Y013897D02*
X010180Y013897D01*
X011125Y013387D02*
X011625Y012887D01*
X012250Y012887D01*
X012750Y012387D01*
X012750Y012012D01*
X010820Y011360D02*
X017805Y011360D01*
X017805Y011202D02*
X010820Y011202D01*
X009430Y011202D02*
X007000Y011202D01*
X007000Y011113D02*
X007000Y011311D01*
X006924Y011495D01*
X006783Y011636D01*
X006599Y011712D01*
X006401Y011712D01*
X006217Y011636D01*
X006076Y011495D01*
X006000Y011311D01*
X006000Y011113D01*
X006076Y010929D01*
X006217Y010788D01*
X006401Y010712D01*
X006599Y010712D01*
X006783Y010788D01*
X006924Y010929D01*
X007000Y011113D01*
X006971Y011043D02*
X009430Y011043D01*
X009430Y010884D02*
X006879Y010884D01*
X006633Y010726D02*
X009430Y010726D01*
X009430Y010567D02*
X004945Y010567D01*
X004945Y010409D02*
X009430Y010409D01*
X009430Y010250D02*
X004945Y010250D01*
X004945Y010092D02*
X009430Y010092D01*
X009430Y011360D02*
X006980Y011360D01*
X006900Y011519D02*
X009430Y011519D01*
X009430Y011677D02*
X006684Y011677D01*
X006316Y011677D02*
X004993Y011677D01*
X004945Y011519D02*
X006099Y011519D01*
X006020Y011360D02*
X004945Y011360D01*
X004945Y011202D02*
X006000Y011202D01*
X006029Y011043D02*
X004945Y011043D01*
X004945Y010884D02*
X006120Y010884D01*
X006367Y010726D02*
X004945Y010726D01*
X005151Y011836D02*
X009430Y011836D01*
X009430Y011994D02*
X005310Y011994D01*
X005468Y012153D02*
X009430Y012153D01*
X009430Y012311D02*
X005627Y012311D01*
X005785Y012470D02*
X009430Y012470D01*
X009430Y012628D02*
X009365Y012628D01*
X009135Y012628D02*
X005944Y012628D01*
X004250Y012012D02*
X004250Y008262D01*
X001860Y014372D02*
X007227Y014372D01*
X007253Y014531D02*
X001860Y014531D01*
X001860Y014689D02*
X007364Y014689D01*
X011445Y014848D02*
X031273Y014848D01*
X031500Y014512D02*
X031500Y013012D01*
X029000Y010512D01*
X028750Y010512D01*
X028000Y009762D01*
X025625Y009762D01*
X025859Y010092D02*
X027877Y010092D01*
X028036Y010250D02*
X025445Y010250D01*
X025445Y010409D02*
X028194Y010409D01*
X028353Y010567D02*
X025445Y010567D01*
X025445Y010726D02*
X028511Y010726D01*
X028920Y010884D02*
X025445Y010884D01*
X025445Y011043D02*
X029078Y011043D01*
X029237Y011202D02*
X025445Y011202D01*
X025445Y011360D02*
X029395Y011360D01*
X029554Y011519D02*
X025445Y011519D01*
X025445Y011677D02*
X029713Y011677D01*
X029871Y011836D02*
X025445Y011836D01*
X025445Y011994D02*
X030030Y011994D01*
X030188Y012153D02*
X025445Y012153D01*
X025445Y012311D02*
X030347Y012311D01*
X030505Y012470D02*
X025445Y012470D01*
X025445Y012628D02*
X030664Y012628D01*
X030822Y012787D02*
X025445Y012787D01*
X025445Y012946D02*
X030981Y012946D01*
X031139Y013104D02*
X025445Y013104D01*
X025445Y013263D02*
X031180Y013263D01*
X031180Y013421D02*
X025445Y013421D01*
X025445Y013580D02*
X031180Y013580D01*
X031180Y013738D02*
X025445Y013738D01*
X024805Y011677D02*
X022912Y011677D01*
X023182Y011519D02*
X024805Y011519D01*
X024805Y011360D02*
X023266Y011360D01*
X023273Y011202D02*
X024805Y011202D01*
X024805Y011043D02*
X023215Y011043D01*
X023195Y010884D02*
X024805Y010884D01*
X024805Y010726D02*
X023195Y010726D01*
X023195Y010567D02*
X024805Y010567D01*
X024805Y010409D02*
X023195Y010409D01*
X023195Y010250D02*
X024805Y010250D01*
X024805Y010092D02*
X023195Y010092D01*
X023195Y009933D02*
X024805Y009933D01*
X024805Y009775D02*
X023195Y009775D01*
X023209Y009616D02*
X024805Y009616D01*
X024805Y009458D02*
X023273Y009458D01*
X023270Y009299D02*
X024805Y009299D01*
X024805Y009140D02*
X023192Y009140D01*
X022875Y009387D02*
X022875Y011262D01*
X022625Y011512D01*
X019625Y011512D01*
X019250Y011137D01*
X019561Y010884D02*
X021122Y010884D01*
X021102Y011043D02*
X019642Y011043D01*
X017805Y010726D02*
X017098Y010726D01*
X017232Y010567D02*
X017805Y010567D01*
X017805Y010409D02*
X017273Y010409D01*
X014085Y010409D02*
X013870Y010409D01*
X013758Y010567D02*
X014024Y010567D01*
X016625Y016012D02*
X031750Y016012D01*
X032500Y015262D01*
X033000Y015324D02*
X037060Y015324D01*
X037060Y015165D02*
X033000Y015165D01*
X032952Y015007D02*
X037133Y015007D01*
X037292Y014848D02*
X032900Y014848D01*
X032987Y015482D02*
X037098Y015482D01*
X037256Y015641D02*
X033138Y015641D01*
X032595Y016116D02*
X032098Y016116D01*
X032257Y015958D02*
X032437Y015958D01*
X032754Y016275D02*
X031940Y016275D01*
X032765Y016433D02*
X016249Y016433D01*
X016324Y016275D02*
X016135Y016275D01*
X016043Y016116D02*
X016237Y016116D01*
X018487Y017226D02*
X018887Y017226D01*
X018995Y017385D02*
X018540Y017385D01*
X018540Y017543D02*
X019093Y017543D01*
X020082Y018177D02*
X020575Y018177D01*
X024697Y019129D02*
X025053Y019129D01*
X024908Y018970D02*
X024842Y018970D01*
X025697Y019129D02*
X026185Y019129D01*
X026355Y019129D02*
X026395Y019129D01*
X026395Y018970D02*
X026355Y018970D01*
X026355Y018812D02*
X026395Y018812D01*
X026395Y018653D02*
X026355Y018653D01*
X026355Y018495D02*
X026395Y018495D01*
X026395Y018367D02*
X026855Y018367D01*
X026855Y018049D01*
X026843Y017975D01*
X026820Y017903D01*
X026786Y017835D01*
X026741Y017774D01*
X026688Y017721D01*
X026627Y017676D01*
X026559Y017642D01*
X026487Y017619D01*
X026413Y017607D01*
X026395Y017607D01*
X026395Y018367D01*
X026395Y018336D02*
X026355Y018336D01*
X026355Y018177D02*
X026395Y018177D01*
X026395Y018019D02*
X026355Y018019D01*
X026355Y017860D02*
X026395Y017860D01*
X026395Y017702D02*
X026355Y017702D01*
X026089Y017702D02*
X025753Y017702D01*
X025726Y017543D02*
X032765Y017543D01*
X032765Y017385D02*
X025632Y017385D01*
X025473Y017226D02*
X032765Y017226D01*
X032765Y017068D02*
X025315Y017068D01*
X025089Y016909D02*
X032765Y016909D01*
X033485Y017068D02*
X035048Y017068D01*
X034940Y017226D02*
X033485Y017226D01*
X033485Y017385D02*
X034880Y017385D01*
X034880Y017543D02*
X033485Y017543D01*
X033503Y017702D02*
X034880Y017702D01*
X034880Y017860D02*
X033616Y017860D01*
X033665Y018019D02*
X034880Y018019D01*
X034880Y018177D02*
X033665Y018177D01*
X033665Y018336D02*
X034880Y018336D01*
X034918Y018495D02*
X033665Y018495D01*
X033665Y018653D02*
X034995Y018653D01*
X035154Y018812D02*
X033658Y018812D01*
X032803Y019129D02*
X032447Y019129D01*
X032592Y018970D02*
X032658Y018970D01*
X031803Y019129D02*
X031447Y019129D01*
X031592Y018970D02*
X031658Y018970D01*
X030803Y019129D02*
X026565Y019129D01*
X026763Y018970D02*
X030658Y018970D01*
X030592Y018812D02*
X026839Y018812D01*
X026855Y018653D02*
X030585Y018653D01*
X030585Y018495D02*
X026855Y018495D01*
X026855Y018336D02*
X030585Y018336D01*
X030585Y018177D02*
X026855Y018177D01*
X026850Y018019D02*
X030585Y018019D01*
X030634Y017860D02*
X026798Y017860D01*
X026661Y017702D02*
X030747Y017702D01*
X031503Y017702D02*
X031747Y017702D01*
X031634Y017860D02*
X031616Y017860D01*
X032503Y017702D02*
X032747Y017702D01*
X032634Y017860D02*
X032616Y017860D01*
X037902Y015482D02*
X038625Y015482D01*
X038625Y015324D02*
X037940Y015324D01*
X037940Y015165D02*
X038625Y015165D01*
X038625Y015007D02*
X037867Y015007D01*
X037317Y011202D02*
X032900Y011202D01*
X032926Y011043D02*
X037159Y011043D01*
X037060Y010884D02*
X033000Y010884D01*
X033000Y010726D02*
X037060Y010726D01*
X037072Y010567D02*
X033000Y010567D01*
X032900Y010409D02*
X037231Y010409D01*
X037927Y009458D02*
X038625Y009458D01*
X038625Y009299D02*
X037940Y009299D01*
X037940Y009140D02*
X038625Y009140D01*
X038625Y008982D02*
X037842Y008982D01*
X037061Y006445D02*
X033000Y006445D01*
X033000Y006287D02*
X037060Y006287D01*
X037060Y006128D02*
X033000Y006128D01*
X032049Y005018D02*
X022002Y005018D01*
X022023Y004860D02*
X032000Y004860D01*
X032900Y002640D02*
X038625Y002640D01*
X038625Y002482D02*
X032900Y002482D01*
X037878Y002006D02*
X038625Y002006D01*
X038625Y001847D02*
X037940Y001847D01*
X037940Y001689D02*
X038625Y001689D01*
X038625Y001530D02*
X037891Y001530D01*
X037940Y003116D02*
X038625Y003116D01*
X038625Y003274D02*
X037940Y003274D01*
X037940Y003433D02*
X038625Y003433D01*
X038625Y003591D02*
X037793Y003591D01*
X032000Y009140D02*
X031949Y009140D01*
X032000Y009299D02*
X031776Y009299D01*
X032000Y009458D02*
X028101Y009458D01*
X024805Y008982D02*
X022820Y008982D01*
X022820Y008823D02*
X024805Y008823D01*
X024700Y008665D02*
X022820Y008665D01*
X022500Y008512D02*
X022750Y008262D01*
X023875Y008262D01*
X024194Y008506D02*
X024542Y008506D01*
X024383Y008348D02*
X024271Y008348D01*
X022500Y008512D02*
X022500Y010762D01*
X025866Y017860D02*
X025952Y017860D01*
X025911Y018812D02*
X025908Y018812D01*
X025842Y018970D02*
X025987Y018970D01*
D19*
X026375Y018387D02*
X027375Y018387D01*
X025375Y018387D02*
X025375Y017637D01*
X025000Y017262D01*
X022875Y017262D01*
X022625Y017512D01*
X022625Y018637D01*
X021625Y017637D02*
X020625Y018637D01*
X019625Y018637D01*
X021625Y017637D02*
X021625Y017512D01*
X032500Y015512D02*
X032500Y015262D01*
X032500Y015512D02*
X033125Y016137D01*
X033125Y018387D01*
X012000Y001762D02*
X012000Y000762D01*
X007500Y000762D01*
X007500Y001762D01*
X007500Y000762D02*
X003000Y000762D01*
X001250Y000762D01*
X003000Y000762D02*
X003000Y001762D01*
X002000Y005012D02*
X006000Y005012D01*
X006500Y005012D01*
X001500Y009012D02*
X001500Y010262D01*
X003375Y010262D01*
X001500Y010262D02*
X001500Y011512D01*
X001500Y012512D02*
X001500Y017387D01*
X004500Y017387D01*
D20*
X032500Y015262D02*
X032500Y013762D01*
X032500Y012262D01*
X032500Y010762D01*
X032500Y009262D01*
X032500Y008512D01*
X032500Y007762D01*
X032500Y006262D01*
X032500Y004762D01*
X032500Y003262D01*
X032500Y001762D01*
X037500Y001762D02*
X037500Y003262D01*
X037500Y004762D01*
X037500Y006262D01*
X037500Y007762D01*
X037500Y009262D01*
X037500Y010762D01*
X037500Y012262D01*
X037500Y013762D01*
X037500Y015262D01*
D21*
X031625Y014887D02*
X031500Y014887D01*
X030750Y015262D01*
X019000Y015012D02*
X017875Y015012D01*
X016625Y013762D01*
X016625Y012387D01*
X014375Y010762D02*
X014375Y006887D01*
X013000Y005512D01*
X011750Y005512D01*
X011250Y006012D01*
X011125Y006012D01*
X011750Y006512D02*
X012875Y006512D01*
X013500Y007137D01*
X013500Y010262D01*
X014000Y009887D02*
X014000Y007012D01*
X013000Y006012D01*
X012125Y006012D01*
X011750Y006512D02*
X011250Y007012D01*
X011125Y007012D01*
D22*
X017625Y014137D03*
X019250Y014137D03*
M02*
