G75*
G70*
%OFA0B0*%
%FSLAX24Y24*%
%IPPOS*%
%LPD*%
%AMOC8*
5,1,8,0,0,1.08239X$1,22.5*
%
%ADD10C,0.0000*%
%ADD11R,0.0540X0.0260*%
%ADD12R,0.0260X0.0540*%
%ADD13R,0.0552X0.0631*%
%ADD14R,0.0631X0.0552*%
%ADD15C,0.0640*%
%ADD16OC8,0.0780*%
%ADD17R,0.0260X0.0560*%
%ADD18C,0.0560*%
%ADD19OC8,0.0560*%
%ADD20R,0.0670X0.1064*%
%ADD21R,0.1064X0.0670*%
%ADD22R,0.0560X0.0260*%
%ADD23R,0.0827X0.0827*%
%ADD24R,0.0906X0.0276*%
%ADD25R,0.0620X0.0260*%
D10*
X000101Y000262D02*
X000101Y019632D01*
X039093Y019632D01*
X039093Y000262D01*
X000101Y000262D01*
D11*
X010411Y011160D03*
X010411Y011475D03*
X010411Y011790D03*
X010411Y012105D03*
X010411Y012420D03*
X010411Y012734D03*
X010411Y013049D03*
X010411Y013364D03*
X013791Y013364D03*
X013791Y013049D03*
X013791Y012734D03*
X013791Y012420D03*
X013791Y012105D03*
X013791Y011790D03*
X013791Y011475D03*
X013791Y011160D03*
D12*
X013203Y010572D03*
X012888Y010572D03*
X012573Y010572D03*
X012258Y010572D03*
X011943Y010572D03*
X011628Y010572D03*
X011313Y010572D03*
X010998Y010572D03*
X010998Y013952D03*
X011313Y013952D03*
X011628Y013952D03*
X011943Y013952D03*
X012258Y013952D03*
X012573Y013952D03*
X012888Y013952D03*
X013203Y013952D03*
D13*
X011225Y015887D03*
X010477Y015887D03*
X017727Y012262D03*
X018475Y012262D03*
X020727Y012137D03*
X021475Y012137D03*
X025977Y009012D03*
X026725Y009012D03*
X027852Y009012D03*
X028600Y009012D03*
X029477Y015262D03*
X030225Y015262D03*
X031477Y016637D03*
X032225Y016637D03*
X025850Y017012D03*
X025102Y017012D03*
X008350Y005762D03*
X007602Y005762D03*
X005475Y005762D03*
X004727Y005762D03*
X004850Y009262D03*
X004102Y009262D03*
X003977Y011262D03*
X004725Y011262D03*
D14*
X008601Y011136D03*
X008601Y010388D03*
X008601Y012013D03*
X008601Y012761D03*
X012351Y017138D03*
X012351Y017886D03*
X013351Y017886D03*
X013351Y017138D03*
X010601Y017388D03*
X010601Y018136D03*
X007101Y018136D03*
X007101Y017388D03*
X015726Y012386D03*
X015726Y011638D03*
X018601Y013388D03*
X018601Y014136D03*
X022601Y014136D03*
X022601Y013388D03*
X023851Y013388D03*
X023851Y014136D03*
X029226Y013261D03*
X029226Y012513D03*
X024726Y009761D03*
X024726Y009013D03*
X025601Y007261D03*
X025601Y006513D03*
X020351Y004136D03*
X019351Y004136D03*
X019351Y003388D03*
X020351Y003388D03*
X016851Y003388D03*
X015851Y003388D03*
X015851Y004136D03*
X016851Y004136D03*
X009851Y004136D03*
X008601Y004136D03*
X008601Y003388D03*
X009851Y003388D03*
X006601Y003388D03*
X006601Y004136D03*
X005101Y004136D03*
X005101Y003388D03*
X003101Y003388D03*
X002101Y003388D03*
X002101Y004136D03*
X003101Y004136D03*
X029101Y016513D03*
X029101Y017261D03*
D15*
X031226Y017962D02*
X031226Y018562D01*
X032226Y018562D02*
X032226Y017962D01*
X033226Y017962D02*
X033226Y018562D01*
X036601Y018062D02*
X036601Y017462D01*
X037601Y017462D02*
X037601Y018062D01*
X026476Y018087D02*
X026476Y018687D01*
X025476Y018687D02*
X025476Y018087D01*
X024476Y018087D02*
X024476Y018687D01*
X022351Y018687D02*
X022351Y018087D01*
X021351Y018087D02*
X021351Y018687D01*
X018101Y018062D02*
X018101Y017462D01*
X017101Y017462D02*
X017101Y018062D01*
X016101Y018062D02*
X016101Y017462D01*
X015101Y017462D02*
X015101Y018062D01*
X001901Y012512D02*
X001301Y012512D01*
X001301Y011512D02*
X001901Y011512D01*
X001901Y009137D02*
X001301Y009137D01*
X001301Y008137D02*
X001901Y008137D01*
X001901Y007137D02*
X001301Y007137D01*
X002101Y002062D02*
X002101Y001462D01*
X003101Y001462D02*
X003101Y002062D01*
X006601Y002062D02*
X006601Y001462D01*
X007601Y001462D02*
X007601Y002062D01*
X008601Y002062D02*
X008601Y001462D01*
X011801Y001762D02*
X012401Y001762D01*
X012401Y002762D02*
X011801Y002762D01*
X015851Y002062D02*
X015851Y001462D01*
X016851Y001462D02*
X016851Y002062D01*
X019351Y002062D02*
X019351Y001462D01*
X020351Y001462D02*
X020351Y002062D01*
D16*
X012226Y005012D03*
X011226Y005012D03*
X011226Y006012D03*
X012226Y006012D03*
X012226Y007012D03*
X011226Y007012D03*
D17*
X008971Y017362D03*
X008231Y017362D03*
X008601Y018162D03*
D18*
X006601Y011212D03*
X006601Y009312D03*
D19*
X032601Y009262D03*
X032601Y010762D03*
X032601Y012262D03*
X032601Y013762D03*
X032601Y015262D03*
X037601Y015262D03*
X037601Y013762D03*
X037601Y012262D03*
X037601Y010762D03*
X037601Y009262D03*
X037601Y007762D03*
X037601Y006262D03*
X037601Y004762D03*
X037601Y003262D03*
X037601Y001762D03*
X032601Y001762D03*
X032601Y003262D03*
X032601Y004762D03*
X032601Y006262D03*
X032601Y007762D03*
D20*
X003476Y015178D03*
X003476Y016596D03*
D21*
X019642Y015887D03*
X021059Y015887D03*
D22*
X021141Y014132D03*
X021141Y013762D03*
X021141Y013392D03*
X020061Y013392D03*
X020061Y013762D03*
X020061Y014132D03*
D23*
X020726Y011012D03*
X028101Y015262D03*
X030476Y009012D03*
X024851Y003637D03*
D24*
X027702Y004887D03*
X027702Y005387D03*
X027702Y005887D03*
X027702Y006387D03*
X027702Y006887D03*
X027702Y007387D03*
X027702Y007887D03*
X029749Y007887D03*
X029749Y007387D03*
X029749Y006887D03*
X029749Y006387D03*
X029749Y005887D03*
X029749Y005387D03*
X029749Y004887D03*
D25*
X024546Y005387D03*
X024546Y005887D03*
X024546Y006387D03*
X024546Y006887D03*
X022406Y006887D03*
X022406Y006387D03*
X022406Y005887D03*
X022406Y005387D03*
X026156Y011887D03*
X026156Y012387D03*
X026156Y012887D03*
X026156Y013387D03*
X028296Y013387D03*
X028296Y012887D03*
X028296Y012387D03*
X028296Y011887D03*
M02*
