%
M48
M72
T01C0.0197
T02C0.0236
T03C0.0320
T04C0.0400
T05C0.0520
%
T01
X2000Y5012
X3000Y6012
X4625Y6762
X6500Y5762
X6500Y5012
X9750Y8637
X10875Y8887
X13500Y10262
X14000Y9887
X14375Y10762
X12750Y12012
X9750Y13887
X9000Y14387
X8625Y13887
X8750Y13387
X9250Y13012
X7625Y13887
X7625Y14387
X10500Y15137
X11125Y16762
X15750Y16387
X16625Y16012
X17250Y15637
X19000Y15012
X17000Y12887
X16625Y12387
X19250Y11137
X21500Y11012
X22875Y11262
X25625Y9762
X23875Y8262
X24500Y7637
X26125Y6137
X25000Y5387
X21625Y4887
X22875Y9387
X16875Y10387
X15875Y9387
X25125Y14137
X23000Y15637
X19375Y17262
X30750Y15262
X31500Y14512
X31500Y9012
X6000Y18137
X4500Y17387
X3375Y14262
X3375Y10262
T02
X17625Y14137
X19250Y14137
T03
X6500Y11212
X6500Y9312
X19625Y18637
X22625Y18637
X32500Y15262
X32500Y13762
X32500Y12262
X32500Y10762
X32500Y9262
X32500Y7762
X32500Y6262
X32500Y4762
X32500Y3262
X32500Y1762
X37500Y1762
X37500Y3262
X37500Y4762
X37500Y6262
X37500Y7762
X37500Y9262
X37500Y10762
X37500Y12262
X37500Y13762
X37500Y15262
T04
X1500Y12512
X1500Y11512
X1500Y9137
X1500Y8137
X1500Y7137
X2000Y1762
X3000Y1762
X6500Y1762
X7500Y1762
X8500Y1762
X12000Y1762
X12000Y2762
X12125Y5012
X11125Y5012
X11125Y6012
X12125Y6012
X12125Y7012
X11125Y7012
X15750Y1762
X16750Y1762
X19250Y1762
X20250Y1762
X21625Y17512
X22625Y17512
X24375Y18387
X25375Y18387
X26375Y18387
X31125Y18387
X32125Y18387
X33125Y18387
X18000Y17762
X17000Y17762
X16000Y17762
X15000Y17762
T05
X35510Y17887
X37490Y17887
M30
