G75*
G70*
%OFA0B0*%
%FSLAX24Y24*%
%IPPOS*%
%LPD*%
%AMOC8*
5,1,8,0,0,1.08239X$1,22.5*
%
%ADD10C,0.0000*%
%ADD11C,0.0060*%
%ADD12C,0.0030*%
%ADD13C,0.0040*%
%ADD14C,0.0050*%
%ADD15C,0.0080*%
%ADD16C,0.0160*%
%ADD17R,0.0340X0.0240*%
%ADD18R,0.4000X0.0400*%
%ADD19C,0.0200*%
%ADD20R,0.4200X0.0300*%
%ADD21R,0.0750X0.0200*%
%ADD22R,0.0300X0.0200*%
%ADD23R,0.0300X0.1500*%
%ADD24C,0.0070*%
%ADD25R,0.0200X0.0800*%
%ADD26R,0.0250X0.0200*%
D10*
X000125Y000262D02*
X000125Y019632D01*
X038992Y019632D01*
X038992Y000262D01*
X000125Y000262D01*
X023255Y007117D02*
X023257Y007096D01*
X023262Y007076D01*
X023271Y007057D01*
X023283Y007040D01*
X023298Y007025D01*
X023315Y007013D01*
X023334Y007004D01*
X023354Y006999D01*
X023375Y006997D01*
X023396Y006999D01*
X023416Y007004D01*
X023435Y007013D01*
X023452Y007025D01*
X023467Y007040D01*
X023479Y007057D01*
X023488Y007076D01*
X023493Y007096D01*
X023495Y007117D01*
X027005Y013617D02*
X027007Y013596D01*
X027012Y013576D01*
X027021Y013557D01*
X027033Y013540D01*
X027048Y013525D01*
X027065Y013513D01*
X027084Y013504D01*
X027104Y013499D01*
X027125Y013497D01*
X027146Y013499D01*
X027166Y013504D01*
X027185Y013513D01*
X027202Y013525D01*
X027217Y013540D01*
X027229Y013557D01*
X027238Y013576D01*
X027243Y013596D01*
X027245Y013617D01*
D11*
X027005Y013617D01*
X026385Y013617D01*
X027245Y013617D02*
X027865Y013617D01*
X027865Y011657D02*
X026385Y011657D01*
X020750Y013152D02*
X020620Y013152D01*
X020380Y013152D01*
X020250Y013152D01*
X020380Y013152D02*
X020382Y013173D01*
X020387Y013193D01*
X020396Y013212D01*
X020408Y013229D01*
X020423Y013244D01*
X020440Y013256D01*
X020459Y013265D01*
X020479Y013270D01*
X020500Y013272D01*
X020521Y013270D01*
X020541Y013265D01*
X020560Y013256D01*
X020577Y013244D01*
X020592Y013229D01*
X020604Y013212D01*
X020613Y013193D01*
X020618Y013173D01*
X020620Y013152D01*
X020750Y014372D02*
X020250Y014372D01*
X021619Y016274D02*
X021619Y016701D01*
X021832Y016487D02*
X021405Y016487D01*
X021375Y017012D02*
X021875Y017012D01*
X022125Y017262D01*
X022375Y017012D01*
X022875Y017012D01*
X023125Y017262D01*
X023125Y017762D01*
X022875Y018012D01*
X022375Y018012D01*
X022125Y017762D01*
X022125Y017262D01*
X022125Y017762D02*
X021875Y018012D01*
X021375Y018012D01*
X021125Y017762D01*
X021125Y017262D01*
X021375Y017012D01*
X021925Y018237D02*
X020325Y018237D01*
X020308Y018239D01*
X020291Y018243D01*
X020275Y018250D01*
X020261Y018260D01*
X020248Y018273D01*
X020238Y018287D01*
X020231Y018303D01*
X020227Y018320D01*
X020225Y018337D01*
X020225Y018937D01*
X020227Y018954D01*
X020231Y018971D01*
X020238Y018987D01*
X020248Y019001D01*
X020261Y019014D01*
X020275Y019024D01*
X020291Y019031D01*
X020308Y019035D01*
X020325Y019037D01*
X021925Y019037D01*
X021942Y019035D01*
X021959Y019031D01*
X021975Y019024D01*
X021989Y019014D01*
X022002Y019001D01*
X022012Y018987D01*
X022019Y018971D01*
X022023Y018954D01*
X022025Y018937D01*
X022025Y018337D01*
X022023Y018320D01*
X022019Y018303D01*
X022012Y018287D01*
X022002Y018273D01*
X021989Y018260D01*
X021975Y018250D01*
X021959Y018243D01*
X021942Y018239D01*
X021925Y018237D01*
X021525Y018387D02*
X021125Y018637D01*
X021125Y018387D01*
X021125Y018637D02*
X020875Y018637D01*
X021125Y018637D02*
X021125Y018887D01*
X021125Y018637D02*
X021525Y018887D01*
X021525Y018387D01*
X021725Y018637D02*
X021125Y018637D01*
X023375Y018937D02*
X023425Y017787D01*
X023525Y017687D01*
X027225Y017687D01*
X027325Y017787D01*
X027375Y018937D01*
X033300Y015762D02*
X033300Y014762D01*
X033302Y014745D01*
X033306Y014728D01*
X033313Y014712D01*
X033323Y014698D01*
X033336Y014685D01*
X033350Y014675D01*
X033366Y014668D01*
X033383Y014664D01*
X033400Y014662D01*
X033650Y014662D01*
X033700Y014712D01*
X036300Y014712D01*
X036350Y014662D01*
X036600Y014662D01*
X036617Y014664D01*
X036634Y014668D01*
X036650Y014675D01*
X036664Y014685D01*
X036677Y014698D01*
X036687Y014712D01*
X036694Y014728D01*
X036698Y014745D01*
X036700Y014762D01*
X036700Y015762D01*
X036698Y015779D01*
X036694Y015796D01*
X036687Y015812D01*
X036677Y015826D01*
X036664Y015839D01*
X036650Y015849D01*
X036634Y015856D01*
X036617Y015860D01*
X036600Y015862D01*
X036350Y015862D01*
X036300Y015812D01*
X033700Y015812D01*
X033650Y015862D01*
X033400Y015862D01*
X033383Y015860D01*
X033366Y015856D01*
X033350Y015849D01*
X033336Y015839D01*
X033323Y015826D01*
X033313Y015812D01*
X033306Y015796D01*
X033302Y015779D01*
X033300Y015762D01*
X034500Y016337D02*
X034500Y017037D01*
X034500Y018737D01*
X034500Y019287D01*
X038500Y019287D01*
X038500Y018737D01*
X038500Y017037D01*
X034500Y017037D01*
X034332Y017362D02*
X033905Y017362D01*
X034119Y017149D02*
X034119Y017576D01*
X035310Y016687D02*
X035312Y016715D01*
X035318Y016742D01*
X035327Y016768D01*
X035340Y016793D01*
X035357Y016816D01*
X035376Y016836D01*
X035398Y016853D01*
X035422Y016867D01*
X035448Y016877D01*
X035475Y016884D01*
X035503Y016887D01*
X035531Y016886D01*
X035558Y016881D01*
X035585Y016872D01*
X035610Y016860D01*
X035633Y016845D01*
X035654Y016826D01*
X035672Y016805D01*
X035687Y016781D01*
X035698Y016755D01*
X035706Y016729D01*
X035710Y016701D01*
X035710Y016673D01*
X035706Y016645D01*
X035698Y016619D01*
X035687Y016593D01*
X035672Y016569D01*
X035654Y016548D01*
X035633Y016529D01*
X035610Y016514D01*
X035585Y016502D01*
X035558Y016493D01*
X035531Y016488D01*
X035503Y016487D01*
X035475Y016490D01*
X035448Y016497D01*
X035422Y016507D01*
X035398Y016521D01*
X035376Y016538D01*
X035357Y016558D01*
X035340Y016581D01*
X035327Y016606D01*
X035318Y016632D01*
X035312Y016659D01*
X035310Y016687D01*
X034500Y016337D02*
X038500Y016337D01*
X038500Y016687D01*
X038500Y017037D01*
X038700Y017087D01*
X038700Y016637D01*
X038500Y016687D01*
X037290Y016687D02*
X037292Y016715D01*
X037298Y016742D01*
X037307Y016768D01*
X037320Y016793D01*
X037337Y016816D01*
X037356Y016836D01*
X037378Y016853D01*
X037402Y016867D01*
X037428Y016877D01*
X037455Y016884D01*
X037483Y016887D01*
X037511Y016886D01*
X037538Y016881D01*
X037565Y016872D01*
X037590Y016860D01*
X037613Y016845D01*
X037634Y016826D01*
X037652Y016805D01*
X037667Y016781D01*
X037678Y016755D01*
X037686Y016729D01*
X037690Y016701D01*
X037690Y016673D01*
X037686Y016645D01*
X037678Y016619D01*
X037667Y016593D01*
X037652Y016569D01*
X037634Y016548D01*
X037613Y016529D01*
X037590Y016514D01*
X037565Y016502D01*
X037538Y016493D01*
X037511Y016488D01*
X037483Y016487D01*
X037455Y016490D01*
X037428Y016497D01*
X037402Y016507D01*
X037378Y016521D01*
X037356Y016538D01*
X037337Y016558D01*
X037320Y016581D01*
X037307Y016606D01*
X037298Y016632D01*
X037292Y016659D01*
X037290Y016687D01*
X038500Y018737D02*
X034500Y018737D01*
X033650Y014362D02*
X033400Y014362D01*
X033383Y014360D01*
X033366Y014356D01*
X033350Y014349D01*
X033336Y014339D01*
X033323Y014326D01*
X033313Y014312D01*
X033306Y014296D01*
X033302Y014279D01*
X033300Y014262D01*
X033300Y013262D01*
X033302Y013245D01*
X033306Y013228D01*
X033313Y013212D01*
X033323Y013198D01*
X033336Y013185D01*
X033350Y013175D01*
X033366Y013168D01*
X033383Y013164D01*
X033400Y013162D01*
X033650Y013162D01*
X033700Y013212D01*
X036300Y013212D01*
X036350Y013162D01*
X036600Y013162D01*
X036617Y013164D01*
X036634Y013168D01*
X036650Y013175D01*
X036664Y013185D01*
X036677Y013198D01*
X036687Y013212D01*
X036694Y013228D01*
X036698Y013245D01*
X036700Y013262D01*
X036700Y014262D01*
X036698Y014279D01*
X036694Y014296D01*
X036687Y014312D01*
X036677Y014326D01*
X036664Y014339D01*
X036650Y014349D01*
X036634Y014356D01*
X036617Y014360D01*
X036600Y014362D01*
X036350Y014362D01*
X036300Y014312D01*
X033700Y014312D01*
X033650Y014362D01*
X033650Y012862D02*
X033400Y012862D01*
X033383Y012860D01*
X033366Y012856D01*
X033350Y012849D01*
X033336Y012839D01*
X033323Y012826D01*
X033313Y012812D01*
X033306Y012796D01*
X033302Y012779D01*
X033300Y012762D01*
X033300Y011762D01*
X033302Y011745D01*
X033306Y011728D01*
X033313Y011712D01*
X033323Y011698D01*
X033336Y011685D01*
X033350Y011675D01*
X033366Y011668D01*
X033383Y011664D01*
X033400Y011662D01*
X033650Y011662D01*
X033700Y011712D01*
X036300Y011712D01*
X036350Y011662D01*
X036600Y011662D01*
X036617Y011664D01*
X036634Y011668D01*
X036650Y011675D01*
X036664Y011685D01*
X036677Y011698D01*
X036687Y011712D01*
X036694Y011728D01*
X036698Y011745D01*
X036700Y011762D01*
X036700Y012762D01*
X036698Y012779D01*
X036694Y012796D01*
X036687Y012812D01*
X036677Y012826D01*
X036664Y012839D01*
X036650Y012849D01*
X036634Y012856D01*
X036617Y012860D01*
X036600Y012862D01*
X036350Y012862D01*
X036300Y012812D01*
X033700Y012812D01*
X033650Y012862D01*
X033650Y011362D02*
X033400Y011362D01*
X033383Y011360D01*
X033366Y011356D01*
X033350Y011349D01*
X033336Y011339D01*
X033323Y011326D01*
X033313Y011312D01*
X033306Y011296D01*
X033302Y011279D01*
X033300Y011262D01*
X033300Y010262D01*
X033302Y010245D01*
X033306Y010228D01*
X033313Y010212D01*
X033323Y010198D01*
X033336Y010185D01*
X033350Y010175D01*
X033366Y010168D01*
X033383Y010164D01*
X033400Y010162D01*
X033650Y010162D01*
X033700Y010212D01*
X036300Y010212D01*
X036350Y010162D01*
X036600Y010162D01*
X036617Y010164D01*
X036634Y010168D01*
X036650Y010175D01*
X036664Y010185D01*
X036677Y010198D01*
X036687Y010212D01*
X036694Y010228D01*
X036698Y010245D01*
X036700Y010262D01*
X036700Y011262D01*
X036698Y011279D01*
X036694Y011296D01*
X036687Y011312D01*
X036677Y011326D01*
X036664Y011339D01*
X036650Y011349D01*
X036634Y011356D01*
X036617Y011360D01*
X036600Y011362D01*
X036350Y011362D01*
X036300Y011312D01*
X033700Y011312D01*
X033650Y011362D01*
X033650Y009862D02*
X033400Y009862D01*
X033383Y009860D01*
X033366Y009856D01*
X033350Y009849D01*
X033336Y009839D01*
X033323Y009826D01*
X033313Y009812D01*
X033306Y009796D01*
X033302Y009779D01*
X033300Y009762D01*
X033300Y008762D01*
X033302Y008745D01*
X033306Y008728D01*
X033313Y008712D01*
X033323Y008698D01*
X033336Y008685D01*
X033350Y008675D01*
X033366Y008668D01*
X033383Y008664D01*
X033400Y008662D01*
X033650Y008662D01*
X033700Y008712D01*
X036300Y008712D01*
X036350Y008662D01*
X036600Y008662D01*
X036617Y008664D01*
X036634Y008668D01*
X036650Y008675D01*
X036664Y008685D01*
X036677Y008698D01*
X036687Y008712D01*
X036694Y008728D01*
X036698Y008745D01*
X036700Y008762D01*
X036700Y009762D01*
X036698Y009779D01*
X036694Y009796D01*
X036687Y009812D01*
X036677Y009826D01*
X036664Y009839D01*
X036650Y009849D01*
X036634Y009856D01*
X036617Y009860D01*
X036600Y009862D01*
X036350Y009862D01*
X036300Y009812D01*
X033700Y009812D01*
X033650Y009862D01*
X033650Y008362D02*
X033400Y008362D01*
X033383Y008360D01*
X033366Y008356D01*
X033350Y008349D01*
X033336Y008339D01*
X033323Y008326D01*
X033313Y008312D01*
X033306Y008296D01*
X033302Y008279D01*
X033300Y008262D01*
X033300Y007262D01*
X033302Y007245D01*
X033306Y007228D01*
X033313Y007212D01*
X033323Y007198D01*
X033336Y007185D01*
X033350Y007175D01*
X033366Y007168D01*
X033383Y007164D01*
X033400Y007162D01*
X033650Y007162D01*
X033700Y007212D01*
X036300Y007212D01*
X036350Y007162D01*
X036600Y007162D01*
X036617Y007164D01*
X036634Y007168D01*
X036650Y007175D01*
X036664Y007185D01*
X036677Y007198D01*
X036687Y007212D01*
X036694Y007228D01*
X036698Y007245D01*
X036700Y007262D01*
X036700Y008262D01*
X036698Y008279D01*
X036694Y008296D01*
X036687Y008312D01*
X036677Y008326D01*
X036664Y008339D01*
X036650Y008349D01*
X036634Y008356D01*
X036617Y008360D01*
X036600Y008362D01*
X036350Y008362D01*
X036300Y008312D01*
X033700Y008312D01*
X033650Y008362D01*
X033650Y006862D02*
X033400Y006862D01*
X033383Y006860D01*
X033366Y006856D01*
X033350Y006849D01*
X033336Y006839D01*
X033323Y006826D01*
X033313Y006812D01*
X033306Y006796D01*
X033302Y006779D01*
X033300Y006762D01*
X033300Y005762D01*
X033302Y005745D01*
X033306Y005728D01*
X033313Y005712D01*
X033323Y005698D01*
X033336Y005685D01*
X033350Y005675D01*
X033366Y005668D01*
X033383Y005664D01*
X033400Y005662D01*
X033650Y005662D01*
X033700Y005712D01*
X036300Y005712D01*
X036350Y005662D01*
X036600Y005662D01*
X036617Y005664D01*
X036634Y005668D01*
X036650Y005675D01*
X036664Y005685D01*
X036677Y005698D01*
X036687Y005712D01*
X036694Y005728D01*
X036698Y005745D01*
X036700Y005762D01*
X036700Y006762D01*
X036698Y006779D01*
X036694Y006796D01*
X036687Y006812D01*
X036677Y006826D01*
X036664Y006839D01*
X036650Y006849D01*
X036634Y006856D01*
X036617Y006860D01*
X036600Y006862D01*
X036350Y006862D01*
X036300Y006812D01*
X033700Y006812D01*
X033650Y006862D01*
X033650Y005362D02*
X033400Y005362D01*
X033383Y005360D01*
X033366Y005356D01*
X033350Y005349D01*
X033336Y005339D01*
X033323Y005326D01*
X033313Y005312D01*
X033306Y005296D01*
X033302Y005279D01*
X033300Y005262D01*
X033300Y004262D01*
X033302Y004245D01*
X033306Y004228D01*
X033313Y004212D01*
X033323Y004198D01*
X033336Y004185D01*
X033350Y004175D01*
X033366Y004168D01*
X033383Y004164D01*
X033400Y004162D01*
X033650Y004162D01*
X033700Y004212D01*
X036300Y004212D01*
X036350Y004162D01*
X036600Y004162D01*
X036617Y004164D01*
X036634Y004168D01*
X036650Y004175D01*
X036664Y004185D01*
X036677Y004198D01*
X036687Y004212D01*
X036694Y004228D01*
X036698Y004245D01*
X036700Y004262D01*
X036700Y005262D01*
X036698Y005279D01*
X036694Y005296D01*
X036687Y005312D01*
X036677Y005326D01*
X036664Y005339D01*
X036650Y005349D01*
X036634Y005356D01*
X036617Y005360D01*
X036600Y005362D01*
X036350Y005362D01*
X036300Y005312D01*
X033700Y005312D01*
X033650Y005362D01*
X033650Y003862D02*
X033400Y003862D01*
X033383Y003860D01*
X033366Y003856D01*
X033350Y003849D01*
X033336Y003839D01*
X033323Y003826D01*
X033313Y003812D01*
X033306Y003796D01*
X033302Y003779D01*
X033300Y003762D01*
X033300Y002762D01*
X033302Y002745D01*
X033306Y002728D01*
X033313Y002712D01*
X033323Y002698D01*
X033336Y002685D01*
X033350Y002675D01*
X033366Y002668D01*
X033383Y002664D01*
X033400Y002662D01*
X033650Y002662D01*
X033700Y002712D01*
X036300Y002712D01*
X036350Y002662D01*
X036600Y002662D01*
X036617Y002664D01*
X036634Y002668D01*
X036650Y002675D01*
X036664Y002685D01*
X036677Y002698D01*
X036687Y002712D01*
X036694Y002728D01*
X036698Y002745D01*
X036700Y002762D01*
X036700Y003762D01*
X036698Y003779D01*
X036694Y003796D01*
X036687Y003812D01*
X036677Y003826D01*
X036664Y003839D01*
X036650Y003849D01*
X036634Y003856D01*
X036617Y003860D01*
X036600Y003862D01*
X036350Y003862D01*
X036300Y003812D01*
X033700Y003812D01*
X033650Y003862D01*
X033650Y002362D02*
X033400Y002362D01*
X033383Y002360D01*
X033366Y002356D01*
X033350Y002349D01*
X033336Y002339D01*
X033323Y002326D01*
X033313Y002312D01*
X033306Y002296D01*
X033302Y002279D01*
X033300Y002262D01*
X033300Y001262D01*
X033302Y001245D01*
X033306Y001228D01*
X033313Y001212D01*
X033323Y001198D01*
X033336Y001185D01*
X033350Y001175D01*
X033366Y001168D01*
X033383Y001164D01*
X033400Y001162D01*
X033650Y001162D01*
X033700Y001212D01*
X036300Y001212D01*
X036350Y001162D01*
X036600Y001162D01*
X036617Y001164D01*
X036634Y001168D01*
X036650Y001175D01*
X036664Y001185D01*
X036677Y001198D01*
X036687Y001212D01*
X036694Y001228D01*
X036698Y001245D01*
X036700Y001262D01*
X036700Y002262D01*
X036698Y002279D01*
X036694Y002296D01*
X036687Y002312D01*
X036677Y002326D01*
X036664Y002339D01*
X036650Y002349D01*
X036634Y002356D01*
X036617Y002360D01*
X036600Y002362D01*
X036350Y002362D01*
X036300Y002312D01*
X033700Y002312D01*
X033650Y002362D01*
X024115Y005157D02*
X022635Y005157D01*
X022635Y007117D02*
X023255Y007117D01*
X023495Y007117D01*
X024115Y007117D01*
X020500Y002262D02*
X020000Y002262D01*
X019750Y002012D01*
X019750Y001512D01*
X020000Y001262D01*
X020500Y001262D01*
X020750Y001512D01*
X020750Y002012D01*
X020500Y002262D01*
X019750Y002012D02*
X019500Y002262D01*
X019000Y002262D01*
X018750Y002012D01*
X018750Y001512D01*
X019000Y001262D01*
X019500Y001262D01*
X019750Y001512D01*
X017250Y001512D02*
X017000Y001262D01*
X016500Y001262D01*
X016250Y001512D01*
X016000Y001262D01*
X015500Y001262D01*
X015250Y001512D01*
X015250Y002012D01*
X015500Y002262D01*
X016000Y002262D01*
X016250Y002012D01*
X016500Y002262D01*
X017000Y002262D01*
X017250Y002012D01*
X017250Y001512D01*
X016250Y001512D02*
X016250Y002012D01*
X012500Y002012D02*
X012500Y001512D01*
X012250Y001262D01*
X011750Y001262D01*
X011500Y001512D01*
X011500Y002012D01*
X011750Y002262D01*
X011500Y002512D01*
X011500Y003012D01*
X011750Y003262D01*
X012250Y003262D01*
X012500Y003012D01*
X012500Y002512D01*
X012250Y002262D01*
X012500Y002012D01*
X012250Y002262D02*
X011750Y002262D01*
X009000Y002012D02*
X009000Y001512D01*
X008750Y001262D01*
X008250Y001262D01*
X008000Y001512D01*
X007750Y001262D01*
X007250Y001262D01*
X007000Y001512D01*
X006750Y001262D01*
X006250Y001262D01*
X006000Y001512D01*
X006000Y002012D01*
X006250Y002262D01*
X006750Y002262D01*
X007000Y002012D01*
X007250Y002262D01*
X007750Y002262D01*
X008000Y002012D01*
X008250Y002262D01*
X008750Y002262D01*
X009000Y002012D01*
X008000Y002012D02*
X008000Y001512D01*
X007000Y001512D02*
X007000Y002012D01*
X003500Y002012D02*
X003500Y001512D01*
X003250Y001262D01*
X002750Y001262D01*
X002500Y001512D01*
X002250Y001262D01*
X001750Y001262D01*
X001500Y001512D01*
X001500Y002012D01*
X001750Y002262D01*
X002250Y002262D01*
X002500Y002012D01*
X002750Y002262D01*
X003250Y002262D01*
X003500Y002012D01*
X002500Y002012D02*
X002500Y001512D01*
X001750Y006637D02*
X001250Y006637D01*
X001000Y006887D01*
X001000Y007387D01*
X001250Y007637D01*
X001000Y007887D01*
X001000Y008387D01*
X001250Y008637D01*
X001000Y008887D01*
X001000Y009387D01*
X001250Y009637D01*
X001750Y009637D01*
X002000Y009387D01*
X002000Y008887D01*
X001750Y008637D01*
X002000Y008387D01*
X002000Y007887D01*
X001750Y007637D01*
X002000Y007387D01*
X002000Y006887D01*
X001750Y006637D01*
X002530Y006792D02*
X002530Y007433D01*
X002850Y007433D01*
X002957Y007326D01*
X002957Y007112D01*
X002850Y007006D01*
X002530Y007006D01*
X002744Y007006D02*
X002957Y006792D01*
X003175Y006792D02*
X003602Y007433D01*
X003175Y007433D02*
X003602Y006792D01*
X003477Y007792D02*
X003050Y008433D01*
X002832Y008433D02*
X002405Y008433D01*
X002619Y008433D02*
X002619Y007792D01*
X003050Y007792D02*
X003477Y008433D01*
X001750Y008637D02*
X001250Y008637D01*
X001250Y007637D02*
X001750Y007637D01*
X005850Y009062D02*
X005850Y011462D01*
X005852Y011512D01*
X005858Y011561D01*
X005867Y011610D01*
X005880Y011658D01*
X005897Y011705D01*
X005917Y011750D01*
X005941Y011794D01*
X005968Y011836D01*
X005999Y011876D01*
X006032Y011913D01*
X006068Y011947D01*
X006106Y011979D01*
X006147Y012008D01*
X006189Y012033D01*
X006234Y012055D01*
X006280Y012074D01*
X006328Y012089D01*
X006376Y012100D01*
X006425Y012108D01*
X006475Y012112D01*
X006525Y012112D01*
X006575Y012108D01*
X006624Y012100D01*
X006672Y012089D01*
X006720Y012074D01*
X006766Y012055D01*
X006811Y012033D01*
X006853Y012008D01*
X006894Y011979D01*
X006932Y011947D01*
X006968Y011913D01*
X007001Y011876D01*
X007032Y011836D01*
X007059Y011794D01*
X007083Y011750D01*
X007103Y011705D01*
X007120Y011658D01*
X007133Y011610D01*
X007142Y011561D01*
X007148Y011512D01*
X007150Y011462D01*
X007150Y009062D01*
X007148Y009012D01*
X007142Y008963D01*
X007133Y008914D01*
X007120Y008866D01*
X007103Y008819D01*
X007083Y008774D01*
X007059Y008730D01*
X007032Y008688D01*
X007001Y008648D01*
X006968Y008611D01*
X006932Y008577D01*
X006894Y008545D01*
X006853Y008516D01*
X006811Y008491D01*
X006766Y008469D01*
X006720Y008450D01*
X006672Y008435D01*
X006624Y008424D01*
X006575Y008416D01*
X006525Y008412D01*
X006475Y008412D01*
X006425Y008416D01*
X006376Y008424D01*
X006328Y008435D01*
X006280Y008450D01*
X006234Y008469D01*
X006189Y008491D01*
X006147Y008516D01*
X006106Y008545D01*
X006068Y008577D01*
X006032Y008611D01*
X005999Y008648D01*
X005968Y008688D01*
X005941Y008730D01*
X005917Y008774D01*
X005897Y008819D01*
X005880Y008866D01*
X005867Y008914D01*
X005858Y008963D01*
X005852Y009012D01*
X005850Y009062D01*
X006500Y009762D02*
X006500Y010012D01*
X006800Y010012D01*
X006800Y010162D02*
X006200Y010162D01*
X006200Y010362D01*
X006800Y010362D01*
X006800Y010162D01*
X006500Y010012D02*
X006200Y010012D01*
X006200Y010512D02*
X006500Y010512D01*
X006500Y010762D01*
X006500Y010512D02*
X006800Y010512D01*
X010620Y010882D02*
X010620Y013502D01*
X010760Y013642D01*
X013380Y013642D01*
X013380Y010882D01*
X010620Y010882D01*
X010779Y013342D02*
X010781Y013365D01*
X010787Y013388D01*
X010796Y013409D01*
X010809Y013429D01*
X010825Y013446D01*
X010843Y013460D01*
X010863Y013471D01*
X010885Y013479D01*
X010908Y013483D01*
X010932Y013483D01*
X010955Y013479D01*
X010977Y013471D01*
X010997Y013460D01*
X011015Y013446D01*
X011031Y013429D01*
X011044Y013409D01*
X011053Y013388D01*
X011059Y013365D01*
X011061Y013342D01*
X011059Y013319D01*
X011053Y013296D01*
X011044Y013275D01*
X011031Y013255D01*
X011015Y013238D01*
X010997Y013224D01*
X010977Y013213D01*
X010955Y013205D01*
X010932Y013201D01*
X010908Y013201D01*
X010885Y013205D01*
X010863Y013213D01*
X010843Y013224D01*
X010825Y013238D01*
X010809Y013255D01*
X010796Y013275D01*
X010787Y013296D01*
X010781Y013319D01*
X010779Y013342D01*
X014750Y017262D02*
X014500Y017512D01*
X014500Y018012D01*
X014750Y018262D01*
X015250Y018262D01*
X015500Y018012D01*
X015750Y018262D01*
X016250Y018262D01*
X016500Y018012D01*
X016750Y018262D01*
X017250Y018262D01*
X017500Y018012D01*
X017750Y018262D01*
X018250Y018262D01*
X018500Y018012D01*
X018500Y017512D01*
X018250Y017262D01*
X017750Y017262D01*
X017500Y017512D01*
X017250Y017262D01*
X016750Y017262D01*
X016500Y017512D01*
X016500Y018012D01*
X016500Y017512D02*
X016250Y017262D01*
X015750Y017262D01*
X015500Y017512D01*
X015250Y017262D01*
X014750Y017262D01*
X015500Y017512D02*
X015500Y018012D01*
X017500Y018012D02*
X017500Y017512D01*
X009100Y017682D02*
X009100Y018042D01*
X008740Y018042D01*
X008260Y018042D02*
X007900Y018042D01*
X007900Y017682D01*
X008370Y017482D02*
X008630Y017482D01*
X002000Y012762D02*
X001750Y013012D01*
X001250Y013012D01*
X001000Y012762D01*
X001000Y012262D01*
X001250Y012012D01*
X001750Y012012D01*
X002000Y012262D01*
X002000Y012762D01*
X001750Y012012D02*
X002000Y011762D01*
X002000Y011262D01*
X001750Y011012D01*
X001250Y011012D01*
X001000Y011262D01*
X001000Y011762D01*
X001250Y012012D01*
X000744Y013024D02*
X000744Y013451D01*
X000957Y013237D02*
X000530Y013237D01*
D12*
X007763Y017047D02*
X008077Y017361D01*
X008077Y017204D02*
X007763Y017204D01*
X007763Y017361D02*
X008077Y017047D01*
X007920Y017047D02*
X007920Y017361D01*
X010925Y014567D02*
X011022Y014567D01*
X010973Y014567D02*
X010973Y014277D01*
X010925Y014277D02*
X011022Y014277D01*
X011121Y014325D02*
X011170Y014277D01*
X011267Y014277D01*
X011315Y014325D01*
X011416Y014277D02*
X011610Y014277D01*
X011513Y014277D02*
X011513Y014567D01*
X011416Y014471D01*
X011315Y014519D02*
X011267Y014567D01*
X011170Y014567D01*
X011121Y014519D01*
X011121Y014325D01*
X021041Y013129D02*
X021355Y012815D01*
X021198Y012815D02*
X021198Y013129D01*
X021355Y013129D02*
X021041Y012815D01*
X021041Y012972D02*
X021355Y012972D01*
X025740Y013650D02*
X026054Y013964D01*
X026054Y013807D02*
X025740Y013807D01*
X025740Y013964D02*
X026054Y013650D01*
X025897Y013650D02*
X025897Y013964D01*
X022304Y007464D02*
X021990Y007150D01*
X022147Y007150D02*
X022147Y007464D01*
X021990Y007464D02*
X022304Y007150D01*
X022304Y007307D02*
X021990Y007307D01*
D13*
X026145Y007398D02*
X026145Y007552D01*
X026221Y007629D01*
X026528Y007322D01*
X026605Y007398D01*
X026605Y007552D01*
X026528Y007629D01*
X026221Y007629D01*
X026145Y007398D02*
X026221Y007322D01*
X026528Y007322D01*
X026605Y007168D02*
X026605Y006861D01*
X026298Y007168D01*
X026221Y007168D01*
X026145Y007091D01*
X026145Y006938D01*
X026221Y006861D01*
X026221Y006708D02*
X026145Y006631D01*
X026145Y006478D01*
X026221Y006401D01*
X026528Y006401D01*
X026605Y006478D01*
X026605Y006631D01*
X026528Y006708D01*
X028020Y004542D02*
X028173Y004542D01*
X028097Y004542D02*
X028097Y004082D01*
X028173Y004082D02*
X028020Y004082D01*
X028327Y004159D02*
X028404Y004082D01*
X028557Y004082D01*
X028634Y004159D01*
X028787Y004159D02*
X028864Y004082D01*
X029017Y004082D01*
X029094Y004159D01*
X029094Y004235D01*
X029017Y004312D01*
X028941Y004312D01*
X029017Y004312D02*
X029094Y004389D01*
X029094Y004466D01*
X029017Y004542D01*
X028864Y004542D01*
X028787Y004466D01*
X028634Y004466D02*
X028557Y004542D01*
X028404Y004542D01*
X028327Y004466D01*
X028327Y004159D01*
X025536Y003031D02*
X025382Y003031D01*
X025459Y003031D02*
X025459Y002570D01*
X025382Y002570D02*
X025536Y002570D01*
X025229Y002494D02*
X024922Y002494D01*
X024692Y002724D02*
X024462Y002724D01*
X024462Y002570D02*
X024462Y003031D01*
X024692Y003031D01*
X024769Y002954D01*
X024769Y002801D01*
X024692Y002724D01*
X024308Y003031D02*
X024001Y003031D01*
X024155Y003031D02*
X024155Y002570D01*
X021230Y002978D02*
X021153Y002901D01*
X020846Y002901D01*
X020770Y002978D01*
X020770Y003131D01*
X020846Y003208D01*
X020846Y003361D02*
X020770Y003438D01*
X020770Y003591D01*
X020846Y003668D01*
X020923Y003668D01*
X021230Y003361D01*
X021230Y003668D01*
X021230Y003822D02*
X020923Y004129D01*
X020846Y004129D01*
X020770Y004052D01*
X020770Y003898D01*
X020846Y003822D01*
X021230Y003822D02*
X021230Y004129D01*
X021153Y003208D02*
X021230Y003131D01*
X021230Y002978D01*
X018730Y003532D02*
X018270Y003532D01*
X018270Y003762D01*
X018346Y003839D01*
X018500Y003839D01*
X018577Y003762D01*
X018577Y003532D01*
X018577Y003685D02*
X018730Y003839D01*
X018653Y003992D02*
X018730Y004069D01*
X018730Y004223D01*
X018653Y004299D01*
X018346Y004299D01*
X018270Y004223D01*
X018270Y004069D01*
X018346Y003992D01*
X018423Y003992D01*
X018500Y004069D01*
X018500Y004299D01*
X017730Y004129D02*
X017730Y003822D01*
X017730Y003975D02*
X017270Y003975D01*
X017423Y003822D01*
X017423Y003668D02*
X017346Y003668D01*
X017270Y003591D01*
X017270Y003438D01*
X017346Y003361D01*
X017346Y003208D02*
X017270Y003131D01*
X017270Y002978D01*
X017346Y002901D01*
X017653Y002901D01*
X017730Y002978D01*
X017730Y003131D01*
X017653Y003208D01*
X017730Y003361D02*
X017423Y003668D01*
X017730Y003668D02*
X017730Y003361D01*
X015230Y003532D02*
X014770Y003532D01*
X014770Y003762D01*
X014846Y003839D01*
X015000Y003839D01*
X015077Y003762D01*
X015077Y003532D01*
X015077Y003685D02*
X015230Y003839D01*
X015153Y003992D02*
X015077Y003992D01*
X015000Y004069D01*
X015000Y004223D01*
X015077Y004299D01*
X015153Y004299D01*
X015230Y004223D01*
X015230Y004069D01*
X015153Y003992D01*
X015000Y004069D02*
X014923Y003992D01*
X014846Y003992D01*
X014770Y004069D01*
X014770Y004223D01*
X014846Y004299D01*
X014923Y004299D01*
X015000Y004223D01*
X009230Y004223D02*
X009230Y004069D01*
X009153Y003992D01*
X009000Y003992D02*
X008923Y004146D01*
X008923Y004223D01*
X009000Y004299D01*
X009153Y004299D01*
X009230Y004223D01*
X009000Y003992D02*
X008770Y003992D01*
X008770Y004299D01*
X008846Y003839D02*
X009000Y003839D01*
X009077Y003762D01*
X009077Y003532D01*
X009230Y003532D02*
X008770Y003532D01*
X008770Y003762D01*
X008846Y003839D01*
X009077Y003685D02*
X009230Y003839D01*
X007980Y003839D02*
X007827Y003685D01*
X007827Y003762D02*
X007827Y003532D01*
X007980Y003532D02*
X007520Y003532D01*
X007520Y003762D01*
X007596Y003839D01*
X007750Y003839D01*
X007827Y003762D01*
X007903Y003992D02*
X007980Y004069D01*
X007980Y004223D01*
X007903Y004299D01*
X007827Y004299D01*
X007750Y004223D01*
X007750Y004146D01*
X007750Y004223D02*
X007673Y004299D01*
X007596Y004299D01*
X007520Y004223D01*
X007520Y004069D01*
X007596Y003992D01*
X007551Y004782D02*
X007704Y004782D01*
X007781Y004859D01*
X007935Y005012D02*
X008165Y005242D01*
X008165Y004782D01*
X008241Y005012D02*
X007935Y005012D01*
X007781Y005166D02*
X007704Y005242D01*
X007551Y005242D01*
X007474Y005166D01*
X007474Y004859D01*
X007551Y004782D01*
X005980Y004223D02*
X005520Y004223D01*
X005750Y003992D01*
X005750Y004299D01*
X005750Y003839D02*
X005827Y003762D01*
X005827Y003532D01*
X005980Y003532D02*
X005520Y003532D01*
X005520Y003762D01*
X005596Y003839D01*
X005750Y003839D01*
X005827Y003685D02*
X005980Y003839D01*
X005336Y004782D02*
X005182Y004782D01*
X005105Y004859D01*
X004952Y004859D02*
X004875Y004782D01*
X004722Y004782D01*
X004645Y004859D01*
X004645Y005166D01*
X004722Y005242D01*
X004875Y005242D01*
X004952Y005166D01*
X005105Y005242D02*
X005105Y005012D01*
X005259Y005089D01*
X005336Y005089D01*
X005412Y005012D01*
X005412Y004859D01*
X005336Y004782D01*
X005412Y005242D02*
X005105Y005242D01*
X003980Y004052D02*
X003903Y004129D01*
X003827Y004129D01*
X003750Y004052D01*
X003750Y003822D01*
X003903Y003822D01*
X003980Y003898D01*
X003980Y004052D01*
X003750Y003822D02*
X003596Y003975D01*
X003520Y004129D01*
X003596Y003668D02*
X003520Y003591D01*
X003520Y003438D01*
X003596Y003361D01*
X003903Y003361D01*
X003980Y003438D01*
X003980Y003591D01*
X003903Y003668D01*
X004520Y002754D02*
X004596Y002600D01*
X004750Y002447D01*
X004750Y002677D01*
X004827Y002754D01*
X004903Y002754D01*
X004980Y002677D01*
X004980Y002523D01*
X004903Y002447D01*
X004750Y002447D01*
X004750Y002293D02*
X004596Y002293D01*
X004520Y002216D01*
X004520Y001986D01*
X004980Y001986D01*
X004827Y001986D02*
X004827Y002216D01*
X004750Y002293D01*
X004827Y002140D02*
X004980Y002293D01*
X001480Y003532D02*
X001020Y003532D01*
X001020Y003762D01*
X001096Y003839D01*
X001250Y003839D01*
X001327Y003762D01*
X001327Y003532D01*
X001327Y003685D02*
X001480Y003839D01*
X001480Y003992D02*
X001403Y003992D01*
X001096Y004299D01*
X001020Y004299D01*
X001020Y003992D01*
X003972Y009782D02*
X003895Y009859D01*
X003895Y010166D01*
X003972Y010242D01*
X004125Y010242D01*
X004202Y010166D01*
X004355Y010166D02*
X004432Y010242D01*
X004586Y010242D01*
X004662Y010166D01*
X004662Y010089D01*
X004355Y009782D01*
X004662Y009782D01*
X004202Y009859D02*
X004125Y009782D01*
X003972Y009782D01*
X003926Y010282D02*
X003849Y010359D01*
X003849Y010666D01*
X003926Y010742D01*
X004079Y010742D01*
X004156Y010666D01*
X004310Y010589D02*
X004463Y010742D01*
X004463Y010282D01*
X004310Y010282D02*
X004616Y010282D01*
X004156Y010359D02*
X004079Y010282D01*
X003926Y010282D01*
X007520Y010532D02*
X007520Y010762D01*
X007596Y010839D01*
X007750Y010839D01*
X007827Y010762D01*
X007827Y010532D01*
X007980Y010532D02*
X007520Y010532D01*
X007827Y010685D02*
X007980Y010839D01*
X007980Y010992D02*
X007673Y011299D01*
X007596Y011299D01*
X007520Y011223D01*
X007520Y011069D01*
X007596Y010992D01*
X007980Y010992D02*
X007980Y011299D01*
X007903Y011907D02*
X007596Y011907D01*
X007520Y011984D01*
X007520Y012137D01*
X007596Y012214D01*
X007596Y012367D02*
X007520Y012444D01*
X007520Y012598D01*
X007596Y012674D01*
X007673Y012674D01*
X007750Y012598D01*
X007827Y012674D01*
X007903Y012674D01*
X007980Y012598D01*
X007980Y012444D01*
X007903Y012367D01*
X007903Y012214D02*
X007980Y012137D01*
X007980Y011984D01*
X007903Y011907D01*
X007750Y012521D02*
X007750Y012598D01*
X010099Y014907D02*
X010099Y015367D01*
X010329Y015367D01*
X010406Y015291D01*
X010406Y015137D01*
X010329Y015060D01*
X010099Y015060D01*
X010253Y015060D02*
X010406Y014907D01*
X010560Y014907D02*
X010866Y014907D01*
X010713Y014907D02*
X010713Y015367D01*
X010560Y015214D01*
X009903Y017282D02*
X009596Y017282D01*
X009520Y017359D01*
X009520Y017512D01*
X009596Y017589D01*
X009596Y017742D02*
X009673Y017742D01*
X009750Y017819D01*
X009750Y017973D01*
X009827Y018049D01*
X009903Y018049D01*
X009980Y017973D01*
X009980Y017819D01*
X009903Y017742D01*
X009827Y017742D01*
X009750Y017819D01*
X009750Y017973D02*
X009673Y018049D01*
X009596Y018049D01*
X009520Y017973D01*
X009520Y017819D01*
X009596Y017742D01*
X009903Y017589D02*
X009980Y017512D01*
X009980Y017359D01*
X009903Y017282D01*
X011145Y018657D02*
X011145Y019117D01*
X011375Y019117D01*
X011452Y019041D01*
X011452Y018887D01*
X011375Y018810D01*
X011145Y018810D01*
X011298Y018810D02*
X011452Y018657D01*
X011605Y018657D02*
X011912Y018964D01*
X011912Y019041D01*
X011836Y019117D01*
X011682Y019117D01*
X011605Y019041D01*
X012066Y019117D02*
X012373Y019117D01*
X012373Y019041D01*
X012066Y018734D01*
X012066Y018657D01*
X011912Y018657D02*
X011605Y018657D01*
X012639Y018657D02*
X012639Y019117D01*
X012869Y019117D01*
X012946Y019041D01*
X012946Y018887D01*
X012869Y018810D01*
X012639Y018810D01*
X012792Y018810D02*
X012946Y018657D01*
X013099Y018657D02*
X013406Y018964D01*
X013406Y019041D01*
X013329Y019117D01*
X013176Y019117D01*
X013099Y019041D01*
X013560Y018887D02*
X013790Y018887D01*
X013866Y018810D01*
X013866Y018734D01*
X013790Y018657D01*
X013636Y018657D01*
X013560Y018734D01*
X013560Y018887D01*
X013713Y019041D01*
X013866Y019117D01*
X013406Y018657D02*
X013099Y018657D01*
X006480Y017117D02*
X006403Y017117D01*
X006096Y017424D01*
X006020Y017424D01*
X006020Y017117D01*
X006096Y016964D02*
X006020Y016887D01*
X006020Y016734D01*
X006096Y016657D01*
X006403Y016657D01*
X006480Y016734D01*
X006480Y016887D01*
X006403Y016964D01*
X002379Y016176D02*
X002379Y016023D01*
X002302Y015946D01*
X002379Y015792D02*
X002379Y015486D01*
X002379Y015639D02*
X001918Y015639D01*
X002072Y015486D01*
X001995Y015332D02*
X001918Y015255D01*
X001918Y015102D01*
X001995Y015025D01*
X002302Y015025D01*
X002379Y015102D01*
X002379Y015255D01*
X002302Y015332D01*
X001995Y015946D02*
X001918Y016023D01*
X001918Y016176D01*
X001995Y016253D01*
X002072Y016253D01*
X002148Y016176D01*
X002225Y016253D01*
X002302Y016253D01*
X002379Y016176D01*
X002148Y016176D02*
X002148Y016099D01*
X014645Y012683D02*
X014645Y012529D01*
X014721Y012453D01*
X015028Y012453D01*
X014721Y012760D01*
X015028Y012760D01*
X015105Y012683D01*
X015105Y012529D01*
X015028Y012453D01*
X015105Y012299D02*
X015105Y011992D01*
X015105Y012146D02*
X014645Y012146D01*
X014798Y011992D01*
X014721Y011839D02*
X014645Y011762D01*
X014645Y011609D01*
X014721Y011532D01*
X015028Y011532D01*
X015105Y011609D01*
X015105Y011762D01*
X015028Y011839D01*
X014645Y012683D02*
X014721Y012760D01*
X016514Y013359D02*
X016591Y013282D01*
X016744Y013282D01*
X016821Y013359D01*
X016974Y013282D02*
X017281Y013282D01*
X017128Y013282D02*
X017128Y013742D01*
X016974Y013589D01*
X016821Y013666D02*
X016744Y013742D01*
X016591Y013742D01*
X016514Y013666D01*
X016514Y013359D01*
X017435Y013359D02*
X017435Y013282D01*
X017435Y013359D02*
X017741Y013666D01*
X017741Y013742D01*
X017435Y013742D01*
X018895Y012291D02*
X018895Y011984D01*
X018972Y011907D01*
X019125Y011907D01*
X019202Y011984D01*
X019355Y011907D02*
X019662Y011907D01*
X019509Y011907D02*
X019509Y012367D01*
X019355Y012214D01*
X019202Y012291D02*
X019125Y012367D01*
X018972Y012367D01*
X018895Y012291D01*
X018290Y011742D02*
X018366Y011666D01*
X018366Y011589D01*
X018290Y011512D01*
X018136Y011512D01*
X018060Y011589D01*
X018060Y011666D01*
X018136Y011742D01*
X018290Y011742D01*
X018290Y011512D02*
X018366Y011435D01*
X018366Y011359D01*
X018290Y011282D01*
X018136Y011282D01*
X018060Y011359D01*
X018060Y011435D01*
X018136Y011512D01*
X017906Y011282D02*
X017599Y011282D01*
X017753Y011282D02*
X017753Y011742D01*
X017599Y011589D01*
X017446Y011666D02*
X017369Y011742D01*
X017216Y011742D01*
X017139Y011666D01*
X017139Y011359D01*
X017216Y011282D01*
X017369Y011282D01*
X017446Y011359D01*
X019126Y010531D02*
X019433Y010531D01*
X019280Y010531D02*
X019280Y010070D01*
X019587Y010070D02*
X019587Y010531D01*
X019817Y010531D01*
X019894Y010454D01*
X019894Y010301D01*
X019817Y010224D01*
X019587Y010224D01*
X020047Y009994D02*
X020354Y009994D01*
X020507Y010070D02*
X020738Y010070D01*
X020814Y010147D01*
X020814Y010454D01*
X020738Y010531D01*
X020507Y010531D01*
X020507Y010070D01*
X020968Y010070D02*
X020968Y010377D01*
X021121Y010531D01*
X021275Y010377D01*
X021275Y010070D01*
X021428Y010147D02*
X021505Y010070D01*
X021658Y010070D01*
X021735Y010147D01*
X021428Y010147D02*
X021428Y010454D01*
X021505Y010531D01*
X021658Y010531D01*
X021735Y010454D01*
X021275Y010301D02*
X020968Y010301D01*
X020046Y011907D02*
X019892Y011907D01*
X019816Y011984D01*
X019816Y012137D01*
X020046Y012137D01*
X020123Y012060D01*
X020123Y011984D01*
X020046Y011907D01*
X019816Y012137D02*
X019969Y012291D01*
X020123Y012367D01*
X023020Y013438D02*
X023096Y013361D01*
X023403Y013361D01*
X023480Y013438D01*
X023480Y013591D01*
X023403Y013668D01*
X023403Y013822D02*
X023480Y013898D01*
X023480Y014052D01*
X023403Y014129D01*
X023096Y014129D01*
X023020Y014052D01*
X023020Y013898D01*
X023096Y013822D01*
X023173Y013822D01*
X023250Y013898D01*
X023250Y014129D01*
X023096Y013668D02*
X023020Y013591D01*
X023020Y013438D01*
X024270Y013515D02*
X024730Y013515D01*
X024730Y013668D02*
X024730Y013361D01*
X024653Y013208D02*
X024730Y013131D01*
X024730Y012978D01*
X024653Y012901D01*
X024346Y012901D01*
X024270Y012978D01*
X024270Y013131D01*
X024346Y013208D01*
X024423Y013361D02*
X024270Y013515D01*
X024270Y013822D02*
X024500Y013822D01*
X024423Y013975D01*
X024423Y014052D01*
X024500Y014129D01*
X024653Y014129D01*
X024730Y014052D01*
X024730Y013898D01*
X024653Y013822D01*
X024270Y013822D02*
X024270Y014129D01*
X026751Y014656D02*
X027058Y014656D01*
X026905Y014656D02*
X026905Y014195D01*
X027212Y014195D02*
X027212Y014656D01*
X027442Y014656D01*
X027519Y014579D01*
X027519Y014426D01*
X027442Y014349D01*
X027212Y014349D01*
X027672Y014119D02*
X027979Y014119D01*
X028132Y014349D02*
X028286Y014195D01*
X028439Y014349D01*
X028439Y014656D01*
X028593Y014656D02*
X028746Y014656D01*
X028669Y014656D02*
X028669Y014195D01*
X028593Y014195D02*
X028746Y014195D01*
X028900Y014195D02*
X028900Y014656D01*
X029206Y014195D01*
X029206Y014656D01*
X028132Y014656D02*
X028132Y014349D01*
X029645Y013177D02*
X029645Y013023D01*
X029721Y012947D01*
X029798Y012947D01*
X029875Y013023D01*
X029875Y013254D01*
X030028Y013254D02*
X029721Y013254D01*
X029645Y013177D01*
X030028Y013254D02*
X030105Y013177D01*
X030105Y013023D01*
X030028Y012947D01*
X030105Y012793D02*
X030105Y012486D01*
X030105Y012640D02*
X029645Y012640D01*
X029798Y012486D01*
X029721Y012333D02*
X029645Y012256D01*
X029645Y012103D01*
X029721Y012026D01*
X030028Y012026D01*
X030105Y012103D01*
X030105Y012256D01*
X030028Y012333D01*
X029817Y010281D02*
X029587Y010281D01*
X029587Y009820D01*
X029587Y009974D02*
X029817Y009974D01*
X029894Y010051D01*
X029894Y010204D01*
X029817Y010281D01*
X029433Y010281D02*
X029126Y010281D01*
X029280Y010281D02*
X029280Y009820D01*
X028873Y009839D02*
X028566Y009532D01*
X028873Y009532D01*
X028873Y009839D02*
X028873Y009916D01*
X028796Y009992D01*
X028642Y009992D01*
X028566Y009916D01*
X028259Y009992D02*
X028259Y009532D01*
X028412Y009532D02*
X028105Y009532D01*
X027952Y009532D02*
X027798Y009685D01*
X027875Y009685D02*
X027645Y009685D01*
X027645Y009532D02*
X027645Y009992D01*
X027875Y009992D01*
X027952Y009916D01*
X027952Y009762D01*
X027875Y009685D01*
X028105Y009839D02*
X028259Y009992D01*
X027373Y009916D02*
X027296Y009992D01*
X027142Y009992D01*
X027066Y009916D01*
X027373Y009916D02*
X027373Y009839D01*
X027066Y009532D01*
X027373Y009532D01*
X026912Y009532D02*
X026605Y009532D01*
X026759Y009532D02*
X026759Y009992D01*
X026605Y009839D01*
X026452Y009916D02*
X026375Y009992D01*
X026222Y009992D01*
X026145Y009916D01*
X026145Y009609D01*
X026222Y009532D01*
X026375Y009532D01*
X026452Y009609D01*
X025123Y010407D02*
X024816Y010407D01*
X024969Y010407D02*
X024969Y010867D01*
X024816Y010714D01*
X024509Y010867D02*
X024509Y010407D01*
X024662Y010407D02*
X024355Y010407D01*
X024202Y010407D02*
X024048Y010560D01*
X024125Y010560D02*
X023895Y010560D01*
X023895Y010407D02*
X023895Y010867D01*
X024125Y010867D01*
X024202Y010791D01*
X024202Y010637D01*
X024125Y010560D01*
X024355Y010714D02*
X024509Y010867D01*
X030047Y009744D02*
X030354Y009744D01*
X030507Y009897D02*
X030584Y009820D01*
X030738Y009820D01*
X030814Y009897D01*
X030814Y009974D01*
X030738Y010051D01*
X030584Y010051D01*
X030507Y010127D01*
X030507Y010204D01*
X030584Y010281D01*
X030738Y010281D01*
X030814Y010204D01*
X030968Y010281D02*
X030968Y009820D01*
X031275Y009820D01*
X031428Y009820D02*
X031428Y010281D01*
X031735Y009820D01*
X031735Y010281D01*
X031888Y010204D02*
X031888Y010127D01*
X031965Y010051D01*
X032119Y010051D01*
X032195Y009974D01*
X032195Y009897D01*
X032119Y009820D01*
X031965Y009820D01*
X031888Y009897D01*
X032349Y009820D02*
X032656Y009820D01*
X032502Y010051D02*
X032349Y010051D01*
X032195Y010204D02*
X032119Y010281D01*
X031965Y010281D01*
X031888Y010204D01*
X032349Y010281D02*
X032349Y009820D01*
X032349Y010281D02*
X032656Y010281D01*
X031275Y010281D02*
X030968Y010281D01*
X030968Y010051D02*
X031121Y010051D01*
X031099Y015657D02*
X031406Y015657D01*
X031253Y015657D02*
X031253Y016117D01*
X031099Y015964D01*
X030946Y016041D02*
X030946Y015887D01*
X030869Y015810D01*
X030639Y015810D01*
X030498Y015782D02*
X030191Y015782D01*
X030344Y015782D02*
X030344Y016242D01*
X030191Y016089D01*
X030037Y015782D02*
X029730Y015782D01*
X029884Y015782D02*
X029884Y016242D01*
X029730Y016089D01*
X029577Y016166D02*
X029500Y016242D01*
X029347Y016242D01*
X029270Y016166D01*
X029270Y015859D01*
X029347Y015782D01*
X029500Y015782D01*
X029577Y015859D01*
X030639Y015657D02*
X030639Y016117D01*
X030869Y016117D01*
X030946Y016041D01*
X030792Y015810D02*
X030946Y015657D01*
X031560Y015734D02*
X031636Y015657D01*
X031790Y015657D01*
X031866Y015734D01*
X031866Y015887D01*
X031790Y015964D01*
X031713Y015964D01*
X031560Y015887D01*
X031560Y016117D01*
X031866Y016117D01*
X028480Y016657D02*
X028020Y016657D01*
X028020Y016887D01*
X028096Y016964D01*
X028250Y016964D01*
X028327Y016887D01*
X028327Y016657D01*
X028327Y016810D02*
X028480Y016964D01*
X028480Y017117D02*
X028480Y017424D01*
X028480Y017271D02*
X028020Y017271D01*
X028173Y017117D01*
X028096Y017578D02*
X028020Y017654D01*
X028020Y017808D01*
X028096Y017885D01*
X028173Y017885D01*
X028250Y017808D01*
X028327Y017885D01*
X028403Y017885D01*
X028480Y017808D01*
X028480Y017654D01*
X028403Y017578D01*
X028250Y017731D02*
X028250Y017808D01*
X025491Y016416D02*
X025491Y016109D01*
X025415Y016032D01*
X025261Y016032D01*
X025185Y016109D01*
X025491Y016416D01*
X025415Y016492D01*
X025261Y016492D01*
X025185Y016416D01*
X025185Y016109D01*
X025031Y016032D02*
X024724Y016032D01*
X024571Y016032D02*
X024417Y016185D01*
X024494Y016185D02*
X024264Y016185D01*
X024264Y016032D02*
X024264Y016492D01*
X024494Y016492D01*
X024571Y016416D01*
X024571Y016262D01*
X024494Y016185D01*
X024724Y016339D02*
X024878Y016492D01*
X024878Y016032D01*
D14*
X027650Y018482D02*
X027725Y018407D01*
X027875Y018407D01*
X027950Y018482D01*
X027950Y018782D01*
X027875Y018857D01*
X027725Y018857D01*
X027650Y018782D01*
X027650Y018482D01*
X027800Y018557D02*
X027950Y018407D01*
X028110Y018482D02*
X028185Y018407D01*
X028336Y018407D01*
X028411Y018482D01*
X028411Y018557D01*
X028336Y018632D01*
X028260Y018632D01*
X028336Y018632D02*
X028411Y018707D01*
X028411Y018782D01*
X028336Y018857D01*
X028185Y018857D01*
X028110Y018782D01*
X029175Y018837D02*
X029250Y018762D01*
X029400Y018762D01*
X029475Y018837D01*
X029475Y019137D01*
X029400Y019212D01*
X029250Y019212D01*
X029175Y019137D01*
X029175Y018837D01*
X029325Y018912D02*
X029475Y018762D01*
X029635Y018762D02*
X029936Y019062D01*
X029936Y019137D01*
X029861Y019212D01*
X029710Y019212D01*
X029635Y019137D01*
X029635Y018762D02*
X029936Y018762D01*
X035916Y016806D02*
X035973Y016862D01*
X036086Y016862D01*
X036143Y016806D01*
X036143Y016749D01*
X035916Y016522D01*
X036143Y016522D01*
X037916Y016522D02*
X038143Y016522D01*
X038029Y016522D02*
X038029Y016862D01*
X037916Y016749D01*
X036515Y014487D02*
X036215Y014487D01*
X036515Y014487D02*
X036515Y014412D01*
X036215Y014112D01*
X036215Y014037D01*
X036054Y014037D02*
X035754Y014037D01*
X035904Y014037D02*
X035904Y014487D01*
X035754Y014337D01*
X035594Y014412D02*
X035594Y014262D01*
X035519Y014187D01*
X035294Y014187D01*
X035444Y014187D02*
X035594Y014037D01*
X035294Y014037D02*
X035294Y014487D01*
X035519Y014487D01*
X035594Y014412D01*
X035519Y012987D02*
X035594Y012912D01*
X035594Y012762D01*
X035519Y012687D01*
X035294Y012687D01*
X035444Y012687D02*
X035594Y012537D01*
X035754Y012537D02*
X036054Y012537D01*
X035904Y012537D02*
X035904Y012987D01*
X035754Y012837D01*
X035519Y012987D02*
X035294Y012987D01*
X035294Y012537D01*
X036215Y012612D02*
X036290Y012537D01*
X036440Y012537D01*
X036515Y012612D01*
X036515Y012912D01*
X036440Y012987D01*
X036290Y012987D01*
X036215Y012912D01*
X036215Y012837D01*
X036290Y012762D01*
X036515Y012762D01*
X036515Y011487D02*
X036365Y011412D01*
X036215Y011262D01*
X036440Y011262D01*
X036515Y011187D01*
X036515Y011112D01*
X036440Y011037D01*
X036290Y011037D01*
X036215Y011112D01*
X036215Y011262D01*
X036054Y011037D02*
X035754Y011037D01*
X035904Y011037D02*
X035904Y011487D01*
X035754Y011337D01*
X035594Y011262D02*
X035519Y011187D01*
X035294Y011187D01*
X035444Y011187D02*
X035594Y011037D01*
X035594Y011262D02*
X035594Y011412D01*
X035519Y011487D01*
X035294Y011487D01*
X035294Y011037D01*
X035294Y009987D02*
X035519Y009987D01*
X035594Y009912D01*
X035594Y009762D01*
X035519Y009687D01*
X035294Y009687D01*
X035444Y009687D02*
X035594Y009537D01*
X035754Y009537D02*
X036054Y009837D01*
X036054Y009912D01*
X035979Y009987D01*
X035829Y009987D01*
X035754Y009912D01*
X035754Y009537D02*
X036054Y009537D01*
X036215Y009612D02*
X036290Y009537D01*
X036440Y009537D01*
X036515Y009612D01*
X036515Y009687D01*
X036440Y009762D01*
X036365Y009762D01*
X036440Y009762D02*
X036515Y009837D01*
X036515Y009912D01*
X036440Y009987D01*
X036290Y009987D01*
X036215Y009912D01*
X035294Y009987D02*
X035294Y009537D01*
X035294Y008487D02*
X035519Y008487D01*
X035594Y008412D01*
X035594Y008262D01*
X035519Y008187D01*
X035294Y008187D01*
X035444Y008187D02*
X035594Y008037D01*
X035754Y008037D02*
X036054Y008337D01*
X036054Y008412D01*
X035979Y008487D01*
X035829Y008487D01*
X035754Y008412D01*
X035754Y008037D02*
X036054Y008037D01*
X036215Y008112D02*
X036515Y008412D01*
X036515Y008112D01*
X036440Y008037D01*
X036290Y008037D01*
X036215Y008112D01*
X036215Y008412D01*
X036290Y008487D01*
X036440Y008487D01*
X036515Y008412D01*
X035294Y008487D02*
X035294Y008037D01*
X035294Y006987D02*
X035519Y006987D01*
X035594Y006912D01*
X035594Y006762D01*
X035519Y006687D01*
X035294Y006687D01*
X035444Y006687D02*
X035594Y006537D01*
X035754Y006537D02*
X036054Y006837D01*
X036054Y006912D01*
X035979Y006987D01*
X035829Y006987D01*
X035754Y006912D01*
X035294Y006987D02*
X035294Y006537D01*
X035754Y006537D02*
X036054Y006537D01*
X036215Y006762D02*
X036515Y006762D01*
X036440Y006537D02*
X036440Y006987D01*
X036215Y006762D01*
X036215Y005487D02*
X036215Y005262D01*
X036365Y005337D01*
X036440Y005337D01*
X036515Y005262D01*
X036515Y005112D01*
X036440Y005037D01*
X036290Y005037D01*
X036215Y005112D01*
X036054Y005037D02*
X035754Y005037D01*
X036054Y005337D01*
X036054Y005412D01*
X035979Y005487D01*
X035829Y005487D01*
X035754Y005412D01*
X035594Y005412D02*
X035594Y005262D01*
X035519Y005187D01*
X035294Y005187D01*
X035444Y005187D02*
X035594Y005037D01*
X035294Y005037D02*
X035294Y005487D01*
X035519Y005487D01*
X035594Y005412D01*
X036215Y005487D02*
X036515Y005487D01*
X036440Y003987D02*
X036290Y003987D01*
X036215Y003912D01*
X036054Y003912D02*
X035979Y003987D01*
X035829Y003987D01*
X035754Y003912D01*
X035594Y003912D02*
X035594Y003762D01*
X035519Y003687D01*
X035294Y003687D01*
X035444Y003687D02*
X035594Y003537D01*
X035754Y003537D02*
X036054Y003837D01*
X036054Y003912D01*
X036440Y003987D02*
X036515Y003912D01*
X036515Y003837D01*
X036215Y003537D01*
X036515Y003537D01*
X036054Y003537D02*
X035754Y003537D01*
X035294Y003537D02*
X035294Y003987D01*
X035519Y003987D01*
X035594Y003912D01*
X035519Y002487D02*
X035594Y002412D01*
X035594Y002262D01*
X035519Y002187D01*
X035294Y002187D01*
X035444Y002187D02*
X035594Y002037D01*
X035754Y002037D02*
X036054Y002337D01*
X036054Y002412D01*
X035979Y002487D01*
X035829Y002487D01*
X035754Y002412D01*
X035519Y002487D02*
X035294Y002487D01*
X035294Y002037D01*
X035754Y002037D02*
X036054Y002037D01*
X036215Y002037D02*
X036515Y002037D01*
X036365Y002037D02*
X036365Y002487D01*
X036215Y002337D01*
X036290Y000987D02*
X036440Y000987D01*
X036515Y000912D01*
X036515Y000837D01*
X036440Y000762D01*
X036290Y000762D01*
X036215Y000837D01*
X036215Y000912D01*
X036290Y000987D01*
X036290Y000762D02*
X036215Y000687D01*
X036215Y000612D01*
X036290Y000537D01*
X036440Y000537D01*
X036515Y000612D01*
X036515Y000687D01*
X036440Y000762D01*
X036054Y000537D02*
X035754Y000537D01*
X035904Y000537D02*
X035904Y000987D01*
X035754Y000837D01*
X035594Y000762D02*
X035519Y000687D01*
X035294Y000687D01*
X035444Y000687D02*
X035594Y000537D01*
X035594Y000762D02*
X035594Y000912D01*
X035519Y000987D01*
X035294Y000987D01*
X035294Y000537D01*
X020426Y002507D02*
X020126Y002507D01*
X020426Y002807D01*
X020426Y002882D01*
X020351Y002957D01*
X020201Y002957D01*
X020126Y002882D01*
X019966Y002957D02*
X019966Y002507D01*
X019666Y002957D01*
X019666Y002507D01*
X019355Y002507D02*
X019355Y002957D01*
X019205Y002957D02*
X019506Y002957D01*
X019045Y002882D02*
X019045Y002807D01*
X018970Y002732D01*
X018745Y002732D01*
X018745Y002507D02*
X018970Y002507D01*
X019045Y002582D01*
X019045Y002657D01*
X018970Y002732D01*
X019045Y002882D02*
X018970Y002957D01*
X018745Y002957D01*
X018745Y002507D01*
X016926Y002507D02*
X016626Y002507D01*
X016776Y002507D02*
X016776Y002957D01*
X016626Y002807D01*
X016466Y002957D02*
X016466Y002507D01*
X016166Y002957D01*
X016166Y002507D01*
X015855Y002507D02*
X015855Y002957D01*
X015705Y002957D02*
X016006Y002957D01*
X015545Y002882D02*
X015545Y002807D01*
X015470Y002732D01*
X015245Y002732D01*
X015245Y002507D02*
X015470Y002507D01*
X015545Y002582D01*
X015545Y002657D01*
X015470Y002732D01*
X015545Y002882D02*
X015470Y002957D01*
X015245Y002957D01*
X015245Y002507D01*
X012115Y003762D02*
X012040Y003687D01*
X011815Y003687D01*
X011815Y003537D02*
X011815Y003987D01*
X012040Y003987D01*
X012115Y003912D01*
X012115Y003762D01*
X011654Y003687D02*
X011654Y003612D01*
X011579Y003537D01*
X011429Y003537D01*
X011354Y003612D01*
X011429Y003762D02*
X011579Y003762D01*
X011654Y003687D01*
X011654Y003912D02*
X011579Y003987D01*
X011429Y003987D01*
X011354Y003912D01*
X011354Y003837D01*
X011429Y003762D01*
X011197Y003537D02*
X011047Y003537D01*
X011122Y003537D02*
X011122Y003987D01*
X011047Y003987D02*
X011197Y003987D01*
X010891Y002457D02*
X010741Y002457D01*
X010666Y002382D01*
X010666Y002082D01*
X010741Y002007D01*
X010891Y002007D01*
X010966Y002082D01*
X010966Y002232D01*
X010816Y002232D01*
X010966Y002382D02*
X010891Y002457D01*
X010506Y002382D02*
X010506Y002307D01*
X010431Y002232D01*
X010205Y002232D01*
X010045Y002082D02*
X010045Y002382D01*
X009970Y002457D01*
X009745Y002457D01*
X009745Y002007D01*
X009970Y002007D01*
X010045Y002082D01*
X010205Y002007D02*
X010431Y002007D01*
X010506Y002082D01*
X010506Y002157D01*
X010431Y002232D01*
X010506Y002382D02*
X010431Y002457D01*
X010205Y002457D01*
X010205Y002007D01*
X007216Y002582D02*
X007141Y002507D01*
X006991Y002507D01*
X006916Y002582D01*
X006916Y002882D01*
X006991Y002957D01*
X007141Y002957D01*
X007216Y002882D01*
X006756Y002957D02*
X006756Y002507D01*
X006455Y002957D01*
X006455Y002507D01*
X006295Y002507D02*
X005995Y002507D01*
X005995Y002957D01*
X006295Y002957D01*
X006145Y002732D02*
X005995Y002732D01*
X002716Y002507D02*
X002716Y002957D01*
X002416Y002957D02*
X002716Y002507D01*
X002416Y002507D02*
X002416Y002957D01*
X002256Y002957D02*
X001955Y002957D01*
X002105Y002957D02*
X002105Y002507D01*
X001795Y002582D02*
X001720Y002507D01*
X001495Y002507D01*
X001495Y002957D01*
X001720Y002957D01*
X001795Y002882D01*
X001795Y002807D01*
X001720Y002732D01*
X001495Y002732D01*
X001720Y002732D02*
X001795Y002657D01*
X001795Y002582D01*
X000680Y006632D02*
X000305Y006632D01*
X000305Y006932D02*
X000680Y006932D01*
X000755Y006857D01*
X000755Y006707D01*
X000680Y006632D01*
X000755Y007092D02*
X000455Y007092D01*
X000305Y007243D01*
X000455Y007393D01*
X000755Y007393D01*
X000755Y007553D02*
X000305Y007553D01*
X000305Y007778D01*
X000380Y007853D01*
X000530Y007853D01*
X000605Y007778D01*
X000605Y007553D01*
X000605Y007703D02*
X000755Y007853D01*
X000755Y008163D02*
X000305Y008163D01*
X000305Y008013D02*
X000305Y008313D01*
X000530Y007393D02*
X000530Y007092D01*
X004975Y008362D02*
X004975Y008512D01*
X005050Y008587D01*
X005350Y008587D01*
X005425Y008512D01*
X005425Y008362D01*
X005350Y008287D01*
X005050Y008287D01*
X004975Y008362D01*
X005275Y008437D02*
X005425Y008587D01*
X005425Y008747D02*
X005425Y009048D01*
X005425Y008898D02*
X004975Y008898D01*
X005125Y008747D01*
X002995Y012317D02*
X003145Y012467D01*
X003145Y012767D01*
X002845Y012767D02*
X002845Y012467D01*
X002995Y012317D01*
X002684Y012392D02*
X002609Y012317D01*
X002459Y012317D01*
X002384Y012392D01*
X002384Y012542D02*
X002534Y012617D01*
X002609Y012617D01*
X002684Y012542D01*
X002684Y012392D01*
X002384Y012542D02*
X002384Y012767D01*
X002684Y012767D01*
X015946Y016567D02*
X016096Y016567D01*
X016021Y016567D02*
X016021Y017017D01*
X015946Y017017D02*
X016096Y017017D01*
X016253Y016942D02*
X016328Y017017D01*
X016478Y017017D01*
X016553Y016942D01*
X016553Y016867D01*
X016253Y016567D01*
X016553Y016567D01*
X016713Y016642D02*
X016788Y016567D01*
X016939Y016567D01*
X017014Y016642D01*
X017174Y016567D02*
X017474Y016567D01*
X017634Y016642D02*
X017634Y016942D01*
X017709Y017017D01*
X017859Y017017D01*
X017934Y016942D01*
X018094Y017017D02*
X018094Y016567D01*
X018320Y016567D01*
X018395Y016642D01*
X018395Y016942D01*
X018320Y017017D01*
X018094Y017017D01*
X017934Y016642D02*
X017859Y016567D01*
X017709Y016567D01*
X017634Y016642D01*
X017174Y016567D02*
X017174Y017017D01*
X017014Y016942D02*
X016939Y017017D01*
X016788Y017017D01*
X016713Y016942D01*
X016713Y016642D01*
X019620Y017507D02*
X019620Y017957D01*
X019920Y017957D01*
X020080Y017807D02*
X020080Y017507D01*
X020080Y017732D02*
X020381Y017732D01*
X020381Y017807D02*
X020381Y017507D01*
X020541Y017507D02*
X020541Y017957D01*
X020841Y017507D01*
X020841Y017957D01*
X020381Y017807D02*
X020230Y017957D01*
X020080Y017807D01*
X019770Y017732D02*
X019620Y017732D01*
X020250Y019162D02*
X020475Y019162D01*
X020550Y019237D01*
X020550Y019537D01*
X020475Y019612D01*
X020250Y019612D01*
X020250Y019162D01*
X020710Y019162D02*
X021011Y019162D01*
X020860Y019162D02*
X020860Y019612D01*
X020710Y019462D01*
D15*
X020742Y016609D02*
X019404Y016609D01*
X019404Y016195D01*
X019600Y016136D02*
X019628Y016181D01*
X019659Y016223D01*
X019692Y016263D01*
X019729Y016301D01*
X019767Y016336D01*
X019809Y016368D01*
X019852Y016398D01*
X019898Y016424D01*
X019945Y016447D01*
X019993Y016467D01*
X020043Y016483D01*
X020094Y016496D01*
X020146Y016505D01*
X020198Y016510D01*
X020250Y016512D01*
X020302Y016510D01*
X020354Y016505D01*
X020406Y016496D01*
X020457Y016483D01*
X020507Y016467D01*
X020555Y016447D01*
X020602Y016424D01*
X020648Y016398D01*
X020691Y016368D01*
X020733Y016336D01*
X020771Y016301D01*
X020808Y016263D01*
X020841Y016223D01*
X020872Y016181D01*
X020900Y016136D01*
X021096Y016195D02*
X021096Y016254D01*
X020742Y016609D01*
X020900Y015388D02*
X020872Y015343D01*
X020841Y015301D01*
X020808Y015261D01*
X020771Y015223D01*
X020733Y015188D01*
X020691Y015156D01*
X020648Y015126D01*
X020602Y015100D01*
X020555Y015077D01*
X020507Y015057D01*
X020457Y015041D01*
X020406Y015028D01*
X020354Y015019D01*
X020302Y015014D01*
X020250Y015012D01*
X020198Y015014D01*
X020146Y015019D01*
X020094Y015028D01*
X020043Y015041D01*
X019993Y015057D01*
X019945Y015077D01*
X019898Y015100D01*
X019852Y015126D01*
X019809Y015156D01*
X019767Y015188D01*
X019729Y015223D01*
X019692Y015261D01*
X019659Y015301D01*
X019628Y015343D01*
X019600Y015388D01*
X019404Y015329D02*
X019404Y014916D01*
X020742Y014916D01*
X021096Y015270D01*
X021096Y015349D01*
X030125Y018237D02*
X030125Y019187D01*
X030125Y019587D01*
X034125Y019587D01*
X034125Y019187D01*
X030125Y019187D01*
X030125Y018237D02*
X030126Y018203D01*
X030130Y018168D01*
X030138Y018135D01*
X030149Y018102D01*
X030164Y018071D01*
X030181Y018041D01*
X030202Y018013D01*
X030225Y017987D01*
X030251Y017964D01*
X030279Y017943D01*
X030309Y017926D01*
X030340Y017911D01*
X030373Y017900D01*
X030406Y017892D01*
X030441Y017888D01*
X030475Y017887D01*
X030625Y017887D01*
X033625Y017887D02*
X033775Y017887D01*
X033809Y017888D01*
X033844Y017892D01*
X033877Y017900D01*
X033910Y017911D01*
X033941Y017926D01*
X033971Y017943D01*
X033999Y017964D01*
X034025Y017987D01*
X034048Y018013D01*
X034069Y018041D01*
X034086Y018071D01*
X034101Y018102D01*
X034112Y018135D01*
X034120Y018168D01*
X034124Y018203D01*
X034125Y018237D01*
X034125Y019187D01*
X012625Y007262D02*
X012625Y006762D01*
X012375Y006512D01*
X010875Y006512D01*
X010625Y006262D01*
X010625Y005762D01*
X010875Y005512D01*
X012375Y005512D01*
X012625Y005262D01*
X012625Y004762D01*
X012375Y004512D01*
X010875Y004512D01*
X010625Y004762D01*
X010625Y005262D01*
X010875Y005512D01*
X010875Y006512D02*
X010625Y006762D01*
X010625Y007262D01*
X010875Y007512D01*
X012375Y007512D01*
X012625Y007262D01*
X012375Y006512D02*
X012625Y006262D01*
X012625Y005762D01*
X012375Y005512D01*
X010493Y006762D02*
X010493Y007262D01*
X004221Y015041D02*
X003808Y015041D01*
X004221Y015041D02*
X004221Y016379D01*
X003867Y016734D01*
X003788Y016734D01*
X002942Y016734D02*
X002883Y016734D01*
X002529Y016379D01*
X002529Y015041D01*
X002942Y015041D01*
X003001Y015237D02*
X002956Y015265D01*
X002914Y015296D01*
X002874Y015329D01*
X002836Y015366D01*
X002801Y015404D01*
X002769Y015446D01*
X002739Y015489D01*
X002713Y015535D01*
X002690Y015582D01*
X002670Y015630D01*
X002654Y015680D01*
X002641Y015731D01*
X002632Y015783D01*
X002627Y015835D01*
X002625Y015887D01*
X002627Y015939D01*
X002632Y015991D01*
X002641Y016043D01*
X002654Y016094D01*
X002670Y016144D01*
X002690Y016192D01*
X002713Y016239D01*
X002739Y016285D01*
X002769Y016328D01*
X002801Y016370D01*
X002836Y016408D01*
X002874Y016445D01*
X002914Y016478D01*
X002956Y016509D01*
X003001Y016537D01*
X003749Y016537D02*
X003794Y016509D01*
X003836Y016478D01*
X003876Y016445D01*
X003914Y016408D01*
X003949Y016370D01*
X003981Y016328D01*
X004011Y016285D01*
X004037Y016239D01*
X004060Y016192D01*
X004080Y016144D01*
X004096Y016094D01*
X004109Y016043D01*
X004118Y015991D01*
X004123Y015939D01*
X004125Y015887D01*
X004123Y015835D01*
X004118Y015783D01*
X004109Y015731D01*
X004096Y015680D01*
X004080Y015630D01*
X004060Y015582D01*
X004037Y015535D01*
X004011Y015489D01*
X003981Y015446D01*
X003949Y015404D01*
X003914Y015366D01*
X003876Y015329D01*
X003836Y015296D01*
X003794Y015265D01*
X003749Y015237D01*
D16*
X005650Y011462D02*
X005650Y009062D01*
X005652Y009005D01*
X005658Y008949D01*
X005667Y008893D01*
X005680Y008837D01*
X005697Y008783D01*
X005717Y008730D01*
X005741Y008679D01*
X005769Y008629D01*
X005799Y008581D01*
X005833Y008535D01*
X005870Y008492D01*
X005909Y008451D01*
X005951Y008413D01*
X005996Y008378D01*
X006043Y008346D01*
X006092Y008317D01*
X006142Y008291D01*
X006195Y008269D01*
X006248Y008250D01*
X006303Y008235D01*
X006359Y008224D01*
X006415Y008216D01*
X006472Y008212D01*
X006528Y008212D01*
X006585Y008216D01*
X006641Y008224D01*
X006697Y008235D01*
X006752Y008250D01*
X006805Y008269D01*
X006858Y008291D01*
X006908Y008317D01*
X006957Y008346D01*
X007004Y008378D01*
X007049Y008413D01*
X007091Y008451D01*
X007130Y008492D01*
X007167Y008535D01*
X007201Y008581D01*
X007231Y008629D01*
X007259Y008679D01*
X007283Y008730D01*
X007303Y008783D01*
X007320Y008837D01*
X007333Y008893D01*
X007342Y008949D01*
X007348Y009005D01*
X007350Y009062D01*
X007350Y011462D01*
X007348Y011519D01*
X007342Y011575D01*
X007333Y011631D01*
X007320Y011687D01*
X007303Y011741D01*
X007283Y011794D01*
X007259Y011845D01*
X007231Y011895D01*
X007201Y011943D01*
X007167Y011989D01*
X007130Y012032D01*
X007091Y012073D01*
X007049Y012111D01*
X007004Y012146D01*
X006957Y012178D01*
X006908Y012207D01*
X006858Y012233D01*
X006805Y012255D01*
X006752Y012274D01*
X006697Y012289D01*
X006641Y012300D01*
X006585Y012308D01*
X006528Y012312D01*
X006472Y012312D01*
X006415Y012308D01*
X006359Y012300D01*
X006303Y012289D01*
X006248Y012274D01*
X006195Y012255D01*
X006142Y012233D01*
X006092Y012207D01*
X006043Y012178D01*
X005996Y012146D01*
X005951Y012111D01*
X005909Y012073D01*
X005870Y012032D01*
X005833Y011989D01*
X005799Y011943D01*
X005769Y011895D01*
X005741Y011845D01*
X005717Y011794D01*
X005697Y011741D01*
X005680Y011687D01*
X005667Y011631D01*
X005658Y011575D01*
X005652Y011519D01*
X005650Y011462D01*
D17*
X033130Y010762D03*
X033130Y009262D03*
X033130Y007762D03*
X033130Y006262D03*
X033130Y004762D03*
X033130Y003262D03*
X033130Y001762D03*
X036870Y001762D03*
X036870Y003262D03*
X036870Y004762D03*
X036870Y006262D03*
X036870Y007762D03*
X036870Y009262D03*
X036870Y010762D03*
X036870Y012262D03*
X036870Y013762D03*
X036870Y015262D03*
X033130Y015262D03*
X033130Y013762D03*
X033130Y012262D03*
D18*
X032125Y019387D03*
D19*
X023605Y017927D03*
D20*
X025375Y019237D03*
D21*
X023650Y018987D03*
X027100Y018987D03*
D22*
X025875Y018987D03*
X024875Y018987D03*
D23*
X036500Y017887D03*
D24*
X037246Y016103D02*
X037666Y015472D01*
X037890Y015472D02*
X038311Y015472D01*
X038101Y015472D02*
X038101Y016103D01*
X037890Y015892D01*
X037666Y016103D02*
X037246Y015472D01*
D25*
X020475Y018637D03*
D26*
X020100Y018637D03*
X022150Y018637D03*
M02*
