G75*
G70*
%OFA0B0*%
%FSLAX24Y24*%
%IPPOS*%
%LPD*%
%AMOC8*
5,1,8,0,0,1.08239X$1,22.5*
%
%ADD10C,0.0000*%
%ADD11C,0.0640*%
%ADD12OC8,0.0780*%
%ADD13C,0.0560*%
%ADD14OC8,0.0560*%
D10*
X000101Y000262D02*
X000101Y019632D01*
X039093Y019632D01*
X039093Y000262D01*
X000101Y000262D01*
D11*
X002101Y001462D02*
X002101Y002062D01*
X003101Y002062D02*
X003101Y001462D01*
X006601Y001462D02*
X006601Y002062D01*
X007601Y002062D02*
X007601Y001462D01*
X008601Y001462D02*
X008601Y002062D01*
X011801Y001762D02*
X012401Y001762D01*
X012401Y002762D02*
X011801Y002762D01*
X015851Y002062D02*
X015851Y001462D01*
X016851Y001462D02*
X016851Y002062D01*
X019351Y002062D02*
X019351Y001462D01*
X020351Y001462D02*
X020351Y002062D01*
X001901Y007137D02*
X001301Y007137D01*
X001301Y008137D02*
X001901Y008137D01*
X001901Y009137D02*
X001301Y009137D01*
X001301Y011512D02*
X001901Y011512D01*
X001901Y012512D02*
X001301Y012512D01*
X015101Y017462D02*
X015101Y018062D01*
X016101Y018062D02*
X016101Y017462D01*
X017101Y017462D02*
X017101Y018062D01*
X018101Y018062D02*
X018101Y017462D01*
X021351Y018087D02*
X021351Y018687D01*
X022351Y018687D02*
X022351Y018087D01*
X024476Y018087D02*
X024476Y018687D01*
X025476Y018687D02*
X025476Y018087D01*
X026476Y018087D02*
X026476Y018687D01*
X031226Y018562D02*
X031226Y017962D01*
X032226Y017962D02*
X032226Y018562D01*
X033226Y018562D02*
X033226Y017962D01*
X036601Y018062D02*
X036601Y017462D01*
X037601Y017462D02*
X037601Y018062D01*
D12*
X012226Y007012D03*
X011226Y007012D03*
X011226Y006012D03*
X012226Y006012D03*
X012226Y005012D03*
X011226Y005012D03*
D13*
X006601Y009312D03*
X006601Y011212D03*
D14*
X032601Y010762D03*
X032601Y009262D03*
X032601Y007762D03*
X032601Y006262D03*
X032601Y004762D03*
X032601Y003262D03*
X032601Y001762D03*
X037601Y001762D03*
X037601Y003262D03*
X037601Y004762D03*
X037601Y006262D03*
X037601Y007762D03*
X037601Y009262D03*
X037601Y010762D03*
X037601Y012262D03*
X037601Y013762D03*
X037601Y015262D03*
X032601Y015262D03*
X032601Y013762D03*
X032601Y012262D03*
M02*
