G75*
G70*
%OFA0B0*%
%FSLAX24Y24*%
%IPPOS*%
%LPD*%
%AMOC8*
5,1,8,0,0,1.08239X$1,22.5*
%
%ADD10C,0.0000*%
%ADD11R,0.0500X0.0220*%
%ADD12R,0.0220X0.0500*%
%ADD13R,0.0512X0.0591*%
%ADD14R,0.0591X0.0512*%
%ADD15C,0.0600*%
%ADD16OC8,0.0740*%
%ADD17R,0.0220X0.0520*%
%ADD18C,0.0520*%
%ADD19OC8,0.0520*%
%ADD20R,0.0630X0.1024*%
%ADD21R,0.1024X0.0630*%
%ADD22R,0.0520X0.0220*%
%ADD23R,0.0787X0.0787*%
%ADD24R,0.0866X0.0236*%
%ADD25R,0.0580X0.0220*%
%ADD26C,0.0160*%
%ADD27C,0.0317*%
%ADD28C,0.0240*%
%ADD29C,0.0100*%
%ADD30C,0.0356*%
D10*
X000101Y000262D02*
X000101Y019632D01*
X039093Y019632D01*
X039093Y000262D01*
X000101Y000262D01*
D11*
X010411Y011160D03*
X010411Y011475D03*
X010411Y011790D03*
X010411Y012105D03*
X010411Y012420D03*
X010411Y012734D03*
X010411Y013049D03*
X010411Y013364D03*
X013791Y013364D03*
X013791Y013049D03*
X013791Y012734D03*
X013791Y012420D03*
X013791Y012105D03*
X013791Y011790D03*
X013791Y011475D03*
X013791Y011160D03*
D12*
X013203Y010572D03*
X012888Y010572D03*
X012573Y010572D03*
X012258Y010572D03*
X011943Y010572D03*
X011628Y010572D03*
X011313Y010572D03*
X010998Y010572D03*
X010998Y013952D03*
X011313Y013952D03*
X011628Y013952D03*
X011943Y013952D03*
X012258Y013952D03*
X012573Y013952D03*
X012888Y013952D03*
X013203Y013952D03*
D13*
X011225Y015887D03*
X010477Y015887D03*
X017727Y012262D03*
X018475Y012262D03*
X020727Y012137D03*
X021475Y012137D03*
X025977Y009012D03*
X026725Y009012D03*
X027852Y009012D03*
X028600Y009012D03*
X029477Y015262D03*
X030225Y015262D03*
X031477Y016637D03*
X032225Y016637D03*
X025850Y017012D03*
X025102Y017012D03*
X008350Y005762D03*
X007602Y005762D03*
X005475Y005762D03*
X004727Y005762D03*
X004850Y009262D03*
X004102Y009262D03*
X003977Y011262D03*
X004725Y011262D03*
D14*
X008601Y011136D03*
X008601Y010388D03*
X008601Y012013D03*
X008601Y012761D03*
X012351Y017138D03*
X012351Y017886D03*
X013351Y017886D03*
X013351Y017138D03*
X010601Y017388D03*
X010601Y018136D03*
X007101Y018136D03*
X007101Y017388D03*
X015726Y012386D03*
X015726Y011638D03*
X018601Y013388D03*
X018601Y014136D03*
X022601Y014136D03*
X022601Y013388D03*
X023851Y013388D03*
X023851Y014136D03*
X029226Y013261D03*
X029226Y012513D03*
X024726Y009761D03*
X024726Y009013D03*
X025601Y007261D03*
X025601Y006513D03*
X020351Y004136D03*
X019351Y004136D03*
X019351Y003388D03*
X020351Y003388D03*
X016851Y003388D03*
X015851Y003388D03*
X015851Y004136D03*
X016851Y004136D03*
X009851Y004136D03*
X008601Y004136D03*
X008601Y003388D03*
X009851Y003388D03*
X006601Y003388D03*
X006601Y004136D03*
X005101Y004136D03*
X005101Y003388D03*
X003101Y003388D03*
X002101Y003388D03*
X002101Y004136D03*
X003101Y004136D03*
X029101Y016513D03*
X029101Y017261D03*
D15*
X031226Y017962D02*
X031226Y018562D01*
X032226Y018562D02*
X032226Y017962D01*
X033226Y017962D02*
X033226Y018562D01*
X036601Y018062D02*
X036601Y017462D01*
X037601Y017462D02*
X037601Y018062D01*
X026476Y018087D02*
X026476Y018687D01*
X025476Y018687D02*
X025476Y018087D01*
X024476Y018087D02*
X024476Y018687D01*
X022351Y018687D02*
X022351Y018087D01*
X021351Y018087D02*
X021351Y018687D01*
X018101Y018062D02*
X018101Y017462D01*
X017101Y017462D02*
X017101Y018062D01*
X016101Y018062D02*
X016101Y017462D01*
X015101Y017462D02*
X015101Y018062D01*
X001901Y012512D02*
X001301Y012512D01*
X001301Y011512D02*
X001901Y011512D01*
X001901Y009137D02*
X001301Y009137D01*
X001301Y008137D02*
X001901Y008137D01*
X001901Y007137D02*
X001301Y007137D01*
X002101Y002062D02*
X002101Y001462D01*
X003101Y001462D02*
X003101Y002062D01*
X006601Y002062D02*
X006601Y001462D01*
X007601Y001462D02*
X007601Y002062D01*
X008601Y002062D02*
X008601Y001462D01*
X011801Y001762D02*
X012401Y001762D01*
X012401Y002762D02*
X011801Y002762D01*
X015851Y002062D02*
X015851Y001462D01*
X016851Y001462D02*
X016851Y002062D01*
X019351Y002062D02*
X019351Y001462D01*
X020351Y001462D02*
X020351Y002062D01*
D16*
X012226Y005012D03*
X011226Y005012D03*
X011226Y006012D03*
X012226Y006012D03*
X012226Y007012D03*
X011226Y007012D03*
D17*
X008971Y017362D03*
X008231Y017362D03*
X008601Y018162D03*
D18*
X006601Y011212D03*
X006601Y009312D03*
D19*
X032601Y009262D03*
X032601Y010762D03*
X032601Y012262D03*
X032601Y013762D03*
X032601Y015262D03*
X037601Y015262D03*
X037601Y013762D03*
X037601Y012262D03*
X037601Y010762D03*
X037601Y009262D03*
X037601Y007762D03*
X037601Y006262D03*
X037601Y004762D03*
X037601Y003262D03*
X037601Y001762D03*
X032601Y001762D03*
X032601Y003262D03*
X032601Y004762D03*
X032601Y006262D03*
X032601Y007762D03*
D20*
X003476Y015178D03*
X003476Y016596D03*
D21*
X019642Y015887D03*
X021059Y015887D03*
D22*
X021141Y014132D03*
X021141Y013762D03*
X021141Y013392D03*
X020061Y013392D03*
X020061Y013762D03*
X020061Y014132D03*
D23*
X020726Y011012D03*
X028101Y015262D03*
X030476Y009012D03*
X024851Y003637D03*
D24*
X027702Y004887D03*
X027702Y005387D03*
X027702Y005887D03*
X027702Y006387D03*
X027702Y006887D03*
X027702Y007387D03*
X027702Y007887D03*
X029749Y007887D03*
X029749Y007387D03*
X029749Y006887D03*
X029749Y006387D03*
X029749Y005887D03*
X029749Y005387D03*
X029749Y004887D03*
D25*
X024546Y005387D03*
X024546Y005887D03*
X024546Y006387D03*
X024546Y006887D03*
X022406Y006887D03*
X022406Y006387D03*
X022406Y005887D03*
X022406Y005387D03*
X026156Y011887D03*
X026156Y012387D03*
X026156Y012887D03*
X026156Y013387D03*
X028296Y013387D03*
X028296Y012887D03*
X028296Y012387D03*
X028296Y011887D03*
D26*
X029726Y011887D01*
X030601Y012762D01*
X030601Y013012D01*
X030851Y013262D01*
X030851Y014637D01*
X031226Y015012D01*
X031226Y015637D01*
X030851Y016012D01*
X030601Y016012D01*
X030101Y016512D01*
X029601Y016512D01*
X029101Y016513D01*
X027851Y015262D02*
X027476Y015637D01*
X023101Y015637D01*
X021851Y015887D02*
X021851Y014762D01*
X022101Y014762D01*
X022601Y014762D01*
X022601Y014136D01*
X022101Y014132D02*
X022101Y014762D01*
X022601Y014762D02*
X023851Y014762D01*
X023851Y014136D01*
X023852Y014137D01*
X025226Y014137D01*
X027851Y014137D01*
X028296Y013692D01*
X028296Y013387D01*
X028601Y013387D01*
X028726Y013512D01*
X028726Y013762D01*
X028851Y013887D01*
X029101Y013887D01*
X029226Y013762D01*
X029226Y013261D01*
X029851Y013137D02*
X030476Y013762D01*
X030476Y015261D01*
X030225Y015262D01*
X028101Y015262D02*
X027851Y015262D01*
X026156Y013387D02*
X024601Y013387D01*
X021601Y010387D01*
X016976Y010387D01*
X015976Y009387D02*
X012601Y009387D01*
X012258Y009730D01*
X012258Y010572D01*
X011943Y010572D02*
X011943Y009670D01*
X012476Y009137D01*
X015476Y009137D01*
X017726Y006887D01*
X022406Y006887D01*
X022406Y006387D02*
X022726Y006387D01*
X022976Y006637D01*
X022976Y009387D01*
X022101Y009887D02*
X023351Y011137D01*
X023351Y006512D01*
X022726Y005887D01*
X022406Y005887D01*
X022406Y005387D02*
X023226Y005387D01*
X024226Y006387D01*
X024546Y006387D01*
X024976Y006387D01*
X025226Y006137D01*
X025476Y006137D01*
X025476Y005762D01*
X025476Y006137D02*
X025601Y006137D01*
X025726Y006262D01*
X025601Y006513D01*
X026101Y007012D02*
X026101Y007762D01*
X025726Y007762D01*
X025601Y007637D01*
X025601Y007261D01*
X025101Y007137D02*
X025101Y007637D01*
X024601Y007637D01*
X025101Y007637D02*
X025226Y007762D01*
X025601Y007762D01*
X025601Y007637D01*
X025101Y007137D02*
X024851Y006887D01*
X024546Y006887D01*
X026101Y007012D02*
X026851Y006387D01*
X027702Y006387D01*
X027702Y006887D02*
X027226Y006887D01*
X026601Y007512D01*
X026601Y007762D01*
X026226Y008137D01*
X024101Y008137D01*
X023976Y008262D01*
X024726Y008512D02*
X024851Y008387D01*
X025476Y008387D01*
X025476Y008887D01*
X025601Y009012D01*
X025977Y009012D01*
X026725Y009012D02*
X027852Y009012D01*
X027852Y008388D01*
X027851Y008387D01*
X028351Y008387D01*
X028476Y008262D01*
X028476Y007512D01*
X028351Y007387D01*
X027702Y007387D01*
X027702Y007887D02*
X026851Y007887D01*
X026351Y008387D01*
X025476Y008387D01*
X024726Y008512D02*
X024726Y009013D01*
X022101Y009887D02*
X014101Y009887D01*
X013101Y009887D01*
X012888Y010100D01*
X012888Y010572D01*
X013203Y010572D02*
X013203Y010410D01*
X013351Y010262D01*
X013601Y010262D01*
X014476Y010762D02*
X014851Y011137D01*
X019351Y011137D01*
X019328Y011160D01*
X020725Y011013D02*
X021601Y011012D01*
X020727Y011013D02*
X020726Y011012D01*
X020727Y011013D02*
X020727Y012137D01*
X020726Y012138D01*
X020726Y012512D01*
X020976Y012762D01*
X021601Y012762D01*
X021601Y013262D01*
X021471Y013392D01*
X021141Y013392D01*
X021141Y013762D02*
X020726Y013762D01*
X020601Y013887D01*
X020601Y014387D01*
X020476Y014512D01*
X018601Y014512D01*
X018601Y014136D01*
X018601Y014512D02*
X018601Y015012D01*
X019101Y015012D01*
X018601Y015012D02*
X018601Y015637D01*
X018851Y015887D01*
X019642Y015887D01*
X021059Y015887D02*
X021059Y016678D01*
X020601Y017137D01*
X019101Y017137D01*
X018976Y017262D01*
X018976Y018887D01*
X018101Y018512D02*
X017976Y018637D01*
X016726Y018637D01*
X016601Y018512D01*
X016601Y017012D01*
X014351Y017012D01*
X013851Y017512D01*
X013351Y017138D02*
X013351Y016512D01*
X013976Y016512D01*
X014226Y016762D01*
X017101Y016762D01*
X017726Y016137D01*
X017726Y014137D01*
X018601Y013388D02*
X018601Y012262D01*
X017727Y012262D02*
X017603Y012386D01*
X015726Y012386D01*
X015692Y012420D01*
X013791Y012420D01*
X011351Y012420D01*
X011036Y012734D01*
X010411Y012734D01*
X009698Y012734D01*
X009601Y012637D01*
X009099Y012637D01*
X008975Y012761D01*
X008976Y012762D01*
X008975Y012761D02*
X008601Y012761D01*
X009351Y013012D02*
X009351Y013049D01*
X010411Y013049D01*
X010411Y013364D02*
X008851Y013364D01*
X008851Y013387D01*
X008726Y013887D02*
X008726Y014762D01*
X011628Y014762D01*
X011628Y013952D01*
X011313Y013952D02*
X011313Y014387D01*
X009101Y014387D01*
X009851Y013952D02*
X009851Y013887D01*
X009851Y013952D02*
X010998Y013952D01*
X011943Y013952D02*
X011943Y015137D01*
X011943Y015887D01*
X011225Y015887D01*
X010477Y015887D02*
X010477Y016138D01*
X010601Y016762D02*
X011226Y016762D01*
X012258Y017046D02*
X012351Y017138D01*
X012258Y017046D02*
X012258Y013952D01*
X012573Y013952D02*
X012573Y016109D01*
X012976Y016512D01*
X013351Y016512D01*
X013226Y016137D02*
X014226Y016137D01*
X014476Y016387D01*
X015851Y016387D01*
X016726Y016012D02*
X014851Y016012D01*
X014726Y015887D01*
X013476Y015887D01*
X013226Y015637D01*
X013226Y013952D01*
X013203Y013952D01*
X012888Y013952D02*
X012888Y015799D01*
X013226Y016137D01*
X011943Y015137D02*
X010601Y015137D01*
X008231Y015887D02*
X008226Y015882D01*
X008226Y013512D01*
X007976Y013262D01*
X007976Y011887D01*
X008073Y011790D01*
X008824Y011790D01*
X008601Y012013D01*
X008824Y011790D02*
X009726Y011790D01*
X009726Y012262D01*
X009883Y012420D01*
X010411Y012420D01*
X010411Y012105D02*
X011036Y012105D01*
X011351Y012420D01*
X011698Y011790D02*
X010411Y011790D01*
X009726Y011790D01*
X010411Y011475D02*
X008601Y011475D01*
X008601Y011136D01*
X006601Y011136D01*
X006601Y011212D01*
X004850Y011212D01*
X004725Y011262D01*
X003977Y011262D02*
X003476Y011262D01*
X003476Y010262D01*
X003476Y009262D01*
X004102Y009262D01*
X004850Y009262D02*
X006601Y009262D01*
X006601Y009312D01*
X008601Y009312D01*
X008601Y010012D01*
X008601Y010388D01*
X008601Y010012D02*
X009851Y010012D01*
X009851Y011160D01*
X010411Y011160D01*
X010998Y010572D02*
X010998Y009762D01*
X010476Y009762D01*
X010476Y002762D01*
X012101Y002762D01*
X014351Y001637D02*
X014351Y004137D01*
X014352Y004136D01*
X015851Y004136D01*
X015977Y003388D02*
X016601Y004012D01*
X016727Y004012D01*
X016851Y004136D01*
X016851Y006512D01*
X015726Y007637D01*
X014601Y007637D01*
X013851Y008387D01*
X012476Y008387D01*
X011313Y009549D01*
X011313Y010572D01*
X011628Y010572D02*
X011628Y009609D01*
X012601Y008637D01*
X015476Y008637D01*
X017601Y006512D01*
X017975Y006512D01*
X020351Y004136D01*
X020227Y004012D01*
X020101Y004012D01*
X019601Y003512D01*
X019475Y003512D01*
X019351Y003388D01*
X019351Y001762D01*
X020351Y001762D02*
X020351Y003388D01*
X019352Y003388D02*
X019351Y003388D01*
X018975Y004136D02*
X018351Y003512D01*
X018351Y001512D01*
X017726Y000887D01*
X015101Y000887D01*
X014351Y001637D01*
X015851Y001762D02*
X015851Y003388D01*
X015977Y003388D01*
X016851Y003388D02*
X016851Y001762D01*
X018975Y004136D02*
X019351Y004136D01*
X021726Y004887D02*
X021726Y004887D01*
X023976Y004887D01*
X024851Y004887D01*
X024851Y003637D01*
X024851Y004887D02*
X027702Y004887D01*
X027702Y005387D02*
X024546Y005387D01*
X024546Y005887D02*
X024101Y005887D01*
X023976Y005762D01*
X023976Y004887D01*
X028600Y009012D02*
X030476Y009012D01*
X031601Y009012D01*
X027601Y012387D02*
X027101Y011887D01*
X026156Y011887D01*
X026156Y012387D02*
X024601Y012387D01*
X023351Y011137D01*
X022976Y011262D02*
X024601Y012887D01*
X026156Y012887D01*
X027601Y012387D02*
X028296Y012387D01*
X029100Y012387D01*
X029226Y012513D01*
X029850Y012513D01*
X029851Y012512D01*
X029851Y013137D01*
X023851Y013388D02*
X022601Y013388D01*
X022601Y013262D01*
X021976Y013262D01*
X021976Y012137D01*
X021475Y012137D01*
X021976Y013262D02*
X021976Y013762D01*
X021141Y013762D01*
X021141Y014132D02*
X022101Y014132D01*
X020061Y014132D02*
X019356Y014132D01*
X019351Y014137D01*
X020061Y013388D02*
X018601Y013388D01*
X017101Y012887D02*
X016351Y012887D01*
X016188Y013049D01*
X013791Y013049D01*
X013791Y013364D02*
X014453Y013364D01*
X014601Y013512D01*
X014601Y014762D01*
X015476Y015637D01*
X017351Y015637D01*
X017101Y016762D02*
X017101Y017762D01*
X016101Y017762D02*
X016101Y018637D01*
X018101Y018512D02*
X018101Y017762D01*
X019601Y017512D02*
X020726Y017512D01*
X020976Y017262D01*
X024476Y017262D01*
X024726Y017012D01*
X025102Y017012D01*
X024476Y017262D02*
X024476Y018387D01*
X025850Y017012D02*
X026226Y017012D01*
X026476Y017262D01*
X026476Y018387D01*
X021851Y015887D02*
X021059Y015887D01*
X014851Y012012D02*
X014758Y012105D01*
X013791Y012105D01*
X012851Y012105D01*
X012851Y012012D01*
X012013Y011475D02*
X011698Y011790D01*
X012013Y011475D02*
X013791Y011475D01*
X015562Y011475D01*
X015726Y011638D01*
X014476Y010762D02*
X014078Y011160D01*
X013791Y011160D01*
X009851Y008637D02*
X009851Y005762D01*
X008350Y005762D01*
X007602Y005762D02*
X006601Y005762D01*
X005475Y005762D01*
X004727Y005762D02*
X004726Y005762D01*
X004726Y006762D01*
X004727Y005762D02*
X004351Y005762D01*
X004351Y004136D01*
X005101Y004136D01*
X005101Y003388D02*
X006601Y003388D01*
X006601Y001762D01*
X008601Y001762D02*
X008601Y003388D01*
X009851Y003388D01*
X009851Y004136D02*
X009851Y005762D01*
X008601Y004136D02*
X006601Y004136D01*
X006601Y005012D01*
X003101Y004512D02*
X002601Y004512D01*
X002601Y003388D01*
X002101Y003388D01*
X002101Y001762D01*
X003101Y001762D02*
X003101Y003388D01*
X003101Y004136D02*
X003101Y006012D01*
X002101Y005012D02*
X000726Y006387D01*
X000726Y011887D01*
X001351Y012512D01*
X001601Y012512D01*
X002601Y011262D02*
X002601Y008137D01*
X001601Y008137D01*
X001601Y007137D02*
X003101Y007137D01*
X003101Y011387D01*
X003601Y011887D01*
X005226Y011887D01*
X006226Y012887D01*
X006851Y012887D01*
X007726Y013762D01*
X007726Y013887D01*
X007726Y014387D02*
X007601Y014387D01*
X006476Y013262D01*
X005976Y013262D01*
X004976Y012262D01*
X003601Y012262D01*
X002601Y011262D01*
X012226Y007012D02*
X013601Y007012D01*
X014351Y006262D01*
X014351Y004137D01*
D27*
X009851Y008637D03*
X010976Y008887D03*
X013601Y010262D03*
X014101Y009887D03*
X014476Y010762D03*
X012851Y012012D03*
X009851Y013887D03*
X009101Y014387D03*
X008726Y013887D03*
X008851Y013387D03*
X009351Y013012D03*
X007726Y013887D03*
X007726Y014387D03*
X010601Y015137D03*
X011226Y016762D03*
X015851Y016387D03*
X016726Y016012D03*
X017351Y015637D03*
X019101Y015012D03*
X017101Y012887D03*
X016726Y012387D03*
X019351Y011137D03*
X021601Y011012D03*
X022976Y011262D03*
X025726Y009762D03*
X023976Y008262D03*
X024601Y007637D03*
X022976Y009387D03*
X025476Y005762D03*
X021726Y004887D03*
X015976Y009387D03*
X016976Y010387D03*
X025226Y014137D03*
X023101Y015637D03*
X019601Y017512D03*
X030851Y015262D03*
X031601Y014512D03*
X034851Y017512D03*
X031601Y009012D03*
X006601Y005762D03*
X006601Y005012D03*
X004726Y006762D03*
X003101Y006012D03*
X002101Y005012D03*
X003476Y010262D03*
X003476Y014262D03*
X004601Y017387D03*
X006101Y018137D03*
D28*
X007101Y018136D01*
X008601Y018136D01*
X008601Y018162D01*
X010601Y018162D01*
X010601Y018136D01*
X010601Y017388D02*
X010601Y016762D01*
X008971Y016762D01*
X008971Y017362D01*
X008231Y017362D02*
X008231Y016762D01*
X008231Y016262D01*
X008231Y015887D01*
X010477Y015887D01*
X010477Y016138D02*
X010726Y016387D01*
X011476Y016387D01*
X011726Y016637D01*
X011726Y018387D01*
X012351Y018387D01*
X013226Y018387D01*
X013476Y018637D01*
X016101Y018637D01*
X016476Y019012D01*
X018851Y019012D01*
X018976Y018887D01*
X019476Y018387D01*
X021351Y018387D01*
X028101Y017261D02*
X028101Y015262D01*
X029477Y015262D01*
X030476Y017262D02*
X031477Y016637D01*
X032225Y016637D02*
X032225Y018261D01*
X032226Y018262D01*
X030476Y017262D02*
X029101Y017261D01*
X028101Y017261D01*
X032225Y016637D02*
X033976Y016637D01*
X034851Y017512D01*
X020061Y013392D02*
X020061Y013388D01*
X018601Y012262D02*
X018475Y012262D01*
X013351Y017886D02*
X013351Y018262D01*
X013226Y018387D01*
X012351Y018387D02*
X012351Y017886D01*
X008231Y016762D02*
X007101Y016762D01*
X007101Y017388D01*
X008231Y016262D02*
X004601Y016262D01*
X004601Y017387D01*
X003476Y017387D01*
X003476Y016596D01*
X003476Y015178D02*
X003476Y014262D01*
X002101Y005012D02*
X002101Y004136D01*
X003101Y004136D02*
X003101Y004512D01*
D29*
X010726Y005012D02*
X010726Y008387D01*
X010976Y008387D01*
X010976Y008887D01*
X014851Y012012D02*
X016851Y012012D01*
X017226Y011637D01*
X018101Y011637D01*
X018476Y012012D01*
X018476Y012261D01*
X018475Y012262D01*
X017603Y012386D02*
X016727Y012386D01*
X016726Y012387D01*
X018226Y013762D02*
X020061Y013762D01*
X018226Y013762D02*
X018101Y013887D01*
X018101Y017762D01*
X013851Y017512D02*
X012725Y017512D01*
X012351Y017138D01*
X024726Y009761D02*
X024727Y009762D01*
X025726Y009762D01*
X030476Y009012D02*
X030476Y005637D01*
X029101Y005637D01*
X028851Y005887D01*
X027702Y005887D01*
X028976Y006137D02*
X025851Y006137D01*
X025726Y006262D01*
X028976Y006137D02*
X029226Y006387D01*
X029749Y006387D01*
X031601Y014512D02*
X031851Y014762D01*
X031851Y017262D01*
X031226Y017887D01*
X031226Y018262D01*
X030851Y015262D02*
X030225Y015262D01*
X011226Y005012D02*
X010726Y005012D01*
D30*
X017726Y014137D03*
X019351Y014137D03*
M02*
